<svg width="764" height="526" viewBox="0 0 764 526" fill="none" xmlns="http://www.w3.org/2000/svg">
<rect x="2.37598" y="0.499023" width="761" height="525" fill="white" stroke="#E1E1E1"/>
<path d="M0.875977 -0.000976562H761.876V381.999H0.875977V-0.000976562Z" fill="#FBBD19"/>
<rect x="1.87598" y="231.999" width="760" height="150" fill="#0E7139"/>
<path d="M410.299 47.999H39.4395C31.3926 47.999 24.876 54.4266 24.876 62.3486V283.603C24.876 291.532 31.3994 297.953 39.4395 297.953H410.299C418.346 297.953 424.863 291.525 424.863 283.603V62.3486C424.869 54.4266 418.346 47.999 410.299 47.999Z" fill="#14713A"/>
<path d="M174.451 207.101C168.558 209.098 162.806 210.969 157.223 212.748C165.41 225.788 173.625 240.885 181.96 258.217C203.557 243.708 222.181 225.219 236.738 203.821C228.926 201.658 220.678 200.475 211.92 200.475C200.034 200.475 187.43 202.703 174.451 207.101Z" fill="#60917C"/>
<path d="M118.747 166.4C127.217 173.283 135.633 182.303 144.102 193.565C147.867 198.57 151.626 203.999 155.391 209.858C161.196 208.013 167.203 206.063 173.364 203.973C186.967 199.357 200.135 197.023 212.484 197.023C221.806 197.023 230.551 198.332 238.819 200.719C254.671 176.471 265.362 148.658 269.362 118.795C251.181 102.197 236.591 78.7217 225.242 47.999H146.492C154.116 61.0988 158.478 76.2617 158.478 92.4166C158.478 123.119 142.713 150.258 118.747 166.4Z" fill="#60917C"/>
<path d="M135.008 219.665C103.424 229.353 80.6128 236.355 66.4251 248.172C53.9622 258.554 49.0831 272.454 51.224 292.319C56.6199 292.742 62.0762 292.967 67.5795 292.967C108.733 292.967 147.061 280.859 179.115 260.088C170.625 242.452 162.222 227.045 153.86 213.819C147.256 215.902 140.934 217.846 135.008 219.665Z" fill="#60917C"/>
<path d="M269.838 114.893C270.677 107.513 271.127 100.015 271.127 92.4166C271.127 77.1544 269.382 62.2957 266.087 47.999H228.799C240.336 78.8142 254.47 100.16 269.838 114.893Z" fill="#60917C"/>
<path d="M63.9559 245.851C78.7409 233.465 103.13 225.98 134.008 216.51C139.679 214.771 145.72 212.92 152.021 210.936C139.847 192.136 127.78 177.978 115.734 168.35C101.767 176.98 85.2575 181.979 67.5934 181.979C52.1641 181.979 37.6274 178.17 24.8894 171.458L24.876 284.999C32.3792 286.586 40.0435 291.28 47.8219 292.021C45.681 271.356 50.8621 256.815 63.9559 245.851Z" fill="#60917C"/>
<path d="M424.869 221.093V165.104C411.655 168.119 399.064 172.741 387.319 178.746C396.232 199.714 407.534 214.467 424.869 221.093Z" fill="#60917C"/>
<path d="M332.508 286.083L332.428 285.977C325.689 277.427 318.904 268.81 311.925 260.518C307.099 272.361 303.683 284.906 301.871 297.959H341.911C338.743 293.992 335.589 289.998 332.508 286.083Z" fill="#60917C"/>
<path d="M394.762 199.88C391.051 194.332 387.641 187.937 384.366 180.28C352.81 197.235 327.663 224.301 313.381 257.053C320.77 265.789 327.944 274.888 335.058 283.927L335.119 284C338.743 288.603 342.454 293.317 346.179 297.953H405.218C416.07 297.953 424.869 289.284 424.869 278.591V224.644C412.836 220.346 403.01 212.206 394.762 199.88Z" fill="#60917C"/>
<path d="M372.287 144.657L372.737 146.251L371.065 146.337C366.576 146.561 362.415 146.674 358.348 146.674C358.348 146.674 358.348 146.674 358.341 146.674C330.348 146.674 298.026 141.919 269.846 114.9C269.698 116.202 269.544 117.505 269.369 118.808C280.845 129.289 293.751 137.046 308.174 142.157C322.979 147.401 339.502 149.954 358.696 149.954C363.133 149.954 367.69 149.821 372.609 149.557L373.676 149.497L373.971 150.509C377.428 162.26 380.824 172.007 384.374 180.293C385.347 179.77 386.334 179.255 387.32 178.752C383.77 170.4 380.589 161.063 377.562 150.86L377.099 149.292L378.757 149.173C388.099 148.499 397.219 147.481 406.065 146.489C412.561 145.761 418.87 145.06 424.877 144.545V141.225C418.742 141.747 412.3 142.462 405.669 143.209C396.474 144.234 386.971 145.298 377.26 145.973L376.166 146.046L375.871 145.007C373.166 135.498 370.582 125.487 367.837 114.88C362.488 94.1887 356.495 71.0509 348.468 48.0122H344.918C353.046 71.0906 358.905 93.7259 364.589 115.706C367.213 125.87 369.696 135.485 372.287 144.657Z" fill="#51846D"/>
<path d="M269.362 118.801C269.537 117.505 269.691 116.202 269.839 114.893C254.47 100.16 240.336 78.8142 228.799 47.999H225.235C236.591 78.7217 251.181 102.197 269.362 118.801Z" fill="#51846D"/>
<path d="M424.869 224.651V221.093C407.534 214.474 396.239 199.715 387.319 178.746C386.333 179.248 385.346 179.764 384.373 180.286C387.648 187.937 391.057 194.338 394.769 199.886C403.01 212.206 412.836 220.346 424.869 224.651Z" fill="#51846D"/>
<path d="M93.9352 152.354C87.8883 150.377 81.6468 149.372 75.3785 149.372C57.7345 149.372 41.0368 157.162 24.876 166.347V170.169C41.1374 160.819 57.9157 152.718 75.5396 152.718C81.4388 152.718 87.2709 153.65 92.8748 155.482C100.499 157.975 108.103 162.254 115.72 168.337C116.74 167.709 117.747 167.061 118.74 166.393C110.573 159.754 102.338 155.105 93.9352 152.354Z" fill="#51846D"/>
<path d="M179.121 260.088C184.725 271.733 190.363 284.363 196.04 297.959H199.671C193.691 283.583 187.806 270.351 181.967 258.217C181.02 258.852 180.074 259.467 179.121 260.088Z" fill="#51846D"/>
<path d="M153.867 213.819C162.223 227.038 170.632 242.446 179.122 260.088C180.075 259.473 181.028 258.852 181.967 258.217C173.639 240.892 165.424 225.788 157.23 212.748C156.102 213.112 154.975 213.469 153.867 213.819Z" fill="#51846D"/>
<path d="M144.102 193.564C135.632 182.296 127.216 173.283 118.747 166.399C117.753 167.067 116.747 167.715 115.727 168.344C127.773 177.972 139.847 192.129 152.015 210.929C153.129 210.579 154.256 210.222 155.39 209.858C151.625 204.006 147.867 198.577 144.102 193.564Z" fill="#51846D"/>
<path d="M238.819 200.726C238.141 201.764 237.443 202.796 236.745 203.827C266.691 212.107 290.254 234.775 311.925 260.518C312.395 259.361 312.885 258.204 313.381 257.06C291.838 231.607 268.409 209.27 238.819 200.726Z" fill="#51846D"/>
<path d="M66.4327 248.172C80.6136 236.356 103.432 229.353 135.015 219.665C140.941 217.847 147.264 215.909 153.867 213.819C153.25 212.841 152.633 211.882 152.015 210.93C145.713 212.913 139.673 214.765 134.002 216.504C103.13 225.98 78.7412 233.459 63.9495 245.845C50.8625 256.809 45.6746 271.35 47.8021 292.008C48.943 292.114 50.0772 292.22 51.2249 292.306C49.0907 272.454 53.9631 258.554 66.4327 248.172Z" fill="#51846D"/>
<path d="M212.484 197.03C200.135 197.03 186.967 199.371 173.363 203.98C167.203 206.069 161.203 208.02 155.391 209.865C156.001 210.817 156.612 211.783 157.23 212.755C162.807 210.976 168.565 209.105 174.457 207.108C187.43 202.71 200.041 200.482 211.927 200.482C220.692 200.482 228.933 201.672 236.745 203.828C237.443 202.803 238.134 201.771 238.819 200.726C230.55 198.339 221.799 197.03 212.484 197.03Z" fill="#51846D"/>
<path d="M335.06 283.934C327.939 274.894 320.771 265.795 313.382 257.06C312.886 258.204 312.396 259.361 311.926 260.518C318.906 268.81 325.691 277.427 332.429 285.977L332.509 286.083C335.597 289.997 338.744 293.992 341.912 297.959H346.18C342.455 293.317 338.744 288.609 335.12 284.006L335.06 283.934Z" fill="#51846D"/>
<path d="M155.391 209.858C154.257 210.215 153.13 210.579 152.016 210.93C152.633 211.882 153.251 212.841 153.868 213.819C154.975 213.469 156.11 213.112 157.23 212.748C156.62 211.776 156.002 210.811 155.391 209.858Z" fill="#51846D"/>
<path d="M105.476 157.999H102.122V186.374H105.476V157.999Z" fill="white"/>
<path d="M108.831 157.999H107.154V186.374H108.831V157.999Z" fill="white"/>
<path d="M113.863 157.999H112.186V186.374H113.863V157.999Z" fill="white"/>
<path d="M122.255 157.999H120.578V186.374H122.255V157.999Z" fill="white"/>
<path d="M130.641 157.999H128.964V186.374H130.641V157.999Z" fill="white"/>
<path d="M137.357 157.999H134.003V186.374H137.357V157.999Z" fill="white"/>
<path d="M140.711 157.999H139.034V186.374H140.711V157.999Z" fill="white"/>
<path d="M145.742 157.999H142.388V186.374H145.742V157.999Z" fill="white"/>
<path d="M150.774 157.999H149.097V186.374H150.774V157.999Z" fill="white"/>
<path d="M159.167 157.999H157.49V186.374H159.167V157.999Z" fill="white"/>
<path d="M167.561 157.999H160.852V186.374H167.561V157.999Z" fill="white"/>
<path d="M172.592 157.999H170.915V186.374H172.592V157.999Z" fill="white"/>
<path d="M177.623 157.999H175.946V186.374H177.623V157.999Z" fill="white"/>
<path d="M184.339 157.999H180.985V186.374H184.339V157.999Z" fill="white"/>
<path d="M192.725 157.999H191.048V186.374H192.725V157.999Z" fill="white"/>
<path d="M196.087 157.999H194.41V186.374H196.087V157.999Z" fill="white"/>
<path d="M206.15 157.999H202.795V186.374H206.15V157.999Z" fill="white"/>
<path d="M209.504 157.999H207.827V186.374H209.504V157.999Z" fill="white"/>
<path d="M216.22 157.999H212.866V186.374H216.22V157.999Z" fill="white"/>
<path d="M221.251 157.999H217.897V186.374H221.251V157.999Z" fill="white"/>
<path d="M227.967 157.999H224.613V186.374H227.967V157.999Z" fill="white"/>
<path d="M232.999 157.999H231.322V186.374H232.999V157.999Z" fill="white"/>
<path d="M238.03 157.999H234.676V186.374H238.03V157.999Z" fill="white"/>
<path d="M246.416 157.999H244.739V186.374H246.416V157.999Z" fill="white"/>
<path d="M251.455 157.999H249.778V186.374H251.455V157.999Z" fill="white"/>
<path d="M256.486 157.999H254.808V186.374H256.486V157.999Z" fill="white"/>
<path d="M266.557 157.999H259.848V186.374H266.557V157.999Z" fill="white"/>
<path d="M269.91 157.999H268.233V186.374H269.91V157.999Z" fill="white"/>
<path d="M274.942 157.999H271.588V186.374H274.942V157.999Z" fill="white"/>
<path d="M279.981 157.999H278.304V186.374H279.981V157.999Z" fill="white"/>
<path d="M288.367 157.999H286.69V186.374H288.367V157.999Z" fill="white"/>
<path d="M296.76 157.999H290.052V186.374H296.76V157.999Z" fill="white"/>
<path d="M301.792 157.999H300.114V186.374H301.792V157.999Z" fill="white"/>
<path d="M306.823 157.999H305.146V186.374H306.823V157.999Z" fill="white"/>
<path d="M313.539 157.999H310.185V186.374H313.539V157.999Z" fill="white"/>
<path d="M321.924 157.999H320.247V186.374H321.924V157.999Z" fill="white"/>
<path d="M325.279 157.999H323.602V186.374H325.279V157.999Z" fill="white"/>
<path d="M330.317 157.999H326.963V186.374H330.317V157.999Z" fill="white"/>
<path d="M335.35 157.999H333.673V186.374H335.35V157.999Z" fill="white"/>
<path d="M345.42 157.999H342.065V186.374H345.42V157.999Z" fill="white"/>
<path d="M355.483 157.999H350.451V186.374H355.483V157.999Z" fill="white"/>
<path d="M358.837 157.999H357.159V186.374H358.837V157.999Z" fill="white"/>
<path d="M363.876 157.999H360.522V186.374H363.876V157.999Z" fill="white"/>
<path d="M103.061 205.253L110.646 191.777L110.823 192.279H100.876V190.712H112.416V192.174L105.084 205.26L103.061 205.253ZM121.078 205.419C119.994 205.419 119.086 205.287 118.34 205.029C117.593 204.751 116.993 204.394 116.539 203.957C116.085 203.508 115.747 203.018 115.524 202.496C115.324 201.974 115.216 201.451 115.216 200.929C115.216 200.261 115.362 199.699 115.647 199.249C115.955 198.786 116.293 198.423 116.662 198.158C117.055 197.88 117.393 197.689 117.678 197.57C117.986 197.45 118.132 197.398 118.132 197.398C118.132 197.398 118.016 197.345 117.778 197.245C117.555 197.126 117.293 196.948 116.993 196.703C116.686 196.459 116.416 196.135 116.178 195.744C115.955 195.334 115.847 194.852 115.847 194.283C115.847 193.675 116.016 193.079 116.355 192.498C116.693 191.916 117.239 191.446 118.001 191.082C118.778 190.706 119.801 190.514 121.071 190.514C122.355 190.514 123.379 190.706 124.14 191.082C124.902 191.446 125.448 191.916 125.787 192.498C126.125 193.079 126.294 193.675 126.294 194.283C126.294 194.865 126.187 195.361 125.964 195.764C125.74 196.154 125.479 196.478 125.179 196.723C124.894 196.955 124.64 197.12 124.417 197.226C124.194 197.325 124.086 197.378 124.086 197.378C124.086 197.378 124.233 197.444 124.517 197.576C124.802 197.695 125.133 197.887 125.51 198.165C125.879 198.442 126.21 198.806 126.502 199.256C126.787 199.705 126.933 200.268 126.933 200.935C126.933 201.458 126.833 201.98 126.625 202.503C126.425 203.025 126.094 203.514 125.633 203.964C125.179 204.4 124.563 204.758 123.809 205.035C123.071 205.287 122.155 205.419 121.078 205.419ZM121.078 203.938C122.025 203.938 122.771 203.819 123.309 203.587C123.848 203.342 124.248 203.045 124.502 202.694C124.756 202.344 124.917 202.013 124.986 201.689C125.071 201.352 125.11 201.101 125.11 200.929C125.11 200.347 124.948 199.858 124.625 199.467C124.317 199.057 123.871 198.753 123.279 198.548C122.686 198.33 121.948 198.224 121.071 198.224C120.209 198.224 119.47 198.33 118.863 198.548C118.27 198.753 117.816 199.057 117.493 199.467C117.186 199.858 117.039 200.347 117.039 200.929C117.039 201.101 117.07 201.359 117.139 201.689C117.224 202.007 117.393 202.344 117.647 202.694C117.916 203.045 118.324 203.342 118.863 203.587C119.409 203.819 120.147 203.938 121.078 203.938ZM121.078 196.783C121.786 196.783 122.394 196.683 122.902 196.478C123.409 196.273 123.802 195.989 124.071 195.625C124.34 195.248 124.479 194.799 124.479 194.276C124.479 193.648 124.302 193.185 123.948 192.881C123.594 192.564 123.155 192.345 122.632 192.226C122.125 192.107 121.609 192.055 121.086 192.055C120.578 192.055 120.063 192.114 119.54 192.226C119.017 192.345 118.578 192.564 118.224 192.881C117.87 193.185 117.693 193.655 117.693 194.276C117.693 194.799 117.832 195.248 118.101 195.625C118.37 195.989 118.763 196.273 119.27 196.478C119.755 196.683 120.363 196.783 121.078 196.783ZM135.842 205.419C133.934 205.419 132.495 204.85 131.526 203.719C130.564 202.569 130.079 200.863 130.079 198.594C130.079 197.14 130.264 195.93 130.641 194.951C131.033 193.966 131.526 193.179 132.141 192.597C132.749 192.002 133.403 191.559 134.095 191.268C134.788 190.963 135.465 190.758 136.126 190.659C136.788 190.56 137.342 190.507 137.803 190.507C138.28 190.507 138.719 190.534 139.119 190.593C139.542 190.639 139.919 190.699 140.257 190.791V192.253C139.934 192.18 139.588 192.121 139.219 192.081C138.85 192.021 138.442 191.995 138.003 191.995C137.719 191.995 137.319 192.041 136.811 192.127C136.319 192.213 135.795 192.372 135.242 192.61C134.68 192.841 134.149 193.185 133.641 193.635C133.134 194.085 132.718 194.673 132.395 195.401C132.072 196.115 131.91 197.007 131.91 198.085C131.91 199.335 132.003 200.353 132.187 201.14C132.387 201.914 132.672 202.503 133.026 202.906C133.395 203.316 133.818 203.587 134.295 203.733C134.772 203.878 135.288 203.951 135.842 203.951C136.757 203.951 137.473 203.812 137.996 203.534C138.534 203.256 138.927 202.926 139.165 202.529C139.419 202.139 139.58 201.749 139.65 201.372C139.734 200.995 139.773 200.704 139.773 200.499C139.773 199.514 139.434 198.747 138.757 198.211C138.08 197.675 137.111 197.404 135.842 197.404C135.08 197.404 134.403 197.503 133.811 197.708C133.234 197.9 132.757 198.105 132.364 198.343C131.995 198.575 131.733 198.76 131.58 198.885L131.603 197.14C131.757 197.054 131.964 196.941 132.241 196.816C132.526 196.67 132.857 196.531 133.234 196.399C133.603 196.267 134.011 196.161 134.449 196.075C134.888 195.989 135.357 195.943 135.842 195.943C137.619 195.943 139.019 196.359 140.05 197.186C141.081 197.999 141.596 199.11 141.596 200.525C141.596 201.094 141.496 201.669 141.288 202.251C141.088 202.82 140.758 203.349 140.296 203.845C139.842 204.328 139.25 204.711 138.519 205.002C137.803 205.28 136.911 205.419 135.842 205.419ZM147.181 205.253L154.767 191.777L154.944 192.279H144.997V190.712H156.536V192.174L149.205 205.26L147.181 205.253ZM165.991 205.485C163.791 205.485 162.129 204.857 160.991 203.607C159.875 202.357 159.314 200.499 159.314 198.026C159.314 195.553 159.875 193.694 160.991 192.445C162.122 191.195 163.791 190.567 165.991 190.567C168.207 190.567 169.876 191.195 170.992 192.445C172.107 193.694 172.669 195.553 172.669 198.026C172.669 200.499 172.107 202.357 170.992 203.607C169.869 204.857 168.207 205.485 165.991 205.485ZM165.991 204.05C166.553 204.05 167.114 203.984 167.691 203.852C168.268 203.719 168.792 203.455 169.261 203.045C169.738 202.635 170.115 202.033 170.399 201.233C170.684 200.433 170.83 199.362 170.83 198.026C170.83 196.69 170.684 195.619 170.399 194.819C170.115 194.018 169.73 193.423 169.261 193.033C168.784 192.623 168.261 192.359 167.691 192.226C167.114 192.081 166.553 192.008 165.991 192.008C165.43 192.008 164.868 192.081 164.291 192.226C163.714 192.359 163.191 192.623 162.722 193.033C162.245 193.423 161.868 194.018 161.583 194.819C161.298 195.619 161.152 196.69 161.152 198.026C161.152 199.362 161.298 200.433 161.583 201.233C161.868 202.033 162.252 202.635 162.722 203.045C163.199 203.455 163.722 203.719 164.291 203.852C164.86 203.984 165.43 204.05 165.991 204.05ZM182.385 205.485C180.185 205.485 178.524 204.857 177.385 203.607C176.269 202.357 175.708 200.499 175.708 198.026C175.708 195.553 176.269 193.694 177.385 192.445C178.516 191.195 180.185 190.567 182.385 190.567C184.601 190.567 186.271 191.195 187.386 192.445C188.502 193.694 189.063 195.553 189.063 198.026C189.063 200.499 188.502 202.357 187.386 203.607C186.271 204.857 184.601 205.485 182.385 205.485ZM182.385 204.05C182.947 204.05 183.509 203.984 184.086 203.852C184.663 203.719 185.186 203.455 185.655 203.045C186.132 202.635 186.509 202.033 186.794 201.233C187.078 200.433 187.225 199.362 187.225 198.026C187.225 196.69 187.078 195.619 186.794 194.819C186.509 194.018 186.124 193.423 185.655 193.033C185.178 192.623 184.655 192.359 184.086 192.226C183.509 192.081 182.947 192.008 182.385 192.008C181.824 192.008 181.262 192.081 180.685 192.226C180.108 192.359 179.585 192.623 179.116 193.033C178.639 193.423 178.262 194.018 177.977 194.819C177.693 195.619 177.546 196.69 177.546 198.026C177.546 199.362 177.693 200.433 177.977 201.233C178.262 202.033 178.647 202.635 179.116 203.045C179.593 203.455 180.116 203.719 180.685 203.852C181.262 203.984 181.832 204.05 182.385 204.05ZM198.787 205.485C196.587 205.485 194.925 204.857 193.787 203.607C192.671 202.357 192.11 200.499 192.11 198.026C192.11 195.553 192.671 193.694 193.787 192.445C194.918 191.195 196.587 190.567 198.787 190.567C201.003 190.567 202.672 191.195 203.788 192.445C204.904 193.694 205.465 195.553 205.465 198.026C205.465 200.499 204.904 202.357 203.788 203.607C202.672 204.857 201.003 205.485 198.787 205.485ZM198.787 204.05C199.349 204.05 199.911 203.984 200.488 203.852C201.065 203.719 201.588 203.455 202.057 203.045C202.534 202.635 202.911 202.033 203.196 201.233C203.48 200.433 203.626 199.362 203.626 198.026C203.626 196.69 203.48 195.619 203.196 194.819C202.911 194.018 202.526 193.423 202.057 193.033C201.58 192.623 201.057 192.359 200.488 192.226C199.911 192.081 199.349 192.008 198.787 192.008C198.226 192.008 197.664 192.081 197.087 192.226C196.51 192.359 195.987 192.623 195.518 193.033C195.041 193.423 194.664 194.018 194.379 194.819C194.095 195.619 193.948 196.69 193.948 198.026C193.948 199.362 194.095 200.433 194.379 201.233C194.664 202.033 195.049 202.635 195.518 203.045C195.995 203.455 196.518 203.719 197.087 203.852C197.664 203.984 198.233 204.05 198.787 204.05ZM215.189 205.485C212.989 205.485 211.327 204.857 210.189 203.607C209.073 202.357 208.512 200.499 208.512 198.026C208.512 195.553 209.073 193.694 210.189 192.445C211.32 191.195 212.989 190.567 215.189 190.567C217.405 190.567 219.074 191.195 220.19 192.445C221.305 193.694 221.867 195.553 221.867 198.026C221.867 200.499 221.305 202.357 220.19 203.607C219.074 204.857 217.405 205.485 215.189 205.485ZM215.189 204.05C215.751 204.05 216.313 203.984 216.89 203.852C217.467 203.719 217.99 203.455 218.459 203.045C218.936 202.635 219.313 202.033 219.598 201.233C219.882 200.433 220.028 199.362 220.028 198.026C220.028 196.69 219.882 195.619 219.598 194.819C219.313 194.018 218.928 193.423 218.459 193.033C217.982 192.623 217.459 192.359 216.89 192.226C216.313 192.081 215.751 192.008 215.189 192.008C214.628 192.008 214.066 192.081 213.489 192.226C212.912 192.359 212.389 192.623 211.92 193.033C211.443 193.423 211.066 194.018 210.781 194.819C210.496 195.619 210.35 196.69 210.35 198.026C210.35 199.362 210.496 200.433 210.781 201.233C211.066 202.033 211.45 202.635 211.92 203.045C212.397 203.455 212.92 203.719 213.489 203.852C214.066 203.984 214.635 204.05 215.189 204.05ZM230.807 205.419C228.899 205.419 227.46 204.85 226.491 203.719C225.529 202.569 225.044 200.863 225.044 198.594C225.044 197.14 225.229 195.93 225.606 194.951C225.998 193.966 226.491 193.179 227.106 192.597C227.714 192.002 228.368 191.559 229.06 191.268C229.753 190.963 230.43 190.758 231.091 190.659C231.753 190.56 232.307 190.507 232.768 190.507C233.245 190.507 233.684 190.534 234.084 190.593C234.507 190.639 234.884 190.699 235.222 190.791V192.253C234.899 192.18 234.553 192.121 234.184 192.081C233.815 192.021 233.407 191.995 232.968 191.995C232.684 191.995 232.284 192.041 231.776 192.127C231.284 192.213 230.76 192.372 230.206 192.61C229.645 192.841 229.114 193.185 228.606 193.635C228.099 194.085 227.683 194.673 227.36 195.401C227.037 196.115 226.875 197.007 226.875 198.085C226.875 199.335 226.968 200.353 227.152 201.14C227.352 201.914 227.637 202.503 227.991 202.906C228.36 203.316 228.783 203.587 229.26 203.733C229.737 203.878 230.253 203.951 230.807 203.951C231.722 203.951 232.438 203.812 232.961 203.534C233.499 203.256 233.892 202.926 234.13 202.529C234.384 202.139 234.545 201.749 234.615 201.372C234.699 200.995 234.738 200.704 234.738 200.499C234.738 199.514 234.399 198.747 233.722 198.211C233.045 197.675 232.076 197.404 230.807 197.404C230.045 197.404 229.368 197.503 228.776 197.708C228.199 197.9 227.722 198.105 227.329 198.343C226.96 198.575 226.698 198.76 226.545 198.885L226.568 197.14C226.721 197.054 226.929 196.941 227.198 196.816C227.483 196.67 227.814 196.531 228.191 196.399C228.568 196.267 228.968 196.161 229.406 196.075C229.845 195.989 230.314 195.943 230.799 195.943C232.576 195.943 233.976 196.359 235.007 197.186C236.038 197.999 236.553 199.11 236.553 200.525C236.553 201.094 236.453 201.669 236.246 202.251C236.046 202.82 235.715 203.349 235.253 203.845C234.799 204.328 234.207 204.711 233.476 205.002C232.768 205.28 231.868 205.419 230.807 205.419ZM244.762 205.419C243.831 205.419 242.985 205.333 242.223 205.154C241.477 204.963 240.823 204.744 240.246 204.5V202.886C240.769 203.131 241.385 203.356 242.1 203.561C242.831 203.752 243.639 203.845 244.539 203.845C246.047 203.845 247.193 203.607 247.985 203.124C248.778 202.641 249.178 201.954 249.178 201.054C249.178 200.155 248.77 199.461 247.962 198.985C247.155 198.509 245.978 198.264 244.439 198.264H242.585V196.756H244.516C245.747 196.756 246.693 196.558 247.332 196.168C247.993 195.758 248.324 195.182 248.324 194.422C248.324 193.913 248.17 193.483 247.87 193.132C247.57 192.782 247.108 192.524 246.501 192.345C245.908 192.154 245.185 192.061 244.316 192.061C243.554 192.061 242.869 192.14 242.262 192.299C241.654 192.445 241.123 192.617 240.662 192.822V191.228C241.169 191.023 241.746 190.851 242.385 190.706C243.031 190.56 243.739 190.487 244.516 190.487C245.562 190.487 246.447 190.606 247.155 190.838C247.885 191.056 248.462 191.354 248.909 191.73C249.355 192.107 249.663 192.531 249.847 192.994C250.047 193.456 250.155 193.933 250.155 194.409C250.155 194.944 250.047 195.407 249.824 195.784C249.601 196.161 249.347 196.465 249.063 196.703C248.778 196.935 248.524 197.1 248.301 197.206C248.078 197.305 247.97 197.358 247.97 197.358C247.97 197.358 248.124 197.431 248.424 197.576C248.732 197.708 249.086 197.927 249.493 198.231C249.901 198.522 250.255 198.905 250.563 199.388C250.87 199.851 251.017 200.42 251.017 201.087C251.017 201.61 250.909 202.126 250.686 202.635C250.463 203.144 250.109 203.607 249.616 204.03C249.124 204.453 248.486 204.784 247.685 205.035C246.885 205.293 245.908 205.419 244.762 205.419ZM260.441 205.419C259.31 205.419 258.341 205.333 257.548 205.154C256.771 204.963 256.117 204.758 255.594 204.519V202.886C255.833 203.005 256.156 203.137 256.556 203.303C256.979 203.461 257.502 203.6 258.125 203.719C258.748 203.838 259.479 203.891 260.31 203.891C261.172 203.891 261.849 203.799 262.341 203.607C262.849 203.402 263.218 203.151 263.457 202.846C263.695 202.529 263.849 202.192 263.91 201.841C263.98 201.478 264.01 201.127 264.01 200.797C264.01 199.877 263.826 199.209 263.449 198.793C263.095 198.356 262.626 198.072 262.056 197.94C261.495 197.808 260.918 197.741 260.302 197.741C259.402 197.741 258.664 197.801 258.071 197.913C257.479 198.013 257.04 198.125 256.756 198.237C256.471 198.356 256.325 198.409 256.325 198.409L255.186 197.404L256.048 190.686H264.749V192.233H257.617L257.133 196.921L255.332 197.186C255.979 196.849 256.756 196.597 257.664 196.426C258.579 196.254 259.502 196.161 260.425 196.161C261.033 196.161 261.649 196.227 262.279 196.359C262.926 196.492 263.503 196.723 264.034 197.06C264.572 197.378 265.003 197.847 265.326 198.456C265.649 199.051 265.811 199.831 265.811 200.79C265.811 201.749 265.649 202.536 265.326 203.144C265.003 203.739 264.572 204.202 264.034 204.539C263.51 204.857 262.926 205.082 262.279 205.214C261.664 205.353 261.049 205.419 260.441 205.419ZM271.311 205.253L278.897 191.777L279.074 192.279H269.126V190.712H280.666V192.174L273.335 205.26L271.311 205.253ZM289.329 205.419C288.244 205.419 287.336 205.287 286.59 205.029C285.844 204.751 285.244 204.394 284.79 203.957C284.336 203.508 283.997 203.018 283.774 202.496C283.574 201.974 283.467 201.451 283.467 200.929C283.467 200.261 283.613 199.699 283.897 199.249C284.205 198.786 284.544 198.423 284.913 198.158C285.305 197.88 285.644 197.689 285.928 197.57C286.236 197.45 286.382 197.398 286.382 197.398C286.382 197.398 286.267 197.345 286.028 197.245C285.805 197.126 285.544 196.948 285.244 196.703C284.936 196.459 284.667 196.135 284.428 195.744C284.205 195.334 284.097 194.852 284.097 194.283C284.097 193.675 284.267 193.079 284.605 192.498C284.944 191.916 285.49 191.446 286.251 191.082C287.028 190.706 288.052 190.514 289.321 190.514C290.606 190.514 291.629 190.706 292.391 191.082C293.152 191.446 293.699 191.916 294.037 192.498C294.376 193.079 294.545 193.675 294.545 194.283C294.545 194.865 294.437 195.361 294.214 195.764C293.991 196.154 293.729 196.478 293.429 196.723C293.145 196.955 292.891 197.12 292.668 197.226C292.445 197.325 292.337 197.378 292.337 197.378C292.337 197.378 292.483 197.444 292.768 197.576C293.052 197.695 293.383 197.887 293.76 198.165C294.129 198.442 294.46 198.806 294.752 199.256C295.037 199.705 295.183 200.268 295.183 200.935C295.183 201.458 295.083 201.98 294.876 202.503C294.676 203.025 294.345 203.514 293.883 203.964C293.429 204.4 292.814 204.758 292.06 205.035C291.321 205.287 290.406 205.419 289.329 205.419ZM289.329 203.938C290.275 203.938 291.021 203.819 291.56 203.587C292.098 203.342 292.498 203.045 292.752 202.694C293.006 202.344 293.168 202.013 293.237 201.689C293.322 201.352 293.36 201.101 293.36 200.929C293.36 200.347 293.198 199.858 292.875 199.467C292.568 199.057 292.121 198.753 291.529 198.548C290.937 198.33 290.198 198.224 289.321 198.224C288.459 198.224 287.721 198.33 287.113 198.548C286.521 198.753 286.067 199.057 285.744 199.467C285.436 199.858 285.29 200.347 285.29 200.929C285.29 201.101 285.321 201.359 285.39 201.689C285.474 202.007 285.644 202.344 285.898 202.694C286.167 203.045 286.575 203.342 287.113 203.587C287.659 203.819 288.398 203.938 289.329 203.938ZM289.329 196.783C290.037 196.783 290.644 196.683 291.152 196.478C291.66 196.273 292.052 195.989 292.321 195.625C292.591 195.248 292.729 194.799 292.729 194.276C292.729 193.648 292.552 193.185 292.198 192.881C291.844 192.564 291.406 192.345 290.883 192.226C290.375 192.107 289.86 192.055 289.336 192.055C288.829 192.055 288.313 192.114 287.79 192.226C287.267 192.345 286.828 192.564 286.475 192.881C286.121 193.185 285.944 193.655 285.944 194.276C285.944 194.799 286.082 195.248 286.351 195.625C286.621 195.989 287.013 196.273 287.521 196.478C288.006 196.683 288.613 196.783 289.329 196.783ZM302.138 205.419C301.661 205.419 301.215 205.392 300.792 205.333C300.384 205.287 300.015 205.227 299.676 205.134V203.673C299.999 203.733 300.345 203.792 300.715 203.845C301.107 203.904 301.507 203.931 301.93 203.931C302.215 203.931 302.607 203.885 303.1 203.799C303.607 203.713 304.138 203.554 304.7 203.316C305.261 203.085 305.792 202.741 306.3 202.291C306.808 201.841 307.223 201.253 307.546 200.525C307.869 199.798 308.031 198.905 308.031 197.841C308.031 196.591 307.931 195.579 307.723 194.812C307.539 194.025 307.262 193.43 306.885 193.027C306.531 192.617 306.115 192.345 305.638 192.2C305.161 192.055 304.646 191.982 304.092 191.982C303.177 191.982 302.453 192.121 301.907 192.398C301.384 192.676 300.992 193.007 300.738 193.404C300.499 193.794 300.338 194.184 300.253 194.561C300.184 194.938 300.153 195.229 300.153 195.434C300.153 196.419 300.492 197.186 301.169 197.722C301.846 198.257 302.815 198.528 304.084 198.528C304.846 198.528 305.515 198.436 306.092 198.244C306.685 198.039 307.177 197.821 307.562 197.589C307.954 197.345 308.216 197.16 308.346 197.047L308.323 198.793C308.169 198.879 307.954 198.998 307.662 199.143C307.392 199.276 307.069 199.408 306.7 199.533C306.331 199.666 305.923 199.772 305.484 199.858C305.046 199.943 304.577 199.99 304.092 199.99C302.315 199.99 300.915 199.58 299.884 198.766C298.853 197.94 298.338 196.816 298.338 195.407C298.338 194.838 298.438 194.276 298.645 193.708C298.845 193.126 299.176 192.597 299.638 192.114C300.092 191.618 300.684 191.228 301.415 190.937C302.146 190.646 303.038 190.501 304.107 190.501C306.015 190.501 307.454 191.076 308.423 192.226C309.385 193.357 309.87 195.063 309.87 197.331C309.87 198.786 309.677 200.01 309.285 200.995C308.916 201.967 308.423 202.754 307.816 203.349C307.208 203.931 306.554 204.374 305.861 204.678C305.169 204.969 304.492 205.168 303.83 205.267C303.153 205.373 302.6 205.419 302.138 205.419ZM317.563 205.253V192.339L314.186 194.257V192.405L317.309 190.706H319.386V205.253H317.563ZM329.01 205.253V192.339L325.633 194.257V192.405L328.756 190.706H330.834V205.253H329.01ZM336.419 205.253V203.878C336.996 203.514 337.65 203.065 338.396 202.529C339.158 201.993 339.919 201.405 340.681 200.763C341.458 200.109 342.166 199.434 342.812 198.733C343.474 198.019 344.004 197.318 344.412 196.617C344.82 195.916 345.02 195.248 345.02 194.614C345.02 194.223 344.92 193.833 344.712 193.456C344.512 193.066 344.12 192.736 343.543 192.478C342.966 192.22 342.127 192.088 341.035 192.088C340.019 192.088 339.135 192.233 338.373 192.524C337.627 192.815 337.034 193.093 336.596 193.351V191.625C337.134 191.334 337.788 191.082 338.55 190.864C339.327 190.633 340.204 190.514 341.189 190.514C342.573 190.514 343.681 190.719 344.512 191.122C345.343 191.532 345.935 192.048 346.289 192.67C346.659 193.298 346.851 193.939 346.851 194.607C346.851 195.262 346.659 195.943 346.266 196.657C345.897 197.371 345.397 198.079 344.766 198.793C344.158 199.507 343.481 200.195 342.735 200.863C341.989 201.531 341.25 202.159 340.504 202.741C339.758 203.309 339.081 203.799 338.473 204.222L337.942 203.68H347.097V205.247H336.419V205.253ZM355.775 205.419C354.844 205.419 353.998 205.333 353.236 205.154C352.49 204.963 351.836 204.744 351.259 204.5V202.886C351.782 203.131 352.398 203.356 353.113 203.561C353.844 203.752 354.652 203.845 355.552 203.845C357.06 203.845 358.206 203.607 358.998 203.124C359.791 202.641 360.191 201.954 360.191 201.054C360.191 200.155 359.783 199.461 358.975 198.985C358.16 198.502 356.991 198.264 355.452 198.264H353.598V196.756H355.529C356.76 196.756 357.706 196.558 358.345 196.168C359.006 195.758 359.337 195.182 359.337 194.422C359.337 193.913 359.183 193.483 358.883 193.132C358.575 192.782 358.121 192.524 357.514 192.345C356.921 192.154 356.198 192.061 355.329 192.061C354.567 192.061 353.882 192.14 353.275 192.299C352.667 192.445 352.136 192.617 351.674 192.822V191.228C352.182 191.023 352.759 190.851 353.398 190.706C354.044 190.56 354.752 190.487 355.529 190.487C356.575 190.487 357.46 190.606 358.168 190.838C358.898 191.056 359.475 191.354 359.922 191.73C360.368 192.107 360.676 192.531 360.86 192.994C361.06 193.456 361.168 193.933 361.168 194.409C361.168 194.944 361.06 195.407 360.837 195.784C360.614 196.161 360.36 196.465 360.076 196.703C359.791 196.935 359.537 197.1 359.314 197.206C359.091 197.305 358.983 197.358 358.983 197.358C358.983 197.358 359.137 197.431 359.437 197.576C359.745 197.708 360.099 197.927 360.506 198.231C360.914 198.522 361.268 198.905 361.576 199.388C361.883 199.851 362.03 200.42 362.03 201.087C362.03 201.61 361.922 202.126 361.699 202.635C361.476 203.144 361.122 203.607 360.629 204.03C360.137 204.453 359.498 204.784 358.698 205.035C357.898 205.293 356.929 205.419 355.775 205.419Z" fill="white"/>
<path d="M101.868 149.999V120.651H114.188C119.263 120.651 122.973 121.898 125.32 124.391C127.696 126.884 128.884 130.536 128.884 135.347C128.884 140.128 127.696 143.766 125.32 146.259C122.973 148.752 119.263 149.999 114.188 149.999H101.868ZM109.832 143.927H113.22C115.655 143.927 117.503 143.252 118.764 141.903C120.055 140.524 120.7 138.339 120.7 135.347C120.7 132.326 120.055 130.14 118.764 128.791C117.503 127.412 115.655 126.723 113.22 126.723H109.832V143.927ZM133.579 149.999V120.651H154.039V126.723H141.587V132.267H152.323V138.339H141.543V143.927H154.039V149.999H133.579ZM169.911 150.615C168.444 150.615 167.08 150.556 165.819 150.439C164.558 150.322 163.384 150.131 162.299 149.867C161.243 149.574 160.231 149.192 159.263 148.723V141.243C160.73 142.387 162.328 143.238 164.059 143.795C165.79 144.323 167.359 144.587 168.767 144.587C169.882 144.587 170.776 144.382 171.451 143.971C172.126 143.56 172.463 142.856 172.463 141.859C172.463 141.184 172.126 140.642 171.451 140.231C170.806 139.791 169.926 139.41 168.811 139.087C167.726 138.735 166.494 138.324 165.115 137.855C164.294 137.562 163.487 137.21 162.695 136.799C161.932 136.388 161.243 135.875 160.627 135.259C160.011 134.643 159.512 133.88 159.131 132.971C158.75 132.062 158.559 130.962 158.559 129.671C158.559 128.38 158.794 127.148 159.263 125.975C159.762 124.802 160.495 123.76 161.463 122.851C162.431 121.942 163.663 121.238 165.159 120.739C166.655 120.211 168.4 119.947 170.395 119.947C171.598 119.947 172.683 120.02 173.651 120.167C174.619 120.284 175.528 120.49 176.379 120.783C177.259 121.076 178.139 121.443 179.019 121.883V129.451C178.374 128.894 177.611 128.366 176.731 127.867C175.88 127.368 174.986 126.943 174.047 126.591C173.108 126.239 172.17 126.034 171.231 125.975C170.439 125.946 169.691 126.019 168.987 126.195C168.312 126.342 167.755 126.62 167.315 127.031C166.904 127.442 166.699 127.999 166.699 128.703C166.699 129.436 166.934 130.023 167.403 130.463C167.902 130.874 168.576 131.226 169.427 131.519C170.307 131.783 171.275 132.062 172.331 132.355C173.563 132.707 174.678 133.103 175.675 133.543C176.702 133.983 177.582 134.526 178.315 135.171C179.048 135.816 179.62 136.608 180.031 137.547C180.442 138.456 180.647 139.571 180.647 140.891C180.647 142.768 180.207 144.44 179.327 145.907C178.447 147.374 177.2 148.532 175.587 149.383C174.003 150.204 172.111 150.615 169.911 150.615ZM185.313 149.999V120.651H193.321V149.999H185.313ZM211.352 149.999V120.651H231.724V126.723H219.316V133.015H230.008V139.131H219.316V149.999H211.352ZM231.619 149.999L242.575 120.651H251.331L261.451 149.999H253.267L244.071 122.015L248.163 121.663L239.011 149.999H231.619ZM238.087 144.235L239.583 138.559H252.695L253.443 144.235H238.087ZM264.977 149.999V120.651H273.029L282.929 134.115L278.749 134.203L288.957 120.651H296.789V149.999H288.825V126.503L290.189 129.231L280.641 141.815L270.961 128.923L272.545 127.955V149.999H264.977ZM302.79 149.999V120.651H310.798V149.999H302.79ZM316.798 149.999V120.651H324.806V143.883H337.038V149.999H316.798ZM346.404 149.999V137.459L335.228 120.651H345.04L353.224 134.731L349.44 134.775L356.7 120.651H364.488L353.224 139.439L354.368 135.347V149.999H346.404Z" fill="white"/>
<path d="M371.058 250.189H78.6872C67.7477 250.189 58.8821 242.406 58.8821 232.798H24.876V284.205C24.876 291.816 31.9027 297.999 40.5804 297.999H409.165C417.836 297.999 424.869 291.823 424.869 284.205V232.798H390.856C390.863 242.406 381.997 250.189 371.058 250.189Z" fill="#FBBD19"/>
<path d="M124.712 283.999V265.99H132.272C135.386 265.99 137.663 266.755 139.103 268.285C140.561 269.815 141.29 272.056 141.29 275.008C141.29 277.942 140.561 280.174 139.103 281.704C137.663 283.234 135.386 283.999 132.272 283.999H124.712ZM129.599 280.273H131.678C133.172 280.273 134.306 279.859 135.08 279.031C135.872 278.185 136.268 276.844 136.268 275.008C136.268 273.154 135.872 271.813 135.08 270.985C134.306 270.139 133.172 269.716 131.678 269.716H129.599V280.273ZM144.036 283.999V271.822C144.306 271.57 144.765 271.3 145.413 271.012C146.061 270.706 146.799 270.445 147.627 270.229C148.473 269.995 149.301 269.878 150.111 269.878C151.101 269.878 151.875 269.95 152.433 270.094C152.991 270.238 153.414 270.418 153.702 270.634V273.847C153.414 273.775 153.036 273.712 152.568 273.658C152.1 273.604 151.605 273.568 151.083 273.55C150.561 273.532 150.066 273.532 149.598 273.55C149.148 273.568 148.779 273.595 148.491 273.631V283.999H144.036ZM152.627 283.999V279.976H156.785V283.999H152.627ZM172.34 278.302V283.999H167.453V265.99H175.904C178.028 265.99 179.702 266.467 180.926 267.421C182.168 268.375 182.789 269.878 182.789 271.93C182.789 273.964 182.168 275.539 180.926 276.655C179.702 277.753 178.028 278.302 175.904 278.302H172.34ZM172.34 274.576H175.31C175.652 274.576 175.958 274.531 176.228 274.441C176.516 274.333 176.75 274.18 176.93 273.982C177.11 273.766 177.245 273.514 177.335 273.226C177.443 272.938 177.497 272.614 177.497 272.254C177.497 271.84 177.443 271.48 177.335 271.174C177.245 270.868 177.11 270.607 176.93 270.391C176.75 270.157 176.516 269.986 176.228 269.878C175.958 269.77 175.652 269.716 175.31 269.716H172.34V274.576ZM185.538 283.999V271.822C185.808 271.57 186.267 271.3 186.915 271.012C187.563 270.706 188.301 270.445 189.129 270.229C189.975 269.995 190.803 269.878 191.613 269.878C192.603 269.878 193.377 269.95 193.935 270.094C194.493 270.238 194.916 270.418 195.204 270.634V273.847C194.916 273.775 194.538 273.712 194.07 273.658C193.602 273.604 193.107 273.568 192.585 273.55C192.063 273.532 191.568 273.532 191.1 273.55C190.65 273.568 190.281 273.595 189.993 273.631V283.999H185.538ZM203.352 284.404C201.948 284.404 200.706 284.125 199.626 283.567C198.564 282.991 197.736 282.181 197.142 281.137C196.548 280.075 196.251 278.824 196.251 277.384C196.251 274.99 196.854 273.127 198.06 271.795C199.266 270.463 201.003 269.797 203.271 269.797C204.783 269.797 206.007 270.121 206.943 270.769C207.879 271.417 208.572 272.38 209.022 273.658C209.472 274.936 209.688 276.502 209.67 278.356H199.356L198.816 275.629H205.89L205.35 277.087C205.332 275.629 205.143 274.612 204.783 274.036C204.441 273.442 203.865 273.145 203.055 273.145C202.623 273.145 202.227 273.271 201.867 273.523C201.507 273.757 201.219 274.144 201.003 274.684C200.805 275.224 200.706 275.953 200.706 276.871C200.706 278.113 200.994 279.067 201.57 279.733C202.164 280.381 203.136 280.705 204.486 280.705C204.972 280.705 205.458 280.651 205.944 280.543C206.43 280.417 206.88 280.273 207.294 280.111C207.708 279.949 208.059 279.823 208.347 279.733V283.513C207.717 283.747 206.997 283.954 206.187 284.134C205.395 284.314 204.45 284.404 203.352 284.404ZM218.619 284.404C217.215 284.404 215.973 284.125 214.893 283.567C213.831 282.991 213.003 282.181 212.409 281.137C211.815 280.075 211.518 278.824 211.518 277.384C211.518 274.99 212.121 273.127 213.327 271.795C214.533 270.463 216.27 269.797 218.538 269.797C220.05 269.797 221.274 270.121 222.21 270.769C223.146 271.417 223.839 272.38 224.289 273.658C224.739 274.936 224.955 276.502 224.937 278.356H214.623L214.083 275.629H221.157L220.617 277.087C220.599 275.629 220.41 274.612 220.05 274.036C219.708 273.442 219.132 273.145 218.322 273.145C217.89 273.145 217.494 273.271 217.134 273.523C216.774 273.757 216.486 274.144 216.27 274.684C216.072 275.224 215.973 275.953 215.973 276.871C215.973 278.113 216.261 279.067 216.837 279.733C217.431 280.381 218.403 280.705 219.753 280.705C220.239 280.705 220.725 280.651 221.211 280.543C221.697 280.417 222.147 280.273 222.561 280.111C222.975 279.949 223.326 279.823 223.614 279.733V283.513C222.984 283.747 222.264 283.954 221.454 284.134C220.662 284.314 219.717 284.404 218.619 284.404ZM233.453 284.593C231.743 284.593 230.483 284.206 229.673 283.432C228.863 282.658 228.458 281.56 228.458 280.138V273.658H226.541V270.31H228.458V266.557H233.156V270.31H236.072V273.658H233.156V279.652C233.156 280.048 233.255 280.345 233.453 280.543C233.651 280.741 233.957 280.84 234.371 280.84C234.623 280.84 234.911 280.786 235.235 280.678C235.559 280.552 235.838 280.399 236.072 280.219V283.999C235.64 284.233 235.199 284.386 234.749 284.458C234.299 284.548 233.867 284.593 233.453 284.593ZM239.038 283.999V270.526H243.52L243.547 283.999H239.038ZM238.984 268.555V265.234H243.574V268.555H238.984ZM258.217 283.999L253.33 265.99H258.676L261.403 279.49H260.674L264.535 265.99H268.234L272.122 279.652H271.339L274.066 265.99H279.439L274.552 283.999H269.719L265.993 271.66H266.83L263.023 283.999H258.217ZM285.86 284.404C284.978 284.404 284.159 284.323 283.403 284.161C282.665 284.017 282.017 283.765 281.459 283.405C280.901 283.045 280.469 282.55 280.163 281.92C279.857 281.29 279.704 280.525 279.704 279.625C279.704 278.815 279.866 278.104 280.19 277.492C280.532 276.88 281.063 276.394 281.783 276.034C282.503 275.674 283.421 275.494 284.537 275.494C285.131 275.494 285.716 275.566 286.292 275.71C286.868 275.836 287.39 276.016 287.858 276.25C288.326 276.466 288.686 276.709 288.938 276.979L289.073 278.977C288.713 278.779 288.308 278.626 287.858 278.518C287.408 278.392 286.94 278.329 286.454 278.329C285.626 278.329 285.023 278.446 284.645 278.68C284.285 278.896 284.105 279.265 284.105 279.787C284.105 280.057 284.186 280.309 284.348 280.543C284.528 280.777 284.753 280.966 285.023 281.11C285.311 281.254 285.617 281.326 285.941 281.326C286.805 281.326 287.39 281.272 287.696 281.164C288.02 281.056 288.182 280.831 288.182 280.489V275.737C288.182 274.945 287.921 274.378 287.399 274.036C286.895 273.676 286.175 273.496 285.239 273.496C284.429 273.496 283.619 273.649 282.809 273.955C281.999 274.261 281.36 274.603 280.892 274.981V271.066C281.324 270.778 282.035 270.508 283.025 270.256C284.033 270.004 285.185 269.878 286.481 269.878C286.859 269.878 287.309 269.914 287.831 269.986C288.371 270.04 288.911 270.157 289.451 270.337C290.009 270.517 290.522 270.787 290.99 271.147C291.476 271.507 291.863 271.975 292.151 272.551C292.439 273.127 292.583 273.856 292.583 274.738L292.556 281.164C292.556 281.902 292.295 282.514 291.773 283C291.269 283.486 290.522 283.837 289.532 284.053C288.542 284.287 287.318 284.404 285.86 284.404ZM295.99 271.471C296.314 271.291 296.764 271.111 297.34 270.931C297.916 270.751 298.555 270.589 299.257 270.445C299.959 270.283 300.67 270.157 301.39 270.067C302.11 269.959 302.767 269.905 303.361 269.905C304.567 269.905 305.611 270.049 306.493 270.337C307.375 270.625 308.05 271.12 308.518 271.822C309.004 272.524 309.247 273.487 309.247 274.711V283.999H304.792V275.737C304.792 275.377 304.738 275.062 304.63 274.792C304.54 274.504 304.396 274.27 304.198 274.09C304.018 273.91 303.766 273.775 303.442 273.685C303.136 273.595 302.767 273.55 302.335 273.55C301.957 273.55 301.579 273.604 301.201 273.712C300.841 273.802 300.589 273.901 300.445 274.009V283.999H295.99V271.471ZM312.708 283.999V270.526H317.19L317.217 283.999H312.708ZM312.654 268.555V265.234H317.244V268.555H312.654Z" fill="white"/>
<path d="M370.054 76.5144C369.842 76.8088 369.605 77.0264 369.349 77.1737C369.087 77.3209 368.807 77.3657 368.495 77.3209C368.183 77.2761 367.846 77.1096 367.478 76.8344C367.123 76.5592 366.873 76.2776 366.736 75.9832C366.599 75.6887 366.561 75.3879 366.618 75.0871C366.674 74.7863 366.805 74.4918 367.017 74.2038C367.16 74.0118 367.31 73.8326 367.484 73.679C367.653 73.5254 367.834 73.3846 368.027 73.2693L368.738 73.8134C368.501 73.9286 368.301 74.0374 368.133 74.1462C367.965 74.255 367.821 74.3958 367.703 74.5558C367.591 74.7095 367.522 74.8631 367.491 75.0167C367.466 75.1703 367.497 75.3239 367.584 75.4839C367.672 75.6439 367.84 75.8167 368.077 75.996C368.308 76.1752 368.514 76.284 368.694 76.3224C368.875 76.3608 369.031 76.3544 369.162 76.2904C369.293 76.2264 369.405 76.1304 369.505 75.996C369.561 75.9192 369.605 75.8487 369.636 75.7783C369.667 75.7079 369.692 75.6439 369.705 75.5863L369.256 75.2407L368.931 75.6887L368.333 75.2279L369.243 73.9734L370.621 75.0231C370.59 75.2983 370.528 75.5607 370.434 75.8103C370.335 76.0728 370.21 76.3032 370.054 76.5144Z" fill="white"/>
<path d="M371.339 74.8439L368.819 72.1749L369.53 71.4708L372.05 74.1398L371.339 74.8439Z" fill="white"/>
<path d="M373.303 73.0774L370.141 70.7988L371.083 70.1331L373.609 72.1301L373.347 72.3157L372.424 69.1795L373.285 68.5714L374.164 72.4693L373.303 73.0774Z" fill="white"/>
<path d="M375.661 71.586L374.126 68.213L375.025 67.7841L376.559 71.1572L375.661 71.586Z" fill="white"/>
<path d="M377.076 70.8628L376.103 67.2785L376.889 67.0545L379.24 68.8978L379.122 69.6019L378.317 66.6448L379.184 66.3952L380.157 69.9795L379.465 70.1779L377.12 68.3922L377.201 67.8929L377.937 70.6131L377.076 70.8628Z" fill="white"/>
<path d="M382.328 69.8899C381.972 69.9091 381.66 69.8579 381.386 69.7427C381.111 69.6275 380.893 69.4355 380.731 69.1602C380.569 68.885 380.475 68.5138 380.457 68.0402C380.438 67.5857 380.494 67.2081 380.631 66.9137C380.768 66.6192 380.968 66.3952 381.23 66.248C381.492 66.1008 381.797 66.0176 382.147 66.0048C382.384 65.992 382.614 66.0048 382.839 66.0432C383.063 66.0816 383.282 66.1392 383.494 66.2096L383.538 67.1185C383.307 67.0033 383.095 66.9137 382.901 66.8497C382.714 66.7857 382.515 66.7601 382.321 66.7665C382.134 66.7729 381.972 66.8177 381.841 66.8945C381.71 66.9713 381.61 67.0929 381.548 67.2657C381.486 67.4385 381.461 67.6753 381.473 67.9826C381.486 68.277 381.536 68.5138 381.617 68.6802C381.698 68.8466 381.81 68.9682 381.941 69.0322C382.072 69.0962 382.215 69.1218 382.377 69.1154C382.465 69.109 382.552 69.1026 382.621 69.0834C382.696 69.0642 382.758 69.045 382.808 69.013L382.783 68.437L382.24 68.4626L382.203 67.6945L383.731 67.6177L383.812 69.3779C383.587 69.5251 383.35 69.6403 383.101 69.7299C382.839 69.8323 382.583 69.8771 382.328 69.8899Z" fill="white"/>
<path d="M385.758 69.9667L386.693 66.376L388.246 66.8049C388.489 66.8689 388.701 66.9649 388.876 67.0801C389.051 67.1953 389.175 67.3425 389.25 67.5153C389.325 67.6945 389.331 67.9058 389.269 68.1554C389.225 68.3154 389.15 68.4434 389.038 68.5266C388.926 68.6162 388.801 68.6738 388.67 68.6994C388.539 68.725 388.415 68.7506 388.302 68.757L388.252 68.5074C388.464 68.5714 388.639 68.661 388.77 68.7826C388.907 68.8978 389.001 69.0322 389.051 69.1859C389.101 69.3395 389.107 69.5123 389.057 69.6915C388.995 69.9411 388.876 70.1331 388.714 70.2611C388.552 70.3892 388.358 70.466 388.14 70.4916C387.922 70.5172 387.697 70.4916 387.46 70.4276L385.758 69.9667ZM386.905 69.4867L387.573 69.6723C387.647 69.6915 387.716 69.6979 387.785 69.6915C387.853 69.6851 387.909 69.6531 387.965 69.6083C388.015 69.5571 388.053 69.4867 388.078 69.3971C388.096 69.3267 388.096 69.2691 388.09 69.2115C388.078 69.1539 388.059 69.1091 388.034 69.0706C388.003 69.0322 387.965 69.0002 387.916 68.9682C387.866 68.9426 387.816 68.917 387.76 68.9042L387.111 68.725L386.905 69.4867ZM387.279 68.021L387.922 68.1938C387.972 68.2066 388.022 68.2066 388.065 68.1938C388.109 68.181 388.153 68.1554 388.196 68.117C388.234 68.0786 388.265 68.0274 388.284 67.9634C388.315 67.8354 388.309 67.7393 388.252 67.6689C388.196 67.5985 388.128 67.5537 388.04 67.5281L387.454 67.3681L387.279 68.021Z" fill="white"/>
<path d="M388.857 70.8052L391.726 68.1426L392.687 68.6546L392.125 72.5461L391.227 72.0661L391.813 68.3794L392.281 68.5778L389.668 71.2276L388.857 70.8052ZM389.893 70.5364L390.379 69.9859L391.813 70.754L391.57 71.4388L389.893 70.5364Z" fill="white"/>
<path d="M393.422 73.775C392.967 73.3974 392.712 72.9813 392.668 72.5397C392.618 72.0981 392.799 71.618 393.204 71.0996C393.597 70.6004 394.009 70.3187 394.445 70.2547C394.876 70.1907 395.331 70.3571 395.811 70.754C395.961 70.8756 396.098 71.0228 396.223 71.1892C396.347 71.3556 396.453 71.5284 396.547 71.7204L396.011 72.3989C395.942 72.1685 395.855 71.9765 395.755 71.8165C395.655 71.6564 395.549 71.5348 395.443 71.4452C395.293 71.3172 395.138 71.2404 394.988 71.2084C394.838 71.1764 394.682 71.202 394.514 71.2852C394.352 71.3684 394.177 71.5284 393.99 71.7652C393.809 71.9957 393.697 72.2005 393.653 72.3797C393.61 72.5589 393.616 72.7253 393.691 72.8725C393.759 73.0197 393.878 73.1606 394.04 73.295C394.133 73.3718 394.264 73.4486 394.433 73.5126C394.595 73.5766 394.795 73.6214 395.025 73.647L394.489 74.3254C394.383 74.2998 394.264 74.2614 394.14 74.2102C394.015 74.159 393.89 74.0886 393.766 74.0118C393.635 73.935 393.522 73.8582 393.422 73.775Z" fill="white"/>
<path d="M394.707 74.7991L397.526 72.4629L398.15 73.2502L395.331 75.5863L394.707 74.7991ZM397.601 74.7351L396.79 77.4361L396.023 76.4632L396.641 74.5303L397.601 74.7351ZM396.135 74.8567L396.354 74.2038L398.761 74.031L399.541 75.0167L396.135 74.8567Z" fill="white"/>
<path d="M365.264 96.0424C365.002 95.5047 364.934 95.0247 365.065 94.6022C365.196 94.1798 365.551 93.815 366.131 93.5142C366.692 93.2261 367.179 93.1429 367.597 93.2645C368.015 93.3862 368.364 93.7318 368.644 94.295C368.732 94.4678 368.8 94.6599 368.844 94.8647C368.894 95.0695 368.919 95.2743 368.931 95.4855L368.177 95.8759C368.202 95.6391 368.202 95.4215 368.177 95.2359C368.146 95.0503 368.102 94.8903 368.04 94.7623C367.952 94.583 367.846 94.4486 367.721 94.3526C367.597 94.2566 367.441 94.2182 367.26 94.2246C367.079 94.231 366.855 94.3078 366.586 94.4422C366.331 94.5766 366.144 94.7175 366.031 94.8583C365.919 95.0055 365.863 95.1591 365.869 95.3191C365.875 95.4791 365.925 95.6583 366.019 95.8503C366.075 95.9656 366.162 96.0872 366.287 96.2152C366.412 96.3432 366.574 96.4712 366.774 96.5864L366.019 96.9896C365.932 96.9256 365.838 96.836 365.744 96.7336C365.651 96.6312 365.564 96.516 365.476 96.3944C365.395 96.2792 365.327 96.1576 365.264 96.0424Z" fill="white"/>
<path d="M366.468 98.0649L369.293 95.7287L369.91 96.516L368.8 97.4376L369.555 98.3977L370.665 97.476L371.283 98.2633L368.457 100.599L367.84 99.8122L368.925 98.9161L368.17 97.9561L367.085 98.8521L366.468 98.0649Z" fill="white"/>
<path d="M369.118 101.31L372.436 99.2682L373.285 99.9594L372 103.665L371.208 103.019L372.474 99.5178L372.898 99.8058L369.836 101.892L369.118 101.31ZM370.185 101.252L370.765 100.811L372.031 101.848L371.669 102.468L370.185 101.252Z" fill="white"/>
<path d="M372.823 104.171L374.413 100.83L375.143 101.195L375.711 104.177L375.168 104.625L376.484 101.867L377.295 102.27L375.704 105.611L375.062 105.291L374.463 102.36L374.844 102.04L373.64 104.574L372.823 104.171Z" fill="white"/>
<path d="M378.461 106.507C378.118 106.424 377.825 106.29 377.594 106.104C377.363 105.918 377.207 105.669 377.12 105.355C377.039 105.041 377.051 104.657 377.157 104.203C377.263 103.755 377.419 103.416 377.631 103.166C377.843 102.923 378.093 102.763 378.386 102.699C378.679 102.635 378.991 102.641 379.334 102.724C379.565 102.782 379.783 102.859 379.989 102.955C380.195 103.057 380.388 103.173 380.569 103.301L380.363 104.184C380.17 104.005 379.989 103.864 379.827 103.749C379.665 103.633 379.484 103.55 379.29 103.505C379.11 103.461 378.941 103.454 378.791 103.493C378.642 103.525 378.517 103.621 378.405 103.768C378.299 103.915 378.205 104.139 378.137 104.433C378.068 104.721 378.056 104.958 378.087 105.144C378.124 105.329 378.193 105.47 378.305 105.573C378.417 105.675 378.548 105.739 378.704 105.778C378.791 105.797 378.873 105.81 378.947 105.816C379.022 105.822 379.091 105.816 379.141 105.803L379.272 105.246L378.742 105.118L378.916 104.369L380.4 104.734L380.001 106.45C379.746 106.526 379.484 106.571 379.222 106.584C378.966 106.597 378.71 106.571 378.461 106.507Z" fill="white"/>
<path d="M381.136 106.917L381.249 103.198L383.774 103.275L383.75 104.043L382.215 103.992L382.197 104.696L383.519 104.741L383.494 105.509L382.165 105.464L382.147 106.181L383.687 106.232L383.662 107L381.136 106.917Z" fill="white"/>
<path d="M389.905 105.733L388.464 102.321L389.369 101.918L390.51 104.619L391.895 104.005L392.194 104.715L389.905 105.733Z" fill="white"/>
<path d="M392.949 104.248L391.065 101.067L391.913 100.542L393.797 103.723L392.949 104.248Z" fill="white"/>
<path d="M395.543 102.43L392.163 100.504L393.03 99.7419L395.749 101.457L395.512 101.668L394.271 98.6538L395.069 97.9561L396.341 101.732L395.543 102.43Z" fill="white"/>
<path d="M398.013 100.03L395.144 97.7577L396.69 95.7031L397.283 96.1704L396.341 97.4185L396.884 97.8473L397.695 96.772L398.287 97.2392L397.476 98.3209L398.025 98.7562L398.967 97.5017L399.559 97.9689L398.013 100.03Z" fill="white"/>
<path d="M400.807 95.8887C400.726 96.0551 400.638 96.2023 400.557 96.3367C400.47 96.4712 400.383 96.5928 400.295 96.6952C400.202 96.7976 400.108 96.8936 399.996 96.9768L399.173 96.5416C399.378 96.4455 399.566 96.3111 399.721 96.1511C399.877 95.9911 399.996 95.8247 400.077 95.6711C400.139 95.5431 400.171 95.4343 400.164 95.3319C400.158 95.2295 400.102 95.1526 399.99 95.095C399.915 95.0566 399.834 95.063 399.753 95.1078C399.672 95.159 399.578 95.2359 399.478 95.3383C399.378 95.4407 399.266 95.5559 399.135 95.6839C399.054 95.7607 398.973 95.8311 398.886 95.8951C398.798 95.9591 398.699 96.0103 398.599 96.0423C398.499 96.0743 398.387 96.0871 398.262 96.0743C398.144 96.0615 398.006 96.0231 397.869 95.9463C397.726 95.8695 397.607 95.7735 397.507 95.6519C397.408 95.5303 397.333 95.3895 397.289 95.223C397.246 95.063 397.239 94.8838 397.264 94.6854C397.295 94.487 397.364 94.2758 397.476 94.0518C397.545 93.9174 397.614 93.7957 397.682 93.6997C397.751 93.5973 397.826 93.5077 397.907 93.4245C397.988 93.3413 398.075 93.2645 398.175 93.1941L399.004 93.6357C398.904 93.6741 398.805 93.7317 398.705 93.7957C398.605 93.8597 398.505 93.943 398.412 94.0262C398.318 94.1094 398.243 94.2054 398.187 94.3078C398.137 94.3974 398.106 94.4806 398.081 94.5702C398.063 94.6598 398.063 94.7366 398.081 94.807C398.1 94.8774 398.15 94.935 398.231 94.9734C398.312 95.0182 398.387 95.0246 398.462 94.9926C398.537 94.9606 398.611 94.9094 398.692 94.8262C398.774 94.743 398.861 94.6534 398.948 94.551C399.054 94.4358 399.166 94.327 399.272 94.2438C399.378 94.1542 399.485 94.0902 399.597 94.0454C399.709 94.0006 399.827 93.9814 399.952 93.9878C400.077 93.9942 400.214 94.039 400.358 94.1158C400.563 94.2246 400.719 94.3718 400.832 94.5574C400.944 94.743 401 94.9478 401 95.1782C400.994 95.4023 400.931 95.6391 400.807 95.8887Z" fill="white"/>
<path d="M381.745 81.0669L382.5 81.9345L383.255 81.0669L384.454 79.6879C386.411 77.4374 389.521 77.4374 391.478 79.6879C393.507 82.0205 393.507 85.8549 391.478 88.1874L390.264 89.5838L382.5 98.5109L374.736 89.5838L373.522 88.1874C371.493 85.8549 371.493 82.0205 373.522 79.6879C375.479 77.4374 378.589 77.4374 380.546 79.6879L381.745 81.0669Z" fill="white" stroke="#0E7139" stroke-width="2"/>
</svg>
