<svg width="188" height="187" viewBox="0 0 188 187" fill="none" xmlns="http://www.w3.org/2000/svg">
<path d="M93.7296 3.90784C43.9082 3.90784 3.3822 44.1443 3.3822 93.6097C3.3822 143.075 43.9082 183.312 93.7296 183.312C143.551 183.312 184.077 143.075 184.077 93.6097C184.077 44.1443 143.551 3.90784 93.7296 3.90784Z" fill="white"/>
<path d="M93.7296 0.570679C42.075 0.570679 0.0372314 42.3081 0.0372314 93.6096C0.0372314 144.911 42.075 186.633 93.7296 186.633C145.4 186.633 187.438 144.895 187.438 93.6096C187.438 42.3081 145.4 0.570679 93.7296 0.570679ZM93.7296 183.296C43.9083 183.296 3.38224 143.059 3.38224 93.5936C3.38224 44.1283 43.9083 3.89179 93.7296 3.89179C143.551 3.89179 184.077 44.1283 184.077 93.5936C184.077 143.059 143.551 183.296 93.7296 183.296Z" fill="#0E7139"/>
<path d="M24.8193 97.5854C27.0397 97.5854 28.8397 95.7982 28.8397 93.5936C28.8397 91.3891 27.0397 89.6019 24.8193 89.6019C22.5988 89.6019 20.7988 91.3891 20.7988 93.5936C20.7988 95.7982 22.5988 97.5854 24.8193 97.5854Z" fill="#0E7139"/>
<path d="M162.656 97.5854C164.876 97.5854 166.676 95.7982 166.676 93.5936C166.676 91.3891 164.876 89.6019 162.656 89.6019C160.436 89.6019 158.636 91.3891 158.636 93.5936C158.636 95.7982 160.436 97.5854 162.656 97.5854Z" fill="#0E7139"/>
<path d="M115.472 65.6515C115.167 65.6515 114.877 65.5717 114.62 65.428C107.447 61.7556 101.24 60.1909 93.8101 60.1909C86.4125 60.1909 79.3847 61.9313 73.0003 65.428C72.0997 65.907 70.99 65.5717 70.4593 64.6935C69.9769 63.7994 70.3146 62.6498 71.1991 62.1708C78.1464 58.4186 85.7692 56.4866 93.8101 56.4866C101.771 56.4866 108.718 58.227 116.341 62.1229C117.273 62.6019 117.611 63.7196 117.129 64.6137C116.775 65.2843 116.148 65.6515 115.472 65.6515ZM61.9843 85.1471C61.6144 85.1471 61.2445 85.0353 60.9068 84.8118C60.0544 84.221 59.8615 83.0714 60.4565 82.2092C64.1553 77.02 68.8673 72.9324 74.4798 70.0744C86.2195 64.0708 101.24 64.0229 113.012 70.0424C118.624 72.9005 123.32 76.9401 127.035 82.0974C127.63 82.9117 127.453 84.0933 126.585 84.7C125.732 85.2908 124.574 85.1152 123.963 84.2529C120.602 79.5747 116.341 75.9023 111.291 73.3476C100.564 67.8869 86.8467 67.8869 76.1523 73.3795C71.0705 75.9821 66.8088 79.6864 63.4477 84.3647C63.1421 84.8757 62.5793 85.1471 61.9843 85.1471ZM85.3511 129.934C84.8686 129.934 84.3862 129.743 84.0484 129.375C80.7999 126.15 79.047 124.074 76.5383 119.572C73.9652 115.005 72.6143 109.449 72.6143 103.461C72.6143 92.444 82.1025 83.4546 93.7618 83.4546C105.421 83.4546 114.909 92.428 114.909 103.461C114.909 104.499 114.089 105.313 113.044 105.313C111.999 105.313 111.178 104.499 111.178 103.461C111.178 94.4877 103.363 87.1749 93.7618 87.1749C84.161 87.1749 76.3453 94.4877 76.3453 103.461C76.3453 108.81 77.5353 113.744 79.8189 117.751C82.2151 122.015 83.8555 123.835 86.7341 126.725C87.4417 127.459 87.4417 128.625 86.7341 129.359C86.316 129.743 85.8335 129.934 85.3511 129.934ZM112.143 123.068C107.689 123.068 103.765 121.951 100.564 119.763C95.0001 116.011 91.6712 109.928 91.6712 103.477C91.6712 102.439 92.4914 101.625 93.5367 101.625C94.582 101.625 95.4022 102.439 95.4022 103.477C95.4022 108.714 98.0878 113.648 102.655 116.682C105.309 118.47 108.412 119.316 112.143 119.316C113.044 119.316 114.539 119.204 116.035 118.949C117.048 118.757 118.013 119.428 118.206 120.466C118.399 121.472 117.724 122.43 116.678 122.621C114.539 123.021 112.674 123.068 112.143 123.068ZM104.633 130.717C104.488 130.717 104.295 130.685 104.151 130.637C98.2004 129.008 94.3247 126.821 90.2399 122.845C85.0133 117.688 82.1347 110.822 82.1347 103.477C82.1347 97.4735 87.297 92.5717 93.6493 92.5717C100.002 92.5717 105.164 97.4735 105.164 103.477C105.164 107.453 108.637 110.678 112.931 110.678C117.225 110.678 120.699 107.453 120.699 103.477C120.699 89.4901 108.557 78.1376 93.601 78.1376C82.987 78.1376 73.2737 83.9975 68.8994 93.0986C67.436 96.1004 66.6962 99.629 66.6962 103.493C66.6962 106.383 66.9535 110.95 69.205 116.889C69.5748 117.847 69.0924 118.933 68.1275 119.268C67.1626 119.636 66.069 119.125 65.7313 118.199C63.898 113.345 62.9974 108.507 62.9974 103.509C62.9974 99.0542 63.8497 95.0146 65.5383 91.4859C70.5076 81.1394 81.5397 74.4174 93.601 74.4174C110.599 74.4174 124.43 87.4463 124.43 103.477C124.43 109.481 119.268 114.382 112.915 114.382C106.563 114.382 101.401 109.481 101.401 103.477C101.401 99.5013 97.927 96.276 93.6332 96.276C89.3393 96.276 85.8657 99.5013 85.8657 103.477C85.8657 109.816 88.3262 115.756 92.8613 120.21C96.4153 123.691 99.8086 125.623 105.083 127.076C106.097 127.332 106.659 128.369 106.386 129.343C106.209 130.158 105.421 130.717 104.633 130.717Z" fill="#0E7139"/>
<path d="M45.0661 56.7421L32.844 46.6191L29.3542 50.7705L25.8002 47.8325L36.3016 35.3624L39.8556 38.3003L36.3659 42.4357L48.588 52.5587L45.0661 56.7421Z" fill="#0E7139"/>
<path d="M56.5164 30.2211L52.2226 23.6587L56.838 20.6888L68.0149 37.8053L63.3994 40.7752L59.0252 34.085L53.0427 37.9331L57.417 44.6232L52.8015 47.593L41.6247 30.4925L46.2402 27.5227L50.534 34.085L56.5164 30.2211Z" fill="#0E7139"/>
<path d="M70.0893 37.1987L64.3803 17.6073L78.2267 13.6316L79.5132 18.0384L70.9578 20.4973L71.8905 23.7227L79.0308 21.6789L80.253 25.8622L73.1127 27.906L74.0937 31.275L83.0512 28.7043L84.3378 33.1112L70.0893 37.1987Z" fill="#0E7139"/>
<path d="M92.3627 32.2968L94.791 12.0508L102.687 12.9769C105.678 13.3281 108.042 14.5416 109.763 16.6013C111.484 18.6611 112.159 21.2317 111.789 24.3133C111.42 27.3949 110.149 29.7261 107.994 31.3388C105.839 32.9514 103.25 33.5741 100.259 33.2228L92.3627 32.2968ZM98.3773 28.3529L100.211 28.5765C101.851 28.7681 103.218 28.4168 104.295 27.5386C105.373 26.6605 106.016 25.3671 106.225 23.6747C106.434 21.9822 106.113 20.5931 105.276 19.4754C104.44 18.3577 103.202 17.7031 101.561 17.5114L99.7281 17.3039L98.3773 28.3529Z" fill="#0E7139"/>
<path d="M111.532 35.1069L119.669 16.3778L132.905 22.046L131.071 26.2613L122.886 22.7646L121.551 25.8462L128.37 28.7681L126.633 32.7598L119.814 29.8379L118.415 33.0632L126.987 36.7356L125.153 40.9508L111.532 35.1069Z" fill="#0E7139"/>
<path d="M131.474 46.204C129.833 44.9266 128.691 43.5535 128.048 42.1164C127.405 40.6794 127.099 39.3063 127.131 38.013L132.117 38.1247C132.149 40.0248 132.808 41.4937 134.111 42.4996C135.478 43.5694 136.491 43.6652 137.166 42.819C137.424 42.4837 137.52 42.1324 137.424 41.7492C137.327 41.366 137.086 40.8551 136.652 40.2164L135.253 38.0928C133.275 35.123 133.21 32.4725 135.076 30.1253C136.266 28.6244 137.729 27.858 139.466 27.858C141.203 27.858 142.843 28.4488 144.371 29.6463C146.816 31.5623 148.102 33.7019 148.199 36.065L143.696 36.7037C143.567 35.3465 142.94 34.2448 141.814 33.3666C141.316 32.9674 140.833 32.7758 140.415 32.7599C139.981 32.7599 139.643 32.9195 139.37 33.2389C139.128 33.5422 139.032 33.8456 139.064 34.149C139.096 34.4683 139.273 34.8515 139.563 35.3146L141.139 37.6936C142.297 39.434 142.892 40.9509 142.94 42.2282C142.988 43.5056 142.538 44.735 141.605 45.9166C140.367 47.4653 138.887 48.3116 137.15 48.4234C135.414 48.5351 133.532 47.8166 131.474 46.204Z" fill="#0E7139"/>
<path d="M138.582 52.2234L154.245 39.0188L157.799 43.1862L142.136 56.3907L138.582 52.2234Z" fill="#0E7139"/>
<path d="M42.9273 141.734L30.5282 145.965C30.4157 146.013 30.3353 145.997 30.2709 145.933C30.2066 145.869 30.2066 145.789 30.2549 145.678L40.0647 123.611L44.3746 128.082L39.7109 138.189L50.8395 134.181C51.0486 134.102 51.1129 134.149 51.0164 134.373L46.6261 145.39L56.8862 141.079L60.9871 145.342L38.4244 154.156C38.1349 154.284 38.0384 154.188 38.151 153.885L42.9273 141.734Z" fill="#0E7139"/>
<path d="M51.6597 163.736L61.2283 143.857L75.2677 150.516L73.1127 154.986L64.4286 150.867L62.8526 154.14L70.0894 157.573L68.047 161.836L60.8102 158.403L59.1699 161.82L68.2721 166.131L66.1172 170.602L51.6597 163.736Z" fill="#0E7139"/>
<path d="M82.0543 174.37L83.2765 152.384L89.2106 152.703L88.2618 169.74L97.6697 170.251L97.3963 175.2L82.0543 174.37Z" fill="#0E7139"/>
<path d="M122.001 167.265C120.281 169.931 117.852 171.656 114.7 172.486C111.548 173.316 108.557 172.981 105.759 171.496C102.944 170.027 101.127 167.696 100.291 164.55C99.4547 161.405 99.8889 158.499 101.61 155.848C103.33 153.198 105.759 151.458 108.911 150.643C112.063 149.829 115.038 150.148 117.852 151.617C120.65 153.086 122.484 155.401 123.32 158.547C124.156 161.692 123.706 164.598 122.001 167.265ZM108.798 166.914C110.101 167.776 111.629 167.983 113.381 167.52C115.118 167.057 116.357 166.147 117.064 164.758C117.772 163.369 117.9 161.804 117.45 160.064C116.984 158.323 116.115 157.03 114.797 156.184C113.494 155.322 111.966 155.13 110.213 155.577C108.46 156.04 107.238 156.95 106.531 158.323C105.823 159.697 105.694 161.261 106.145 163.002C106.611 164.758 107.496 166.051 108.798 166.914Z" fill="#0E7139"/>
<path d="M135.285 137.455L138.791 161.772C138.807 161.884 138.791 161.964 138.71 162.012C138.63 162.06 138.549 162.044 138.453 161.98L117.45 149.031L122.741 145.598L132.197 151.729L130.219 140.744L135.285 137.455Z" fill="#0E7139"/>
<path d="M151.833 151.346L134.802 137.231L144.773 125.368L148.601 128.545L142.441 135.89L145.256 138.221L150.402 132.106L154.036 135.108L148.89 141.223L151.817 143.65L158.282 135.97L162.109 139.147L151.833 151.346Z" fill="#0E7139"/>
</svg>
