<svg width="1920" height="732" viewBox="0 0 1920 732" fill="none" xmlns="http://www.w3.org/2000/svg">
<path d="M1905.6 20.8398C1908.67 20.8398 1911.16 18.2862 1911.16 15.1361C1911.16 11.9861 1908.67 9.4325 1905.6 9.4325C1902.53 9.4325 1900.04 11.9861 1900.04 15.1361C1900.04 18.2862 1902.53 20.8398 1905.6 20.8398Z" fill="#115C07"/>
<path d="M1905.59 54.5451C1908.66 54.5451 1911.15 51.9915 1911.15 48.8415C1911.15 45.6914 1908.66 43.1378 1905.59 43.1378C1902.52 43.1378 1900.03 45.6914 1900.03 48.8415C1900.03 51.9915 1902.52 54.5451 1905.59 54.5451Z" fill="#115C07"/>
<path d="M1905.6 88.2405C1908.67 88.2405 1911.16 85.6869 1911.16 82.5369C1911.16 79.3869 1908.67 76.8333 1905.6 76.8333C1902.53 76.8333 1900.04 79.3869 1900.04 82.5369C1900.04 85.6869 1902.53 88.2405 1905.6 88.2405Z" fill="#115C07"/>
<path d="M1905.59 121.949C1908.66 121.949 1911.15 119.395 1911.15 116.245C1911.15 113.095 1908.66 110.542 1905.59 110.542C1902.52 110.542 1900.03 113.095 1900.03 116.245C1900.03 119.395 1902.52 121.949 1905.59 121.949Z" fill="#115C07"/>
<path d="M-5 0H1920V731.967H-5V0Z" fill="#FDBD12"/>
<path d="M1920 609.457C1875.38 575.145 1814.85 554.058 1748.18 554.058C1620.06 554.058 1514.61 631.937 1501.21 731.967H1920V609.457Z" fill="#0E7139"/>
<path d="M1483.8 0C1484.33 5.37043 1485.06 10.7246 1486.06 16.0788C1512.22 154.525 1694.96 230.928 1894.22 186.716C1902.93 184.785 1911.53 182.643 1920 180.323V0H1483.8Z" fill="#0E7139"/>
<path d="M1920 180.323V0Z" fill="#0E7139"/>
<path d="M1740.24 11.0463C1743.31 11.0463 1745.8 8.57369 1745.8 5.52362C1745.8 2.47355 1743.31 0.000976607 1740.24 0.000976591C1737.17 0.000976575 1734.68 2.47355 1734.68 5.52362C1734.68 8.57369 1737.17 11.0463 1740.24 11.0463Z" fill="#115C07"/>
<path d="M1740.24 43.6853C1743.31 43.6853 1745.8 41.2127 1745.8 38.1627C1745.8 35.1126 1743.31 32.64 1740.24 32.64C1737.17 32.64 1734.68 35.1126 1734.68 38.1627C1734.68 41.2127 1737.17 43.6853 1740.24 43.6853Z" fill="#115C07"/>
<path d="M1740.23 76.3095C1743.3 76.3095 1745.79 73.837 1745.79 70.7869C1745.79 67.7368 1743.3 65.2643 1740.23 65.2643C1737.16 65.2643 1734.67 67.7368 1734.67 70.7869C1734.67 73.837 1737.16 76.3095 1740.23 76.3095Z" fill="#115C07"/>
<path d="M1740.24 108.951C1743.31 108.951 1745.8 106.478 1745.8 103.428C1745.8 100.378 1743.31 97.9053 1740.24 97.9053C1737.17 97.9053 1734.68 100.378 1734.68 103.428C1734.68 106.478 1737.17 108.951 1740.24 108.951Z" fill="#115C07"/>
<path d="M1773.11 11.0463C1776.18 11.0463 1778.67 8.57369 1778.67 5.52362C1778.67 2.47355 1776.18 0.000976607 1773.11 0.000976591C1770.04 0.000976575 1767.55 2.47355 1767.55 5.52362C1767.55 8.57369 1770.04 11.0463 1773.11 11.0463Z" fill="#115C07"/>
<path d="M1773.11 43.6843C1776.18 43.6843 1778.67 41.2117 1778.67 38.1617C1778.67 35.1116 1776.18 32.639 1773.11 32.639C1770.04 32.639 1767.55 35.1116 1767.55 38.1617C1767.55 41.2117 1770.04 43.6843 1773.11 43.6843Z" fill="#115C07"/>
<path d="M1773.11 76.3115C1776.18 76.3115 1778.67 73.8389 1778.67 70.7889C1778.67 67.7388 1776.18 65.2662 1773.11 65.2662C1770.04 65.2662 1767.55 67.7388 1767.55 70.7889C1767.55 73.8389 1770.04 76.3115 1773.11 76.3115Z" fill="#115C07"/>
<path d="M1773.11 108.95C1776.18 108.95 1778.67 106.477 1778.67 103.427C1778.67 100.377 1776.18 97.9043 1773.11 97.9043C1770.04 97.9043 1767.55 100.377 1767.55 103.427C1767.55 106.477 1770.04 108.95 1773.11 108.95Z" fill="#115C07"/>
<path d="M1805.96 11.0453C1809.03 11.0453 1811.52 8.57271 1811.52 5.52264C1811.52 2.47257 1809.03 4.437e-08 1805.96 2.85836e-08C1802.89 1.27973e-08 1800.4 2.47257 1800.4 5.52264C1800.4 8.57271 1802.89 11.0453 1805.96 11.0453Z" fill="#115C07"/>
<path d="M1805.97 43.6853C1809.04 43.6853 1811.53 41.2127 1811.53 38.1627C1811.53 35.1126 1809.04 32.64 1805.97 32.64C1802.9 32.64 1800.41 35.1126 1800.41 38.1627C1800.41 41.2127 1802.9 43.6853 1805.97 43.6853Z" fill="#115C07"/>
<path d="M1805.96 76.3105C1809.03 76.3105 1811.52 73.838 1811.52 70.7879C1811.52 67.7378 1809.03 65.2653 1805.96 65.2653C1802.89 65.2653 1800.4 67.7378 1800.4 70.7879C1800.4 73.838 1802.89 76.3105 1805.96 76.3105Z" fill="#115C07"/>
<path d="M1805.96 108.949C1809.03 108.949 1811.52 106.476 1811.52 103.426C1811.52 100.376 1809.03 97.9033 1805.96 97.9033C1802.89 97.9033 1800.4 100.376 1800.4 103.426C1800.4 106.476 1802.89 108.949 1805.96 108.949Z" fill="#115C07"/>
<path d="M1838.84 11.0472C1841.92 11.0472 1844.41 8.57467 1844.41 5.5246C1844.41 2.47453 1841.92 0.00195317 1838.84 0.00195315C1835.77 0.00195314 1833.28 2.47453 1833.28 5.5246C1833.28 8.57467 1835.77 11.0472 1838.84 11.0472Z" fill="#115C07"/>
<path d="M1838.84 43.6864C1841.92 43.6864 1844.41 41.2138 1844.41 38.1638C1844.41 35.1137 1841.92 32.6411 1838.84 32.6411C1835.77 32.6411 1833.28 35.1137 1833.28 38.1638C1833.28 41.2138 1835.77 43.6864 1838.84 43.6864Z" fill="#115C07"/>
<path d="M1838.84 76.3096C1841.91 76.3096 1844.4 73.837 1844.4 70.7869C1844.4 67.7369 1841.91 65.2643 1838.84 65.2643C1835.76 65.2643 1833.27 67.7369 1833.27 70.7869C1833.27 73.837 1835.76 76.3096 1838.84 76.3096Z" fill="#115C07"/>
<path d="M1838.84 108.949C1841.91 108.949 1844.4 106.476 1844.4 103.426C1844.4 100.376 1841.91 97.9033 1838.84 97.9033C1835.76 97.9033 1833.27 100.376 1833.27 103.426C1833.27 106.476 1835.76 108.949 1838.84 108.949Z" fill="#115C07"/>
<path d="M1871.7 11.0453C1874.77 11.0453 1877.26 8.57271 1877.26 5.52264C1877.26 2.47257 1874.77 4.43701e-08 1871.7 2.85837e-08C1868.63 1.27974e-08 1866.14 2.47257 1866.14 5.52264C1866.14 8.57271 1868.63 11.0453 1871.7 11.0453Z" fill="#115C07"/>
<path d="M1871.7 43.6843C1874.77 43.6843 1877.26 41.2117 1877.26 38.1617C1877.26 35.1116 1874.77 32.639 1871.7 32.639C1868.63 32.639 1866.14 35.1116 1866.14 38.1617C1866.14 41.2117 1868.63 43.6843 1871.7 43.6843Z" fill="#115C07"/>
<path d="M1871.7 76.3105C1874.77 76.3105 1877.26 73.838 1877.26 70.7879C1877.26 67.7378 1874.77 65.2653 1871.7 65.2653C1868.63 65.2653 1866.14 67.7378 1866.14 70.7879C1866.14 73.838 1868.63 76.3105 1871.7 76.3105Z" fill="#115C07"/>
<path d="M1871.7 108.95C1874.77 108.95 1877.26 106.477 1877.26 103.427C1877.26 100.377 1874.77 97.9043 1871.7 97.9043C1868.63 97.9043 1866.14 100.377 1866.14 103.427C1866.14 106.477 1868.63 108.95 1871.7 108.95Z" fill="#115C07"/>
<path d="M1270.87 62.0138C1270.87 79.4241 1256.65 93.5623 1239.08 93.5623C1221.51 93.5623 1207.29 79.4241 1207.29 62.0138C1207.29 44.6036 1221.51 30.4653 1239.08 30.4653C1256.65 30.4653 1270.87 44.6036 1270.87 62.0138Z" stroke="#115C07" stroke-width="4"/>
<path d="M1909.81 414.781C1909.81 432.191 1895.59 446.33 1878.02 446.33C1860.45 446.33 1846.23 432.191 1846.23 414.781C1846.23 397.371 1860.45 383.233 1878.02 383.233C1895.59 383.233 1909.81 397.371 1909.81 414.781Z" stroke="#0E7139" stroke-width="4"/>
<path d="M1255.02 679.148C1251.17 679.148 1249.31 677.441 1247.15 675.467C1244.85 673.364 1242.24 670.969 1237.17 670.969C1232.09 670.969 1229.48 673.364 1227.18 675.467C1225.02 677.441 1223.16 679.148 1219.31 679.148C1215.46 679.148 1213.61 677.441 1211.45 675.467C1209.15 673.364 1206.54 670.969 1201.46 670.969C1196.38 670.969 1193.77 673.364 1191.47 675.467C1189.31 677.441 1187.45 679.148 1183.6 679.148C1179.76 679.148 1177.9 677.441 1175.74 675.467C1173.43 673.364 1170.83 670.969 1165.75 670.969C1163.49 670.969 1161.72 671.442 1160.24 672.162V675.673C1161.66 674.66 1163.3 673.973 1165.75 673.973C1169.6 673.973 1171.46 675.681 1173.62 677.655C1175.92 679.766 1178.53 682.152 1183.6 682.152C1188.68 682.152 1191.29 679.758 1193.59 677.655C1195.75 675.681 1197.61 673.973 1201.46 673.973C1205.31 673.973 1207.16 675.681 1209.32 677.655C1211.62 679.766 1214.23 682.152 1219.31 682.152C1224.39 682.152 1227 679.758 1229.3 677.655C1231.46 675.681 1233.32 673.973 1237.17 673.973C1241.01 673.973 1242.88 675.681 1245.03 677.655C1247.33 679.766 1249.94 682.152 1255.02 682.152C1260.1 682.152 1262.71 679.758 1265.01 677.655C1267.17 675.681 1269.02 673.973 1272.87 673.973V670.969C1267.79 670.969 1265.18 673.364 1262.88 675.467C1260.73 677.449 1258.88 679.148 1255.02 679.148Z" fill="#115C07"/>
<path d="M1165.75 686.446C1169.6 686.446 1171.46 688.309 1173.62 690.462C1175.92 692.766 1178.53 695.368 1183.6 695.368C1188.68 695.368 1191.29 692.756 1193.59 690.462C1195.75 688.309 1197.61 686.446 1201.46 686.446C1205.31 686.446 1207.16 688.309 1209.32 690.462C1211.62 692.766 1214.23 695.368 1219.31 695.368C1224.39 695.368 1227 692.756 1229.3 690.462C1231.46 688.309 1233.32 686.446 1237.17 686.446C1241.01 686.446 1242.88 688.309 1245.03 690.462C1247.33 692.766 1249.94 695.368 1255.02 695.368C1260.1 695.368 1262.71 692.756 1265.01 690.462C1267.17 688.309 1269.02 686.446 1272.87 686.446V683.169C1267.79 683.169 1265.18 685.781 1262.88 688.075C1260.73 690.228 1258.87 692.091 1255.02 692.091C1251.17 692.091 1249.31 690.228 1247.15 688.075C1244.85 685.772 1242.24 683.169 1237.17 683.169C1232.09 683.169 1229.48 685.781 1227.18 688.075C1225.02 690.228 1223.16 692.091 1219.31 692.091C1215.46 692.091 1213.61 690.228 1211.45 688.075C1209.15 685.772 1206.54 683.169 1201.46 683.169C1196.38 683.169 1193.77 685.781 1191.47 688.075C1189.31 690.228 1187.45 692.091 1183.6 692.091C1179.76 692.091 1177.9 690.228 1175.74 688.075C1173.44 685.772 1170.83 683.169 1165.75 683.169C1163.49 683.169 1161.72 683.684 1160.24 684.47V688.3C1161.66 687.195 1163.3 686.446 1165.75 686.446Z" fill="#115C07"/>
<path d="M1165.75 699.389C1169.6 699.389 1171.46 701.097 1173.62 703.071C1175.92 705.182 1178.53 707.568 1183.6 707.568C1188.68 707.568 1191.29 705.173 1193.59 703.071C1195.75 701.097 1197.61 699.389 1201.46 699.389C1205.31 699.389 1207.16 701.097 1209.32 703.071C1211.62 705.182 1214.23 707.568 1219.31 707.568C1224.39 707.568 1227 705.173 1229.3 703.071C1231.46 701.097 1233.32 699.389 1237.17 699.389C1241.01 699.389 1242.88 701.097 1245.03 703.071C1247.33 705.182 1249.94 707.568 1255.02 707.568C1260.1 707.568 1262.71 705.173 1265.01 703.071C1267.17 701.097 1269.02 699.389 1272.87 699.389V696.385C1267.79 696.385 1265.18 698.779 1262.88 700.882C1260.73 702.856 1258.87 704.564 1255.02 704.564C1251.17 704.564 1249.31 702.856 1247.15 700.882C1244.85 698.771 1242.24 696.385 1237.17 696.385C1232.09 696.385 1229.48 698.779 1227.18 700.882C1225.02 702.856 1223.16 704.564 1219.31 704.564C1215.46 704.564 1213.61 702.856 1211.45 700.882C1209.15 698.771 1206.54 696.385 1201.46 696.385C1196.38 696.385 1193.77 698.779 1191.47 700.882C1189.31 702.856 1187.45 704.564 1183.6 704.564C1179.76 704.564 1177.9 702.856 1175.74 700.882C1173.44 698.771 1170.83 696.385 1165.75 696.385C1163.49 696.385 1161.72 696.857 1160.24 697.578V701.088C1161.66 700.075 1163.3 699.389 1165.75 699.389Z" fill="#115C07"/>
<path d="M159.407 61.0433C155.559 61.0433 153.701 59.3354 151.542 57.3614C149.242 55.2587 146.632 52.8643 141.554 52.8643C136.475 52.8643 133.865 55.2587 131.565 57.3614C129.406 59.3354 127.549 61.0433 123.7 61.0433C119.852 61.0433 117.994 59.3354 115.835 57.3614C113.535 55.2587 110.925 52.8643 105.847 52.8643C100.768 52.8643 98.1583 55.2587 95.8581 57.3614C93.6994 59.3354 91.8415 61.0433 87.993 61.0433C84.1445 61.0433 82.2866 59.3354 80.1279 57.3614C77.8188 55.2587 75.2177 52.8643 70.1394 52.8643C67.8746 52.8643 66.1051 53.3363 64.6277 54.0572V57.5674C66.0521 56.5547 67.6888 55.8681 70.1394 55.8681C73.9879 55.8681 75.8458 57.576 78.0045 59.5499C80.3048 61.6612 82.9147 64.0471 87.993 64.0471C93.0712 64.0471 95.6811 61.6526 97.9814 59.5499C100.14 57.576 101.998 55.8681 105.847 55.8681C109.695 55.8681 111.553 57.576 113.712 59.5499C116.012 61.6612 118.622 64.0471 123.7 64.0471C128.778 64.0471 131.388 61.6526 133.688 59.5499C135.847 57.576 137.705 55.8681 141.554 55.8681C145.402 55.8681 147.269 57.576 149.419 59.5499C151.719 61.6612 154.329 64.0471 159.407 64.0471C164.485 64.0471 167.095 61.6526 169.396 59.5499C171.554 57.576 173.412 55.8681 177.261 55.8681V52.8643C172.182 52.8643 169.572 55.2587 167.272 57.3614C165.122 59.3439 163.264 61.0433 159.407 61.0433Z" fill="#115C07"/>
<path d="M70.1394 68.3406C73.9879 68.3406 75.8458 70.2038 78.0045 72.3572C80.3048 74.6604 82.9147 77.2632 87.993 77.2632C93.0712 77.2632 95.6811 74.651 97.9814 72.3572C100.14 70.2038 101.998 68.3406 105.847 68.3406C109.695 68.3406 111.553 70.2038 113.712 72.3572C116.012 74.6604 118.622 77.2632 123.7 77.2632C128.778 77.2632 131.388 74.651 133.688 72.3572C135.847 70.2038 137.705 68.3406 141.554 68.3406C145.402 68.3406 147.269 70.2038 149.419 72.3572C151.719 74.6604 154.329 77.2632 159.407 77.2632C164.485 77.2632 167.095 74.651 169.396 72.3572C171.554 70.2038 173.412 68.3406 177.261 68.3406V65.0637C172.182 65.0637 169.572 67.6759 167.272 69.9697C165.114 72.1231 163.256 73.9863 159.407 73.9863C155.559 73.9863 153.701 72.1231 151.542 69.9697C149.242 67.6665 146.632 65.0637 141.554 65.0637C136.475 65.0637 133.865 67.6759 131.565 69.9697C129.406 72.1231 127.549 73.9863 123.7 73.9863C119.852 73.9863 117.994 72.1231 115.835 69.9697C113.535 67.6665 110.925 65.0637 105.847 65.0637C100.768 65.0637 98.1583 67.6759 95.8581 69.9697C93.6994 72.1231 91.8415 73.9863 87.993 73.9863C84.1445 73.9863 82.2866 72.1231 80.1279 69.9697C77.8276 67.6665 75.2177 65.0637 70.1394 65.0637C67.8746 65.0637 66.1051 65.5787 64.6277 66.3651V70.1944C66.0521 69.0896 67.6888 68.3406 70.1394 68.3406Z" fill="#115C07"/>
<path d="M70.1394 81.2836C73.9879 81.2836 75.8458 82.9915 78.0045 84.9654C80.3048 87.0767 82.9147 89.4626 87.993 89.4626C93.0712 89.4626 95.6811 87.0681 97.9814 84.9654C100.14 82.9915 101.998 81.2836 105.847 81.2836C109.695 81.2836 111.553 82.9915 113.712 84.9654C116.012 87.0767 118.622 89.4626 123.7 89.4626C128.778 89.4626 131.388 87.0681 133.688 84.9654C135.847 82.9915 137.705 81.2836 141.554 81.2836C145.402 81.2836 147.269 82.9915 149.419 84.9654C151.719 87.0767 154.329 89.4626 159.407 89.4626C164.485 89.4626 167.095 87.0681 169.396 84.9654C171.554 82.9915 173.412 81.2836 177.261 81.2836V78.2798C172.182 78.2798 169.572 80.6743 167.272 82.7769C165.114 84.7509 163.256 86.4588 159.407 86.4588C155.559 86.4588 153.701 84.7509 151.542 82.7769C149.242 80.6657 146.632 78.2798 141.554 78.2798C136.475 78.2798 133.865 80.6743 131.565 82.7769C129.406 84.7509 127.549 86.4588 123.7 86.4588C119.852 86.4588 117.994 84.7509 115.835 82.7769C113.535 80.6657 110.925 78.2798 105.847 78.2798C100.768 78.2798 98.1583 80.6743 95.8581 82.7769C93.6994 84.7509 91.8415 86.4588 87.993 86.4588C84.1445 86.4588 82.2866 84.7509 80.1279 82.7769C77.8276 80.6657 75.2177 78.2798 70.1394 78.2798C67.8746 78.2798 66.1051 78.7518 64.6277 79.4727V82.9829C66.0521 81.9702 67.6888 81.2836 70.1394 81.2836Z" fill="#115C07"/>
</svg>
