<svg width="19" height="19" viewBox="0 0 19 19" fill="none" xmlns="http://www.w3.org/2000/svg">
<path d="M18 9.44502C18 4.78845 14.1867 0.999756 9.5 0.999756C4.81325 0.999756 1 4.78845 1 9.44502C1 11.9046 2.06451 14.1215 3.75895 15.6663L3.75091 15.6733L4.02662 15.9043C4.04455 15.9193 4.06402 15.9316 4.08195 15.9463C4.22845 16.067 4.38022 16.1816 4.53476 16.2924C4.58484 16.3284 4.63491 16.3643 4.68591 16.3993C4.85096 16.5123 5.02035 16.6195 5.19344 16.7211C5.23115 16.7433 5.26916 16.7648 5.30718 16.7863C5.49665 16.8934 5.69015 16.9945 5.88827 17.0872C5.9028 17.094 5.91764 17.1001 5.93216 17.1069C6.57785 17.4051 7.26713 17.624 7.98793 17.7533C8.00678 17.7567 8.02564 17.7601 8.0448 17.7634C8.26858 17.8018 8.49484 17.8325 8.72387 17.8531C8.75169 17.8556 8.77951 17.8571 8.80764 17.8596C9.03575 17.8783 9.26633 17.8903 9.5 17.8903C9.73151 17.8903 9.95993 17.8783 10.1868 17.8602C10.2155 17.8577 10.2443 17.8562 10.273 17.8537C10.5002 17.8332 10.7246 17.8034 10.9462 17.7656C10.9654 17.7622 10.9849 17.7588 11.004 17.7552C11.714 17.6286 12.3934 17.4146 13.0307 17.1241C13.0542 17.1133 13.078 17.1032 13.1015 17.0921C13.2922 17.0031 13.4786 16.9069 13.6613 16.8047C13.7067 16.7792 13.7519 16.7534 13.797 16.727C13.9633 16.6296 14.1268 16.528 14.2857 16.4199C14.3428 16.3812 14.3988 16.3403 14.4553 16.2998C14.591 16.2028 14.7243 16.1026 14.8538 15.9979C14.8825 15.9749 14.9134 15.9549 14.9415 15.9313L15.2244 15.6967L15.216 15.6896C16.9253 14.1443 18 11.9172 18 9.44502ZM1.61818 9.44502C1.61818 5.12688 5.15387 1.61396 9.5 1.61396C13.8461 1.61396 17.3818 5.12688 17.3818 9.44502C17.3818 11.7719 16.3541 13.8639 14.727 15.2993C14.6362 15.2369 14.5447 15.181 14.451 15.1344L11.8339 13.8344C11.599 13.7177 11.4531 13.4831 11.4531 13.2224V12.3143C11.5137 12.2399 11.5777 12.1558 11.6439 12.0634C11.9826 11.588 12.2543 11.0591 12.4524 10.4901C12.8441 10.3052 13.0969 9.91764 13.0969 9.48003V8.39136C13.0969 8.1251 12.9986 7.86683 12.8227 7.66383V6.2306C12.8388 6.07121 12.8957 5.17171 12.2407 4.42976C11.6711 3.78362 10.749 3.45656 9.5 3.45656C8.25096 3.45656 7.32895 3.78362 6.75929 4.42945C6.10433 5.17141 6.1612 6.0709 6.17727 6.23029V7.66353C6.00171 7.86652 5.90311 8.12479 5.90311 8.39105V9.47972C5.90311 9.81784 6.0558 10.1332 6.31729 10.346C6.56765 11.3205 7.08291 12.0581 7.27331 12.3081V13.1969C7.27331 13.4475 7.13576 13.6778 6.91415 13.7982L4.47016 15.1227C4.39227 15.1648 4.315 15.2139 4.23773 15.2689C2.63076 13.8341 1.61818 11.755 1.61818 9.44502ZM14.1237 15.7811C14.0155 15.8591 13.9055 15.9347 13.7939 16.0068C13.7426 16.04 13.6916 16.0732 13.6393 16.1054C13.4935 16.1951 13.3451 16.2805 13.1936 16.3603C13.1603 16.3778 13.1266 16.3944 13.0929 16.4116C12.7448 16.5888 12.3847 16.7411 12.0148 16.8649C12.0018 16.8692 11.9888 16.8738 11.9755 16.8781C11.7817 16.942 11.5854 16.9988 11.387 17.0476L11.3851 17.0479C11.1849 17.097 10.9821 17.1379 10.7781 17.1714C10.7725 17.1723 10.767 17.1735 10.7614 17.1744C10.5695 17.2054 10.376 17.2279 10.1819 17.2448C10.1475 17.2478 10.1132 17.25 10.0786 17.2524C9.88667 17.2669 9.6938 17.2761 9.5 17.2761C9.30404 17.2761 9.10869 17.2666 8.91427 17.2521C8.88058 17.2497 8.84689 17.2475 8.81351 17.2444C8.61755 17.2272 8.42251 17.2042 8.22933 17.1729C8.22067 17.1714 8.21202 17.1698 8.20336 17.1683C7.79475 17.1004 7.39262 17.0006 7.001 16.8701C6.98895 16.8661 6.97658 16.8618 6.96453 16.8578C6.77011 16.7921 6.57785 16.7193 6.389 16.6388L6.38498 16.637C6.20633 16.5605 6.03107 16.4758 5.85798 16.3864C5.83542 16.3747 5.81255 16.3637 5.79029 16.3517C5.63235 16.2679 5.4778 16.1773 5.32542 16.0827C5.28029 16.0544 5.23547 16.0259 5.19096 15.997C5.05064 15.9058 4.91216 15.8109 4.7774 15.7105C4.76349 15.7 4.7502 15.689 4.73629 15.6785C4.74618 15.673 4.75607 15.6675 4.76596 15.662L7.20995 14.3374C7.63031 14.1096 7.89149 13.6726 7.89149 13.1969L7.89118 12.0907L7.82009 12.0053C7.81329 11.9976 7.14504 11.19 6.89251 10.0964L6.86438 9.97476L6.75898 9.9069C6.61031 9.81139 6.52129 9.6517 6.52129 9.47941V8.39074C6.52129 8.24794 6.58218 8.11496 6.69345 8.01516L6.79545 7.92364V6.21309L6.79267 6.17286C6.79175 6.16549 6.70056 5.42692 7.22416 4.8339C7.67111 4.3278 8.43704 4.07076 9.5 4.07076C10.5589 4.07076 11.3224 4.32565 11.7706 4.82807C12.2936 5.41494 12.2079 6.16733 12.2073 6.17348L12.2045 7.92426L12.3065 8.01577C12.4175 8.11527 12.4787 8.24855 12.4787 8.39136V9.48003C12.4787 9.69899 12.3288 9.89768 12.1137 9.96371L11.9601 10.0107L11.9106 10.1627C11.7282 10.7256 11.4686 11.2455 11.1391 11.708C11.0581 11.8217 10.9793 11.9224 10.9116 11.9995L10.835 12.0864V13.2224C10.835 13.7174 11.1119 14.1627 11.5576 14.3838L14.1747 15.6838C14.1914 15.6921 14.2078 15.7007 14.2241 15.7093C14.1911 15.7341 14.1571 15.7572 14.1237 15.7811Z" fill="white" stroke="white" stroke-width="0.3"/>
</svg>
