<svg width="25" height="25" viewBox="0 0 25 25" fill="none" xmlns="http://www.w3.org/2000/svg">
<path d="M12.7203 20.4167C12.3583 20.4167 12.097 20.4167 11.8358 20.4167C8.74179 20.4167 5.64784 20.4181 2.55255 20.4154C0.75426 20.4141 0.000994629 19.6688 0.000994629 17.8957C-0.000331543 12.7462 -0.000331543 7.59665 0.000994629 2.44712C0.000994629 0.793383 0.778131 0.00431006 2.42922 0.00298389C8.94868 -0.000994629 15.4695 -0.000994629 21.9889 0.00298389C23.5976 0.00431006 24.4012 0.810623 24.4012 2.40203C24.4039 7.61786 24.4039 12.8337 24.4012 18.0495C24.3999 19.5985 23.5896 20.4022 22.0221 20.4154C21.1163 20.4234 20.2079 20.3862 19.3048 20.434C18.9838 20.4512 18.6125 20.5838 18.3658 20.7881C16.7983 22.0811 15.2652 23.4179 13.7017 24.7175C13.5081 24.878 13.2057 24.9085 12.9537 25C12.8755 24.7626 12.7349 24.5279 12.7309 24.2892C12.7084 23.0293 12.7203 21.7721 12.7203 20.4167ZM13.5797 23.6513C13.8754 23.4179 14.0452 23.2932 14.2069 23.1566C15.4708 22.0864 16.7187 20.9963 18.0064 19.9566C18.2863 19.7311 18.7013 19.5879 19.0621 19.5667C20.009 19.5136 20.9598 19.5494 21.9094 19.5481C23.14 19.5455 23.5154 19.1675 23.5167 17.9156C23.518 13.7421 23.518 9.56734 23.5154 5.39387C23.5154 5.18036 23.4915 4.96817 23.4782 4.73742C15.9323 4.73742 8.43412 4.73742 0.913401 4.73742C0.894835 4.87667 0.869637 4.98276 0.869637 5.08885C0.866985 9.46124 0.860354 13.835 0.873616 18.2073C0.876268 19.1171 1.35899 19.5455 2.31251 19.5468C5.75791 19.5521 9.2033 19.5481 12.6487 19.5494C13.5412 19.5494 13.577 19.5852 13.5783 20.4831C13.581 21.4896 13.5797 22.4962 13.5797 23.6513ZM23.5167 3.79053C23.5167 3.30515 23.518 2.88873 23.5167 2.47232C23.5114 1.2403 23.1308 0.864996 21.8828 0.864996C15.4297 0.864996 8.97653 0.864996 2.5247 0.864996C2.32577 0.864996 2.12287 0.846429 1.92925 0.882236C1.37889 0.984351 0.9691 1.29865 0.916053 1.86891C0.857702 2.49486 0.902792 3.12877 0.902792 3.79053C8.45136 3.79053 15.9336 3.79053 23.5167 3.79053Z" fill="black"/>
<path d="M16.2081 9.37921C17.334 9.37921 18.4612 9.39513 19.5871 9.37258C20.1441 9.36065 20.3921 9.55559 20.3855 10.1391C20.3656 11.9944 20.3669 13.8497 20.3855 15.7051C20.3908 16.278 20.1627 16.4888 19.5977 16.4848C17.3234 16.4676 15.0477 16.4689 12.7733 16.4848C12.2176 16.4888 11.967 16.2979 11.9723 15.7157C11.9908 13.8603 11.9908 12.005 11.9723 10.1497C11.967 9.57416 12.1977 9.36197 12.7627 9.37258C13.9111 9.39645 15.0596 9.37921 16.2081 9.37921ZM12.9099 10.2983C12.9099 12.0833 12.9099 13.8139 12.9099 15.534C15.1312 15.534 17.3035 15.534 19.4678 15.534C19.4678 13.7622 19.4678 12.0475 19.4678 10.2983C17.2756 10.2983 15.1193 10.2983 12.9099 10.2983Z" fill="black"/>
<path d="M12.1964 7.33127C14.6021 7.33127 17.0078 7.33127 19.4148 7.33127C19.5912 7.33127 19.7941 7.28353 19.9373 7.35381C20.1017 7.43604 20.2145 7.62435 20.3484 7.76625C20.2039 7.9002 20.0765 8.06995 19.9068 8.15615C19.7835 8.21848 19.6044 8.17339 19.4493 8.17339C14.6154 8.17339 9.78147 8.17339 4.94757 8.17339C4.85872 8.17339 4.75395 8.20389 4.68632 8.16676C4.46352 8.0474 4.09352 7.92539 4.0723 7.76493C4.01527 7.33923 4.39191 7.32994 4.71417 7.32994C6.19285 7.33127 7.67153 7.32994 9.15021 7.32994C10.1661 7.33127 11.1806 7.33127 12.1964 7.33127Z" fill="black"/>
<path d="M7.37722 9.38024C8.25912 9.38024 9.14368 9.34974 10.0229 9.40146C10.259 9.41472 10.4805 9.67996 10.7086 9.82981C10.4765 9.97437 10.2457 10.2396 10.0097 10.2436C8.24586 10.2794 6.48072 10.2794 4.71691 10.2436C4.48616 10.2383 4.26071 9.96508 4.03394 9.81655C4.26602 9.67067 4.49146 9.41339 4.7315 9.40013C5.61075 9.34974 6.49531 9.38024 7.37722 9.38024Z" fill="black"/>
<path d="M7.36927 16.4821C6.48737 16.4821 5.60281 16.5126 4.72356 16.4609C4.48618 16.4463 4.26471 16.1811 4.03528 16.0312C4.26471 15.884 4.49148 15.6148 4.72356 15.6108C6.48737 15.575 8.25383 15.575 10.0176 15.6108C10.251 15.6161 10.4778 15.8854 10.7086 16.0326C10.4778 16.1824 10.255 16.4477 10.0163 16.4609C9.13706 16.5126 8.25251 16.4821 7.36927 16.4821Z" fill="black"/>
<path d="M7.31083 14.3962C6.42893 14.3962 5.5457 14.424 4.66645 14.3763C4.45028 14.3643 4.24738 14.111 4.03784 13.9678C4.2434 13.8193 4.4463 13.5474 4.65319 13.5434C6.46076 13.509 8.26833 13.5103 10.0746 13.5434C10.2881 13.5474 10.4963 13.8126 10.7058 13.9559C10.4777 14.1031 10.2549 14.363 10.0189 14.3749C9.11973 14.4267 8.21396 14.3962 7.31083 14.3962Z" fill="black"/>
<path d="M7.32542 12.3233C6.44484 12.3233 5.56294 12.3498 4.68369 12.3047C4.46222 12.2928 4.25268 12.0501 4.03784 11.9148C4.26064 11.765 4.48078 11.4905 4.70623 11.4865C6.48861 11.4507 8.27364 11.4533 10.056 11.4852C10.2735 11.4891 10.6475 11.7159 10.6714 11.8777C10.731 12.2941 10.3557 12.3233 10.0335 12.3246C9.13034 12.3233 8.22855 12.3233 7.32542 12.3233Z" fill="black"/>
<path d="M2.50481 1.57031C2.76208 1.9801 3.04721 2.23472 3.01406 2.43365C2.97825 2.64319 2.65069 2.9177 2.42656 2.9429C2.27007 2.96014 1.92925 2.60075 1.9319 2.41376C1.93455 2.18831 2.2157 1.96816 2.50481 1.57031Z" fill="black"/>
<path d="M5.05507 2.39929C4.65457 2.67779 4.43177 2.95231 4.21428 2.94833C4.02198 2.94435 3.66524 2.60352 3.68779 2.45765C3.72359 2.22689 3.99148 1.90463 4.20367 1.8675C4.39729 1.83302 4.64794 2.12876 5.05507 2.39929Z" fill="black"/>
<path d="M5.99267 1.55615C6.24994 1.98318 6.52446 2.2378 6.48998 2.43673C6.45285 2.64627 6.13457 2.91283 5.91044 2.94465C5.76722 2.96455 5.43567 2.59985 5.43567 2.40755C5.43435 2.18741 5.70754 1.96594 5.99267 1.55615Z" fill="black"/>
</svg>
