<svg width="101" height="100" viewBox="0 0 101 100" fill="none" xmlns="http://www.w3.org/2000/svg">
<path d="M19.2417 33.6849C19.2417 32.4377 19.225 31.26 19.2444 30.0795C19.2805 28.0712 20.6575 26.6963 22.6756 26.6741C24.8188 26.6518 26.9646 26.6685 29.1716 26.6685C29.1716 25.538 29.1716 24.488 29.1716 23.3353C28.2416 23.3353 27.3477 23.3381 26.4539 23.3353C24.8021 23.3298 24.2441 22.7881 24.2386 21.1771C24.233 19.2688 24.2302 17.3578 24.2386 15.4495C24.2441 13.8996 24.816 13.3385 26.3928 13.3385C38.5352 13.3357 50.6805 13.3357 62.8229 13.3357C63.2365 13.3357 63.6502 13.3357 64.2137 13.3357C64.2137 12.2968 64.2082 11.3052 64.2137 10.3136C64.2276 8.03034 65.5601 6.68873 67.8309 6.66928C68.6193 6.66373 69.4077 6.66928 70.2683 6.66928C69.9407 5.16934 69.6381 3.78606 69.3383 2.4C69.0079 0.880616 69.6548 0.0112045 71.176 0.00842683C76.52 -0.00546152 81.8611 -0.00268385 87.205 0.00842683C88.7346 0.0112045 89.398 0.87506 89.0733 2.37778C88.7734 3.76384 88.4681 5.1499 88.1349 6.66928C89.0594 6.66928 89.9116 6.65539 90.7611 6.67206C92.7626 6.70817 94.1451 8.08589 94.1895 10.0858C94.2062 10.883 94.1923 11.683 94.1923 12.4802C94.1923 15.1412 93.4483 16.1161 90.861 16.7717C90.861 19.3521 90.861 21.952 90.861 24.5519C90.861 27.2602 90.8749 29.9684 90.8555 32.6766C90.8472 33.746 91.2025 34.6321 91.9437 35.396C98.0732 41.7207 100.93 49.3065 100.874 58.1006C100.802 69.6252 100.858 81.1525 100.855 92.6771C100.855 97.2686 98.1343 99.9962 93.5482 99.9962C70.024 99.999 46.4997 100.002 22.9782 99.9935C11.7408 99.9907 3.30436 92.9826 1.24175 81.9219C0.519978 78.0499 0.864209 74.2167 2.29388 70.5585C4.84507 64.0365 6.08319 57.2562 6.80774 50.3259C7.07146 47.8038 7.69052 45.2511 8.58718 42.8762C10.3361 38.2403 13.7784 35.2737 18.5615 33.9099C18.7642 33.8571 18.9585 33.7821 19.2417 33.6849ZM70.8762 30.0267C70.8762 30.8795 70.8512 31.635 70.8818 32.3905C70.9623 34.5627 70.185 36.3598 68.6804 37.9209C63.4753 43.3207 60.8991 49.7954 60.8852 57.2896C60.8741 64.5087 60.8824 71.7279 60.8824 78.9498C60.8824 79.2887 60.8824 79.6276 60.8824 79.9442C64.9966 80.3664 67.3867 82.7164 68.611 86.3773C69.8186 89.9827 69.2245 93.3993 67.1313 96.6714C67.6116 96.6714 67.9197 96.6714 68.2307 96.6714C76.6948 96.6714 85.159 96.6714 93.6232 96.6714C96.2549 96.6714 97.5236 95.4075 97.5236 92.7854C97.5263 80.9831 97.5263 69.1835 97.5236 57.3812C97.5208 49.8482 94.9474 43.3373 89.7145 37.9125C88.2099 36.3515 87.4409 34.5515 87.5242 32.3794C87.5548 31.6017 87.5298 30.8184 87.5298 30.0323C81.9194 30.0267 76.4755 30.0267 70.8762 30.0267ZM41.5278 78.2026C41.6166 78.1832 41.7055 78.1637 41.7915 78.1443C41.3446 76.0888 41.178 73.9222 40.4035 72.0029C37.7829 65.4948 36.2061 58.7423 35.0291 51.8592C34.5155 48.8593 33.9742 45.8456 32.5806 43.079C30.5458 39.0403 27.3339 36.782 22.77 36.6848C17.0902 36.5654 12.4098 40.2041 10.9996 46.0705C10.2806 49.0565 9.96688 52.1481 9.59489 55.2063C8.90643 60.8839 7.39071 66.3336 5.43359 71.6945C3.2877 77.5804 3.90676 83.2941 7.32408 88.5189C11.6048 95.0631 17.8897 97.3936 25.4878 96.4353C34.6654 95.2798 41.5472 87.419 41.5278 78.2026ZM49.1037 36.6459C44.2955 36.7653 40.0981 38.5847 36.7891 42.3262C36.5254 42.6262 36.3394 43.1984 36.4254 43.5734C37.0417 46.3039 37.869 48.9954 38.3798 51.7425C39.3875 57.1646 40.4701 62.556 42.3523 67.7586C42.5883 68.4114 42.9408 68.7697 43.5904 68.9891C48.0432 70.4946 52.3738 70.2196 56.6268 68.2364C57.3124 67.9169 57.5845 67.5336 57.5706 66.7503C57.5206 63.5949 57.5567 60.4367 57.5484 57.2785C57.5345 52.1925 58.6672 47.3788 61.049 42.8846C61.4321 42.1596 61.2489 41.7874 60.7353 41.3041C57.5068 38.2736 53.6786 36.7515 49.1037 36.6459ZM34.4989 39.7625C42.0275 31.7461 54.8418 30.9267 63.3143 39.068C64.136 38.0847 64.8383 36.9626 65.8016 36.1515C67.8142 34.4599 67.6477 32.3044 67.4811 30.0712C52.4932 30.0712 37.5692 30.0712 22.6423 30.0712C22.6423 31.1961 22.6423 32.2516 22.6423 33.3266C27.6948 33.4627 31.6423 35.5404 34.4989 39.7625ZM70.8762 26.5963C76.495 26.5963 81.986 26.5963 87.5325 26.5963C87.5325 26.1796 87.5325 25.838 87.5325 25.4936C87.5325 22.2659 87.5325 19.041 87.5325 15.8134C87.5325 13.8023 87.9712 13.3551 89.9449 13.3329C90.2392 13.3301 90.5362 13.294 90.8055 13.2746C90.8055 12.1441 90.8055 11.1163 90.8055 10.0719C89.6257 10.0719 88.5014 10.0719 87.3799 10.0719C86.8774 12.2996 86.3971 14.4634 85.9002 16.6245C85.5921 17.9688 85.1285 18.3299 83.7294 18.3327C80.7118 18.3383 77.697 18.3383 74.6794 18.3327C73.2414 18.3299 72.8139 17.98 72.4808 16.5272C71.9867 14.3745 71.5064 12.2191 71.0261 10.0803C69.8297 10.0803 68.7081 10.0803 67.545 10.0803C67.545 10.6775 67.545 11.1969 67.545 11.7135C67.545 12.2246 67.545 12.7357 67.545 13.2968C67.8503 13.3135 68.0502 13.3301 68.2501 13.3329C70.532 13.3746 70.8762 13.7246 70.8762 16.0161C70.8762 19.5188 70.8762 23.0214 70.8762 26.5963ZM57.5512 71.5446C53.1539 73.4389 48.7594 73.8278 44.0957 72.6667C45.1339 76.7221 45.0173 80.5887 43.918 84.5996C47.3686 82.9802 50.6638 82.9525 53.7064 84.2357C54.9528 83.0969 56.0771 82.0914 57.1709 81.0553C57.3652 80.872 57.5318 80.5498 57.5345 80.2887C57.5595 77.4443 57.5512 74.6028 57.5512 71.5446ZM27.617 19.9327C40.9615 19.9327 54.2227 19.9327 67.4589 19.9327C67.4589 18.8077 67.4589 17.755 67.4589 16.7244C54.1394 16.7244 40.9004 16.7244 27.617 16.7244C27.617 17.8022 27.617 18.8299 27.617 19.9327ZM67.4978 23.4075C55.8162 23.4075 44.2206 23.4075 32.6528 23.4075C32.6528 24.5353 32.6528 25.588 32.6528 26.613C44.3094 26.613 55.88 26.613 67.4978 26.613C67.4978 25.5352 67.4978 24.5075 67.4978 23.4075ZM55.8772 89.9105C55.8911 91.8577 56.413 93.5187 57.5512 94.9548C59.2501 97.0964 61.9845 97.2325 63.9 95.2909C66.5234 92.6326 66.5373 87.4217 63.9305 84.7385C62.1011 82.8552 59.5833 82.8663 57.7899 84.7857C56.4158 86.2551 55.9244 88.0634 55.8772 89.9105ZM53.7369 95.1575C52.6959 92.8854 52.2767 90.5049 52.7181 87.9967C52.7542 87.7912 52.5238 87.419 52.3156 87.3078C49.7227 85.9079 45.3837 86.7995 43.5349 89.08C42.2662 90.6438 42.2357 92.5771 43.4516 94.1548C45.6502 97.0019 50.9109 97.538 53.7369 95.1575ZM74.4462 10.0469C74.8155 11.7135 75.1736 13.3246 75.5345 14.9495C78.019 14.9495 80.4314 14.9495 82.8799 14.9495C83.2408 13.2996 83.5906 11.6969 83.9514 10.0469C80.7368 10.0469 77.6248 10.0469 74.4462 10.0469ZM73.6773 6.59706C77.4111 6.59706 81.0643 6.59706 84.7371 6.59706C84.9758 5.49433 85.2007 4.45826 85.4283 3.40552C81.2392 3.40552 77.1362 3.40552 72.9777 3.40552C73.2137 4.48881 73.4358 5.49988 73.6773 6.59706ZM34.857 96.588C36.9335 96.588 38.9766 96.588 40.9448 96.588C40.3508 95.3659 39.7733 94.1798 39.2265 93.0604C37.7968 94.2131 36.3477 95.3825 34.857 96.588Z" fill="#0E7139"/>
<path d="M94.1921 80.3136C94.1921 82.9135 94.206 85.5162 94.1894 88.1161C94.1727 91.2132 92.0546 93.3103 88.9399 93.3298C87.4491 93.3381 85.9584 93.3437 84.4676 93.327C83.2628 93.3131 82.5161 92.6354 82.5438 91.6215C82.5688 90.6465 83.2906 90.016 84.4482 90.0021C85.8335 89.9855 87.2215 89.9993 88.6067 89.9966C90.3168 89.991 90.8609 89.4605 90.8609 87.7772C90.8637 82.5746 90.8498 77.3721 90.8803 72.1695C90.8831 71.6445 90.9691 70.9334 91.3051 70.6473C91.7326 70.2834 92.4821 70.064 93.0429 70.1445C93.8368 70.2557 94.1894 70.9667 94.1921 71.7806C94.1949 74.6277 94.1921 77.4721 94.1921 80.3136Z" fill="#0E7139"/>
<path d="M76.7975 90.0161C77.1084 90.0161 77.4304 89.9716 77.733 90.0244C78.6297 90.1855 79.1738 90.7355 79.1821 91.6549C79.1877 92.5771 78.6519 93.1632 77.7525 93.2965C77.1417 93.3882 76.506 93.3548 75.8842 93.3215C74.8931 93.2687 74.2241 92.5826 74.2185 91.6743C74.213 90.7633 74.8792 90.0827 75.8647 90.0077C76.1757 89.9827 76.4893 90.0049 76.8003 90.0049C76.7975 90.0105 76.7975 90.0133 76.7975 90.0161Z" fill="#0E7139"/>
<path d="M12.5402 76.8083C12.5291 73.9806 13.237 71.5502 14.7278 69.3697C18.6753 63.5921 26.3483 63.5171 30.232 69.3336C33.2579 73.864 33.3856 78.6999 30.6318 83.3803C26.637 90.1717 17.9424 89.9161 14.1309 83.0053C13.0371 81.022 12.5041 78.8915 12.5402 76.8083ZM29.1882 76.6722C29.0883 74.1195 28.3887 71.8113 26.4843 70.003C24.1969 67.8309 21.0405 67.7809 18.6781 69.8586C14.9276 73.1584 14.9304 80.1832 18.6836 83.4747C21.0572 85.5552 24.1941 85.5052 26.4871 83.3275C28.3887 81.5192 29.0855 79.211 29.1882 76.6722Z" fill="#0E7139"/>
<path d="M42.9685 56.7201C43.346 54.8952 43.532 53.0008 44.1455 51.2592C45.1533 48.3954 46.3747 45.5955 47.635 42.8318C48.318 41.3346 50.0447 41.3457 50.8081 42.8012C52.854 46.7122 54.6113 50.7509 55.1526 55.1813C55.3108 56.4674 55.2609 57.8284 55.0221 59.1006C54.553 61.5977 52.3488 63.2754 49.8059 63.3449C48.2874 63.3865 46.8355 63.2532 45.5475 62.331C43.6237 60.9505 43.1101 58.9784 42.9685 56.7201ZM49.359 47.3927C49.2646 47.3927 49.1702 47.3899 49.0758 47.3899C48.6261 48.5815 48.1431 49.7593 47.7322 50.9648C46.9938 53.1314 46.3275 55.3202 46.508 57.6534C46.6273 59.1867 47.3713 59.9117 48.8787 59.995C51.0551 60.1172 51.9629 59.3034 51.9629 57.1034C51.9601 53.6341 50.6249 50.5176 49.359 47.3927Z" fill="#0E7139"/>
</svg>
