<svg width="27" height="26" viewBox="0 0 27 26" fill="none" xmlns="http://www.w3.org/2000/svg">
<path d="M23.0654 9.95533C23.0075 9.88692 22.9339 9.83165 22.8502 9.79363C22.7664 9.75561 22.6746 9.73581 22.5816 9.73571H4.21924L3.72307 7.68594C3.69857 7.58395 3.64527 7.49004 3.56878 7.4141C3.4923 7.33817 3.39544 7.283 3.28841 7.2544L0.807567 6.61481C0.728321 6.59028 0.64459 6.58115 0.56147 6.58798C0.47835 6.59482 0.397579 6.61747 0.324071 6.65456C0.250563 6.69166 0.185855 6.74241 0.133885 6.80375C0.0819148 6.86508 0.043769 6.93571 0.021768 7.01134C-0.000232963 7.08696 -0.00562867 7.166 0.00590896 7.24365C0.0174466 7.32129 0.0456766 7.39592 0.088881 7.46299C0.132085 7.53006 0.18936 7.58817 0.257222 7.63379C0.325084 7.6794 0.402113 7.71156 0.483623 7.72832L2.62822 8.27929L5.66263 20.8515C5.6948 20.9793 5.77171 21.0931 5.88103 21.1749C5.99034 21.2566 6.12571 21.3015 6.26542 21.3023H20.437C20.6001 21.3023 20.7565 21.2414 20.8719 21.133C20.9872 21.0246 21.052 20.8776 21.052 20.7244C21.052 20.5711 20.9872 20.4241 20.8719 20.3157C20.7565 20.2073 20.6001 20.1464 20.437 20.1464H6.73288L6.29002 18.3086H20.7322C20.8703 18.308 21.0042 18.2641 21.1127 18.1838C21.2212 18.1035 21.298 17.9915 21.3309 17.8655L23.1802 10.4485C23.2021 10.3635 23.2031 10.2749 23.1832 10.1895C23.1633 10.1041 23.123 10.024 23.0654 9.95533ZM20.2442 17.1527H6.01118L4.49807 10.8916H21.8066L20.2442 17.1527Z" fill="white"/>
<path d="M9.41903 25.9107C9.00767 25.9115 8.60531 25.7976 8.26289 25.5834C7.92046 25.3692 7.65335 25.0644 7.49537 24.7075C7.33739 24.3506 7.29563 23.9577 7.37539 23.5786C7.45514 23.1994 7.65282 22.8509 7.94341 22.5774C8.234 22.3038 8.60443 22.1174 9.00782 22.0417C9.41122 21.966 9.82944 22.0044 10.2096 22.1522C10.5897 22.2999 10.9146 22.5503 11.1433 22.8716C11.3719 23.1929 11.4939 23.5708 11.4939 23.9573C11.4928 24.4744 11.274 24.9701 10.8852 25.3361C10.4965 25.7021 9.96936 25.9087 9.41903 25.9107ZM9.41903 23.1636C9.2508 23.1628 9.08613 23.209 8.94591 23.2964C8.8057 23.3837 8.69627 23.5083 8.63151 23.6541C8.56676 23.8 8.54961 23.9607 8.58223 24.1158C8.61485 24.2709 8.69578 24.4133 8.81473 24.5251C8.93369 24.6369 9.08531 24.7129 9.25034 24.7436C9.41538 24.7742 9.58638 24.7581 9.74165 24.6973C9.89692 24.6364 10.0294 24.5336 10.1224 24.4018C10.2154 24.2701 10.2646 24.1154 10.2637 23.9573C10.2627 23.7471 10.1733 23.5458 10.0151 23.3972C9.85696 23.2485 9.64273 23.1646 9.41903 23.1636Z" fill="white"/>
<path d="M16.9346 25.9107C16.5233 25.9115 16.1209 25.7976 15.7785 25.5834C15.4361 25.3692 15.169 25.0644 15.011 24.7075C14.853 24.3506 14.8113 23.9577 14.891 23.5786C14.9708 23.1994 15.1684 22.8509 15.459 22.5774C15.7496 22.3038 16.1201 22.1174 16.5234 22.0417C16.9268 21.966 17.3451 22.0044 17.7252 22.1522C18.1053 22.2999 18.4303 22.5503 18.6589 22.8716C18.8875 23.1929 19.0095 23.5708 19.0095 23.9573C19.0095 24.4747 18.7911 24.971 18.4021 25.3372C18.0131 25.7035 17.4853 25.9097 16.9346 25.9107ZM16.9346 23.1636C16.7664 23.1628 16.6017 23.209 16.4615 23.2964C16.3213 23.3837 16.2119 23.5083 16.1471 23.6541C16.0824 23.8 16.0652 23.9607 16.0979 24.1158C16.1305 24.2709 16.2114 24.4133 16.3304 24.5251C16.4493 24.6369 16.6009 24.7129 16.766 24.7436C16.931 24.7742 17.102 24.7581 17.2573 24.6973C17.4125 24.6364 17.5451 24.5336 17.638 24.4018C17.731 24.2701 17.7802 24.1154 17.7794 23.9573C17.7783 23.7471 17.6889 23.5458 17.5308 23.3972C17.3726 23.2485 17.1584 23.1646 16.9346 23.1636Z" fill="white"/>
<path d="M22.7634 0.79541C22.1222 0.79541 21.4954 0.986427 20.9623 1.34431C20.4291 1.70218 20.0136 2.21085 19.7683 2.80598C19.5229 3.40111 19.4587 4.05597 19.5838 4.68776C19.7089 5.31954 20.0176 5.89988 20.471 6.35537C20.9244 6.81086 21.502 7.12105 22.1309 7.24672C22.7598 7.37239 23.4116 7.3079 24.004 7.06139C24.5963 6.81488 25.1026 6.39742 25.4589 5.86182C25.8151 5.32622 26.0052 4.69652 26.0052 4.05236C26.0043 3.18885 25.6624 2.36097 25.0547 1.75038C24.4469 1.13979 23.6229 0.796345 22.7634 0.79541ZM22.7634 6.1321C22.3539 6.1321 21.9537 6.01012 21.6133 5.7816C21.2728 5.55307 21.0075 5.22826 20.8508 4.84824C20.6941 4.46822 20.6531 4.05005 20.733 3.64662C20.8129 3.24319 21.0101 2.87262 21.2996 2.58176C21.5891 2.29091 21.9579 2.09283 22.3595 2.01258C22.7611 1.93233 23.1773 1.97352 23.5556 2.13093C23.9338 2.28834 24.2571 2.55491 24.4846 2.89692C24.7121 3.23893 24.8335 3.64102 24.8335 4.05236C24.8327 4.60372 24.6144 5.13228 24.2263 5.52215C23.8383 5.91202 23.3122 6.13137 22.7634 6.1321Z" fill="white"/>
</svg>
