<svg width="170" height="170" viewBox="0 0 170 170" fill="none" xmlns="http://www.w3.org/2000/svg">
<path d="M0 0H170V170H0V0Z" fill="white"/>
<path d="M56 61.3282C56.043 61.2358 56.0968 61.1469 56.1291 61.0492C56.5792 59.7272 57.4182 59.0183 58.6366 59.0112C61.1333 58.9934 63.6301 59.0005 66.1253 59.0076C66.8244 59.0094 67.1855 59.3647 67.1824 60.0026C67.1793 60.6299 66.8121 60.9959 66.1146 60.9995C63.733 61.0101 61.3515 61.003 58.9715 61.0048C57.9621 61.0066 57.7285 61.282 57.7285 62.4672C57.7285 75.481 57.7285 88.4948 57.7285 101.51C57.7285 102.685 57.9728 102.982 58.9761 102.982C71.632 102.983 84.2864 102.983 96.9423 102.982C97.1113 102.982 97.2788 102.958 97.4846 102.942C97.4846 102.635 97.4846 102.37 97.4846 102.106C97.4846 92.3115 97.4846 82.5174 97.4846 72.7233C97.4846 72.5011 97.4739 72.2773 97.4908 72.0569C97.5354 71.4901 97.9056 71.0868 98.3558 71.0921C98.8075 71.0974 99.164 71.5025 99.207 72.0747C99.2239 72.295 99.2132 72.5189 99.2132 72.741C99.2132 82.5351 99.2132 92.3292 99.2132 102.123C99.2132 102.385 99.2132 102.646 99.2132 102.982C99.4544 102.982 99.6418 102.982 99.8293 102.982C103.863 102.982 107.894 102.983 111.927 102.982C113.051 102.982 113.272 102.722 113.272 101.42C113.272 88.4503 113.272 75.481 113.272 62.5098C113.272 61.2553 113.052 61.003 111.95 61.003C107.937 61.003 103.924 61.003 99.9092 61.003C99.7002 61.003 99.4928 61.003 99.2116 61.003C99.2116 61.3371 99.2116 61.6196 99.2116 61.9003C99.2116 63.7661 99.2147 65.6318 99.2101 67.4975C99.2086 68.2722 98.8767 68.7342 98.3451 68.7324C97.8135 68.7306 97.4862 68.2704 97.4846 67.4939C97.4816 65.367 97.4846 63.2383 97.4846 61.003C97.2065 61.003 96.9669 61.003 96.7272 61.003C88.0477 61.003 79.3666 61.003 70.6871 61.0012C70.4198 61.0012 70.1447 61.0048 69.8866 60.9373C69.4579 60.8271 69.2397 60.4735 69.2505 59.9671C69.2628 59.4607 69.4979 59.1355 69.9312 59.0396C70.1171 58.9987 70.3137 59.0058 70.5043 59.0058C84.3694 59.004 98.2344 59.004 112.1 59.0058C113.962 59.0058 114.999 60.1963 114.999 62.3303C115 75.433 115 88.5356 114.999 101.64C114.999 103.744 113.977 104.943 112.156 104.981C111.717 104.989 111.278 104.982 110.803 104.982C110.763 105.382 110.754 105.736 110.691 106.075C110.391 107.662 109.28 108.838 107.867 108.929C106.604 109.01 105.331 109.014 104.067 108.95C102.32 108.863 101.158 107.525 100.969 105.514C100.956 105.363 100.945 105.213 100.931 105.025C90.6397 105.025 80.3761 105.025 70.1217 105.025C70.091 105.084 70.0602 105.117 70.0556 105.156C69.8236 107.76 68.6574 108.975 66.3788 108.982C65.5722 108.984 64.764 108.938 63.9589 108.991C61.8278 109.131 60.2576 107.633 60.2069 104.97C58.4461 105.112 56.7098 105.046 56 102.64C56 88.8697 56 75.0989 56 61.3282ZM62.0199 105.021C61.9431 106.116 62.3902 106.878 63.2475 106.924C64.509 106.994 65.7781 106.994 67.038 106.919C67.8846 106.869 68.3471 106.064 68.241 105.02C66.1852 105.021 64.1233 105.021 62.0199 105.021ZM108.977 105.048C106.86 105.048 104.786 105.048 102.713 105.048C102.729 106.231 103.179 106.901 104.081 106.944C105.285 107.001 106.496 107.003 107.701 106.935C108.598 106.885 109.065 106.132 108.977 105.048Z" fill="#0E7139"/>
<path d="M77.5283 69C82.5983 69 87.6682 69 92.7381 69C93.7942 69 94 69.227 94 70.3847C94 80.1229 94 89.8626 94 99.6008C94 100.767 93.7822 101 92.6814 101C82.5595 101 72.439 101 62.3171 101C61.2163 101 61 100.767 61 99.6008C61 89.8626 61 80.1229 61 70.3847C61 69.2286 61.2058 69 62.2619 69C67.3512 69 72.4405 69 77.5283 69ZM62.7109 70.8468C62.7109 78.4371 62.7109 85.9918 62.7109 93.5434C64.9408 93.5434 67.1379 93.5434 69.3171 93.5434C69.1143 93.0024 68.8532 92.5194 68.7548 92.0009C68.4818 90.5437 68.2596 89.0737 68.0537 87.6036C67.9344 86.7486 68.2655 86.3735 69.0829 86.3574C69.8093 86.3429 70.5372 86.3541 71.2636 86.3541C72.6613 86.3541 74.0604 86.3477 75.458 86.3574C76.1098 86.3622 76.5021 86.7116 76.5081 87.259C76.5141 87.8161 76.1352 88.1543 75.4774 88.1639C74.9747 88.1704 74.4706 88.1655 73.9679 88.1655C72.6091 88.1655 71.2517 88.1655 69.8198 88.1655C70.0286 89.4134 70.1718 90.6097 70.4418 91.7723C70.6879 92.8269 71.6306 93.5756 72.6508 93.5821C75.8757 93.6062 79.102 93.6062 82.3268 93.5837C83.3068 93.5772 84.1286 93.0475 84.427 92.0653C84.8028 90.8287 84.952 89.5116 85.2115 88.1639C84.8744 88.1639 84.6701 88.1639 84.4672 88.1639C82.7892 88.1639 81.1111 88.1688 79.4331 88.1591C78.8588 88.1559 78.4994 87.8016 78.4919 87.2816C78.4845 86.7679 78.8454 86.3654 79.4063 86.3606C81.6243 86.3461 83.8437 86.3396 86.0617 86.3638C86.7195 86.3702 87.0716 86.7728 86.9522 87.4555C86.5957 89.4923 86.6151 91.6274 85.653 93.5579C87.877 93.5579 90.0771 93.5579 92.2847 93.5579C92.2847 85.9629 92.2847 78.4065 92.2847 70.8452C82.4088 70.8468 72.5718 70.8468 62.7109 70.8468ZM92.3026 95.4579C82.4058 95.4579 72.5569 95.4579 62.7004 95.4579C62.7004 96.7106 62.7004 97.9134 62.7004 99.1532C72.5748 99.1532 82.4282 99.1532 92.3026 99.1532C92.3026 97.9134 92.3026 96.7106 92.3026 95.4579Z" fill="#0E7139"/>
<path d="M103.001 86.4301C103.001 84.6991 102.998 82.968 103.003 81.237C103.005 80.2865 103.21 80.0077 103.904 80.0044C105.301 79.9994 106.7 79.9978 108.097 80.0044C108.788 80.0077 108.996 80.2898 108.997 81.2387C109.001 84.742 109.001 88.2436 108.997 91.7469C108.996 92.704 108.777 92.9911 108.049 92.9944C106.683 93.001 105.315 93.0027 103.948 92.9944C103.208 92.9895 103.005 92.704 103.003 91.6825C102.999 89.9317 103.001 88.1809 103.001 86.4301ZM107.569 91.1099C107.569 88.001 107.569 84.9499 107.569 81.9136C106.489 81.9136 105.455 81.9136 104.422 81.9136C104.422 85.0043 104.422 88.0423 104.422 91.1099C105.481 91.1099 106.504 91.1099 107.569 91.1099Z" fill="#0E7139"/>
<path d="M105.983 82.0001C107.64 81.9853 108.98 83.7459 109 85.9622C109.02 88.1901 107.669 90.0049 105.994 90C104.337 89.9951 103.005 88.218 103 86.0066C102.996 83.7985 104.325 82.0149 105.983 82.0001ZM105.987 88.1489C106.884 88.1588 107.604 87.2143 107.612 86.0181C107.62 84.8219 106.912 83.8627 106.014 83.8512C105.116 83.8413 104.397 84.7841 104.389 85.9803C104.381 87.1765 105.09 88.1391 105.987 88.1489Z" fill="#0E7139"/>
<path d="M106.002 85.9981C105.263 85.9981 104.522 86.0025 103.783 85.9963C103.292 85.9919 103.014 85.8167 103.001 85.5237C102.986 85.2193 103.277 85.0086 103.778 85.006C105.258 84.998 106.737 84.998 108.217 85.006C108.719 85.0086 109.012 85.2166 109 85.5202C108.988 85.8149 108.712 85.9919 108.222 85.9963C107.482 86.0034 106.741 85.9981 106.002 85.9981Z" fill="#0E7139"/>
<path d="M76.1107 82.7387C75.854 83.0391 75.6867 83.2993 75.4511 83.4962C74.5639 84.238 74.572 84.4823 75.4348 85.2327C75.906 85.6438 76.3902 86.0779 76.7136 86.5795C77.4204 87.6763 76.7493 89.3624 75.4641 89.9058C75.0448 90.0826 74.6581 90.0078 74.364 89.7045C74.065 89.3969 74.0569 89.0433 74.3429 88.7199C74.5038 88.5373 74.715 88.3907 74.8937 88.2197C75.3779 87.7539 75.3877 87.4708 74.9084 87.0122C74.6337 86.7492 74.3169 86.5221 74.0342 86.2648C72.2549 84.6462 73.0138 83.1728 74.4875 82.135C74.7134 81.9769 75.1895 81.9668 75.4852 82.0574C75.7273 82.1336 75.8686 82.4584 76.1107 82.7387Z" fill="#0E7139"/>
<path d="M82 87.7191C81.917 88.6112 81.3357 89.3329 80.4484 89.8685C80.0462 90.1114 79.6099 90.0006 79.3054 89.6767C79.0156 89.3684 79.027 89.019 79.3119 88.7007C79.4357 88.5629 79.5985 88.4507 79.7418 88.3257C80.3865 87.7603 80.3816 87.4761 79.7304 86.8994C79.3315 86.547 78.8903 86.2217 78.5532 85.8282C77.4949 84.5993 78.0159 82.7837 79.5969 82.099C80.0104 81.92 80.4044 81.9839 80.6991 82.2894C81.0133 82.6147 81.0019 82.9855 80.7024 83.3122C80.4891 83.5452 80.2025 83.7271 79.9713 83.9501C79.6669 84.2413 79.6522 84.5624 79.9599 84.855C80.2611 85.142 80.5949 85.402 80.9075 85.679C81.5197 86.2245 81.9821 86.8354 82 87.7191Z" fill="#0E7139"/>
</svg>
