<svg width="42" height="30" viewBox="0 0 42 30" fill="none" xmlns="http://www.w3.org/2000/svg">
<path d="M0.875977 1.39691C0.905828 1.34148 0.943142 1.28817 0.965531 1.22953C1.2779 0.436338 1.86001 0.0109557 2.70544 0.00669117C4.43789 -0.00397005 6.17034 0.000294442 7.90172 0.00455893C8.3868 0.00562505 8.63734 0.218849 8.63521 0.601587C8.63308 0.977928 8.37828 1.19755 7.89426 1.19968C6.24177 1.20608 4.58928 1.20181 2.93786 1.20288C2.23741 1.20395 2.07536 1.36919 2.07536 2.0803C2.07536 9.88857 2.07536 17.6969 2.07536 25.5062C2.07536 26.2109 2.24488 26.3889 2.94105 26.3889C11.7227 26.39 20.5033 26.39 29.2849 26.3889C29.4022 26.3889 29.5184 26.3751 29.6613 26.3655C29.6613 26.181 29.6613 26.0222 29.6613 25.8633C29.6613 19.9869 29.6613 14.1104 29.6613 8.23395C29.6613 8.10069 29.6538 7.96636 29.6655 7.83416C29.6964 7.49407 29.9534 7.25206 30.2658 7.25525C30.5792 7.25845 30.8265 7.50153 30.8564 7.84482C30.8681 7.97702 30.8607 8.11135 30.8607 8.24461C30.8607 14.1211 30.8607 19.9975 30.8607 25.874C30.8607 26.0307 30.8607 26.1874 30.8607 26.3889C31.028 26.3889 31.1581 26.3889 31.2882 26.3889C34.0867 26.3889 36.8842 26.39 39.6828 26.3889C40.4621 26.3889 40.6157 26.2333 40.6157 25.4518C40.6157 17.6702 40.6157 9.88857 40.6157 2.10589C40.6157 1.3532 40.4632 1.20181 39.6988 1.20181C36.9141 1.20181 34.1294 1.20181 31.3436 1.20181C31.1986 1.20181 31.0547 1.20181 30.8596 1.20181C30.8596 1.40224 30.8596 1.57176 30.8596 1.74021C30.8596 2.85963 30.8617 3.97906 30.8585 5.09849C30.8575 5.56332 30.6272 5.84051 30.2583 5.83944C29.8894 5.83838 29.6623 5.56225 29.6613 5.09636C29.6591 3.82021 29.6613 2.54299 29.6613 1.20181C29.4683 1.20181 29.302 1.20181 29.1357 1.20181C23.1131 1.20181 17.0896 1.20181 11.067 1.20075C10.8815 1.20075 10.6907 1.20288 10.5116 1.16237C10.2141 1.09627 10.0627 0.884109 10.0702 0.580265C10.0787 0.27642 10.2419 0.0813197 10.5425 0.0237491C10.6715 -0.000771681 10.808 0.00349281 10.9402 0.00349281C20.5608 0.00242669 30.1815 0.00242669 39.8022 0.00349281C41.0944 0.00349281 41.814 0.717794 41.814 1.99821C41.8151 9.85979 41.8151 17.7214 41.814 25.584C41.814 26.8463 41.105 27.5659 39.8417 27.5883C39.5367 27.5937 39.2318 27.5894 38.9024 27.5894C38.8747 27.8293 38.8683 28.0414 38.8246 28.2451C38.6167 29.1971 37.8459 29.9029 36.8651 29.9572C35.9887 30.0063 35.1059 30.0084 34.2285 29.97C33.0163 29.9178 32.2104 29.115 32.0792 27.9082C32.0696 27.8175 32.0622 27.728 32.0526 27.615C24.9117 27.615 17.79 27.615 10.6747 27.615C10.6534 27.6502 10.6321 27.6704 10.6289 27.6939C10.4679 29.2557 9.65869 29.985 8.07763 29.9892C7.51792 29.9903 6.95713 29.9626 6.39849 29.9946C4.91978 30.0788 3.8302 29.18 3.79502 27.5819C2.57324 27.6672 1.36852 27.6278 0.875977 26.1842C0.875977 17.9218 0.875977 9.65936 0.875977 1.39691ZM5.05304 27.6128C4.99974 28.2696 5.30998 28.7269 5.90487 28.7547C6.78016 28.7962 7.66078 28.7962 8.535 28.7515C9.12243 28.7216 9.44333 28.2387 9.36977 27.6118C7.9433 27.6128 6.51256 27.6128 5.05304 27.6128ZM37.6359 27.6288C36.1667 27.6288 34.7275 27.6288 33.2893 27.6288C33.2999 28.3389 33.6123 28.7408 34.2381 28.7664C35.074 28.8005 35.9141 28.8016 36.7499 28.7611C37.3725 28.7312 37.6966 28.2792 37.6359 27.6288Z" fill="#0E7139"/>
<path d="M15.888 4.00012C19.5118 4.00012 23.1355 4.00012 26.7593 4.00012C27.5141 4.00012 27.6612 4.15045 27.6612 4.91699C27.6612 11.3649 27.6612 17.8139 27.6612 24.2618C27.6612 25.0336 27.5056 25.1882 26.7188 25.1882C19.4841 25.1882 12.2504 25.1882 5.01573 25.1882C4.22893 25.1882 4.07434 25.0336 4.07434 24.2618C4.07434 17.8139 4.07434 11.3649 4.07434 4.91699C4.07434 4.15151 4.22147 4.00012 4.97628 4.00012C8.61389 4.00012 12.2515 4.00012 15.888 4.00012ZM5.29718 5.22296C5.29718 10.2487 5.29718 15.2509 5.29718 20.251C6.89103 20.251 8.46143 20.251 10.019 20.251C9.87404 19.8928 9.68747 19.573 9.61711 19.2297C9.42201 18.2648 9.26316 17.2915 9.11603 16.3181C9.03074 15.752 9.26742 15.5036 9.85166 15.4929C10.3709 15.4833 10.8911 15.4908 11.4103 15.4908C12.4093 15.4908 13.4093 15.4865 14.4083 15.4929C14.8742 15.4961 15.1545 15.7275 15.1588 16.0899C15.1631 16.4588 14.8923 16.6827 14.4221 16.6891C14.0628 16.6934 13.7025 16.6902 13.3432 16.6902C12.372 16.6902 11.4018 16.6902 10.3783 16.6902C10.5276 17.5164 10.6299 18.3085 10.8229 19.0783C10.9988 19.7766 11.6726 20.2723 12.4018 20.2766C14.7068 20.2926 17.0128 20.2926 19.3177 20.2777C20.0182 20.2734 20.6056 19.9227 20.8188 19.2723C21.0875 18.4535 21.1941 17.5814 21.3796 16.6891C21.1387 16.6891 20.9926 16.6891 20.8476 16.6891C19.6482 16.6891 18.4489 16.6923 17.2495 16.6859C16.839 16.6838 16.5821 16.4492 16.5768 16.1049C16.5714 15.7648 16.8294 15.4982 17.2303 15.495C18.8156 15.4855 20.402 15.4812 21.9873 15.4972C22.4575 15.5014 22.7091 15.768 22.6238 16.22C22.369 17.5687 22.3829 18.9823 21.6952 20.2606C23.2848 20.2606 24.8573 20.2606 26.4352 20.2606C26.4352 15.2317 26.4352 10.2284 26.4352 5.2219C19.3764 5.22296 12.3453 5.22296 5.29718 5.22296ZM26.448 21.5186C19.3743 21.5186 12.3347 21.5186 5.28972 21.5186C5.28972 22.3481 5.28972 23.1445 5.28972 23.9654C12.3474 23.9654 19.3902 23.9654 26.448 23.9654C26.448 23.1445 26.448 22.3481 26.448 21.5186Z" fill="#0E7139"/>
<path d="M33.139 15.154C33.139 14.0357 33.1358 12.9173 33.14 11.799C33.1422 11.1849 33.3202 11.0047 33.9215 11.0026C35.1326 10.9994 36.3448 10.9983 37.5559 11.0026C38.1551 11.0047 38.3352 11.187 38.3363 11.8C38.3395 14.0634 38.3395 16.3257 38.3363 18.5891C38.3352 19.2074 38.1455 19.3929 37.5143 19.3951C36.3299 19.3993 35.1443 19.4004 33.9599 19.3951C33.3181 19.3919 33.1422 19.2074 33.14 18.5475C33.1368 17.4164 33.139 16.2852 33.139 15.154ZM37.0985 18.1776C37.0985 16.169 37.0985 14.1977 37.0985 12.2361C36.1625 12.2361 35.2659 12.2361 34.3703 12.2361C34.3703 14.2329 34.3703 16.1956 34.3703 18.1776C35.2883 18.1776 36.1753 18.1776 37.0985 18.1776Z" fill="#0E7139"/>
<path d="M35.7232 12.0001C37.155 11.9905 38.3139 13.1312 38.331 14.5673C38.348 16.0108 37.1806 17.1867 35.7328 17.1835C34.3 17.1803 33.1486 16.0289 33.1443 14.5961C33.1411 13.1653 34.2893 12.0097 35.7232 12.0001ZM35.7264 15.9842C36.5015 15.9906 37.1241 15.3786 37.1316 14.6035C37.138 13.8285 36.526 13.2069 35.7499 13.1994C34.9738 13.193 34.3522 13.8039 34.3447 14.579C34.3383 15.3541 34.9514 15.9778 35.7264 15.9842Z" fill="#0E7139"/>
<path d="M35.7403 15.2022C35.1027 15.2022 34.4641 15.2075 33.8266 15.2001C33.4033 15.1947 33.1634 14.9836 33.1517 14.6308C33.1389 14.264 33.3905 14.0103 33.8223 14.0071C35.0984 13.9975 36.3746 13.9975 37.6507 14.0071C38.0836 14.0103 38.3363 14.2608 38.3256 14.6265C38.316 14.9815 38.0772 15.1947 37.655 15.2001C37.0164 15.2086 36.3778 15.2022 35.7403 15.2022Z" fill="#0E7139"/>
<path d="M35.7148 25.3901C35.1039 25.3901 34.4919 25.3975 33.8811 25.3879C33.4045 25.3805 33.1497 25.1598 33.1508 24.7834C33.1518 24.406 33.4066 24.1949 33.8875 24.1939C35.1231 24.1896 36.3598 24.1896 37.5954 24.1939C38.0741 24.196 38.3278 24.4114 38.3257 24.7898C38.3236 25.164 38.0677 25.3815 37.589 25.3879C36.9643 25.3965 36.3395 25.3901 35.7148 25.3901Z" fill="#0E7139"/>
<path d="M14.7409 12.5477C14.5724 12.7705 14.4626 12.9634 14.308 13.1095C13.7259 13.6596 13.7313 13.8409 14.2974 14.3974C14.6066 14.7023 14.9243 15.0243 15.1364 15.3963C15.6002 16.2098 15.1599 17.4603 14.3166 17.8633C14.0415 17.9945 13.7878 17.939 13.5948 17.7141C13.3986 17.4859 13.3933 17.2237 13.5809 16.9838C13.6865 16.8484 13.8251 16.7396 13.9424 16.6128C14.2601 16.2674 14.2665 16.0573 13.952 15.7172C13.7718 15.5221 13.5639 15.3537 13.3784 15.1628C12.211 13.9624 12.7089 12.8696 13.6758 12.0999C13.824 11.9826 14.1364 11.9751 14.3304 12.0423C14.4893 12.0988 14.582 12.3398 14.7409 12.5477Z" fill="#0E7139"/>
<path d="M19.0362 16.2921C18.9819 16.9616 18.6013 17.5032 18.0202 17.9052C17.7569 18.0875 17.4712 18.0043 17.2718 17.7612C17.082 17.5299 17.0895 17.2676 17.2761 17.0288C17.3571 16.9254 17.4637 16.8412 17.5575 16.7473C17.9797 16.323 17.9765 16.1098 17.5501 15.677C17.2889 15.4126 16.9999 15.1684 16.7793 14.8731C16.0863 13.9509 16.4274 12.5884 17.4626 12.0745C17.7334 11.9402 17.9914 11.9882 18.1844 12.2174C18.3902 12.4615 18.3827 12.7398 18.1865 12.985C18.0469 13.1598 17.8592 13.2963 17.7078 13.4637C17.5085 13.6822 17.4989 13.9232 17.7004 14.1428C17.8976 14.3582 18.1162 14.5533 18.3209 14.7612C18.7217 15.1706 19.0245 15.629 19.0362 16.2921Z" fill="#0E7139"/>
</svg>
