<svg width="31" height="22" viewBox="0 0 31 22" fill="none" xmlns="http://www.w3.org/2000/svg">
<path d="M27.6094 0H3.39062C1.52106 0 0 1.57013 0 3.5V18.5C0 20.4299 1.52106 22 3.39062 22H27.6094C29.4789 22 31 20.4299 31 18.5V3.5C31 1.57013 29.4789 0 27.6094 0ZM3.39062 2H27.6094C28.4106 2 29.0625 2.67294 29.0625 3.5V5.5H1.9375V3.5C1.9375 2.67294 2.58941 2 3.39062 2ZM27.6094 20H3.39062C2.58941 20 1.9375 19.3271 1.9375 18.5V7.5H29.0625V18.5C29.0625 19.3271 28.4106 20 27.6094 20Z" fill="#444444"/>
</svg>
