<svg width="170" height="170" viewBox="0 0 170 170" fill="none" xmlns="http://www.w3.org/2000/svg">
<path d="M0 0H170V170H0V0Z" fill="white"/>
<path d="M52 87.648C52.6594 86.5491 53.6462 86.1726 54.9408 86.2267C56.6743 86.2997 58.4125 86.2432 60.1508 86.2456C62.4274 86.2456 62.9244 86.6268 63.3753 88.7468C65.6736 89.0057 67.9914 89.2222 70.297 89.5328C76.4162 90.354 82.0578 92.5823 87.4739 95.333C91.1129 97.1825 91.9348 100.223 89.9759 104.444C91.7772 104.037 93.4331 103.889 94.8926 103.289C99.0868 101.566 103.201 99.6626 107.344 97.8272C107.822 97.6154 108.312 97.4154 108.748 97.1401C109.066 96.9378 109.306 96.6154 109.58 96.3471C109.206 96.0436 108.792 95.4506 108.467 95.493C107.533 95.613 106.59 95.8954 105.734 96.2836C102.483 97.7613 99.2662 99.3049 96.0369 100.825C95.8914 100.893 95.7435 100.959 95.5932 101.016C94.2137 101.533 93.0258 101.136 92.5433 99.9991C92.0802 98.9073 92.6015 97.8625 93.9107 97.2625C96.3181 96.1613 98.7328 95.0742 101.133 93.9541C102.139 93.4859 103.111 92.9517 104.154 92.4199C103.691 91.4058 102.92 91.2646 102.108 91.5375C101.16 91.8528 100.265 92.3211 99.3535 92.7376C97.0915 93.7706 94.8465 94.8436 92.5676 95.8412C91.1469 96.4624 89.8765 96.0318 89.3964 94.8812C88.9091 93.7117 89.5128 92.7141 90.9868 92.0458C93.6901 90.8199 96.3763 89.5586 99.0553 88.2786C100.944 87.3774 102.888 87.0197 104.908 87.7209C106.341 88.2174 107.306 89.2339 107.979 90.5681C108.161 90.9281 108.666 91.2975 109.073 91.3634C111.837 91.8034 113.609 93.6364 113.834 96.3613C113.861 96.6672 113.99 97.1284 114.213 97.2319C116.21 98.1755 117.34 99.7567 117.944 101.764C117.944 102.47 117.944 103.176 117.944 103.882C117.299 105.604 116.397 107.138 114.717 108.117C109.344 111.242 103.856 114.153 97.8891 116.075C95.4138 116.873 92.8367 117.367 90.3056 118C88.6885 118 87.0739 118 85.4568 118C84.1161 117.748 82.7608 117.543 81.4347 117.235C76.4186 116.068 71.4098 114.868 66.3985 113.682C65.1088 113.376 64.4081 112.447 64.6021 111.296C64.796 110.143 65.8918 109.397 67.2398 109.694C71.131 110.545 75.0343 111.367 78.8769 112.397C83.7282 113.698 88.5333 114.482 93.5373 113.122C100.253 111.296 106.319 108.148 112.29 104.771C112.533 104.635 112.756 104.456 112.959 104.267C114.188 103.126 113.844 101.317 112.21 100.945C111.434 100.768 110.445 100.976 109.689 101.305C105.64 103.06 101.686 105.027 97.5982 106.689C94.5434 107.931 91.2705 109.002 87.9418 108.091C82.4748 106.597 77.0902 104.825 71.6837 103.124C70.6122 102.787 70.1442 101.639 70.4861 100.611C70.7964 99.6743 71.8607 99.0296 72.8862 99.2626C74.2585 99.5732 75.6234 99.9332 76.9714 100.34C79.3206 101.051 81.6383 101.851 83.9949 102.536C85.2022 102.886 86.4653 102.277 86.8096 101.289C87.2048 100.152 86.4362 99.5473 85.6047 98.9967C85.4374 98.8861 85.2604 98.7896 85.081 98.7025C80.2443 96.413 75.3034 94.3941 69.9309 93.62C67.7635 93.307 65.5742 93.14 63.2638 92.8929C63.2638 93.6506 63.2638 94.1141 63.2638 94.58C63.2638 100.38 63.2711 106.183 63.2589 111.983C63.2565 113.91 62.5268 114.616 60.563 114.63C58.7059 114.644 56.8464 114.586 54.9893 114.649C53.7141 114.698 52.7031 114.357 52 113.296C52 112.825 52 112.355 52 111.884C52.6885 110.818 53.6728 110.423 54.9626 110.496C56.2766 110.571 57.6004 110.512 58.9483 110.512C58.9483 103.733 58.9483 97.1001 58.9483 90.434C58.0222 90.434 57.1858 90.434 56.1942 90.434C56.1942 91.8176 56.1942 93.1376 56.1942 94.46C56.1942 98.5331 56.1869 102.609 56.1942 106.682C56.1966 107.696 55.7796 108.449 54.7711 108.766C53.7819 109.079 52.9504 108.781 52.3273 107.955C52.24 107.837 52.1091 107.75 52 107.649C52 100.983 52 94.3141 52 87.648Z" fill="#0E7139"/>
<path d="M87.6397 54C89.6253 54.6094 91.7103 55.0142 93.5795 55.8683C100.688 59.1179 104.804 66.4899 103.876 73.9914C102.933 81.6223 97.0512 87.8908 89.3586 89.472C79.2149 91.5568 69.253 85.0365 67.379 75.0832C65.5243 65.2287 72.4799 55.7718 82.7157 54.2212C82.9897 54.1812 83.2515 54.0753 83.5182 54C84.8929 54 86.2651 54 87.6397 54ZM71.2992 71.9419C71.321 79.5704 77.7506 85.7801 85.5911 85.7448C93.4437 85.7095 99.8151 79.4669 99.7763 71.8407C99.7399 64.2851 93.3419 58.1013 85.5474 58.0872C77.719 58.0755 71.2774 64.3369 71.2992 71.9419Z" fill="#0E7139"/>
<path d="M93.7589 66.1277C93.2934 66.8807 93.0631 67.4854 92.6388 67.9019C88.9246 71.5491 85.1838 75.1681 81.4357 78.7823C80.3447 79.8341 79.1519 79.893 78.2403 79.0129C77.3627 78.1635 77.4305 76.914 78.473 75.8975C82.1993 72.2597 85.9426 68.6384 89.6786 65.01C90.3987 64.3111 91.2739 63.9158 92.1782 64.4476C92.7916 64.81 93.1964 65.5088 93.7589 66.1277Z" fill="#0E7139"/>
<path d="M90.4552 79.4949C88.889 79.469 87.6283 78.2125 87.655 76.7042C87.6817 75.1888 88.9763 73.9888 90.557 74.017C92.1402 74.0453 93.3863 75.2853 93.3524 76.803C93.316 78.3254 92.0286 79.5231 90.4552 79.4949Z" fill="#0E7139"/>
<path d="M80.5488 69.8522C78.9899 69.8475 77.7147 68.6074 77.7147 67.0968C77.7147 65.5673 78.9632 64.3743 80.5609 64.3743C82.1562 64.3743 83.4169 65.5838 83.4047 67.1062C83.395 68.6145 82.1053 69.8569 80.5488 69.8522Z" fill="#0E7139"/>
<path d="M138 85.5C138 115.047 114.047 139 84.5 139C54.9528 139 31 115.047 31 85.5C31 55.9528 54.9528 32 84.5 32C114.047 32 138 55.9528 138 85.5Z" stroke="#0E7139" stroke-width="4"/>
</svg>
