<svg width="26" height="25" viewBox="0 0 26 25" fill="none" xmlns="http://www.w3.org/2000/svg">
<path d="M0.875977 13.1438C1.12599 12.7146 1.50008 12.5675 1.99091 12.5886C2.6481 12.6171 3.30713 12.5951 3.96616 12.596C4.82925 12.596 5.01767 12.7449 5.18863 13.573C6.05999 13.6742 6.9387 13.7587 7.81281 13.88C10.1328 14.2008 12.2716 15.0713 14.325 16.1458C15.7046 16.8682 16.0162 18.0557 15.2736 19.7047C15.9565 19.5457 16.5843 19.4878 17.1376 19.2534C18.7277 18.5806 20.2875 17.837 21.8584 17.1201C22.0394 17.0373 22.2251 16.9592 22.3906 16.8517C22.511 16.7726 22.602 16.6467 22.7058 16.5419C22.5643 16.4233 22.4071 16.1917 22.2839 16.2083C21.9301 16.2551 21.5725 16.3654 21.248 16.5171C20.0155 17.0943 18.7958 17.6973 17.5714 18.2911C17.5163 18.3177 17.4602 18.3434 17.4032 18.3655C16.8802 18.5677 16.4299 18.4124 16.2469 17.9684C16.0714 17.5419 16.269 17.1338 16.7653 16.8995C17.6781 16.4693 18.5935 16.0446 19.5035 15.6071C19.8849 15.4242 20.2535 15.2156 20.6488 15.0078C20.4732 14.6117 20.1809 14.5565 19.873 14.6632C19.5136 14.7863 19.1744 14.9692 18.8288 15.1319C17.9713 15.5354 17.1201 15.9546 16.2561 16.3443C15.7175 16.5869 15.2359 16.4187 15.0539 15.9693C14.8691 15.5125 15.098 15.1227 15.6569 14.8617C16.6817 14.3828 17.7001 13.8902 18.7158 13.3901C19.4318 13.0381 20.169 12.8984 20.9346 13.1723C21.4778 13.3662 21.8437 13.7633 22.0992 14.2845C22.1681 14.4251 22.3593 14.5694 22.5137 14.5951C23.5616 14.767 24.2335 15.483 24.3189 16.5474C24.329 16.6669 24.3778 16.8471 24.4623 16.8875C25.2197 17.2561 25.648 17.8738 25.8769 18.6578C25.8769 18.9335 25.8769 19.2093 25.8769 19.485C25.6324 20.1578 25.2905 20.7571 24.6535 21.1395C22.6167 22.3601 20.5357 23.4971 18.2737 24.2481C17.3352 24.5597 16.3582 24.7527 15.3986 24.9999C14.7855 24.9999 14.1733 24.9999 13.5603 24.9999C13.052 24.9016 12.5382 24.8216 12.0354 24.7012C10.1337 24.2453 8.2347 23.7765 6.33482 23.3133C5.84583 23.1938 5.58019 22.8307 5.65373 22.3813C5.72726 21.9309 6.14271 21.6395 6.65376 21.7553C8.129 22.0881 9.60883 22.4088 11.0657 22.8114C12.9049 23.3197 14.7267 23.6258 16.6238 23.0945C19.1698 22.3813 21.4696 21.1515 23.7334 19.8325C23.8253 19.7792 23.9099 19.7093 23.9871 19.6358C24.4531 19.19 24.3226 18.4832 23.7031 18.3379C23.409 18.269 23.034 18.3499 22.7472 18.4786C21.2122 19.1642 19.7131 19.9327 18.1634 20.5816C17.0052 21.0669 15.7644 21.4851 14.5024 21.1294C12.4297 20.5457 10.3883 19.8536 8.33857 19.1891C7.9323 19.0576 7.75491 18.6091 7.88451 18.2074C8.00216 17.8416 8.40567 17.5897 8.79447 17.6807C9.31471 17.8021 9.83219 17.9427 10.3432 18.1017C11.2339 18.3793 12.1126 18.6918 13.006 18.9593C13.4638 19.0962 13.9426 18.8582 14.0732 18.4721C14.223 18.0282 13.9316 17.792 13.6163 17.5769C13.5529 17.5337 13.4858 17.496 13.4178 17.462C11.5841 16.5676 9.71086 15.779 7.67402 15.4766C6.8523 15.3544 6.02231 15.2891 5.14635 15.1926C5.14635 15.4886 5.14635 15.6696 5.14635 15.8516C5.14635 18.1173 5.14911 20.384 5.14452 22.6497C5.1436 23.4025 4.86693 23.6782 4.12242 23.6837C3.41835 23.6892 2.71336 23.6662 2.00929 23.6911C1.52582 23.7104 1.14253 23.5771 0.875977 23.1626C0.875977 22.9787 0.875977 22.7949 0.875977 22.6111C1.13702 22.1947 1.51019 22.0403 1.99918 22.0688C2.49736 22.0982 2.99922 22.0752 3.51026 22.0752C3.51026 19.4271 3.51026 16.836 3.51026 14.2321C3.15915 14.2321 2.84204 14.2321 2.46611 14.2321C2.46611 14.7725 2.46611 15.2882 2.46611 15.8047C2.46611 17.3958 2.46335 18.9878 2.46611 20.5788C2.46703 20.975 2.30893 21.2691 1.92657 21.3932C1.55155 21.5154 1.23628 21.3987 1.00006 21.0761C0.966973 21.0301 0.917338 20.9961 0.875977 20.9566C0.875977 18.3526 0.875977 15.7478 0.875977 13.1438Z" fill="#0E7139"/>
<path d="M14.3875 0C15.1403 0.23806 15.9308 0.396154 16.6394 0.729806C19.3344 1.99915 20.8951 4.87886 20.5431 7.80911C20.1855 10.7899 17.9557 13.2385 15.0392 13.8562C11.1935 14.6706 7.41667 12.1236 6.70617 8.2356C6.00302 4.38619 8.64006 0.692121 12.5207 0.0864002C12.6246 0.0707747 12.7239 0.0294128 12.825 0C13.3461 0 13.8664 0 14.3875 0ZM8.19244 7.00853C8.20071 9.98842 10.6383 12.4141 13.6108 12.4003C16.588 12.3865 19.0035 9.94798 18.9888 6.96901C18.975 4.01761 16.5494 1.60208 13.5943 1.59657C10.6263 1.59197 8.18416 4.03783 8.19244 7.00853Z" fill="#0E7139"/>
<path d="M16.7074 4.73729C16.531 5.03142 16.4436 5.26764 16.2828 5.43033C14.8746 6.85501 13.4564 8.26867 12.0354 9.68049C11.6218 10.0913 11.1695 10.1143 10.8239 9.77056C10.4912 9.43875 10.5169 8.95068 10.9122 8.55361C12.3249 7.1326 13.7441 5.71802 15.1605 4.30069C15.4335 4.0277 15.7653 3.87329 16.1081 4.08101C16.3407 4.22256 16.4942 4.49555 16.7074 4.73729Z" fill="#0E7139"/>
<path d="M15.4556 9.95907C14.8618 9.94896 14.3838 9.45813 14.3939 8.86895C14.4041 8.27702 14.8949 7.80825 15.4942 7.81928C16.0944 7.83031 16.5668 8.31471 16.554 8.90756C16.5402 9.50225 16.0521 9.9701 15.4556 9.95907Z" fill="#0E7139"/>
<path d="M11.6999 6.19228C11.1089 6.19044 10.6254 5.70604 10.6254 5.11595C10.6254 4.5185 11.0988 4.05249 11.7045 4.05249C12.3093 4.05249 12.7873 4.52493 12.7827 5.11963C12.779 5.7088 12.29 6.19411 11.6999 6.19228Z" fill="#0E7139"/>
</svg>
