<svg width="103" height="100" viewBox="0 0 103 100" fill="none" xmlns="http://www.w3.org/2000/svg">
<path d="M0.75 57.9183C2.79624 50.0997 8.7924 47.408 15.9186 46.2143C16.9853 46.0343 18.0837 46.029 19.256 45.9363C18.3979 43.9486 16.5866 44.5547 15.0579 44.3801C15.0579 43.3452 15.0579 42.3659 15.0579 41.3045C16.8744 41.1378 18.654 41.1351 20.2883 42.2759C20.6606 41.7333 20.9748 41.1986 21.3629 40.7196C23.4303 38.1707 26.2845 37.165 29.3869 36.6886C33.1968 36.1036 36.8748 36.6991 40.463 38.0119C41.9548 38.5572 42.298 39.3591 41.5798 40.7646C40.0009 43.8639 37.3712 45.7828 34.282 47.1565C33.8622 47.3444 33.4292 47.5006 32.8562 47.7282C36.5923 49.491 39.7105 51.7804 41.263 55.6764C41.8571 57.1692 42.0656 58.7255 41.8623 60.4459C40.8115 60.34 39.8187 60.2395 38.8445 60.1415C38.2477 54.6786 35.3117 51.5104 29.5347 49.9541C25.3815 48.8372 21.1544 49.1019 16.9431 49.311C13.9753 49.4592 11.1766 50.3512 8.6419 51.9498C5.36791 54.0116 3.56194 56.8304 3.92366 60.8694C4.23258 64.3261 4.99827 67.6292 6.68279 70.845C9.69803 67.076 13.5318 65.128 18.0361 65.0407C18.8018 63.7358 19.3853 62.4707 20.2144 61.3987C21.3207 59.9721 22.8758 59.0537 24.6765 58.8896C26.5723 58.7176 28.5182 58.5985 30.3928 58.8393C33.6589 59.2602 35.8002 61.2373 36.8431 64.3816C36.9144 64.5934 36.9857 64.8078 37.0438 64.9745C37.1362 65.0142 37.1652 65.0327 37.1969 65.0407C38.7388 65.4059 39.7342 64.8792 40.7983 63.5956C44.5581 59.0643 50.7708 57.5636 56.3524 59.5751C61.7756 61.5284 65.5592 66.7929 65.6859 72.6263C65.7334 74.8337 65.6938 77.0411 65.6938 79.3014C64.6377 79.3014 63.6608 79.3014 62.536 79.3014C62.536 78.7324 62.5492 78.1528 62.5334 77.5731C62.4779 75.3948 62.6601 73.1715 62.2984 71.0436C61.538 66.5758 58.8184 63.5797 54.483 62.3357C50.1001 61.0758 46.2849 62.3119 43.1482 65.623C43.0135 65.7633 42.9132 65.9353 42.7785 66.1153C48.8037 69.1961 51.7503 74.0503 51.4071 80.9398C51.7318 80.9398 52.0883 80.9398 52.4447 80.9398C57.1973 80.9398 61.9499 80.9371 66.6998 80.9398C68.7011 80.9424 69.3375 81.9562 68.4661 83.7401C67.9302 84.8385 67.3889 85.9316 66.8556 87.03C66.8318 87.0803 66.8635 87.1544 66.874 87.292C68.049 87.292 69.2318 87.292 70.4121 87.292C75.0326 87.292 79.6532 87.2947 84.2711 87.292C87.5081 87.2894 89.4646 85.344 89.4646 82.1203C89.4672 67.2349 89.4672 52.3468 89.4672 37.4614C89.4672 37.1703 89.4672 36.8791 89.4672 36.5324C77.8498 36.5324 66.3143 36.5324 54.6679 36.5324C54.6679 42.8026 54.6679 49.0992 54.6679 55.4621C53.5616 55.4621 52.5609 55.4621 51.4916 55.4621C51.4757 55.1339 51.4493 54.8136 51.4493 54.4933C51.444 48.1808 51.444 41.8603 51.444 35.5425C51.444 33.7771 51.914 33.3033 53.6645 33.3033C65.9077 33.3033 78.1508 33.3033 90.394 33.3033C92.1551 33.3033 92.6303 33.7771 92.6329 35.524C92.6356 37.3767 92.6329 39.2268 92.6329 41.2436C93.1373 41.2436 93.6152 41.2383 94.093 41.2436C98.6661 41.2886 102.114 44.7056 102.13 49.2872C102.157 56.5658 102.149 63.8417 102.135 71.1203C102.128 75.9454 98.7136 79.3332 93.8845 79.3544C93.5227 79.357 93.1584 79.3544 92.5907 79.3544C92.5907 80.7201 92.7491 82.0832 92.5458 83.3881C92.3452 84.6929 91.7854 85.9422 91.3577 87.2947C92.7702 87.2947 94.3016 87.2947 95.833 87.2947C97.3169 87.2947 98.8034 87.2814 100.287 87.3C101.562 87.3132 102.143 87.9325 102.128 89.2136C102.064 94.3033 98.1486 98.8822 93.0765 99.8033C92.8574 99.843 92.6488 99.933 92.4323 99.9991C65.105 99.9991 37.7778 99.9991 10.4505 99.9991C10.3027 99.9409 10.1574 99.8562 10.0043 99.8245C5.73755 98.996 2.86225 96.516 1.35463 92.4453C1.09588 91.7439 0.948024 91.0002 0.75 90.2749C0.75 89.6132 0.75 88.9516 0.75 88.2899C1.43648 87.1094 2.65895 87.3132 3.91838 87.2629C2.77512 85.7728 1.76124 84.4494 0.75 83.1287C0.75 82.7317 0.75 82.3346 0.75 81.9376C1.52361 80.6539 2.84641 81.0007 4.03191 80.916C3.75468 78.7377 4.05039 76.7103 4.67615 74.704C4.78176 74.3626 4.69727 73.865 4.51509 73.5447C3.1078 71.0647 2.05432 68.4497 1.43648 65.6653C1.15925 64.4161 0.977067 63.1483 0.75 61.8884C0.75 60.565 0.75 59.2416 0.75 57.9183ZM98.7189 90.5343C67.1539 90.5343 35.6629 90.5343 4.12696 90.5343C4.15865 90.7275 4.16921 90.8572 4.20353 90.9816C5.20421 94.5653 8.28282 96.8257 12.201 96.8257C38.3666 96.8283 64.5321 96.8283 90.6976 96.8257C90.9616 96.8257 91.2257 96.8257 91.4897 96.8124C95.0304 96.6298 98.1855 93.9036 98.7189 90.5343ZM25.4792 68.2989C21.0989 68.0501 17.3259 72.0731 16.5074 77.716C15.512 77.716 14.506 77.716 13.4341 77.716C13.4922 74.0132 14.8915 70.9562 17.4975 68.3465C11.3165 68.32 5.46296 75.6833 7.43 80.8975C20.9352 80.8975 34.4536 80.8975 48.0697 80.8975C48.141 80.3152 48.2651 79.7673 48.2625 79.2194C48.2493 74.1376 44.5951 69.6116 39.597 68.5344C39.1006 68.4285 38.4563 68.5291 38.0075 68.7673C35.3751 70.1728 33.643 72.3458 32.8351 75.2281C32.608 76.0406 32.5024 76.8876 32.3466 77.6896C31.3037 77.6896 30.3004 77.6896 29.1624 77.6896C29.3763 76.5223 29.5109 75.4398 29.775 74.3891C30.3585 72.0758 31.5994 70.1092 33.3711 68.193C31.3275 68.373 29.7776 69.1141 28.3386 70.1172C25.7036 71.9514 24.5709 74.5955 24.4785 77.7213C23.3933 77.7213 22.4164 77.7213 21.3577 77.7213C21.4131 74.0212 22.794 70.9615 25.4792 68.2989ZM92.6726 76.0909C96.6858 76.5859 98.9697 74.6008 98.9697 70.6862C98.9697 63.7147 98.9723 56.7431 98.9697 49.7715C98.9697 46.0052 96.4139 43.8692 92.6726 44.5441C92.6726 55.0306 92.6726 65.5303 92.6726 76.0909ZM64.6667 84.2033C44.933 84.2033 25.3128 84.2033 5.56857 84.2033C6.18377 85.0264 6.75936 85.7093 7.23461 86.4557C7.65442 87.1121 8.164 87.3159 8.94026 87.3159C26.6515 87.292 44.3601 87.2973 62.0713 87.2973C62.301 87.2973 62.5439 87.3397 62.7604 87.2814C62.9585 87.2312 63.2093 87.1147 63.2938 86.9532C63.769 86.0613 64.1994 85.1482 64.6667 84.2033ZM21.7775 64.9772C25.7247 64.9772 29.6667 64.9772 33.6404 64.9772C32.9566 63.1668 31.4278 62.0022 29.5717 61.9149C28.3228 61.854 27.066 61.8566 25.8171 61.9122C23.9003 61.9969 22.2184 63.3018 21.7775 64.9772ZM26.5327 45.7246C30.4034 45.3567 34.0523 44.4303 36.9461 41.6142C33.1361 42.1171 29.7037 43.5807 26.5327 45.7246ZM30.6621 39.7456C26.5195 39.997 23.4356 42.1832 23.3326 43.7078C25.7379 42.4082 28.2146 41.069 30.6621 39.7456Z" fill="#0E7139"/>
<path d="M68.4635 25.326C67.7902 25.326 66.8107 25.326 65.7308 25.326C65.6859 23.5156 66.1612 21.8641 67.3282 20.5698C69.319 18.3624 69.2583 15.4986 67.3599 13.2277C65.0153 10.4247 65.1262 6.36197 67.4048 3.51405C68.2338 2.47652 68.8358 1.3887 68.8992 -0.000854492C69.9342 -0.000854492 70.9428 -0.000854492 72.02 -0.000854492C72.0359 1.89952 71.418 3.51934 70.2827 4.95918C68.3738 7.37832 68.3632 9.41368 70.2563 11.854C72.6643 14.956 72.6009 18.8706 70.2167 22.0229C69.5249 22.936 69.121 24.0662 68.4635 25.326Z" fill="#0E7139"/>
<path d="M77.9739 25.3153C77.2478 25.3153 76.2709 25.3153 75.2227 25.3153C75.2122 23.4494 75.8009 21.8534 76.9046 20.4321C78.8822 17.8832 78.8875 15.9246 76.9204 13.3705C74.589 10.3426 74.6551 6.4201 76.968 3.36838C77.6782 2.43143 78.1059 1.27479 78.7687 0.0175781C79.4076 0.0175781 80.4109 0.0175781 81.5146 0.0175781C81.5568 1.8359 80.9601 3.42396 79.8749 4.84263C77.8419 7.49998 77.8287 9.31301 79.8512 11.973C82.1351 14.9771 82.069 18.8705 79.8089 21.9063C79.0855 22.8777 78.6419 24.0528 77.9739 25.3153Z" fill="#0E7139"/>
</svg>
