<svg width="26" height="26" viewBox="0 0 26 26" fill="none" xmlns="http://www.w3.org/2000/svg">
<path d="M25.876 2.28659C25.7144 3.10213 25.5818 3.92378 25.3866 4.73171C24.8805 6.83232 23.9415 8.68293 22.1915 10.0366C21.9126 10.253 21.6138 10.4558 21.2967 10.6098C20.7723 10.8643 20.2738 10.7896 19.9888 10.247C19.7068 9.71189 19.9019 9.27134 20.4141 8.96189C23.0147 7.39177 23.5955 4.8125 23.94 2.08841C20.7677 1.5 16.4705 4.36128 16.7495 6.89329C16.9385 6.77439 17.1031 6.68445 17.251 6.57317C18.0848 5.9497 18.9049 5.30945 19.7479 4.6997C20.5376 4.12957 21.1184 4.13415 21.4674 4.66921C21.8089 5.19207 21.5863 5.64634 20.8516 6.22713C19.3394 7.42226 17.8333 8.62652 16.3775 9.88872C15.6717 10.5 15.0711 11.2363 14.4491 11.939C13.7464 12.7332 13.2601 12.7561 12.5056 11.9802C12.0269 11.4893 11.568 10.9741 11.0498 10.529C10.879 10.3826 10.4918 10.3095 10.2982 10.4009C7.61226 11.6692 5.26317 11.1768 3.35159 8.8811C1.95677 7.20427 1.34092 5.21037 1.04671 3.09146C1.01012 2.82012 0.933903 2.55488 0.875977 2.28659C0.875977 1.52439 0.875977 0.762195 0.875977 0C1.58787 0 2.29823 0 3.01012 0C3.30585 0.0564024 3.60159 0.129573 3.90037 0.167683C6.04976 0.445122 8.07872 1.05488 9.75707 2.48628C11.4583 3.9375 12.3546 5.70732 11.7113 8.01372C11.661 8.19512 11.7174 8.47256 11.8318 8.62348C12.2723 9.20884 12.7571 9.7622 13.2251 10.3277C13.8531 9.6997 14.2495 9.27439 14.687 8.89329C15.0376 8.58842 15.1199 8.30335 14.9674 7.83689C14.5574 6.58079 14.7982 5.37805 15.4644 4.26067C16.4293 2.64177 17.8714 1.56555 19.6199 0.983232C20.9552 0.539634 22.3653 0.320122 23.7418 0C24.4415 0 25.1412 0 25.876 0C25.876 0.762195 25.876 1.52439 25.876 2.28659ZM2.8211 2.04573C2.8836 2.54573 2.91561 3 3.00098 3.44512C3.3714 5.37348 4.00098 7.17531 5.60311 8.46342C6.6961 9.34299 7.92933 9.45579 9.11683 8.76677C8.89579 8.57165 8.70067 8.3811 8.48573 8.21494C7.54213 7.48628 6.59854 6.7561 5.64427 6.04116C5.14579 5.66768 4.95829 5.22256 5.28909 4.66463C5.58177 4.17226 6.15494 4.13415 6.75098 4.53201C6.94153 4.65854 7.12903 4.78811 7.31195 4.92531C8.17323 5.57774 9.02994 6.23323 9.91561 6.90854C10.4491 4.50152 6.38207 1.71646 2.8211 2.04573Z" fill="#444444"/>
<path d="M4.07719 25C3.53146 24.7043 3.32567 24.2592 3.33177 23.6281C3.35768 21.0915 3.33939 18.5564 3.34396 16.0199C3.34549 14.9787 3.65189 14.683 4.71591 14.6784C5.42628 14.6753 6.13664 14.6647 6.84549 14.6814C9.01469 14.7302 10.3501 16.6327 9.70219 18.6952C9.62293 18.9482 9.64274 19.3583 9.79976 19.5382C11.5635 21.558 10.9202 24.026 8.37902 24.8781C8.31043 24.901 8.25555 24.9604 8.19305 25.0016C6.8211 25 5.44914 25 4.07719 25ZM5.29671 23.0443C6.19457 23.0443 7.05433 23.0976 7.90494 23.0275C8.54213 22.9741 8.8836 22.4848 8.90646 21.8674C8.92933 21.2348 8.58024 20.7379 7.95524 20.6754C7.08482 20.59 6.19914 20.654 5.29671 20.654C5.29671 21.4711 5.29671 22.2226 5.29671 23.0443ZM5.28908 18.7318C5.91561 18.7318 6.46896 18.7805 7.01164 18.7196C7.64579 18.6479 8.03451 18.2257 7.99183 17.5885C7.95372 17.0061 7.58634 16.6098 6.95829 16.5839C6.41408 16.561 5.86683 16.5793 5.28908 16.5793C5.28908 17.3217 5.28908 17.9696 5.28908 18.7318Z" fill="#444444"/>
<path d="M19.4735 25.0001C19.1046 24.8446 18.7174 24.7211 18.3699 24.5275C17.2708 23.9177 16.6199 22.9863 16.5802 21.715C16.5406 20.4482 16.5284 19.1769 16.5833 17.9101C16.661 16.1068 18.1854 14.6952 19.9872 14.6799C21.7632 14.6647 23.3089 15.9985 23.4339 17.7729C23.5254 19.061 23.5147 20.3613 23.4598 21.651C23.3912 23.2592 22.4446 24.369 20.8805 24.8415C20.7632 24.8766 20.6549 24.9452 20.5421 24.9985C20.1854 25.0001 19.8287 25.0001 19.4735 25.0001ZM21.6153 19.8248C21.6153 19.2668 21.6382 18.7074 21.6107 18.151C21.565 17.2455 20.9217 16.6052 20.0741 16.5793C19.219 16.5534 18.4751 17.1403 18.4247 18.0321C18.3592 19.2196 18.3592 20.4162 18.4247 21.6052C18.4735 22.5046 19.1976 23.0763 20.0696 23.0565C20.9293 23.0366 21.5665 22.4101 21.6107 21.497C21.6382 20.9421 21.6153 20.3827 21.6153 19.8248Z" fill="#444444"/>
<path d="M13.2235 25C12.7662 24.6189 12.6153 24.1418 12.6229 23.5412C12.6504 21.0549 12.6336 18.5671 12.6351 16.0808C12.6351 15.8537 12.5635 15.5503 12.6793 15.4131C12.9278 15.1159 13.2815 14.7058 13.5863 14.7104C13.8836 14.7149 14.3165 15.128 14.4309 15.4527C14.5833 15.8841 14.4918 16.404 14.4918 16.8857C14.4949 19.1189 14.4781 21.3521 14.5025 23.5854C14.5086 24.1921 14.3729 24.6784 13.8333 25.0015C13.6306 25 13.4263 25 13.2235 25Z" fill="#444444"/>
</svg>
