<svg width="33" height="30" viewBox="0 0 33 30" fill="none" xmlns="http://www.w3.org/2000/svg">
<mask id="path-1-inside-1_1841_10170" fill="white">
<path d="M22.7839 14.4958C22.2456 14.1326 21.7212 13.779 21.1457 13.3907C20.3934 13.6992 19.6549 14.1785 19.0057 14.7957C18.9442 14.8537 18.8965 14.963 18.9 15.0462C18.9728 16.8109 18.2863 18.2679 17.1118 19.5351C17.0338 19.62 16.9706 19.7604 16.974 19.8722C17.0052 20.8517 17.1786 21.806 17.5028 22.7334C17.5842 22.9674 17.7168 23.0671 17.9621 23.1035C20.799 23.5239 23.6342 23.9555 26.4702 24.3837C26.556 24.3967 26.6426 24.4036 26.7285 24.4123C27.4687 24.4894 28.1118 24.7156 28.364 25.5425C29.2056 25.0337 29.8722 24.3984 30.4104 23.6253C30.6826 23.2335 30.8707 23.1451 31.1012 23.3037C31.3344 23.4649 31.3222 23.6755 31.0535 24.0638C30.3948 25.0147 29.5584 25.7696 28.553 26.3417C28.436 26.4084 28.3059 26.4933 28.2401 26.6052C27.9714 27.0619 27.5735 27.302 27.0613 27.374C25.6138 27.5759 24.1672 27.7761 22.7197 27.9772C20.1576 28.3335 17.5955 28.6888 15.0334 29.0468C12.8041 29.358 10.5757 29.6813 8.34466 29.9794C7.73447 30.0609 7.17021 29.8355 6.63109 29.5712C5.93422 29.2297 5.38904 28.7114 4.94093 28.0327C4.45468 28.2277 3.9667 28.4245 3.47958 28.6195C3.23863 28.7157 2.99767 28.8136 2.75498 28.9055C2.20112 29.1144 1.67761 28.974 1.36731 28.5354C1.05701 28.0977 1.09862 27.5621 1.47739 27.1027C1.49732 27.0793 1.51552 27.0541 1.51032 27.0611C1.15929 26.9579 0.770118 26.9068 0.447686 26.7326C0.0923183 26.541 -0.0264267 26.1605 0.00477637 25.7505C0.0533144 25.0935 0.442486 24.8266 1.56406 24.7026C1.50426 24.6333 1.45658 24.5822 1.41325 24.5276C1.09775 24.1228 1.07868 23.5689 1.36558 23.1668C1.6568 22.7585 2.17686 22.5852 2.66397 22.7681C3.32183 23.0151 3.97363 23.2786 4.62196 23.5516C4.84905 23.6469 4.9886 23.6625 5.15068 23.4181C5.34483 23.1252 5.61613 22.8833 5.83108 22.645C5.52945 22.053 5.23649 21.4645 4.92792 20.8846C4.88372 20.8014 4.77624 20.7425 4.6861 20.6965C4.43648 20.5682 4.17125 20.4686 3.92856 20.3273C2.57469 19.5403 1.98444 18.2133 2.3242 16.6852C2.38228 16.4217 2.32507 16.2873 2.11792 16.1244C1.08822 15.3105 0.580299 14.2037 0.484957 12.9235C0.439019 12.3055 0.428618 11.6476 0.587233 11.0582C0.979005 9.60469 1.98184 8.72407 3.48132 8.53512C5.0068 8.3427 6.43867 8.6244 7.64259 9.67057C7.78647 9.79538 7.91388 9.94013 8.07423 10.0996C8.13577 9.91239 8.17737 9.75811 8.23545 9.60989C8.57175 8.74834 9.18801 8.14595 10.0149 7.76458C10.2402 7.66057 10.2974 7.54009 10.3 7.30347C10.3209 5.21806 12.1835 3.05032 14.2368 2.73395C15.2171 2.58227 16.1385 2.80936 16.8787 3.46289C18.1337 4.57233 18.8896 5.94614 18.8011 7.68051C18.7855 7.97953 18.6954 8.2751 18.6477 8.57326C18.633 8.66254 18.6451 8.75614 18.6867 8.85062C19.1097 8.08268 19.3264 7.26533 19.3871 6.40551C19.3992 6.23303 19.3845 6.05881 19.3975 5.88546C19.4174 5.6081 19.3221 5.40962 19.1158 5.20593C18.0973 4.19703 17.9543 2.64035 18.7448 1.48843C19.5466 0.321785 21.0677 -0.10639 22.4112 0.458732C22.5308 0.509003 22.6539 0.557541 22.7605 0.630349C23.1314 0.88344 23.4712 0.840103 23.843 0.602613C25.1276 -0.219068 26.6886 -0.194799 27.8422 0.64075C29.0323 1.5023 29.5367 3.13526 29.0392 4.66248C28.8581 5.21806 28.9465 5.6055 29.3842 6.01634C30.9417 7.47769 30.7961 10.2686 28.1699 11.0894C27.889 11.177 27.8006 11.2923 27.7937 11.5731C27.7833 11.9926 27.72 12.4112 27.6758 12.8585C27.8743 12.8585 28.0771 12.8463 28.2782 12.8611C29.0054 12.914 29.6451 13.1922 30.1825 13.6793C30.6878 14.1378 31.2607 14.2435 31.9021 14.0789C32.1621 14.0121 32.4039 14.0121 32.5669 14.2626C32.7411 14.5296 32.6397 14.7714 32.4377 14.963C32.0564 15.3261 31.6577 15.6711 31.2442 16.0429C31.6741 16.6965 32.0278 17.4436 32.2185 18.2644C32.4152 19.1095 32.4343 19.9589 32.3103 20.8135C32.2618 21.1472 32.0815 21.3292 31.844 21.2755C31.5285 21.2044 31.4956 20.9739 31.5363 20.6956C31.7547 19.1988 31.454 17.8137 30.6358 16.5378C30.5101 16.342 30.3931 16.2882 30.1426 16.3099C29.5905 16.3584 29.0305 16.3246 28.4958 16.3246C28.6214 16.5994 28.7879 16.9383 28.9317 17.2867C29.158 17.8328 29.1432 18.3667 28.7896 18.8607C28.4464 19.3409 27.9168 19.3452 27.5831 18.8625C27.2806 18.4248 26.9018 18.0841 26.4346 17.8319C25.9016 17.5441 25.5263 17.1056 25.274 16.5179C24.6318 16.9591 23.9288 16.9487 23.2051 16.9157C22.8376 16.8993 22.4536 16.9946 22.0957 17.1012C21.4716 17.2867 21.0582 17.0085 21.0668 16.3619C21.0746 15.7768 21.3685 15.3573 21.8426 15.0531C22.1598 14.8494 22.4892 14.6683 22.7839 14.4958ZM7.32709 16.1157C7.22915 15.9762 7.17108 15.8895 7.10867 15.8046C6.49154 14.9682 5.87182 14.1343 5.25729 13.2953C4.99553 12.9374 4.74244 12.5725 4.49195 12.2058C4.3108 11.9415 4.3264 11.7092 4.53875 11.5844C4.79878 11.4309 4.99033 11.5454 5.13854 11.7733C5.17408 11.8279 5.21049 11.8817 5.24862 11.9345C6.07897 13.0708 6.90932 14.2071 7.74053 15.3426C7.78647 15.405 7.84628 15.4579 7.92515 15.5419C8.08897 14.7047 8.15657 13.9272 7.75007 13.1826C7.63046 12.9634 7.69719 12.7692 7.90695 12.6574C8.11844 12.5447 8.32299 12.608 8.43047 12.8247C8.54921 13.0648 8.66102 13.3161 8.7269 13.5744C8.94532 14.4299 8.79884 15.2698 8.59428 16.1079C8.56221 16.2397 8.58995 16.4364 8.67142 16.537C9.55291 17.6204 10.4509 18.6908 11.3454 19.763C11.4 19.8289 11.471 19.8809 11.5638 19.9667C11.686 19.0575 11.7051 18.2254 11.2821 17.4358C11.1737 17.233 11.2344 17.0276 11.4598 16.9149C11.6739 16.8083 11.8515 16.8897 11.9573 17.0778C12.0726 17.2832 12.1714 17.5043 12.2416 17.7296C12.5189 18.6241 12.4487 19.5281 12.2702 20.4278C12.2303 20.6289 12.2485 20.7693 12.4045 20.9158C12.8067 21.2946 13.1941 21.6881 13.5816 22.0816C13.7012 22.2029 13.7809 22.4213 13.9153 22.4578C14.3114 22.5644 14.7265 22.6016 15.1807 22.6727C15.1807 21.8406 15.1911 21.084 15.1781 20.3281C15.1634 19.5403 15.1989 18.742 15.0819 17.968C14.8661 16.5404 14.2446 15.275 12.9159 14.6033C12.1436 14.2132 11.6895 13.7244 11.3332 12.9469C10.7568 11.6892 9.71152 11.0652 8.27358 11.2801C8.01703 11.3183 7.87228 11.1978 7.74747 10.995C7.34876 10.3475 6.79404 9.87599 6.08677 9.59776C5.25382 9.27013 4.3862 9.17479 3.50299 9.30913C2.37707 9.48075 1.48085 10.318 1.28844 11.437C1.20523 11.9207 1.21649 12.4329 1.26417 12.9235C1.37944 14.1023 1.88736 15.0739 2.90406 15.7387C3.30363 15.9996 3.3149 16.0369 3.16842 16.5092C2.71771 17.9636 3.24296 19.1624 4.61936 19.8142C4.78491 19.893 4.95393 19.971 5.12988 20.0196C5.38384 20.0889 5.51471 20.2467 5.62306 20.4833C5.89175 21.0683 6.19598 21.6378 6.49154 22.2237C7.33576 21.7869 8.15137 21.6196 9.01466 21.7418C9.66819 21.8346 10.32 21.9394 10.9726 22.0374C11.5005 22.1171 12.0292 22.1943 12.5571 22.2731C12.5779 22.2402 12.5987 22.2081 12.6195 22.1752C12.33 21.903 12.0466 21.6239 11.7458 21.3656C11.6825 21.3119 11.5482 21.3076 11.4554 21.3266C10.782 21.4601 10.1076 21.5295 9.4229 21.4177C8.74596 21.3076 8.13317 21.0614 7.60879 20.6098C7.4103 20.4391 7.32363 20.2389 7.49698 20.017C7.67293 19.7916 7.88788 19.828 8.0933 19.9962C8.14357 20.0378 8.19211 20.0811 8.24498 20.1193C9.08313 20.7182 10.0114 20.7789 11.0065 20.6081C10.9752 20.5457 10.9657 20.5136 10.9466 20.4911C9.97588 19.327 9.00686 18.1613 8.02569 17.0059C7.95375 16.9209 7.7908 16.888 7.66599 16.8785C7.19275 16.8421 6.71083 16.8698 6.24625 16.7901C5.36217 16.6392 4.61936 16.2024 4.07244 15.4839C3.98663 15.3712 3.98143 15.125 4.04644 14.9933C4.09151 14.9005 4.32293 14.852 4.46248 14.8667C4.56649 14.8771 4.66703 15.0106 4.75197 15.1051C5.42631 15.847 6.28526 16.1175 7.32709 16.1157ZM8.00836 29.1959C8.00836 28.5085 8.00922 27.8498 8.00836 27.1902C8.00836 26.9319 8.1323 26.7629 8.38973 26.7594C8.64715 26.756 8.7815 26.9285 8.78583 27.1807C8.79364 27.6357 8.78843 28.0908 8.7893 28.5458C8.7893 28.766 8.7893 28.9861 8.7893 29.2253C11.5525 28.8258 14.2594 28.434 16.9914 28.0396C16.9914 27.6201 16.987 27.2214 16.9931 26.8218C16.9974 26.5063 17.15 26.3313 17.4022 26.3521C17.69 26.3755 17.7749 26.5662 17.7723 26.8262C17.768 27.1815 17.7714 27.5369 17.7714 27.9036C17.8564 27.9036 17.9093 27.9096 17.9613 27.9027C19.7927 27.6383 21.6233 27.3679 23.4556 27.1131C23.7538 27.0715 23.9644 27.029 23.9262 26.645C23.9046 26.4266 24.0788 26.2524 24.299 26.3001C24.442 26.3313 24.5685 26.4951 24.6725 26.6234C24.7237 26.6858 24.7063 26.8045 24.7228 26.9207C25.5133 26.8071 26.2838 26.7066 27.05 26.5818C27.4175 26.522 27.642 26.2377 27.6359 25.9083C27.6299 25.5668 27.3829 25.3094 26.9937 25.2504C25.4431 25.0129 23.8916 24.7772 22.3401 24.5432C21.9405 24.4825 21.5392 24.4305 21.1483 24.3759C21.1249 24.4443 21.1128 24.4651 21.1128 24.4851C21.1102 24.7234 21.1102 24.9618 21.1067 25.2002C21.1024 25.5711 20.9654 25.7627 20.7115 25.7566C20.4601 25.7505 20.331 25.559 20.3275 25.1846C20.3258 24.9575 20.3162 24.7286 20.3301 24.5024C20.3431 24.2953 20.2642 24.2303 20.0588 24.2008C18.5385 23.9789 17.02 23.7405 15.5014 23.5109C14.4891 23.3574 13.475 23.2092 12.4297 23.0541C12.4297 23.1893 12.4297 23.2959 12.4297 23.4025C12.4297 23.8576 12.4288 24.3126 12.4297 24.7676C12.4305 25.0346 12.3542 25.2461 12.0431 25.2626C11.79 25.2764 11.6556 25.1065 11.6496 24.7824C11.647 24.6636 11.6487 24.544 11.6487 24.4253C11.6487 23.9304 11.6487 23.4354 11.6487 22.9319C10.6875 22.7889 9.77046 22.6302 8.84824 22.5193C7.63046 22.3728 6.65276 22.8487 5.86142 23.7561C5.75394 23.8792 5.70887 23.9841 5.79728 24.1575C6.37713 25.2981 6.36846 26.4422 5.78774 27.5855C5.74874 27.6617 5.74527 27.8047 5.79208 27.8663C6.339 28.5944 7.0662 29.0373 8.00836 29.1959ZM12.9098 13.6438C13.0017 13.2841 13.0815 12.927 13.1846 12.5777C13.2435 12.38 13.2141 12.2396 13.0667 12.0845C12.6151 11.6069 12.2806 11.0539 12.0743 10.4264C11.8593 9.77284 11.8394 9.10891 11.9893 8.44065C12.044 8.19796 12.1948 8.04628 12.4539 8.09828C12.7114 8.14942 12.7928 8.3427 12.7547 8.59146C12.7469 8.64433 12.7287 8.69634 12.72 8.75008C12.5605 9.72604 12.8388 10.572 13.4819 11.3668C13.5287 11.2264 13.5616 11.1388 13.5876 11.0487C13.8745 10.0623 14.1562 9.07511 14.4475 8.09048C14.5887 7.61377 14.743 7.14052 14.9008 6.66901C14.9779 6.43758 15.1599 6.34051 15.3879 6.41418C15.6176 6.48872 15.6947 6.67161 15.6314 6.90736C15.6115 6.98017 15.5864 7.05211 15.5647 7.12405C15.1643 8.47098 14.7647 9.81791 14.366 11.1657C14.3382 11.2585 14.3252 11.3555 14.2984 11.4803C15.0915 11.183 15.7138 10.6517 16.0483 9.9852C16.1714 9.73991 16.3474 9.62636 16.5953 9.73644C16.8553 9.85172 16.8804 10.0927 16.7495 10.3128C16.5684 10.6171 16.3794 10.9265 16.1402 11.1848C15.6158 11.7516 14.938 12.0923 14.2351 12.3904C14.1198 12.439 14.0002 12.5751 13.9629 12.6955C13.8442 13.0769 13.7497 13.4669 13.676 13.8596C13.6561 13.9653 13.7055 14.1387 13.7853 14.2011C14.8947 15.0704 15.5344 16.2223 15.8065 17.5814C15.9279 18.1899 15.9721 18.8139 16.0535 19.4501C16.0951 19.4189 16.1385 19.3929 16.174 19.3574C16.3725 19.1572 16.5805 18.9665 16.7625 18.7524C17.9569 17.3509 18.4354 15.7768 17.9171 13.9567C17.8763 13.8136 17.9353 13.6186 18.0037 13.4739C18.1797 13.1038 18.4267 12.764 18.5732 12.3844C19.0334 11.1943 18.8757 10.1109 17.9231 9.20252C17.7498 9.03697 17.729 8.86622 17.7914 8.64607C17.885 8.31497 17.9985 7.97867 18.0193 7.6389C18.1121 6.15849 17.4308 5.00918 16.3777 4.05488C15.914 3.63451 15.3229 3.47589 14.6953 3.47329C13.8893 3.46983 13.2444 3.8434 12.6524 4.34438C11.6236 5.2146 10.9831 6.26857 11.0879 7.6701C11.1209 8.11388 11.0871 8.17802 10.6606 8.33404C10.0002 8.57586 9.44023 8.9529 9.10653 9.58909C8.97305 9.84392 8.90718 10.1351 8.80924 10.4142C9.17934 10.4836 9.4723 10.5148 9.75053 10.5954C11.0576 10.9759 11.8151 11.9276 12.2988 13.1315C12.4115 13.4158 12.5623 13.5892 12.9098 13.6438ZM25.658 8.55679C25.8669 8.48572 26.0498 8.41984 26.2344 8.36091C27.018 8.10955 27.3707 8.29156 27.5753 9.08724C27.6819 9.50242 27.7426 9.92973 27.824 10.3518C28.5582 10.2825 29.3642 9.57696 29.5298 8.82375C29.7369 7.88159 29.4371 7.09372 28.7289 6.46012C28.2418 6.02414 28.0529 5.49456 28.1733 4.8575C28.2054 4.68848 28.2739 4.52726 28.3207 4.36085C28.7861 2.72442 27.954 1.17987 26.4086 0.84357C25.645 0.677153 24.9161 0.818434 24.2669 1.25354C23.6428 1.67218 23.0274 1.71379 22.3852 1.31508C22.2846 1.25268 22.1754 1.2024 22.0645 1.15907C20.8475 0.684954 19.518 1.27608 19.1253 2.46353C18.7379 3.63538 19.4391 4.90517 20.6777 5.24927C21.1145 5.37061 21.5565 5.41135 21.9405 5.08458C22.4129 4.68155 22.7128 4.74829 22.9356 5.32034C23.2207 6.05448 23.7425 6.53726 24.4818 6.78602C24.7055 6.86143 24.9438 6.8961 25.1726 6.9559C25.554 7.05558 25.71 7.35027 25.5315 7.69437C25.3685 8.01334 25.45 8.27163 25.658 8.55679ZM25.6901 9.3672C26.1902 10.8346 26.0169 12.2968 25.814 13.7573C25.7802 14 25.6459 14.1673 25.3781 14.1361C25.0903 14.1031 25.0123 13.902 25.0435 13.642C25.0695 13.4271 25.0825 13.2086 25.1328 12.9998C25.1787 12.8065 25.1068 12.6964 24.9585 12.5933C24.4281 12.2258 23.8318 12.0697 23.2034 12.1382C22.5273 12.2119 21.892 12.1642 21.2619 11.7542C21.2896 11.8738 21.2974 11.9354 21.3182 11.9917C21.58 12.7111 22.074 13.2242 22.7596 13.5432C23.0708 13.688 23.4088 13.7781 23.739 13.8769C23.9939 13.9532 24.1663 14.1014 24.1871 14.3692C24.2062 14.6232 24.0684 14.7991 23.8378 14.9014C23.7486 14.9404 23.655 14.969 23.5691 15.015C23.121 15.2524 22.6686 15.4839 22.2291 15.7387C22.0194 15.8609 21.8538 16.0395 21.8668 16.2301C22.4814 16.2024 23.0604 16.1443 23.6376 16.1582C24.2227 16.1721 24.7193 16.0386 25.1423 15.6147C25.2532 15.5038 25.4812 15.4076 25.6103 15.4475C25.7378 15.4873 25.8582 15.6971 25.8938 15.8531C25.996 16.3038 26.1729 16.7138 26.5586 16.9695C27.1523 17.3621 27.7651 17.7236 28.2349 18.3173C28.2643 18.0512 28.2869 17.7851 28.1941 17.5684C27.9852 17.0839 27.7304 16.6167 27.4713 16.1565C27.323 15.893 27.2121 15.6434 27.4366 15.3825C27.6498 15.1337 27.909 15.1848 28.1777 15.2967C28.7358 15.5298 29.3183 15.6373 29.9233 15.5653C30.4321 15.5047 30.8932 15.3296 31.3352 14.9378C30.6046 14.9265 30.0741 14.6249 29.5879 14.2011C29.1493 13.8188 28.6214 13.629 28.0364 13.6308C27.4955 13.6325 27.4825 13.649 27.2979 14.1465C27.2563 14.2583 27.2078 14.3666 27.1644 14.4776C27.0665 14.7281 26.9122 14.8893 26.6201 14.7896C26.3887 14.7107 26.3454 14.494 26.432 14.1907C26.621 13.5276 26.8394 12.8663 26.9521 12.1893C27.1081 11.2446 27.0622 10.2903 26.8524 9.349C26.7952 9.09418 26.6903 8.9997 26.4268 9.11758C26.2006 9.21812 25.9579 9.27793 25.6901 9.3672ZM20.9646 9.01184C20.8796 9.72084 20.3535 10.7592 19.7563 11.4405C19.667 11.5419 19.5717 11.6667 19.5492 11.7924C19.4278 12.4754 19.1513 13.0925 18.7959 13.6802C18.7552 13.7478 18.737 13.8292 18.6971 13.9324C19.4122 13.4834 20.077 13.0665 20.6829 12.686C20.5667 12.1434 20.4436 11.6095 20.3422 11.0721C20.2937 10.8164 20.376 10.598 20.6361 10.4844C20.9004 10.3692 21.0798 10.5009 21.2662 10.6786C21.4829 10.8858 21.7221 11.0712 21.9648 11.2481C22.1355 11.3729 22.2803 11.3391 22.4363 11.1666C22.9772 10.5711 23.6394 10.149 24.4012 9.88639C24.5824 9.82398 24.7635 9.76418 24.9403 9.70437C24.8996 9.52235 24.8658 9.3672 24.8259 9.18865C24.3943 9.22246 23.9635 9.25279 23.5336 9.2918C23.1228 9.32907 22.8307 9.20079 22.6859 8.89482C22.5282 8.55939 22.6123 8.26643 22.8584 8.0038C23.0933 7.75331 23.3213 7.49589 23.5605 7.23066C23.3863 7.10672 23.2389 7.00097 23.0716 6.88136C22.7423 7.29047 22.425 7.68571 22.1069 8.07921C21.82 8.43371 21.5852 8.52819 21.2766 8.41551C20.9689 8.3037 20.8545 8.07141 20.8605 7.62157C20.8675 7.11538 20.8623 6.60833 20.8623 6.09522C20.643 6.04321 20.4254 5.99207 20.2348 5.947C20.1524 6.51039 20.1117 7.06425 19.9825 7.59643C19.8534 8.12948 19.7017 8.6764 19.4391 9.15138C19.1712 9.63676 19.381 9.9904 19.5743 10.494C19.8326 9.89939 20.0545 9.38974 20.2824 8.86622C20.5078 8.91389 20.7375 8.9633 20.9646 9.01184ZM5.41851 25.5963C3.9771 25.5677 2.56169 25.5321 1.14629 25.5269C1.03448 25.5261 0.837724 25.7297 0.834257 25.8442C0.83079 25.9577 1.01454 26.0825 1.12895 26.19C1.15842 26.2177 1.23296 26.1987 1.28757 26.1969C2.55303 26.1744 3.81935 26.1518 5.08481 26.1276C5.19055 26.1258 5.29716 26.1137 5.41937 26.105C5.41851 25.9291 5.41851 25.7731 5.41851 25.5963ZM4.56736 24.3637C3.85315 24.0777 3.13982 23.7761 2.41088 23.5143C2.29907 23.4745 2.06418 23.5759 1.98877 23.6842C1.87089 23.8524 1.9567 24.0465 2.15692 24.134C2.65183 24.3499 3.14328 24.5752 3.6512 24.7555C4.17298 24.9401 4.46768 24.8023 4.56736 24.3637ZM4.61243 27.3246C4.51882 27.1772 4.45468 26.964 4.35847 26.9475C4.12098 26.9085 3.85229 26.9111 3.6252 26.9857C3.14415 27.1417 2.67957 27.3532 2.20979 27.5438C2.00177 27.6288 1.88649 27.7822 1.97144 28.0041C2.06331 28.2425 2.254 28.2702 2.47935 28.1792C3.15975 27.9044 3.84102 27.6331 4.61243 27.3246ZM23.3741 11.2481C24.0675 11.4327 24.6422 11.5861 25.248 11.7473C25.2255 11.3408 25.203 10.9204 25.1735 10.3891C24.5408 10.6907 23.9878 10.9551 23.3741 11.2481ZM16.1506 20.3117C16.0553 20.5041 15.9521 20.6237 15.9417 20.7503C15.9071 21.1906 15.8828 21.6343 15.8941 22.0764C15.9114 22.8097 15.9244 22.8097 16.6516 22.8937C16.6689 22.8955 16.6889 22.8764 16.675 22.8833C16.506 22.053 16.3387 21.2339 16.1506 20.3117ZM22.2673 5.83519C22.1459 5.89066 22.0272 5.94094 21.9128 5.99987C21.8322 6.04148 21.6944 6.09262 21.6918 6.14462C21.6727 6.52859 21.6814 6.91516 21.6814 7.35807C21.8989 7.08765 22.0567 6.85189 22.2534 6.65687C22.5308 6.38471 22.5854 6.12902 22.2673 5.83519ZM23.5275 8.43198C23.5397 8.45538 23.5509 8.47878 23.5631 8.50219C23.9358 8.47185 24.3085 8.44238 24.6725 8.41291C24.6725 8.14248 24.6725 7.90153 24.6725 7.60423C24.5104 7.62243 24.3293 7.5869 24.2478 7.66057C23.9878 7.89633 23.765 8.17195 23.5275 8.43198Z"/>
</mask>
<path d="M22.7839 14.4958C22.2456 14.1326 21.7212 13.779 21.1457 13.3907C20.3934 13.6992 19.6549 14.1785 19.0057 14.7957C18.9442 14.8537 18.8965 14.963 18.9 15.0462C18.9728 16.8109 18.2863 18.2679 17.1118 19.5351C17.0338 19.62 16.9706 19.7604 16.974 19.8722C17.0052 20.8517 17.1786 21.806 17.5028 22.7334C17.5842 22.9674 17.7168 23.0671 17.9621 23.1035C20.799 23.5239 23.6342 23.9555 26.4702 24.3837C26.556 24.3967 26.6426 24.4036 26.7285 24.4123C27.4687 24.4894 28.1118 24.7156 28.364 25.5425C29.2056 25.0337 29.8722 24.3984 30.4104 23.6253C30.6826 23.2335 30.8707 23.1451 31.1012 23.3037C31.3344 23.4649 31.3222 23.6755 31.0535 24.0638C30.3948 25.0147 29.5584 25.7696 28.553 26.3417C28.436 26.4084 28.3059 26.4933 28.2401 26.6052C27.9714 27.0619 27.5735 27.302 27.0613 27.374C25.6138 27.5759 24.1672 27.7761 22.7197 27.9772C20.1576 28.3335 17.5955 28.6888 15.0334 29.0468C12.8041 29.358 10.5757 29.6813 8.34466 29.9794C7.73447 30.0609 7.17021 29.8355 6.63109 29.5712C5.93422 29.2297 5.38904 28.7114 4.94093 28.0327C4.45468 28.2277 3.9667 28.4245 3.47958 28.6195C3.23863 28.7157 2.99767 28.8136 2.75498 28.9055C2.20112 29.1144 1.67761 28.974 1.36731 28.5354C1.05701 28.0977 1.09862 27.5621 1.47739 27.1027C1.49732 27.0793 1.51552 27.0541 1.51032 27.0611C1.15929 26.9579 0.770118 26.9068 0.447686 26.7326C0.0923183 26.541 -0.0264267 26.1605 0.00477637 25.7505C0.0533144 25.0935 0.442486 24.8266 1.56406 24.7026C1.50426 24.6333 1.45658 24.5822 1.41325 24.5276C1.09775 24.1228 1.07868 23.5689 1.36558 23.1668C1.6568 22.7585 2.17686 22.5852 2.66397 22.7681C3.32183 23.0151 3.97363 23.2786 4.62196 23.5516C4.84905 23.6469 4.9886 23.6625 5.15068 23.4181C5.34483 23.1252 5.61613 22.8833 5.83108 22.645C5.52945 22.053 5.23649 21.4645 4.92792 20.8846C4.88372 20.8014 4.77624 20.7425 4.6861 20.6965C4.43648 20.5682 4.17125 20.4686 3.92856 20.3273C2.57469 19.5403 1.98444 18.2133 2.3242 16.6852C2.38228 16.4217 2.32507 16.2873 2.11792 16.1244C1.08822 15.3105 0.580299 14.2037 0.484957 12.9235C0.439019 12.3055 0.428618 11.6476 0.587233 11.0582C0.979005 9.60469 1.98184 8.72407 3.48132 8.53512C5.0068 8.3427 6.43867 8.6244 7.64259 9.67057C7.78647 9.79538 7.91388 9.94013 8.07423 10.0996C8.13577 9.91239 8.17737 9.75811 8.23545 9.60989C8.57175 8.74834 9.18801 8.14595 10.0149 7.76458C10.2402 7.66057 10.2974 7.54009 10.3 7.30347C10.3209 5.21806 12.1835 3.05032 14.2368 2.73395C15.2171 2.58227 16.1385 2.80936 16.8787 3.46289C18.1337 4.57233 18.8896 5.94614 18.8011 7.68051C18.7855 7.97953 18.6954 8.2751 18.6477 8.57326C18.633 8.66254 18.6451 8.75614 18.6867 8.85062C19.1097 8.08268 19.3264 7.26533 19.3871 6.40551C19.3992 6.23303 19.3845 6.05881 19.3975 5.88546C19.4174 5.6081 19.3221 5.40962 19.1158 5.20593C18.0973 4.19703 17.9543 2.64035 18.7448 1.48843C19.5466 0.321785 21.0677 -0.10639 22.4112 0.458732C22.5308 0.509003 22.6539 0.557541 22.7605 0.630349C23.1314 0.88344 23.4712 0.840103 23.843 0.602613C25.1276 -0.219068 26.6886 -0.194799 27.8422 0.64075C29.0323 1.5023 29.5367 3.13526 29.0392 4.66248C28.8581 5.21806 28.9465 5.6055 29.3842 6.01634C30.9417 7.47769 30.7961 10.2686 28.1699 11.0894C27.889 11.177 27.8006 11.2923 27.7937 11.5731C27.7833 11.9926 27.72 12.4112 27.6758 12.8585C27.8743 12.8585 28.0771 12.8463 28.2782 12.8611C29.0054 12.914 29.6451 13.1922 30.1825 13.6793C30.6878 14.1378 31.2607 14.2435 31.9021 14.0789C32.1621 14.0121 32.4039 14.0121 32.5669 14.2626C32.7411 14.5296 32.6397 14.7714 32.4377 14.963C32.0564 15.3261 31.6577 15.6711 31.2442 16.0429C31.6741 16.6965 32.0278 17.4436 32.2185 18.2644C32.4152 19.1095 32.4343 19.9589 32.3103 20.8135C32.2618 21.1472 32.0815 21.3292 31.844 21.2755C31.5285 21.2044 31.4956 20.9739 31.5363 20.6956C31.7547 19.1988 31.454 17.8137 30.6358 16.5378C30.5101 16.342 30.3931 16.2882 30.1426 16.3099C29.5905 16.3584 29.0305 16.3246 28.4958 16.3246C28.6214 16.5994 28.7879 16.9383 28.9317 17.2867C29.158 17.8328 29.1432 18.3667 28.7896 18.8607C28.4464 19.3409 27.9168 19.3452 27.5831 18.8625C27.2806 18.4248 26.9018 18.0841 26.4346 17.8319C25.9016 17.5441 25.5263 17.1056 25.274 16.5179C24.6318 16.9591 23.9288 16.9487 23.2051 16.9157C22.8376 16.8993 22.4536 16.9946 22.0957 17.1012C21.4716 17.2867 21.0582 17.0085 21.0668 16.3619C21.0746 15.7768 21.3685 15.3573 21.8426 15.0531C22.1598 14.8494 22.4892 14.6683 22.7839 14.4958ZM7.32709 16.1157C7.22915 15.9762 7.17108 15.8895 7.10867 15.8046C6.49154 14.9682 5.87182 14.1343 5.25729 13.2953C4.99553 12.9374 4.74244 12.5725 4.49195 12.2058C4.3108 11.9415 4.3264 11.7092 4.53875 11.5844C4.79878 11.4309 4.99033 11.5454 5.13854 11.7733C5.17408 11.8279 5.21049 11.8817 5.24862 11.9345C6.07897 13.0708 6.90932 14.2071 7.74053 15.3426C7.78647 15.405 7.84628 15.4579 7.92515 15.5419C8.08897 14.7047 8.15657 13.9272 7.75007 13.1826C7.63046 12.9634 7.69719 12.7692 7.90695 12.6574C8.11844 12.5447 8.32299 12.608 8.43047 12.8247C8.54921 13.0648 8.66102 13.3161 8.7269 13.5744C8.94532 14.4299 8.79884 15.2698 8.59428 16.1079C8.56221 16.2397 8.58995 16.4364 8.67142 16.537C9.55291 17.6204 10.4509 18.6908 11.3454 19.763C11.4 19.8289 11.471 19.8809 11.5638 19.9667C11.686 19.0575 11.7051 18.2254 11.2821 17.4358C11.1737 17.233 11.2344 17.0276 11.4598 16.9149C11.6739 16.8083 11.8515 16.8897 11.9573 17.0778C12.0726 17.2832 12.1714 17.5043 12.2416 17.7296C12.5189 18.6241 12.4487 19.5281 12.2702 20.4278C12.2303 20.6289 12.2485 20.7693 12.4045 20.9158C12.8067 21.2946 13.1941 21.6881 13.5816 22.0816C13.7012 22.2029 13.7809 22.4213 13.9153 22.4578C14.3114 22.5644 14.7265 22.6016 15.1807 22.6727C15.1807 21.8406 15.1911 21.084 15.1781 20.3281C15.1634 19.5403 15.1989 18.742 15.0819 17.968C14.8661 16.5404 14.2446 15.275 12.9159 14.6033C12.1436 14.2132 11.6895 13.7244 11.3332 12.9469C10.7568 11.6892 9.71152 11.0652 8.27358 11.2801C8.01703 11.3183 7.87228 11.1978 7.74747 10.995C7.34876 10.3475 6.79404 9.87599 6.08677 9.59776C5.25382 9.27013 4.3862 9.17479 3.50299 9.30913C2.37707 9.48075 1.48085 10.318 1.28844 11.437C1.20523 11.9207 1.21649 12.4329 1.26417 12.9235C1.37944 14.1023 1.88736 15.0739 2.90406 15.7387C3.30363 15.9996 3.3149 16.0369 3.16842 16.5092C2.71771 17.9636 3.24296 19.1624 4.61936 19.8142C4.78491 19.893 4.95393 19.971 5.12988 20.0196C5.38384 20.0889 5.51471 20.2467 5.62306 20.4833C5.89175 21.0683 6.19598 21.6378 6.49154 22.2237C7.33576 21.7869 8.15137 21.6196 9.01466 21.7418C9.66819 21.8346 10.32 21.9394 10.9726 22.0374C11.5005 22.1171 12.0292 22.1943 12.5571 22.2731C12.5779 22.2402 12.5987 22.2081 12.6195 22.1752C12.33 21.903 12.0466 21.6239 11.7458 21.3656C11.6825 21.3119 11.5482 21.3076 11.4554 21.3266C10.782 21.4601 10.1076 21.5295 9.4229 21.4177C8.74596 21.3076 8.13317 21.0614 7.60879 20.6098C7.4103 20.4391 7.32363 20.2389 7.49698 20.017C7.67293 19.7916 7.88788 19.828 8.0933 19.9962C8.14357 20.0378 8.19211 20.0811 8.24498 20.1193C9.08313 20.7182 10.0114 20.7789 11.0065 20.6081C10.9752 20.5457 10.9657 20.5136 10.9466 20.4911C9.97588 19.327 9.00686 18.1613 8.02569 17.0059C7.95375 16.9209 7.7908 16.888 7.66599 16.8785C7.19275 16.8421 6.71083 16.8698 6.24625 16.7901C5.36217 16.6392 4.61936 16.2024 4.07244 15.4839C3.98663 15.3712 3.98143 15.125 4.04644 14.9933C4.09151 14.9005 4.32293 14.852 4.46248 14.8667C4.56649 14.8771 4.66703 15.0106 4.75197 15.1051C5.42631 15.847 6.28526 16.1175 7.32709 16.1157ZM8.00836 29.1959C8.00836 28.5085 8.00922 27.8498 8.00836 27.1902C8.00836 26.9319 8.1323 26.7629 8.38973 26.7594C8.64715 26.756 8.7815 26.9285 8.78583 27.1807C8.79364 27.6357 8.78843 28.0908 8.7893 28.5458C8.7893 28.766 8.7893 28.9861 8.7893 29.2253C11.5525 28.8258 14.2594 28.434 16.9914 28.0396C16.9914 27.6201 16.987 27.2214 16.9931 26.8218C16.9974 26.5063 17.15 26.3313 17.4022 26.3521C17.69 26.3755 17.7749 26.5662 17.7723 26.8262C17.768 27.1815 17.7714 27.5369 17.7714 27.9036C17.8564 27.9036 17.9093 27.9096 17.9613 27.9027C19.7927 27.6383 21.6233 27.3679 23.4556 27.1131C23.7538 27.0715 23.9644 27.029 23.9262 26.645C23.9046 26.4266 24.0788 26.2524 24.299 26.3001C24.442 26.3313 24.5685 26.4951 24.6725 26.6234C24.7237 26.6858 24.7063 26.8045 24.7228 26.9207C25.5133 26.8071 26.2838 26.7066 27.05 26.5818C27.4175 26.522 27.642 26.2377 27.6359 25.9083C27.6299 25.5668 27.3829 25.3094 26.9937 25.2504C25.4431 25.0129 23.8916 24.7772 22.3401 24.5432C21.9405 24.4825 21.5392 24.4305 21.1483 24.3759C21.1249 24.4443 21.1128 24.4651 21.1128 24.4851C21.1102 24.7234 21.1102 24.9618 21.1067 25.2002C21.1024 25.5711 20.9654 25.7627 20.7115 25.7566C20.4601 25.7505 20.331 25.559 20.3275 25.1846C20.3258 24.9575 20.3162 24.7286 20.3301 24.5024C20.3431 24.2953 20.2642 24.2303 20.0588 24.2008C18.5385 23.9789 17.02 23.7405 15.5014 23.5109C14.4891 23.3574 13.475 23.2092 12.4297 23.0541C12.4297 23.1893 12.4297 23.2959 12.4297 23.4025C12.4297 23.8576 12.4288 24.3126 12.4297 24.7676C12.4305 25.0346 12.3542 25.2461 12.0431 25.2626C11.79 25.2764 11.6556 25.1065 11.6496 24.7824C11.647 24.6636 11.6487 24.544 11.6487 24.4253C11.6487 23.9304 11.6487 23.4354 11.6487 22.9319C10.6875 22.7889 9.77046 22.6302 8.84824 22.5193C7.63046 22.3728 6.65276 22.8487 5.86142 23.7561C5.75394 23.8792 5.70887 23.9841 5.79728 24.1575C6.37713 25.2981 6.36846 26.4422 5.78774 27.5855C5.74874 27.6617 5.74527 27.8047 5.79208 27.8663C6.339 28.5944 7.0662 29.0373 8.00836 29.1959ZM12.9098 13.6438C13.0017 13.2841 13.0815 12.927 13.1846 12.5777C13.2435 12.38 13.2141 12.2396 13.0667 12.0845C12.6151 11.6069 12.2806 11.0539 12.0743 10.4264C11.8593 9.77284 11.8394 9.10891 11.9893 8.44065C12.044 8.19796 12.1948 8.04628 12.4539 8.09828C12.7114 8.14942 12.7928 8.3427 12.7547 8.59146C12.7469 8.64433 12.7287 8.69634 12.72 8.75008C12.5605 9.72604 12.8388 10.572 13.4819 11.3668C13.5287 11.2264 13.5616 11.1388 13.5876 11.0487C13.8745 10.0623 14.1562 9.07511 14.4475 8.09048C14.5887 7.61377 14.743 7.14052 14.9008 6.66901C14.9779 6.43758 15.1599 6.34051 15.3879 6.41418C15.6176 6.48872 15.6947 6.67161 15.6314 6.90736C15.6115 6.98017 15.5864 7.05211 15.5647 7.12405C15.1643 8.47098 14.7647 9.81791 14.366 11.1657C14.3382 11.2585 14.3252 11.3555 14.2984 11.4803C15.0915 11.183 15.7138 10.6517 16.0483 9.9852C16.1714 9.73991 16.3474 9.62636 16.5953 9.73644C16.8553 9.85172 16.8804 10.0927 16.7495 10.3128C16.5684 10.6171 16.3794 10.9265 16.1402 11.1848C15.6158 11.7516 14.938 12.0923 14.2351 12.3904C14.1198 12.439 14.0002 12.5751 13.9629 12.6955C13.8442 13.0769 13.7497 13.4669 13.676 13.8596C13.6561 13.9653 13.7055 14.1387 13.7853 14.2011C14.8947 15.0704 15.5344 16.2223 15.8065 17.5814C15.9279 18.1899 15.9721 18.8139 16.0535 19.4501C16.0951 19.4189 16.1385 19.3929 16.174 19.3574C16.3725 19.1572 16.5805 18.9665 16.7625 18.7524C17.9569 17.3509 18.4354 15.7768 17.9171 13.9567C17.8763 13.8136 17.9353 13.6186 18.0037 13.4739C18.1797 13.1038 18.4267 12.764 18.5732 12.3844C19.0334 11.1943 18.8757 10.1109 17.9231 9.20252C17.7498 9.03697 17.729 8.86622 17.7914 8.64607C17.885 8.31497 17.9985 7.97867 18.0193 7.6389C18.1121 6.15849 17.4308 5.00918 16.3777 4.05488C15.914 3.63451 15.3229 3.47589 14.6953 3.47329C13.8893 3.46983 13.2444 3.8434 12.6524 4.34438C11.6236 5.2146 10.9831 6.26857 11.0879 7.6701C11.1209 8.11388 11.0871 8.17802 10.6606 8.33404C10.0002 8.57586 9.44023 8.9529 9.10653 9.58909C8.97305 9.84392 8.90718 10.1351 8.80924 10.4142C9.17934 10.4836 9.4723 10.5148 9.75053 10.5954C11.0576 10.9759 11.8151 11.9276 12.2988 13.1315C12.4115 13.4158 12.5623 13.5892 12.9098 13.6438ZM25.658 8.55679C25.8669 8.48572 26.0498 8.41984 26.2344 8.36091C27.018 8.10955 27.3707 8.29156 27.5753 9.08724C27.6819 9.50242 27.7426 9.92973 27.824 10.3518C28.5582 10.2825 29.3642 9.57696 29.5298 8.82375C29.7369 7.88159 29.4371 7.09372 28.7289 6.46012C28.2418 6.02414 28.0529 5.49456 28.1733 4.8575C28.2054 4.68848 28.2739 4.52726 28.3207 4.36085C28.7861 2.72442 27.954 1.17987 26.4086 0.84357C25.645 0.677153 24.9161 0.818434 24.2669 1.25354C23.6428 1.67218 23.0274 1.71379 22.3852 1.31508C22.2846 1.25268 22.1754 1.2024 22.0645 1.15907C20.8475 0.684954 19.518 1.27608 19.1253 2.46353C18.7379 3.63538 19.4391 4.90517 20.6777 5.24927C21.1145 5.37061 21.5565 5.41135 21.9405 5.08458C22.4129 4.68155 22.7128 4.74829 22.9356 5.32034C23.2207 6.05448 23.7425 6.53726 24.4818 6.78602C24.7055 6.86143 24.9438 6.8961 25.1726 6.9559C25.554 7.05558 25.71 7.35027 25.5315 7.69437C25.3685 8.01334 25.45 8.27163 25.658 8.55679ZM25.6901 9.3672C26.1902 10.8346 26.0169 12.2968 25.814 13.7573C25.7802 14 25.6459 14.1673 25.3781 14.1361C25.0903 14.1031 25.0123 13.902 25.0435 13.642C25.0695 13.4271 25.0825 13.2086 25.1328 12.9998C25.1787 12.8065 25.1068 12.6964 24.9585 12.5933C24.4281 12.2258 23.8318 12.0697 23.2034 12.1382C22.5273 12.2119 21.892 12.1642 21.2619 11.7542C21.2896 11.8738 21.2974 11.9354 21.3182 11.9917C21.58 12.7111 22.074 13.2242 22.7596 13.5432C23.0708 13.688 23.4088 13.7781 23.739 13.8769C23.9939 13.9532 24.1663 14.1014 24.1871 14.3692C24.2062 14.6232 24.0684 14.7991 23.8378 14.9014C23.7486 14.9404 23.655 14.969 23.5691 15.015C23.121 15.2524 22.6686 15.4839 22.2291 15.7387C22.0194 15.8609 21.8538 16.0395 21.8668 16.2301C22.4814 16.2024 23.0604 16.1443 23.6376 16.1582C24.2227 16.1721 24.7193 16.0386 25.1423 15.6147C25.2532 15.5038 25.4812 15.4076 25.6103 15.4475C25.7378 15.4873 25.8582 15.6971 25.8938 15.8531C25.996 16.3038 26.1729 16.7138 26.5586 16.9695C27.1523 17.3621 27.7651 17.7236 28.2349 18.3173C28.2643 18.0512 28.2869 17.7851 28.1941 17.5684C27.9852 17.0839 27.7304 16.6167 27.4713 16.1565C27.323 15.893 27.2121 15.6434 27.4366 15.3825C27.6498 15.1337 27.909 15.1848 28.1777 15.2967C28.7358 15.5298 29.3183 15.6373 29.9233 15.5653C30.4321 15.5047 30.8932 15.3296 31.3352 14.9378C30.6046 14.9265 30.0741 14.6249 29.5879 14.2011C29.1493 13.8188 28.6214 13.629 28.0364 13.6308C27.4955 13.6325 27.4825 13.649 27.2979 14.1465C27.2563 14.2583 27.2078 14.3666 27.1644 14.4776C27.0665 14.7281 26.9122 14.8893 26.6201 14.7896C26.3887 14.7107 26.3454 14.494 26.432 14.1907C26.621 13.5276 26.8394 12.8663 26.9521 12.1893C27.1081 11.2446 27.0622 10.2903 26.8524 9.349C26.7952 9.09418 26.6903 8.9997 26.4268 9.11758C26.2006 9.21812 25.9579 9.27793 25.6901 9.3672ZM20.9646 9.01184C20.8796 9.72084 20.3535 10.7592 19.7563 11.4405C19.667 11.5419 19.5717 11.6667 19.5492 11.7924C19.4278 12.4754 19.1513 13.0925 18.7959 13.6802C18.7552 13.7478 18.737 13.8292 18.6971 13.9324C19.4122 13.4834 20.077 13.0665 20.6829 12.686C20.5667 12.1434 20.4436 11.6095 20.3422 11.0721C20.2937 10.8164 20.376 10.598 20.6361 10.4844C20.9004 10.3692 21.0798 10.5009 21.2662 10.6786C21.4829 10.8858 21.7221 11.0712 21.9648 11.2481C22.1355 11.3729 22.2803 11.3391 22.4363 11.1666C22.9772 10.5711 23.6394 10.149 24.4012 9.88639C24.5824 9.82398 24.7635 9.76418 24.9403 9.70437C24.8996 9.52235 24.8658 9.3672 24.8259 9.18865C24.3943 9.22246 23.9635 9.25279 23.5336 9.2918C23.1228 9.32907 22.8307 9.20079 22.6859 8.89482C22.5282 8.55939 22.6123 8.26643 22.8584 8.0038C23.0933 7.75331 23.3213 7.49589 23.5605 7.23066C23.3863 7.10672 23.2389 7.00097 23.0716 6.88136C22.7423 7.29047 22.425 7.68571 22.1069 8.07921C21.82 8.43371 21.5852 8.52819 21.2766 8.41551C20.9689 8.3037 20.8545 8.07141 20.8605 7.62157C20.8675 7.11538 20.8623 6.60833 20.8623 6.09522C20.643 6.04321 20.4254 5.99207 20.2348 5.947C20.1524 6.51039 20.1117 7.06425 19.9825 7.59643C19.8534 8.12948 19.7017 8.6764 19.4391 9.15138C19.1712 9.63676 19.381 9.9904 19.5743 10.494C19.8326 9.89939 20.0545 9.38974 20.2824 8.86622C20.5078 8.91389 20.7375 8.9633 20.9646 9.01184ZM5.41851 25.5963C3.9771 25.5677 2.56169 25.5321 1.14629 25.5269C1.03448 25.5261 0.837724 25.7297 0.834257 25.8442C0.83079 25.9577 1.01454 26.0825 1.12895 26.19C1.15842 26.2177 1.23296 26.1987 1.28757 26.1969C2.55303 26.1744 3.81935 26.1518 5.08481 26.1276C5.19055 26.1258 5.29716 26.1137 5.41937 26.105C5.41851 25.9291 5.41851 25.7731 5.41851 25.5963ZM4.56736 24.3637C3.85315 24.0777 3.13982 23.7761 2.41088 23.5143C2.29907 23.4745 2.06418 23.5759 1.98877 23.6842C1.87089 23.8524 1.9567 24.0465 2.15692 24.134C2.65183 24.3499 3.14328 24.5752 3.6512 24.7555C4.17298 24.9401 4.46768 24.8023 4.56736 24.3637ZM4.61243 27.3246C4.51882 27.1772 4.45468 26.964 4.35847 26.9475C4.12098 26.9085 3.85229 26.9111 3.6252 26.9857C3.14415 27.1417 2.67957 27.3532 2.20979 27.5438C2.00177 27.6288 1.88649 27.7822 1.97144 28.0041C2.06331 28.2425 2.254 28.2702 2.47935 28.1792C3.15975 27.9044 3.84102 27.6331 4.61243 27.3246ZM23.3741 11.2481C24.0675 11.4327 24.6422 11.5861 25.248 11.7473C25.2255 11.3408 25.203 10.9204 25.1735 10.3891C24.5408 10.6907 23.9878 10.9551 23.3741 11.2481ZM16.1506 20.3117C16.0553 20.5041 15.9521 20.6237 15.9417 20.7503C15.9071 21.1906 15.8828 21.6343 15.8941 22.0764C15.9114 22.8097 15.9244 22.8097 16.6516 22.8937C16.6689 22.8955 16.6889 22.8764 16.675 22.8833C16.506 22.053 16.3387 21.2339 16.1506 20.3117ZM22.2673 5.83519C22.1459 5.89066 22.0272 5.94094 21.9128 5.99987C21.8322 6.04148 21.6944 6.09262 21.6918 6.14462C21.6727 6.52859 21.6814 6.91516 21.6814 7.35807C21.8989 7.08765 22.0567 6.85189 22.2534 6.65687C22.5308 6.38471 22.5854 6.12902 22.2673 5.83519ZM23.5275 8.43198C23.5397 8.45538 23.5509 8.47878 23.5631 8.50219C23.9358 8.47185 24.3085 8.44238 24.6725 8.41291C24.6725 8.14248 24.6725 7.90153 24.6725 7.60423C24.5104 7.62243 24.3293 7.5869 24.2478 7.66057C23.9878 7.89633 23.765 8.17195 23.5275 8.43198Z" fill="#0E7139" stroke="#0E7139" stroke-width="2" mask="url(#path-1-inside-1_1841_10170)"/>
</svg>
