<svg width="26" height="20" viewBox="0 0 26 20" fill="none" xmlns="http://www.w3.org/2000/svg">
<path d="M23.2405 0H2.23945C1.00462 0 0 1.0998 0 2.45164V17.1615C0 18.5133 1.00462 19.6131 2.23945 19.6131H23.2405C24.4754 19.6131 25.48 18.5133 25.48 17.1615V2.45164C25.48 1.0998 24.4754 0 23.2405 0ZM7.46484 17.9787H2.23945C1.82784 17.9787 1.49297 17.6121 1.49297 17.1615V8.17212H3.10811C3.48056 9.38955 4.62238 10.1229 5.77973 9.87465L4.60427 11.8049C4.37559 12.1804 4.46831 12.6878 4.81134 12.9382C5.15433 13.1884 5.61784 13.087 5.84652 12.7115L7.46484 10.054V17.9787ZM4.47891 7.35377C4.47891 6.60978 5.23475 6.16456 5.80193 6.57861L6.86557 7.35491L5.80193 8.13121C5.23669 8.54374 4.47891 8.10337 4.47891 7.35377ZM7.46484 5.82792L6.63007 5.21866C5.34129 4.27805 3.59621 4.94266 3.10836 6.53764H1.49297V2.45158C1.49297 2.00103 1.82784 1.63442 2.23945 1.63442H7.46484V5.82792ZM23.987 17.1615C23.987 17.6121 23.6522 17.9787 23.2405 17.9787H8.95781V10.054L10.5761 12.7115C10.8051 13.0875 11.2687 13.1883 11.6113 12.9382C11.9544 12.6878 12.0471 12.1804 11.8184 11.805L10.6429 9.87471C11.795 10.1217 12.9402 9.39538 13.3143 8.17218H23.987V17.1615ZM9.55709 7.35491L10.6207 6.57861C11.186 6.16603 11.9437 6.60645 11.9437 7.356C11.9437 8.10124 11.1869 8.54445 10.6207 8.13116L9.55709 7.35491ZM23.987 6.5377H13.3145C12.8266 4.94288 11.0815 4.278 9.79258 5.21872L8.95781 5.82792V1.63442H23.2405C23.6522 1.63442 23.987 2.00103 23.987 2.45164V6.5377Z" fill="#444444"/>
</svg>
