<svg width="21" height="25" viewBox="0 0 21 25" fill="none" xmlns="http://www.w3.org/2000/svg">
<path d="M7.54391 24.9991C6.7706 24.8967 5.99102 24.8256 5.22606 24.6824C4.61473 24.5685 4.00025 24.4149 3.41922 24.1944C1.27171 23.3803 0.158762 21.77 0.0239544 19.5085C-0.181914 16.0443 0.959247 12.9333 2.67412 10.002C3.71287 8.22651 5.02855 6.6851 6.78836 5.52304C6.39021 4.90544 6.28258 4.30664 6.83748 3.72038C6.90541 3.64828 6.86674 3.42882 6.81867 3.30029C6.58145 2.66491 6.28049 2.05044 6.09447 1.40148C6.01714 1.13291 6.07044 0.697142 6.24705 0.520534C6.4247 0.343925 6.82912 0.393041 7.13531 0.352285C7.18025 0.346015 7.23459 0.383636 7.27848 0.410807C8.20019 0.984522 9.06546 1.12246 9.88476 0.197623C10.1377 -0.0876677 10.5201 -0.0395968 10.8441 0.186127C10.8723 0.205983 10.9078 0.220613 10.9287 0.245693C11.6456 1.0932 12.4482 1.01901 13.2999 0.471418C13.4002 0.406626 13.5277 0.331385 13.6364 0.34079C13.9279 0.366916 14.3062 0.343925 14.4787 0.514263C14.6511 0.684602 14.7253 1.09634 14.6521 1.34819C14.464 1.9961 14.1829 2.61893 13.9154 3.24176C13.8078 3.49257 13.814 3.65873 14.0032 3.88863C14.4295 4.40696 14.3334 4.95351 13.9426 5.46452C14.486 5.91806 15.0461 6.32875 15.5394 6.80842C17.7402 8.94444 19.1332 11.5664 20.0403 14.4642C20.5272 16.0171 20.8031 17.6066 20.7247 19.2441C20.5931 22.0082 19.1572 23.8036 16.4663 24.4661C15.577 24.6856 14.6511 24.7608 13.743 24.9029C13.5559 24.9322 13.3699 24.9667 13.1839 24.998C11.306 24.9991 9.42495 24.9991 7.54391 24.9991ZM10.3331 24.3198C10.3362 24.2644 10.3393 24.208 10.3425 24.1526C11.2997 24.1526 12.2632 24.2163 13.2131 24.1359C14.3177 24.0418 15.4328 23.9028 16.506 23.6353C18.2867 23.1912 19.4937 22.0751 19.8145 20.2097C19.9462 19.4469 19.9702 18.6474 19.9149 17.8731C19.7456 15.5124 18.989 13.3137 17.8781 11.2383C16.7892 9.2036 15.439 7.37691 13.4253 6.15632C13.0627 5.93687 12.5903 5.8261 12.1608 5.80415C11.1879 5.75295 10.2035 5.86476 9.23789 5.76862C8.07583 5.65262 7.17711 6.09153 6.34841 6.80946C6.21674 6.92337 6.07566 7.02682 5.9513 7.14805C2.73265 10.2936 0.987462 14.134 0.781594 18.6109C0.641561 21.655 2.07219 23.3553 5.09021 23.8412C6.81867 24.1192 8.58371 24.1683 10.3331 24.3198ZM13.9509 1.0514C13.3145 1.32102 12.8129 1.51853 12.3259 1.74739C12.026 1.88846 11.7825 1.88533 11.5119 1.66796C11.1482 1.37536 10.7532 0.914506 10.3696 0.912416C9.98822 0.910326 9.5932 1.37327 9.2264 1.66065C8.96096 1.86861 8.71956 1.89891 8.41233 1.75366C7.91594 1.51853 7.40179 1.31893 6.77582 1.05349C7.10396 1.87279 7.37462 2.57922 7.67768 3.27207C7.72052 3.36926 7.92535 3.44554 8.05597 3.44659C9.58902 3.45808 11.121 3.46017 12.6541 3.44554C12.7951 3.4445 13.0135 3.34836 13.0637 3.23758C13.3647 2.55937 13.6259 1.86443 13.9509 1.0514ZM10.3477 5.02143C11.1837 5.02143 12.0197 5.02039 12.8557 5.02143C13.1473 5.02143 13.466 5.00785 13.4807 4.63582C13.4963 4.25857 13.187 4.2199 12.8892 4.2199C11.2004 4.22095 9.51064 4.20736 7.82189 4.23662C7.62543 4.23976 7.28997 4.45294 7.26698 4.60656C7.21264 4.97232 7.54078 5.02143 7.83965 5.02039C8.67567 5.02039 9.51169 5.02143 10.3477 5.02143Z" fill="#444444"/>
<path d="M9.91912 10.001C10.0581 10 10.1981 10 10.3371 10C11.054 10.0021 11.0383 10.0063 11.1146 10.7137C11.1324 10.8789 11.2818 11.0774 11.4281 11.1715C12.2579 11.7065 12.7459 12.4474 12.8546 13.4266C12.9131 13.9533 12.7835 14.0892 12.2641 14.0986C11.9862 14.1038 11.7061 14.085 11.4281 14.1027C10.9422 14.1351 10.5419 14.1069 10.4301 13.482C10.405 13.3388 10.0278 13.1737 9.81566 13.1789C9.66309 13.1821 9.40392 13.4475 9.3987 13.6032C9.39243 13.7767 9.58262 14.0306 9.75505 14.1205C10.1835 14.3452 10.6527 14.4936 11.1031 14.6796C12.1241 15.1018 12.7407 15.8594 12.8483 16.9588C12.9612 18.1093 12.5108 19.0425 11.542 19.6811C11.239 19.8807 11.0456 20.0625 11.0948 20.4533C11.1387 20.7982 10.9359 20.9685 10.5963 20.9706C10.1605 20.9737 9.72579 20.9706 9.29001 20.9727C8.91799 20.9748 8.72675 20.7877 8.77378 20.4209C8.8208 20.0489 8.63792 19.8796 8.34218 19.6936C7.52707 19.1794 7.08921 18.4155 7.00456 17.4489C6.96798 17.0236 7.15086 16.8313 7.57305 16.8407C7.86879 16.847 8.16558 16.8543 8.46132 16.8386C8.92739 16.8135 9.31614 16.8365 9.42587 17.4426C9.45408 17.5983 9.81984 17.7969 10.0184 17.7854C10.1887 17.7749 10.4458 17.5064 10.4719 17.3245C10.4939 17.1741 10.2692 16.9149 10.0915 16.8229C9.67772 16.6066 9.22522 16.4645 8.7905 16.2868C7.77056 15.8699 7.13937 15.1258 7.02233 14.0244C6.89901 12.8738 7.33479 11.9354 8.29829 11.2864C8.60866 11.0774 8.84379 10.906 8.77691 10.4818C8.72571 10.163 8.9159 9.99896 9.2409 10.0021C9.46662 10.0031 9.69339 10.001 9.91912 10.001ZM10.2828 20.144C10.3779 19.4553 10.381 19.4595 10.9798 19.1167C11.727 18.6893 12.1063 18.0226 12.0802 17.1782C12.0541 16.3161 11.587 15.7152 10.7823 15.3902C10.3476 15.2146 9.90867 15.0485 9.47498 14.8698C8.81976 14.6002 8.53969 14.2083 8.57104 13.622C8.60239 13.0452 8.98487 12.5687 9.54918 12.4056C10.1333 12.2374 10.7604 12.4119 11.0456 12.9501C11.2923 13.4151 11.611 13.3503 12.0175 13.2876C11.9193 12.6512 11.5943 12.1778 11.0718 11.9051C10.5994 11.6584 10.1626 11.4526 10.3319 10.8078C10.0288 10.8078 9.79685 10.8078 9.51887 10.8078C9.63278 11.3596 9.39347 11.6125 8.92739 11.8309C8.13214 12.2029 7.75384 12.9146 7.78623 13.7851C7.81758 14.6493 8.28262 15.2429 9.09355 15.5616C9.53037 15.733 9.9651 15.9085 10.3977 16.0872C11.0498 16.3568 11.332 16.756 11.2944 17.3392C11.2578 17.9045 10.8555 18.3999 10.3058 18.5566C9.75923 18.7123 9.11027 18.5368 8.83961 18.0331C8.58358 17.5586 8.25649 17.6109 7.83326 17.6798C7.97329 18.3288 8.2962 18.8283 8.85738 19.0843C9.33495 19.3017 9.6495 19.5536 9.53768 20.143C9.81043 20.144 10.0309 20.144 10.2828 20.144Z" fill="#444444"/>
</svg>
