<svg width="111" height="111" viewBox="0 0 111 111" fill="none" xmlns="http://www.w3.org/2000/svg">
<path d="M27.3107 31.9083C26.9693 31.9083 26.6618 31.912 26.3525 31.9083C25.4726 31.8935 25.0744 31.5019 25.0708 30.6038C25.0619 28.4939 25.0619 26.3822 25.0708 24.2723C25.0744 23.4447 25.4726 23.0346 26.2512 23.0031C26.3845 22.9975 26.5178 23.0012 26.6511 23.0012C39.8041 23.0012 52.957 23.0012 66.1099 23.0012C67.4254 23.0012 67.724 23.3092 67.724 24.6639C67.724 26.5195 67.724 28.3752 67.724 30.2308C67.724 31.5984 67.4325 31.9027 66.1223 31.9083C65.925 31.9083 65.7259 31.9083 65.5624 31.9083C66.4103 36.36 67.2529 40.7746 68.108 45.2689C68.2591 45.2689 68.5008 45.2689 68.7408 45.2689C73.2507 45.2689 77.7607 45.2689 82.2706 45.2689C83.2928 45.2689 83.5416 45.4693 83.7958 46.5141C84.0429 47.5235 84.2456 48.546 84.5389 49.5406C84.6456 49.8988 84.9015 50.268 85.1895 50.4963C85.8757 51.0437 86.617 51.5169 87.3458 52.0049C87.7973 52.3074 88 52.7138 88 53.2816C87.9929 64.2744 87.9964 75.2673 87.9929 86.2601C87.9929 87.2028 87.5805 87.5758 86.5868 87.5758C80.5214 87.5776 74.456 87.5758 68.3906 87.5758C54.1267 87.5758 39.8627 87.5758 25.6005 87.5758C24.2584 87.5758 23.9011 87.1824 24.022 85.7665C24.1962 83.7253 24.8877 81.8548 25.789 80.053C25.9383 79.7524 26.0147 79.3385 25.9561 79.0082C24.5837 71.1626 23.9242 63.2501 24.0184 55.2783C24.0878 49.3718 24.9126 43.5488 26.0627 37.7758C26.4538 35.833 26.8876 33.8994 27.3107 31.9083ZM46.4116 51.2126C46.6125 50.9305 46.7494 50.7208 46.9023 50.5223C48.3617 48.6239 50.2531 47.5996 52.5854 47.5031C53.4423 47.4679 53.8582 47.9039 53.8636 48.8021C53.8725 50.2625 53.8867 51.7247 53.8582 53.1851C53.8085 55.8294 52.0113 58.0376 49.519 58.5071C48.8541 58.6314 48.1697 58.6314 47.5262 58.6852C47.5262 59.8005 47.5262 60.8675 47.5262 61.9809C49.4479 60.4054 50.8504 59.7819 52.5019 59.7467C53.4512 59.7263 53.8582 60.1234 53.8671 61.1013C53.8742 62.005 53.86 62.9105 53.8778 63.8142C53.8814 63.9942 53.9436 64.28 54.0556 64.332C54.6706 64.6103 55.3106 64.8293 56.0039 65.0928C56.0039 61.5448 55.9897 58.1137 56.0199 54.6845C56.0234 54.202 56.1532 53.6676 56.3772 53.2463C57.634 50.8748 58.953 48.5386 60.2169 46.1726C60.56 45.5306 60.9956 45.2374 61.7084 45.2578C63.0594 45.2968 64.4104 45.2689 65.7917 45.2689C65.7792 45.0926 65.781 44.9795 65.7615 44.8718C64.974 40.7634 64.1758 36.6587 63.4061 32.5466C63.3083 32.0271 63.1021 31.8935 62.6132 31.8972C58.3042 31.9176 53.9933 31.9083 49.6843 31.9083C43.1976 31.9083 36.7109 31.9083 30.2242 31.9102C29.8883 31.9102 29.5683 31.8062 29.4332 32.3666C27.8866 38.7835 26.7258 45.2671 26.2903 51.8732C25.8956 57.8836 26.2672 63.8755 26.8325 69.8581C26.9267 70.8545 27.0689 71.8455 27.2076 73.0034C28.7772 70.8564 30.4891 69.1214 32.4588 67.6666C34.4462 66.2006 36.6078 65.0983 38.9348 64.2837C38.9348 63.1629 38.9241 62.0755 38.9383 60.9862C38.949 60.1698 39.365 59.7281 40.1436 59.7559C40.6716 59.7745 41.2031 59.858 41.7222 59.9712C43.0732 60.2662 44.2109 61.0048 45.297 62.031C45.297 60.8378 45.297 59.7671 45.297 58.6296C44.9415 58.6296 44.6144 58.6333 44.2873 58.6296C41.6102 58.5906 39.4023 56.7312 39.0503 53.9589C38.8352 52.2703 38.9508 50.5353 38.9401 48.8225C38.9348 47.8891 39.3579 47.466 40.2663 47.5068C42.3906 47.6052 44.1682 48.4885 45.5903 50.1381C45.8659 50.4592 46.1094 50.8155 46.4116 51.2126ZM58.1584 74.8089C64.5775 69.5556 70.9202 69.5723 77.2949 74.7848C77.2949 68.2511 77.2949 61.799 77.2949 55.2876C76.287 55.2876 75.3146 55.2931 74.3422 55.2857C73.5529 55.2783 73.0783 54.857 73.0712 54.1834C73.0659 53.508 73.5441 53.0719 74.3245 53.0645C75.2577 53.0552 76.191 53.0329 77.1225 53.0738C77.6025 53.0942 77.8762 52.9494 78.1127 52.493C78.8753 51.027 79.6894 49.5926 80.4805 48.1433C80.5854 47.9522 80.6707 47.7518 80.7951 47.4939C80.4627 47.4939 80.221 47.4939 79.9774 47.4939C74.4898 47.4939 69.0039 47.5328 63.5181 47.4623C62.3555 47.4475 61.6728 47.7462 61.168 48.8745C60.5351 50.2885 59.7067 51.606 58.9086 53.0608C59.241 53.0608 59.4561 53.0608 59.6712 53.0608C62.4035 53.0608 65.1357 53.0608 67.868 53.0608C68.5346 53.0608 69.2012 53.0404 69.8661 53.0701C70.4972 53.0979 70.9273 53.5767 70.9238 54.1797C70.9202 54.7847 70.4883 55.2337 69.8554 55.2838C69.6794 55.2968 69.4999 55.2876 69.3221 55.2876C65.8343 55.2876 62.3466 55.2876 58.8588 55.2876C58.6259 55.2876 58.3913 55.2876 58.1549 55.2876C58.1584 61.8306 58.1584 68.2696 58.1584 74.8089ZM39.0503 66.6311C38.8761 66.6886 38.7499 66.722 38.6272 66.7703C34.6151 68.3457 31.3459 70.9343 28.7755 74.525C27.9862 75.6273 27.4671 76.698 27.9808 78.0804C28.0751 78.3346 28.0537 78.6353 28.1355 78.8951C28.3701 79.6392 28.1835 80.2608 27.8102 80.927C27.3551 81.7416 27.0085 82.6267 26.676 83.5082C26.4627 84.0741 26.3614 84.6847 26.1996 85.3156C32.6312 85.3156 38.9508 85.3156 45.2899 85.3156C45.2899 84.577 45.2899 83.8737 45.2899 83.1241C44.9184 83.1241 44.5895 83.1296 44.2607 83.1241C41.6191 83.0814 39.3952 81.2294 39.061 78.4979C38.837 76.672 38.9366 74.7978 38.9686 72.9477C38.9792 72.3168 39.4752 71.9382 40.0832 72.0088C40.9151 72.1052 41.7826 72.185 42.5452 72.5042C43.5105 72.9087 44.3869 73.5471 45.297 74.0815C45.297 73.085 45.297 72.0143 45.297 70.8694C42.2235 71.0884 40.0938 69.7746 39.0503 66.6311ZM77.3323 85.3211C77.3323 83.4135 77.2327 81.5765 77.3643 79.7579C77.4656 78.3513 76.9909 77.4328 75.9706 76.5792C73.6063 74.6029 71.0411 73.1611 67.9498 73.1203C64.0549 73.0665 60.9796 74.9722 58.3379 77.778C58.1833 77.9412 58.1442 78.279 58.1424 78.5369C58.1264 80.5299 58.1335 82.5228 58.1335 84.5158C58.1335 84.783 58.1335 85.0502 58.1335 85.3211C64.5722 85.3211 70.9149 85.3211 77.3323 85.3211ZM27.2342 29.6333C40.044 29.6333 52.8023 29.6333 65.5464 29.6333C65.5464 28.1395 65.5464 26.6958 65.5464 25.2614C52.7508 25.2614 40.0085 25.2614 27.2342 25.2614C27.2342 26.7255 27.2342 28.1543 27.2342 29.6333ZM85.865 85.3174C85.865 84.9908 85.865 84.7162 85.865 84.4434C85.865 74.7273 85.8437 65.0111 85.8935 55.295C85.9006 54.1037 85.6784 53.2816 84.5993 52.7676C83.3176 52.1571 82.4466 51.1792 82.3275 49.6278C82.3257 49.6 82.2617 49.5759 82.1835 49.5202C81.5506 50.6781 80.9196 51.8323 80.2476 53.0645C80.7205 53.0645 81.0742 53.0589 81.428 53.0663C82.1693 53.083 82.6386 53.495 82.6599 54.1408C82.6812 54.8125 82.1959 55.2746 81.4315 55.2876C80.7951 55.2987 80.157 55.2894 79.5081 55.2894C79.5081 65.347 79.5081 75.3266 79.5081 85.297C80.2263 85.297 80.9 85.297 81.5986 85.297C81.5986 84.9667 81.5986 84.6902 81.5986 84.4137C81.5986 77.1322 81.5986 69.8506 81.5986 62.5691C81.5986 62.3371 81.5844 62.1033 81.6093 61.8732C81.6769 61.2701 82.1426 60.8285 82.6901 60.8656C83.2785 60.9046 83.6234 61.259 83.7158 61.8602C83.7514 62.0866 83.7301 62.3223 83.7301 62.5543C83.7301 69.8581 83.7301 77.1637 83.7301 84.4675C83.7301 84.7385 83.7301 85.0113 83.7301 85.3156C84.4536 85.3174 85.1113 85.3174 85.865 85.3174ZM47.496 74.165C47.5724 74.165 47.5991 74.1743 47.6098 74.1632C47.7662 74.0333 47.9191 73.8997 48.0737 73.7679C49.3537 72.6805 50.8202 72.0867 52.4663 71.9976C53.4512 71.9457 53.8618 72.3632 53.8654 73.3782C53.8707 74.7681 53.8796 76.1598 53.8636 77.5516C53.8245 80.6802 51.5224 83.074 48.5217 83.1203C48.1768 83.1259 47.8338 83.1203 47.5049 83.1203C47.5049 83.9183 47.5049 84.6049 47.5049 85.3026C50.3474 85.3026 53.1525 85.3026 56.0003 85.3026C56.0003 84.1706 56.0003 83.0851 56.0003 81.9995C56.0003 77.3864 56.0021 72.7733 55.9932 68.1602C55.9932 67.9338 55.9417 67.5756 55.8066 67.5051C55.1488 67.16 54.4538 66.8909 53.7391 66.5829C53.3089 68.0841 52.5641 69.1975 51.4015 69.9954C50.2176 70.8082 48.8843 70.9306 47.4978 70.8824C47.496 72.0125 47.496 73.072 47.496 74.165ZM45.3041 56.3397C45.5086 52.9476 43.6296 50.101 41.0804 49.9247C41.0804 51.0808 41.0129 52.2406 41.0946 53.3892C41.2404 55.4434 42.9736 56.6403 45.3041 56.3397ZM51.725 49.8821C48.9021 50.4239 47.0658 53.3076 47.5458 56.388C47.976 56.388 48.4168 56.4232 48.8506 56.3824C50.3758 56.2339 51.6344 54.9146 51.7144 53.3243C51.7695 52.1942 51.725 51.0604 51.725 49.8821ZM41.068 62.146C41.068 63.0961 41.0662 64.0406 41.068 64.9851C41.0733 67.5311 42.8901 69.0713 45.2881 68.561C45.6046 65.3396 43.7629 62.5079 41.068 62.146ZM47.5244 68.6463C47.9155 68.6463 48.2675 68.6575 48.6195 68.6445C50.1909 68.587 51.5491 67.3697 51.6895 65.7404C51.7908 64.5528 51.7091 63.3485 51.7091 62.1479C49.0195 62.5283 47.1814 65.3618 47.5244 68.6463ZM45.2935 80.8453C45.5655 77.5182 43.7202 74.6976 41.0858 74.4025C41.0858 75.5827 41.0058 76.7666 41.1035 77.9357C41.2706 79.9602 42.9416 81.0921 45.2935 80.8453ZM51.7233 74.3803C48.9199 74.8924 47.0907 77.7538 47.5404 80.8843C47.9689 80.8843 48.4097 80.9196 48.8435 80.8787C50.3687 80.7321 51.6308 79.4165 51.7126 77.8262C51.7695 76.6943 51.7233 75.5605 51.7233 74.3803Z" fill="#0E7139"/>
<path d="M54.545 43.0413C53.9459 43.0413 53.3451 43.0617 52.746 43.0376C51.571 42.9894 50.5968 43.1378 49.5836 44.0749C47.5179 45.9825 44.3928 45.5984 42.5049 43.4737C42.2187 43.1508 41.945 43.0283 41.5343 43.032C39.3816 43.0506 37.227 43.0432 35.0743 43.0395C33.7304 43.0376 33.2184 42.2768 33.8957 41.0966C34.461 40.1113 34.4752 39.3078 33.901 38.315C33.2149 37.1311 33.7233 36.3629 35.0601 36.361C37.2128 36.3592 39.3674 36.3517 41.5201 36.3684C41.9236 36.3721 42.2045 36.2664 42.4943 35.9398C44.6452 33.5163 48.1686 33.5479 50.3622 35.9565C50.5595 36.1717 50.9133 36.3406 51.1977 36.3443C53.3735 36.3759 55.5494 36.3592 57.7253 36.3629C59.0692 36.3647 59.5811 37.1255 58.9074 38.3039C58.3439 39.2892 58.3243 40.0927 58.9003 41.0855C59.5865 42.2675 59.0763 43.0376 57.7413 43.0413C56.6764 43.0432 55.6098 43.0413 54.545 43.0413ZM46.3927 36.3629C44.6541 36.3666 43.2142 37.8604 43.2035 39.6733C43.1911 41.5178 44.6434 43.0432 46.4087 43.0395C48.1437 43.0358 49.5871 41.5383 49.5996 39.7271C49.6102 37.8826 48.1597 36.3592 46.3927 36.3629ZM41.1201 38.6267C39.5807 38.6267 38.0465 38.6267 36.404 38.6267C36.9106 39.3616 36.8786 40.0593 36.4147 40.7812C38.0572 40.7812 39.5949 40.7812 41.1201 40.7812C41.1201 40.0612 41.1201 39.3764 41.1201 38.6267ZM51.6954 38.6156C51.6954 39.3764 51.6954 40.063 51.6954 40.7812C53.226 40.7812 54.7655 40.7812 56.3209 40.7812C56.2125 40.4063 56.0347 40.0593 56.0347 39.7123C56.0365 39.3505 56.2125 38.9886 56.3156 38.6156C54.7512 38.6156 53.2278 38.6156 51.6954 38.6156Z" fill="#0E7139"/>
<path d="M67.6699 68.6555C66.2389 68.6091 64.9021 68.199 63.7822 67.1729C61.9423 65.4861 61.9405 62.9179 63.7733 61.2274C65.9118 59.2548 69.5489 59.2492 71.6857 61.2144C73.5273 62.9104 73.5149 65.5547 71.643 67.2155C70.5107 68.2194 69.1703 68.6277 67.6699 68.6555ZM67.9615 61.9715C66.7527 61.9678 65.7732 62.3129 65.1723 62.8863C64.3351 63.6805 64.3226 64.6714 65.1403 65.4749C66.4256 66.7386 69.0707 66.7312 70.3436 65.4601C71.1328 64.6714 71.1346 63.6954 70.3258 62.9216C69.6005 62.2276 68.7081 62.0012 67.9615 61.9715Z" fill="#0E7139"/>
<path d="M109 55.5C109 85.0472 85.0472 109 55.5 109C25.9528 109 2 85.0472 2 55.5C2 25.9528 25.9528 2 55.5 2C85.0472 2 109 25.9528 109 55.5Z" stroke="#0E7139" stroke-width="4"/>
<path d="M109 55.5C109 85.0472 85.0472 109 55.5 109C25.9528 109 2 85.0472 2 55.5C2 25.9528 25.9528 2 55.5 2C85.0472 2 109 25.9528 109 55.5Z" stroke="#0E7139" stroke-width="4"/>
</svg>
