<svg width="33" height="30" viewBox="0 0 33 30" fill="none" xmlns="http://www.w3.org/2000/svg">
<path d="M2.48876 4.13848C2.32249 4.13848 2.17268 4.14021 2.022 4.13848C1.59333 4.13159 1.39935 3.94969 1.39762 3.53245C1.39329 2.55228 1.39329 1.57125 1.39762 0.591079C1.39935 0.206597 1.59333 0.0160802 1.97264 0.00142505C2.03758 -0.00116115 2.10253 0.000562982 2.16748 0.000562982C8.57492 0.000562982 14.9824 0.000562982 21.3898 0.000562982C22.0306 0.000562982 22.1761 0.143666 22.1761 0.772975C22.1761 1.63504 22.1761 2.49711 22.1761 3.35917C22.1761 3.99452 22.0341 4.1359 21.3959 4.13848C21.2997 4.13848 21.2028 4.13848 21.1231 4.13848C21.5362 6.20658 21.9466 8.25744 22.3632 10.3454C22.4368 10.3454 22.5546 10.3454 22.6715 10.3454C24.8685 10.3454 27.0655 10.3454 29.2625 10.3454C29.7604 10.3454 29.8817 10.4385 30.0055 10.9238C30.1259 11.3928 30.2246 11.8678 30.3675 12.3298C30.4195 12.4962 30.5442 12.6678 30.6845 12.7738C31.0187 13.0281 31.3798 13.2479 31.7349 13.4747C31.9549 13.6152 32.0536 13.804 32.0536 14.0678C32.0501 19.1746 32.0518 24.2815 32.0501 29.3884C32.0501 29.8263 31.8492 29.9996 31.3651 29.9996C28.4104 30.0005 25.4556 29.9996 22.5009 29.9996C15.5522 29.9996 8.6035 29.9996 1.65568 29.9996C1.00186 29.9996 0.8278 29.8169 0.886687 29.1591C0.971554 28.2108 1.30842 27.3419 1.74748 26.5048C1.82022 26.3651 1.85746 26.1729 1.82888 26.0195C1.16034 22.3746 0.839058 18.6988 0.884955 14.9953C0.918728 12.2514 1.32055 9.54623 1.88084 6.86434C2.07136 5.96175 2.28266 5.06348 2.48876 4.13848ZM11.7938 13.1066C11.8917 12.9755 11.9583 12.8781 12.0328 12.7859C12.7438 11.904 13.6652 11.4281 14.8014 11.3833C15.2188 11.3669 15.4214 11.5695 15.424 11.9867C15.4283 12.6652 15.4353 13.3445 15.4214 14.0229C15.3972 15.2514 14.5217 16.2772 13.3075 16.4953C12.9837 16.5531 12.6503 16.5531 12.3368 16.5781C12.3368 17.0962 12.3368 17.5919 12.3368 18.1091C13.2729 17.3772 13.9562 17.0876 14.7607 17.0712C15.2231 17.0617 15.4214 17.2462 15.4257 17.7005C15.4292 18.1203 15.4223 18.541 15.4309 18.9609C15.4327 19.0445 15.463 19.1772 15.5175 19.2014C15.8172 19.3307 16.1289 19.4324 16.4667 19.5548C16.4667 17.9065 16.4597 16.3126 16.4745 14.7195C16.4762 14.4953 16.5394 14.2471 16.6485 14.0514C17.2608 12.9497 17.9033 11.8643 18.5191 10.7652C18.6862 10.4669 18.8984 10.3307 19.2456 10.3402C19.9038 10.3583 20.5619 10.3454 21.2348 10.3454C21.2287 10.2635 21.2296 10.2109 21.2201 10.1609C20.8364 8.25226 20.4476 6.34537 20.0726 4.43503C20.025 4.19365 19.9246 4.13159 19.6864 4.13331C17.5873 4.14279 15.4872 4.13848 13.3881 4.13848C10.2281 4.13848 7.06811 4.13848 3.90812 4.13934C3.74445 4.13934 3.58857 4.09107 3.52275 4.35141C2.76934 7.33244 2.20385 10.3445 1.99169 13.4135C1.79944 16.2057 1.98043 18.9893 2.25581 21.7686C2.30171 22.2315 2.37099 22.6919 2.43854 23.2298C3.2032 22.2324 4.03715 21.4264 4.99666 20.7505C5.96484 20.0695 7.01788 19.5574 8.15146 19.179C8.15146 18.6583 8.14626 18.1531 8.15319 17.6471C8.15838 17.2678 8.36103 17.0626 8.74033 17.0755C8.99753 17.0841 9.25646 17.1229 9.50932 17.1755C10.1675 17.3126 10.7217 17.6557 11.2508 18.1324C11.2508 17.5781 11.2508 17.0807 11.2508 16.5522C11.0776 16.5522 10.9183 16.554 10.7589 16.5522C9.45477 16.5341 8.37921 15.6703 8.20775 14.3824C8.10296 13.5979 8.15925 12.7919 8.15405 11.9962C8.15146 11.5626 8.35756 11.366 8.80008 11.385C9.83494 11.4307 10.7009 11.841 11.3937 12.6074C11.5279 12.7566 11.6466 12.9221 11.7938 13.1066ZM17.5162 24.0686C20.6433 21.6281 23.7332 21.6358 26.8386 24.0574C26.8386 21.0221 26.8386 18.0247 26.8386 14.9997C26.3476 14.9997 25.8739 15.0022 25.4002 14.9988C25.0157 14.9953 24.7845 14.7997 24.781 14.4867C24.7784 14.1729 25.0114 13.9704 25.3915 13.9669C25.8462 13.9626 26.3008 13.9522 26.7546 13.9712C26.9884 13.9807 27.1218 13.9135 27.237 13.7014C27.6085 13.0204 28.0051 12.354 28.3904 11.6807C28.4415 11.5919 28.4831 11.4988 28.5437 11.379C28.3818 11.379 28.264 11.379 28.1454 11.379C25.4721 11.379 22.7996 11.3971 20.1272 11.3643C19.5608 11.3574 19.2283 11.4962 18.9824 12.0204C18.6741 12.6773 18.2705 13.2893 17.8817 13.9652C18.0436 13.9652 18.1484 13.9652 18.2532 13.9652C19.5842 13.9652 20.9152 13.9652 22.2463 13.9652C22.571 13.9652 22.8958 13.9557 23.2196 13.9695C23.5271 13.9824 23.7366 14.2048 23.7349 14.485C23.7332 14.766 23.5227 14.9747 23.2144 14.9979C23.1287 15.004 23.0412 14.9997 22.9546 14.9997C21.2556 14.9997 19.5565 14.9997 17.8574 14.9997C17.744 14.9997 17.6297 14.9997 17.5145 14.9997C17.5162 18.0393 17.5162 21.0307 17.5162 24.0686ZM8.20775 20.2695C8.12288 20.2962 8.06139 20.3117 8.00164 20.3341C6.04711 21.066 4.45456 22.2686 3.20234 23.9367C2.81784 24.4488 2.56497 24.9462 2.81524 25.5884C2.86114 25.7065 2.85075 25.8462 2.89058 25.9669C3.00489 26.3126 2.91396 26.6014 2.73211 26.9108C2.51041 27.2893 2.34155 27.7005 2.17961 28.11C2.07569 28.3729 2.02633 28.6565 1.94752 28.9496C5.08066 28.9496 8.15925 28.9496 11.2474 28.9496C11.2474 28.6065 11.2474 28.2798 11.2474 27.9315C11.0664 27.9315 10.9062 27.9341 10.746 27.9315C9.4591 27.9117 8.37575 27.0513 8.21294 25.7824C8.10383 24.9341 8.15232 24.0634 8.16791 23.2039C8.17311 22.9108 8.41472 22.735 8.71088 22.7677C9.11617 22.8126 9.53877 22.8496 9.91028 22.9979C10.3805 23.1858 10.8074 23.4824 11.2508 23.7307C11.2508 23.2677 11.2508 22.7703 11.2508 22.2384C9.75353 22.3402 8.71608 21.7298 8.20775 20.2695ZM26.8568 28.9522C26.8568 28.066 26.8083 27.2126 26.8724 26.3677C26.9217 25.7143 26.6905 25.2876 26.1934 24.891C25.0417 23.9729 23.7921 23.3031 22.2861 23.2841C20.3887 23.2591 18.8906 24.1445 17.6037 25.4479C17.5284 25.5238 17.5093 25.6807 17.5084 25.8005C17.5007 26.7263 17.5041 27.6522 17.5041 28.5781C17.5041 28.7022 17.5041 28.8263 17.5041 28.9522C20.6407 28.9522 23.7306 28.9522 26.8568 28.9522ZM2.45153 3.08159C8.69183 3.08159 14.907 3.08159 21.1153 3.08159C21.1153 2.38763 21.1153 1.71694 21.1153 1.05056C14.8819 1.05056 8.67451 1.05056 2.45153 1.05056C2.45153 1.73073 2.45153 2.39452 2.45153 3.08159ZM31.0135 28.9505C31.0135 28.7988 31.0135 28.6712 31.0135 28.5444C31.0135 24.0307 31.0031 19.5169 31.0274 15.0031C31.0308 14.4497 30.9226 14.0678 30.3969 13.829C29.7726 13.5454 29.3482 13.091 29.2902 12.3704C29.2893 12.3574 29.2582 12.3462 29.2201 12.3204C28.9118 12.8583 28.6043 13.3945 28.277 13.9669C28.5074 13.9669 28.6797 13.9643 28.852 13.9678C29.2131 13.9755 29.4418 14.1669 29.4521 14.4669C29.4625 14.779 29.2261 14.9936 28.8538 14.9997C28.5437 15.0048 28.2328 15.0005 27.9168 15.0005C27.9168 19.6729 27.9168 24.3091 27.9168 28.941C28.2666 28.941 28.5948 28.941 28.9352 28.941C28.9352 28.7875 28.9352 28.6591 28.9352 28.5307C28.9352 25.1479 28.9352 21.7652 28.9352 18.3824C28.9352 18.2747 28.9282 18.166 28.9403 18.0591C28.9733 17.779 29.2001 17.5738 29.4669 17.591C29.7535 17.6091 29.9215 17.7738 29.9665 18.0531C29.9839 18.1583 29.9735 18.2678 29.9735 18.3755C29.9735 21.7686 29.9735 25.1626 29.9735 28.5557C29.9735 28.6815 29.9735 28.8082 29.9735 28.9496C30.3259 28.9505 30.6463 28.9505 31.0135 28.9505ZM12.3221 23.7695C12.3593 23.7695 12.3723 23.7738 12.3775 23.7686C12.4537 23.7083 12.5282 23.6462 12.6035 23.585C13.227 23.0798 13.9414 22.8039 14.7434 22.7626C15.2231 22.7384 15.4232 22.9324 15.4249 23.4039C15.4275 24.0496 15.4318 24.6962 15.424 25.3427C15.405 26.7962 14.2835 27.9082 12.8217 27.9298C12.6537 27.9324 12.4866 27.9298 12.3264 27.9298C12.3264 28.3005 12.3264 28.6194 12.3264 28.9436C13.7111 28.9436 15.0776 28.9436 16.4649 28.9436C16.4649 28.4177 16.4649 27.9134 16.4649 27.4091C16.4649 25.266 16.4658 23.1229 16.4615 20.9798C16.4615 20.8746 16.4364 20.7083 16.3705 20.6755C16.0501 20.5152 15.7115 20.3902 15.3634 20.2471C15.1538 20.9445 14.791 21.4617 14.2246 21.8324C13.6479 22.21 12.9984 22.2669 12.3229 22.2445C12.3221 22.7695 12.3221 23.2617 12.3221 23.7695ZM11.2543 15.4885C11.3539 13.9126 10.4385 12.5902 9.1967 12.5083C9.1967 13.0454 9.1638 13.5841 9.20363 14.1178C9.27464 15.0721 10.119 15.6281 11.2543 15.4885ZM14.3822 12.4885C13.007 12.7402 12.1125 14.0798 12.3463 15.5109C12.5559 15.5109 12.7706 15.5272 12.9819 15.5083C13.725 15.4393 14.3381 14.8264 14.377 14.0876C14.4039 13.5626 14.3822 13.0359 14.3822 12.4885ZM9.19064 18.1859C9.19064 18.6272 9.18977 19.066 9.19064 19.5048C9.19324 20.6876 10.0783 21.4031 11.2465 21.166C11.4006 19.6695 10.5035 18.354 9.19064 18.1859ZM12.3359 21.2057C12.5264 21.2057 12.6979 21.2108 12.8694 21.2048C13.6349 21.1781 14.2965 20.6126 14.3649 19.8557C14.4143 19.304 14.3744 18.7445 14.3744 18.1867C13.0642 18.3634 12.1688 19.6798 12.3359 21.2057ZM11.2491 26.8729C11.3816 25.3272 10.4827 24.0169 9.1993 23.8798C9.1993 24.4281 9.16033 24.9781 9.20796 25.5212C9.28936 26.4617 10.1034 26.9876 11.2491 26.8729ZM14.3814 23.8695C13.0157 24.1074 12.1246 25.4367 12.3437 26.891C12.5524 26.891 12.7672 26.9074 12.9785 26.8884C13.7215 26.8203 14.3363 26.2091 14.3762 25.4703C14.4039 24.9445 14.3814 24.4177 14.3814 23.8695Z" fill="#0E7139"/>
<path d="M15.7557 9.31078C15.4639 9.31078 15.1712 9.32027 14.8793 9.30906C14.3069 9.28665 13.8323 9.35561 13.3387 9.79096C12.3324 10.6772 10.81 10.4987 9.89036 9.51165C9.75094 9.36165 9.61758 9.30475 9.41753 9.30647C8.36882 9.31509 7.31925 9.31165 6.27054 9.30992C5.61585 9.30906 5.36644 8.95561 5.69639 8.40734C5.97177 7.94958 5.9787 7.57631 5.69898 7.1151C5.36471 6.5651 5.61238 6.20821 6.26361 6.20735C7.31232 6.20648 8.3619 6.20303 9.41061 6.21079C9.60719 6.21252 9.74401 6.16338 9.88517 6.01166C10.933 4.8858 12.6494 4.90045 13.718 6.01941C13.8142 6.11941 13.9865 6.19786 14.125 6.19959C15.185 6.21424 16.245 6.20648 17.305 6.20821C17.9596 6.20907 18.209 6.56252 17.8808 7.10993C17.6063 7.56769 17.5968 7.94096 17.8774 8.40217C18.2116 8.9513 17.9631 9.30906 17.3127 9.31078C16.794 9.31165 16.2744 9.31078 15.7557 9.31078ZM11.7843 6.20821C10.9373 6.20993 10.2359 6.90389 10.2307 7.74613C10.2246 8.60303 10.9321 9.31165 11.7921 9.30992C12.6373 9.3082 13.3405 8.61251 13.3465 7.77113C13.3517 6.91424 12.6451 6.20648 11.7843 6.20821ZM9.21576 7.25993C8.46581 7.25993 7.71847 7.25993 6.91829 7.25993C7.1651 7.60131 7.14951 7.92544 6.92349 8.26079C7.72366 8.26079 8.47274 8.26079 9.21576 8.26079C9.21576 7.92631 9.21576 7.6082 9.21576 7.25993ZM14.3675 7.25476C14.3675 7.6082 14.3675 7.92717 14.3675 8.26079C15.1131 8.26079 15.8631 8.26079 16.6208 8.26079C16.568 8.08665 16.4814 7.92544 16.4814 7.76424C16.4823 7.59613 16.568 7.42803 16.6182 7.25476C15.8562 7.25476 15.114 7.25476 14.3675 7.25476Z" fill="#0E7139"/>
<path d="M22.1501 21.2101C21.453 21.1885 20.8018 20.998 20.2562 20.5213C19.3599 19.7376 19.3591 18.5445 20.2519 17.7592C21.2937 16.8428 23.0655 16.8402 24.1064 17.7532C25.0036 18.5411 24.9975 19.7695 24.0856 20.5411C23.534 21.0075 22.881 21.1971 22.1501 21.2101ZM22.2922 18.1049C21.7033 18.1032 21.2261 18.2635 20.9334 18.5299C20.5255 18.8989 20.5195 19.3592 20.9178 19.7325C21.5439 20.3195 22.8325 20.3161 23.4526 19.7256C23.8371 19.3592 23.8379 18.9058 23.4439 18.5463C23.0906 18.2239 22.6559 18.1187 22.2922 18.1049Z" fill="#0E7139"/>
</svg>
