<svg width="28" height="30" viewBox="0 0 28 30" fill="none" xmlns="http://www.w3.org/2000/svg">
<path d="M14.2393 26.0695C13.8672 26.4592 13.4733 26.7877 13.1863 27.1918C12.7583 27.7944 13.1027 28.5163 13.8497 28.6941C14.3416 28.8112 14.5423 29.3079 14.2574 29.7178C14.127 29.9052 13.9359 29.9766 13.7064 29.976C12.704 29.9739 11.7016 29.9782 10.6991 29.9814C8.78258 29.9867 6.86658 29.9925 4.95006 29.9989C3.40992 30.0043 2.21156 29.3803 1.40289 28.0574C1.08347 27.5351 0.920036 26.9559 0.887029 26.3453C0.868928 26.0088 0.878511 25.6713 0.878511 25.3343C0.877979 20.3125 0.880108 15.2912 0.876914 10.2694C0.875849 9.05771 1.30068 8.03769 2.20943 7.23275C2.94303 6.58273 3.81718 6.2894 4.78822 6.26171C4.8915 6.25852 4.99478 6.26118 5.12521 6.26118C5.12521 5.90822 5.13319 5.59093 5.11722 5.2747C5.11456 5.22466 5.01022 5.148 4.94474 5.13735C4.2287 5.0213 3.79429 4.53365 3.7895 3.80909C3.78418 2.98392 3.78311 2.15875 3.79003 1.33358C3.79589 0.56857 4.29685 0.0505766 5.0576 0.00692243C5.1284 0.00266349 5.19974 0.00266349 5.27055 0.00266349C9.61786 0.00266349 13.9652 0.00426059 18.3125 1.64803e-06C18.8332 -0.00053072 19.2936 0.12777 19.5625 0.597318C19.6929 0.825172 19.7744 1.10999 19.784 1.37245C19.8122 2.16993 19.7951 2.96902 19.7941 3.76757C19.793 4.43782 19.3889 5.04046 18.6154 5.14055C18.5515 5.14906 18.4541 5.25075 18.4504 5.3141C18.4328 5.61329 18.4424 5.91408 18.4424 6.24255C18.5563 6.24947 18.6495 6.25958 18.7432 6.26065C20.731 6.28567 22.2579 7.55963 22.6343 9.51555C22.6662 9.68218 22.7365 9.73115 22.8983 9.72956C23.6612 9.72317 24.4241 9.72317 25.1875 9.72849C25.7784 9.73275 26.2379 9.97178 26.4817 10.5302C26.5504 10.6873 26.5796 10.872 26.5828 11.0445C26.5945 11.6743 26.5903 12.3041 26.5871 12.9344C26.5834 13.5908 26.248 14.0364 25.6208 14.2313C25.583 14.243 25.5495 14.2685 25.442 14.3266C25.6049 14.3734 25.698 14.4075 25.7949 14.4266C26.9592 14.6603 27.8467 15.6878 27.8504 16.8739C27.8616 20.4051 27.8626 23.9363 27.8504 27.467C27.8456 28.7819 26.7777 29.8861 25.4697 29.983C25.3547 29.9915 25.2391 29.9979 25.1241 29.9979C22.6406 29.9989 20.1577 29.9963 17.6742 30C16.8501 30.0011 16.1713 29.7131 15.6778 29.0369C15.3387 28.5722 15.2051 28.0483 15.2785 27.4819C15.3083 27.2503 15.2705 27.0821 15.0901 26.9197C14.8058 26.6663 14.5497 26.3836 14.2393 26.0695ZM16.8655 14.3255C16.7761 14.2744 16.7425 14.2472 16.7042 14.235C16.0569 14.0306 15.7273 13.594 15.7225 12.9195C15.7183 12.3073 15.7034 11.6945 15.7305 11.0834C15.7417 10.8369 15.8077 10.5702 15.927 10.3562C16.1889 9.88501 16.643 9.72636 17.1631 9.7269C18.4498 9.72743 19.736 9.7269 21.0228 9.7269C21.1266 9.7269 21.2304 9.7269 21.3592 9.7269C21.3395 9.62095 21.3321 9.55281 21.314 9.48733C20.9983 8.34753 20.0464 7.59636 18.8614 7.57027C18.1608 7.55483 17.4596 7.56921 16.7585 7.56388C16.2874 7.56069 15.986 7.29557 15.9935 6.90375C16.001 6.52417 16.3065 6.26704 16.7585 6.26118C16.8788 6.25958 16.9986 6.26118 17.1466 6.26118C17.1466 5.95507 17.1349 5.68995 17.1503 5.42643C17.1626 5.21029 17.0955 5.13522 16.8687 5.13735C15.7332 5.148 14.5976 5.14268 13.4616 5.14214C12.8935 5.14161 12.3255 5.15119 11.7585 5.13309C11.3225 5.11925 11.0622 4.72903 11.1825 4.31112C11.2751 3.9901 11.487 3.85062 11.898 3.85062C13.9827 3.84955 16.068 3.85009 18.1528 3.85009C18.2561 3.85009 18.3593 3.85009 18.4791 3.85009C18.4866 3.7303 18.4956 3.64353 18.4962 3.55728C18.4972 2.90939 18.485 2.2615 18.5026 1.61467C18.51 1.35062 18.4174 1.29419 18.1693 1.29472C14.3011 1.30217 10.4329 1.30004 6.5642 1.30004C6.15587 1.30004 5.74755 1.31229 5.34029 1.29525C5.12202 1.2862 5.06878 1.36499 5.07197 1.56889C5.08156 2.25032 5.07463 2.93335 5.07623 3.61638C5.07623 3.68505 5.08848 3.7532 5.09753 3.84955C5.20613 3.84955 5.30089 3.84955 5.39618 3.84955C6.50511 3.84955 7.61403 3.84742 8.72348 3.85115C9.16003 3.85275 9.45283 4.13916 9.43526 4.53258C9.41929 4.88235 9.15257 5.13363 8.76128 5.13842C8.06069 5.14693 7.35956 5.13735 6.65843 5.14853C6.5807 5.1496 6.44122 5.23211 6.4375 5.28429C6.41673 5.59945 6.42738 5.91727 6.42738 6.2484C6.54716 6.25479 6.635 6.25426 6.72125 6.26437C6.99595 6.29685 7.21209 6.42089 7.31484 6.68867C7.48626 7.13639 7.18228 7.55058 6.66003 7.56175C6.03024 7.57506 5.39991 7.5575 4.77012 7.56814C3.28056 7.59263 2.18068 8.70102 2.16311 10.1895C2.15779 10.642 2.16205 11.0945 2.16205 11.5471C2.16205 11.9107 2.16205 11.9112 2.51661 11.9112C6.35817 11.9112 10.1997 11.9107 14.0418 11.9133C14.1904 11.9133 14.3448 11.9266 14.4869 11.9676C14.7297 12.0368 14.8718 12.2178 14.9155 12.4633C14.9623 12.7241 14.8681 12.9637 14.6498 13.0835C14.4747 13.1793 14.2441 13.2075 14.0386 13.208C10.188 13.215 6.33741 13.2155 2.48679 13.208C2.23605 13.2075 2.15566 13.2687 2.15619 13.5317C2.16524 16.9208 2.16578 20.3104 2.1546 23.6994C2.15353 23.9826 2.24244 24.0322 2.5001 24.0311C5.21518 24.0226 7.92972 24.0258 10.6448 24.0258C10.8668 24.0258 11.0888 24.0199 11.3103 24.0306C11.6669 24.0481 11.9209 24.3202 11.9214 24.671C11.922 25.0325 11.6792 25.2869 11.3103 25.3082C11.2128 25.3141 11.1149 25.3114 11.0175 25.3114C8.18739 25.3114 5.35679 25.3114 2.52672 25.3114C2.41492 25.3114 2.30366 25.3114 2.16205 25.3114C2.16205 25.5611 2.16152 25.7719 2.16205 25.9827C2.16631 27.5953 3.27363 28.7037 4.88511 28.7031C7.12957 28.7026 9.37457 28.6984 11.619 28.6952C11.7047 28.6952 11.7905 28.6882 11.9054 28.6829C11.8746 28.5663 11.8527 28.4748 11.8256 28.3848C11.5732 27.5468 11.7516 26.7898 12.3393 26.1669C13.1224 25.3375 13.954 24.5539 14.7568 23.742C15.1502 23.3443 15.5303 22.9328 16.0883 22.7641C17.621 22.2998 19.0525 23.4471 19.0408 24.8823C19.0392 25.0644 19.0408 25.247 19.0408 25.4509C19.1531 25.4509 19.2495 25.4509 19.3453 25.4509C20.064 25.4509 20.7827 25.444 21.5014 25.453C23.0138 25.4727 24.0738 26.9256 23.6367 28.3704C23.6064 28.47 23.5792 28.5706 23.5446 28.692C24.2031 28.692 24.8415 28.7287 25.4734 28.6792C25.9057 28.6451 26.2794 28.3864 26.4157 27.9573C26.5253 27.6123 26.5227 27.2322 26.5717 26.8681C26.5993 26.6636 26.5014 26.6062 26.3113 26.6109C25.9387 26.62 25.566 26.6184 25.1933 26.6115C24.7057 26.6024 24.4438 26.3772 24.4411 25.9774C24.4385 25.5776 24.735 25.3189 25.2061 25.3152C25.5697 25.3125 25.9339 25.3157 26.2975 25.3136C26.3821 25.313 26.4668 25.3019 26.5711 25.2939C26.5711 25.1815 26.5711 25.0942 26.5711 25.0069C26.5711 23.1085 26.5658 21.2095 26.5775 19.3111C26.5791 19.0545 26.4945 19.0055 26.2607 19.0061C22.8626 19.0125 19.4645 19.0103 16.0664 19.0103C15.9722 19.0103 15.878 19.0103 15.7561 19.0103C15.7561 19.1519 15.7561 19.2563 15.7561 19.3612C15.7561 20.1155 15.7614 20.8694 15.7534 21.6237C15.7486 22.0619 15.4819 22.3382 15.0954 22.3344C14.7164 22.3307 14.4582 22.0619 14.4571 21.636C14.4528 20.057 14.4385 18.4774 14.4624 16.8984C14.481 15.6575 15.3318 14.6784 16.5482 14.4224C16.6387 14.4022 16.726 14.3681 16.8655 14.3255ZM17.0369 12.969C17.153 12.969 17.2568 12.969 17.3606 12.969C18.4339 12.9706 19.5077 12.9743 20.5809 12.9733C20.8333 12.9733 21.0553 13.0361 21.2144 13.2421C21.3672 13.4396 21.4045 13.6574 21.2938 13.8905C21.1644 14.1631 20.9371 14.2749 20.6491 14.276C19.9037 14.2792 19.1584 14.277 18.4136 14.2786C18.3199 14.2786 18.2263 14.2872 18.1118 14.293C18.1118 14.5422 18.1166 14.7631 18.1107 14.9835C18.1001 15.3721 17.8744 15.6085 17.4847 15.6388C17.3436 15.65 17.2009 15.6399 17.0593 15.6484C16.4748 15.6825 16.0132 15.9444 15.8412 16.5098C15.73 16.8761 15.763 17.2865 15.7294 17.705C15.9046 17.705 16.01 17.705 16.1149 17.705C19.415 17.705 22.7152 17.705 26.0153 17.705C26.5722 17.705 26.5674 17.705 26.5732 17.1428C26.5775 16.7685 26.5062 16.4273 26.2602 16.1286C25.92 15.716 25.467 15.6404 24.9703 15.6431C24.4172 15.6463 24.201 15.4168 24.1973 14.8626C24.1962 14.6726 24.1973 14.4825 24.1973 14.2983C23.9066 14.2792 23.666 14.2808 23.4312 14.2424C23.156 14.1977 23.0032 13.9986 22.9505 13.7367C22.8962 13.4657 22.9989 13.2341 23.2374 13.1053C23.3854 13.0254 23.5702 12.985 23.7405 12.9797C24.2516 12.9637 24.7632 12.9738 25.2865 12.9738C25.2865 12.3121 25.2865 11.6876 25.2865 11.0488C22.5331 11.0488 19.7962 11.0488 17.0369 11.0488C17.0369 11.6871 17.0369 12.311 17.0369 12.969ZM20.1433 28.6866C20.6693 28.6866 21.1655 28.7223 21.6542 28.676C22.1109 28.6329 22.4485 28.1761 22.4469 27.7156C22.4453 27.2615 22.128 26.8351 21.6723 26.7813C21.2091 26.7265 20.7369 26.7451 20.2689 26.743C20.2274 26.743 20.1502 26.8271 20.1492 26.8734C20.1406 27.4728 20.1433 28.0718 20.1433 28.6866ZM18.8347 28.6904C18.8347 28.0734 18.8379 27.4739 18.8284 26.8745C18.8278 26.8276 18.7341 26.7419 18.6841 26.7419C18.2247 26.7435 17.761 26.7265 17.3069 26.7824C16.8426 26.8393 16.5477 27.2519 16.552 27.7284C16.5562 28.1995 16.8905 28.6409 17.3489 28.6808C17.8291 28.7223 18.3168 28.6904 18.8347 28.6904ZM16.7968 23.9592C16.7862 23.9374 16.775 23.9156 16.7644 23.8937C16.5493 23.9997 16.3044 24.07 16.125 24.219C15.8141 24.4772 15.5394 24.7807 15.261 25.0761C15.228 25.1113 15.2386 25.239 15.2764 25.2816C15.4579 25.4866 15.6592 25.6734 15.846 25.8741C15.9584 25.995 16.0579 25.9918 16.1836 25.8933C16.5504 25.6048 16.972 25.4584 17.4378 25.4552C17.6013 25.4541 17.6726 25.3822 17.7173 25.2348C17.9122 24.5954 17.4602 23.9651 16.7968 23.9592Z" fill="#0E7139"/>
<path d="M5.09066 15.9913C5.08427 16.1185 5.07575 16.2138 5.07575 16.3091C5.07469 17.8439 5.08107 19.3793 5.06936 20.9141C5.06723 21.1696 5.1375 21.2442 5.39517 21.2431C7.71097 21.2335 10.0268 21.2389 12.3426 21.2362C12.6407 21.2357 12.9042 21.2857 13.0756 21.5668C13.2859 21.9107 13.1118 22.3818 12.7211 22.4883C12.6029 22.5203 12.4762 22.5298 12.3532 22.5304C9.77123 22.5325 7.18925 22.5325 4.60727 22.5314C3.9977 22.5314 3.78742 22.3212 3.78742 21.7153C3.78635 19.6481 3.78635 17.5804 3.78742 15.5132C3.78795 14.9255 4.00356 14.7094 4.58917 14.7094C7.41072 14.7083 10.2323 14.7083 13.0538 14.7099C13.5292 14.7099 13.8167 14.9692 13.8061 15.3748C13.7975 15.6905 13.5372 15.9657 13.221 15.9897C13.1326 15.9961 13.0437 15.9929 12.9548 15.9929C10.4527 15.9929 7.95054 15.9929 5.44841 15.9929C5.34247 15.9913 5.23599 15.9913 5.09066 15.9913Z" fill="#0E7139"/>
<path d="M21.3304 21.2798C21.587 21.2798 21.7893 21.2734 21.9911 21.2809C22.5048 21.3006 22.7902 21.7387 22.5905 22.2109C22.3254 22.838 22.0545 23.462 21.776 24.0832C21.5998 24.4761 21.2458 24.6167 20.8832 24.458C20.55 24.3122 20.4281 23.9438 20.5915 23.5551C20.7145 23.2623 20.8465 22.9733 20.9727 22.681C20.9823 22.6592 20.9737 22.6299 20.9737 22.5665C20.7698 22.5665 20.5686 22.5697 20.3679 22.566C19.7749 22.5548 19.4932 22.0895 19.752 21.5609C20.0128 21.0296 20.2678 20.4951 20.5212 19.9601C20.7076 19.5661 21.068 19.3899 21.3991 19.54C21.7861 19.7152 21.8947 20.0697 21.694 20.4977C21.5822 20.7373 21.4715 20.9769 21.3304 21.2798Z" fill="#0E7139"/>
</svg>
