<svg width="18" height="18" viewBox="0 0 18 18" fill="none" xmlns="http://www.w3.org/2000/svg">
<path d="M15.5326 4.50106C15.4111 4.32595 15.2831 4.15085 15.1485 3.98584C13.6779 2.17754 11.4686 1.02588 8.99999 1.02588C8.99671 1.02588 8.99343 1.02588 8.98686 1.02588C8.98358 1.02588 8.98358 1.02588 8.9803 1.02588C8.97045 1.02588 8.9606 1.02588 8.95403 1.02588C6.50512 1.04272 4.31555 2.19101 2.85474 3.98584C2.72015 4.15085 2.59212 4.32259 2.47066 4.50106C1.54493 5.84129 1 7.47113 1 9.23229C1 10.9935 1.54493 12.6267 2.47066 13.9635C2.59212 14.1386 2.72015 14.3104 2.85474 14.4787C4.31555 16.2736 6.50512 17.4252 8.95403 17.4387C8.96388 17.4387 8.97373 17.4387 8.9803 17.4387C8.98358 17.4387 8.98358 17.4387 8.98686 17.4387C8.99014 17.4387 8.99343 17.4387 8.99999 17.4387C11.4686 17.4387 13.6779 16.287 15.1452 14.4787C15.2798 14.3137 15.4079 14.142 15.5293 13.9635C16.4551 12.6267 17 10.9935 17 9.22892C17.0033 7.47113 16.4551 5.84129 15.5326 4.50106ZM6.66269 2.09335C5.92736 2.82072 5.31678 3.88482 4.89331 5.16107C4.32868 4.94556 3.81986 4.68627 3.38326 4.38993C4.24333 3.34603 5.37258 2.53785 6.66269 2.09335ZM2.99918 4.90515C3.49815 5.24526 4.07263 5.54496 4.70619 5.79078C4.43044 6.81785 4.27287 7.9594 4.26959 9.16494H1.65654C1.67296 7.57889 2.16865 6.11406 2.99918 4.90515ZM1.68281 9.83843H4.28272C4.3254 10.8453 4.47312 11.8016 4.70619 12.6772C4.06934 12.923 3.49487 13.2193 2.99918 13.5628C2.26385 12.492 1.78785 11.2191 1.68281 9.83843ZM3.38654 14.0746C3.82314 13.7817 4.33196 13.5224 4.89331 13.3069C5.3135 14.5831 5.92736 15.6472 6.66269 16.3746C5.37258 15.9267 4.24661 15.1219 3.38654 14.0746ZM8.67172 16.745C7.3258 16.5564 6.16044 15.1388 5.50389 13.0981C6.4526 12.8051 7.52933 12.63 8.67172 12.5997V16.745ZM8.67172 11.9262C7.46696 11.9565 6.33114 12.1451 5.31678 12.465C5.10997 11.6568 4.97866 10.7746 4.93598 9.83843H8.66844V11.9262H8.67172ZM8.67172 9.16494H4.92613C4.9327 8.03349 5.07386 6.96601 5.32334 6.0063C6.33442 6.32284 7.47024 6.51478 8.675 6.54509L8.67172 9.16494ZM8.67172 5.86823C7.52933 5.83793 6.4526 5.66282 5.50389 5.36985C6.16372 3.3292 7.3258 1.91151 8.67172 1.71957V5.86823ZM16.3434 9.16494H13.6943C13.6877 7.96614 13.5334 6.82795 13.261 5.80425C13.9109 5.55506 14.4986 5.252 15.0041 4.90852C15.8313 6.11406 16.3303 7.57889 16.3434 9.16494ZM14.6167 4.38993C14.1703 4.68964 13.6516 4.95566 13.0738 5.17118C12.6504 3.87809 12.0299 2.80051 11.2815 2.06978C12.5946 2.51428 13.7468 3.3292 14.6167 4.38993ZM9.32826 1.72967C10.661 1.94182 11.81 3.35614 12.46 5.38332C11.5178 5.66956 10.4575 5.84129 9.32826 5.8716V1.72967ZM9.32826 6.54172C10.5199 6.51141 11.6393 6.3262 12.6438 6.01303C12.89 6.96938 13.0312 8.03349 13.0377 9.16157H9.32826V6.54172ZM9.32826 9.83843H13.0213C12.9819 10.7678 12.8506 11.6501 12.6438 12.4549C11.6393 12.1417 10.5166 11.9565 9.32826 11.9262V9.83843ZM9.32826 16.7383V12.5963C10.4575 12.6233 11.5211 12.7984 12.4633 13.0846C11.81 15.1118 10.661 16.5261 9.32826 16.7383ZM11.2815 16.3948C12.0299 15.6641 12.6504 14.5899 13.0738 13.2934C13.6516 13.5123 14.1703 13.7749 14.6134 14.0746C13.7435 15.1388 12.5946 15.9537 11.2815 16.3948ZM15.0041 13.5628C14.4986 13.216 13.9109 12.9129 13.261 12.6637C13.4908 11.7915 13.6385 10.8386 13.6812 9.83843H16.3205C16.2121 11.2191 15.7394 12.492 15.0041 13.5628Z" fill="white" stroke="white" stroke-width="0.3"/>
</svg>
