<svg width="96" height="95" viewBox="0 0 96 95" fill="none" xmlns="http://www.w3.org/2000/svg">
<path d="M83.7154 13.1522C87.1517 13.1184 89.9729 15.821 90.0176 19.1881C90.0623 22.5916 87.249 25.4292 83.8101 25.4473C80.4026 25.4629 77.5947 22.711 77.5763 19.3335C77.5579 15.917 80.2712 13.1859 83.7154 13.1522ZM83.7627 16.0676C81.9433 16.0832 80.5315 17.4903 80.5341 19.2868C80.5367 21.0703 81.9775 22.5137 83.7654 22.5293C85.5664 22.5449 87.0887 21.0236 87.0624 19.2348C87.0361 17.4643 85.5637 16.052 83.7627 16.0676Z" fill="#115C07"/>
<path d="M73.4714 42.135C73.3742 41.5275 73.2111 40.907 72.985 40.2943C72.6459 39.3701 72.5933 38.4096 72.8299 37.3556C73.2874 35.315 72.4855 33.4744 70.6319 32.3061C70.4584 32.1971 70.3427 32.0491 70.3348 31.9894C70.064 29.8216 69.3725 27.9135 68.221 26.1611C70.1797 25.1902 70.2822 23.3547 70.1771 22.0255C70.2086 21.9632 70.2402 21.8983 70.2691 21.8334C70.3375 21.6854 70.4084 21.5323 70.4899 21.4778C71.305 20.93 71.6915 20.2316 71.6389 19.4009C71.6021 18.7882 71.4943 18.1755 71.3918 17.5862C71.3523 17.3629 71.3129 17.1371 71.2787 16.9138C71.2603 16.7996 71.2393 16.6853 71.2209 16.5711C71.1052 15.9221 70.9974 15.3068 71.2813 14.6837C71.8335 13.4791 71.4969 12.4251 70.3348 11.7164C69.8432 11.4178 69.3173 11.1894 68.8125 11.0622C66.044 10.3534 63.2334 10.4028 60.457 11.2076C58.4798 11.7813 57.4728 13.4688 57.8935 15.5093L57.9119 15.5924C57.9934 15.9818 58.0723 16.3738 58.1459 16.7658C58.3615 17.8951 58.209 18.23 57.1942 18.8765C56.8445 19.0971 56.5027 19.3386 56.174 19.5696C55.9032 19.7591 55.6324 19.9512 55.3537 20.133L55.238 20.2083C55.004 20.364 54.7595 20.5276 54.5255 20.5769C52.7114 20.9533 51.0182 21.6854 49.4985 22.7524L49.4302 22.8018C49.325 22.8771 49.1304 23.0147 49.0463 23.0121C47.6292 22.9056 46.3672 23.3729 45.1446 23.822C44.7055 23.983 44.248 24.1517 43.7985 24.2867C41.9422 24.8449 40.9589 26.1663 40.8748 28.2095L40.8722 28.2536C40.8643 28.4353 40.8564 28.6145 40.859 28.7962C40.8617 28.9 40.8459 29.0402 40.7696 29.1155C40.7118 29.1726 40.6066 29.196 40.4699 29.196L40.1307 29.1882C39.6312 29.1804 39.1159 29.17 38.6242 29.1051C36.463 28.8221 34.5148 28.6456 32.5613 29.3414C31.0285 29.8865 29.4405 29.871 27.7078 29.2946C26.3564 28.8455 25.0603 28.7079 23.7457 28.8741C22.3233 29.0532 20.8614 30.0813 20.0201 31.4909C19.2419 32.7942 19.1078 34.2402 19.6415 35.559C19.773 35.8836 19.8965 36.2211 20.0148 36.5482C20.1226 36.8441 20.2304 37.1375 20.3435 37.4308C20.6932 38.3213 20.5144 39.0768 19.7966 39.7414C19.6415 39.8842 19.4838 40.0269 19.3234 40.1697C19.0736 40.393 18.8159 40.6241 18.5688 40.8629C17.6617 41.743 17.4382 42.8359 17.9273 44.0275C18.0219 44.2612 18.135 44.4897 18.2533 44.7259C17.7275 44.4871 17.3751 44.147 17.1017 43.6381C16.1079 41.7897 14.5619 40.4787 12.5085 39.7414C11.4069 39.3442 10.4551 39.5103 9.67689 40.232C8.62522 41.2108 8.07046 42.688 8.26239 44.0016C8.38071 44.8168 8.84344 45.9435 10.3605 46.7015C10.6891 46.8651 10.9915 47.1143 11.3438 47.4025C11.4122 47.4596 11.4831 47.5167 11.5541 47.5738C11.4411 47.6076 11.3307 47.6413 11.2229 47.6751C10.7233 47.8256 10.2921 47.9581 9.86619 48.1086C8.71198 48.5214 8.24925 49.1938 8.2177 50.5126C8.20455 51.0396 8.10201 51.5589 7.99159 52.1092C7.94163 52.3559 7.89431 52.6025 7.85224 52.8491L7.84961 55.2298L7.86801 55.2765C8.65677 57.1846 8.42277 59.1551 8.09149 61.1748C8.03891 61.4916 7.9837 61.8083 7.93111 62.125L7.85487 62.569L7.85224 64.5264L7.8759 64.5783C7.89168 64.6095 7.90745 64.6406 7.92586 64.6744C7.94426 64.7081 7.96792 64.7523 7.97318 64.773C8.26239 66.3047 8.76457 67.2653 9.55069 67.7949C10.3289 68.3219 11.3938 68.4362 12.9055 68.1532C15.2113 67.7248 17.4724 67.351 19.7966 67.5119C20.7589 67.5768 21.7685 67.3146 22.4442 67.1095C23.885 66.6734 24.8552 65.7362 25.2443 64.3966C25.5151 63.4646 25.2206 62.8883 24.2636 62.4703C23.4591 62.1198 22.6493 61.733 21.8684 61.3566C21.4083 61.1359 20.9508 60.9152 20.4881 60.7023C18.7555 59.8976 18.2638 57.9115 18.5451 56.3019C18.5714 56.154 18.645 55.9982 18.7502 55.7827C18.7555 55.7749 18.7581 55.7671 18.7634 55.7568C18.7739 55.7723 18.787 55.7879 18.7975 55.8035C18.9684 56.0371 19.1025 56.2189 19.2077 56.4136C19.7572 57.4209 20.4197 58.4204 21.5398 58.9162C22.9832 59.5549 23.9823 60.64 24.7658 61.6214C25.8832 63.0155 27.3897 63.854 29.238 64.1188C29.4116 64.1422 29.5719 64.1656 29.7218 64.1837C31.3729 64.4018 31.4728 64.4148 31.4965 66.6838C31.5228 69.2228 32.2274 71.2425 33.6551 72.8599C34.2808 73.5687 34.6173 74.4384 34.662 75.4508C34.6962 76.266 35.1064 76.9228 35.8452 77.3512C36.8706 77.9431 37.8565 78.1118 38.6978 77.8367C39.5339 77.5641 40.2201 76.8553 40.6802 75.7857C40.8196 75.4612 40.9432 75.1393 41.0483 74.833C41.1509 74.5292 41.2481 74.2229 41.3454 73.9191C41.5347 73.3298 41.7293 72.7197 41.9554 72.1408C42.2131 71.4814 42.4313 71.31 42.5391 71.2659C43.7564 70.7597 44.5714 69.8432 45.3602 68.958C45.6625 68.6179 45.9781 68.2648 46.3067 67.9455C46.8851 67.3847 46.9114 66.6059 46.3724 66.0529C45.8361 65.5025 45.0657 65.4974 44.4584 66.0373C44.2454 66.2269 44.0535 66.4371 43.8694 66.6422C43.6828 66.8499 43.504 67.0446 43.3068 67.2186C42.9624 67.5197 42.5969 67.8105 42.2446 68.0935C41.9265 68.3479 41.5952 68.6101 41.2797 68.8827C41.1903 68.9606 41.0983 69.0359 41.0063 69.1111C40.6171 69.4305 40.2149 69.7602 39.9677 70.1963C39.5996 70.8453 39.3341 71.5541 39.0764 72.2369C39.0081 72.4212 38.9397 72.6029 38.8687 72.7846C38.7504 73.0884 38.6453 73.3947 38.5375 73.7011C38.3823 74.1476 38.222 74.6097 38.0327 75.0406C37.9853 75.1107 37.7434 75.2094 37.6541 75.1938C37.5541 75.1757 37.3648 74.9835 37.3517 74.9082C37.1966 73.5012 36.6208 72.2135 35.5928 70.97C34.733 69.9315 34.2966 68.7814 34.2545 67.4548C34.2361 66.8915 34.2046 66.3203 34.173 65.7699L34.1599 65.5207C34.0258 63.1323 32.8742 61.8992 30.5395 61.6421C28.6675 61.4344 27.2793 60.653 26.1671 59.1836C25.4914 58.2906 24.6843 57.5792 23.8929 57.1846C22.6861 56.5797 21.8973 55.8217 21.3321 54.7235C20.6932 53.48 19.61 52.8959 18.277 53.075C16.8309 53.2697 16.2972 54.4587 16.0211 55.3336C15.1062 58.2386 16.3839 61.4448 19.0605 62.9584C19.7756 63.3634 20.5118 63.745 21.29 64.1474C21.4924 64.2538 21.7002 64.3603 21.9131 64.4719C21.8895 64.4797 21.8684 64.4875 21.8448 64.4953C21.4451 64.6329 21.1033 64.7523 20.7668 64.7782C20.3198 64.812 19.8545 64.8016 19.4022 64.7912C18.8764 64.7782 18.3348 64.7679 17.8011 64.825C16.0185 65.0171 14.249 65.2871 12.285 65.596C11.6146 65.7025 11.257 65.6817 11.0546 65.5259C10.8627 65.3805 10.7496 65.0612 10.6918 64.4927C10.5971 63.5685 10.676 62.6183 10.7812 61.5643C10.8206 61.1619 10.8784 60.7517 10.9336 60.3519C11.1203 59.0045 11.3149 57.613 10.9074 56.2215C10.5156 54.8897 10.5997 53.5708 10.7286 52.2209C10.8548 50.9098 11.165 50.1803 12.4349 50.0739C12.6163 50.0583 12.7688 49.97 12.9029 49.8896C12.9345 49.8714 12.966 49.8532 12.9949 49.835C13.6785 49.4664 14.1439 48.9186 14.3121 48.2955C14.4725 47.6958 14.3568 47.0572 13.9756 46.4497C13.6154 45.8734 13.0896 45.4113 12.5795 44.9621L12.4559 44.8531C12.2403 44.661 11.9879 44.5234 11.7461 44.391C11.5778 44.2975 11.42 44.2119 11.2754 44.1106C10.7654 43.7498 10.9179 43.054 11.2307 42.527C11.4805 42.1038 11.6672 42.1791 12.1694 42.4569L12.2193 42.4829C13.4445 43.1604 14.299 44.0016 14.8354 45.053C15.6136 46.5769 16.9571 47.4284 18.8265 47.5868C19.8334 47.6725 20.6301 47.3739 21.0797 46.7457C21.5293 46.1148 21.5424 45.2269 21.1165 44.3105C21.0376 44.1392 20.9351 43.9678 20.8378 43.8017C20.638 43.4616 20.4303 43.1111 20.475 42.8723C20.5223 42.6179 20.8588 42.3479 21.1848 42.0883C21.3216 41.9792 21.4609 41.865 21.5871 41.7508C23.2014 40.2476 23.6352 38.4719 22.8701 36.4729C22.8044 36.2989 22.7308 36.125 22.6598 35.9511C22.4731 35.5019 22.297 35.0762 22.2102 34.6322C22.0893 34.0299 22.1051 33.4977 22.247 33.1343C22.7571 31.8466 23.8298 31.2599 25.268 31.478C26.0567 31.5974 26.8323 31.8077 27.6921 32.0491C29.5456 32.5709 31.0679 32.5865 32.4798 32.101C34.1967 31.5091 36.0371 31.3949 38.2772 31.7376C38.661 31.7973 39.0501 31.8258 39.4261 31.8544L39.5208 31.8622C40.9458 31.9686 42.0238 31.6831 42.7205 31.0133C43.3699 30.3876 43.6696 29.4504 43.6065 28.2276C43.5881 27.8486 43.8063 27.293 44.0246 27.1658C44.5767 26.8465 45.2103 26.6206 45.8808 26.3844C46.1752 26.2806 46.4802 26.1715 46.7747 26.0573C47.0034 25.9898 47.4425 25.9119 47.9526 25.821C49.4039 25.5614 50.5502 25.3356 50.9525 24.9695C52.1198 24.1102 53.4344 23.5183 54.8594 23.2068L54.8857 23.199C56.2897 22.7395 57.2494 22.0229 58.0197 21.4466C58.4009 21.161 58.7296 20.9144 59.0688 20.7327C59.1161 20.7041 59.166 20.6756 59.2134 20.647C59.3343 20.5769 59.4605 20.5068 59.5736 20.4082C60.7041 19.432 61.1379 18.1599 60.8645 16.623C60.8014 16.2674 60.7278 15.9117 60.6515 15.556C60.6095 15.3509 60.5648 15.1433 60.5253 14.9382C60.4123 14.3722 60.57 14.0139 60.9907 13.8738C63.4989 13.0326 66.0308 13.0093 68.7231 13.8011C68.1421 15.2653 68.4523 16.6386 68.7547 17.9704C68.802 18.1755 68.8493 18.3806 68.8914 18.5857C68.9913 19.0634 68.9913 19.2503 68.5785 19.4424C67.9265 19.7487 67.5584 20.377 67.5084 21.2649C67.4848 21.6906 67.49 22.119 67.4953 22.5344L67.5006 22.9212C67.5032 23.3703 67.3218 23.6351 66.8722 23.8376C66.42 24.0427 65.8231 24.5515 65.6286 25.32C65.4077 26.1793 65.7127 27.1554 66.5278 28.2224C66.5435 28.2432 66.5567 28.264 66.5725 28.2873L66.5961 28.3237C67.0746 29.0428 67.5058 30.3123 67.6688 31.4806C67.8739 32.9396 68.5023 33.6898 69.4567 34.8269C69.5802 34.9749 69.7091 35.1281 69.8484 35.2968C70.2928 35.8109 70.4006 36.0835 70.2113 36.774C69.8326 38.1603 69.9089 39.609 70.4426 41.2004C70.7792 42.2051 70.9132 42.7321 70.7555 43.0229C70.6004 43.311 70.0929 43.4902 69.0176 43.7783C67.4953 44.1885 66.3832 44.796 65.5208 45.6891C64.6505 46.5873 64.2325 47.6699 64.3429 48.7369C64.4533 49.8039 65.0817 50.78 66.115 51.4888C66.2622 51.59 66.4121 51.6835 66.5619 51.7795C66.7618 51.9067 66.9511 52.0262 67.1325 52.1586C69.22 53.6929 69.7669 56.7926 68.3235 58.924C68.2472 59.0382 68.1657 59.1525 68.0869 59.2667C67.7556 59.7366 67.4164 60.2221 67.2403 60.7698C66.9958 61.5383 66.5094 61.7252 65.7522 61.7875C64.1326 61.9225 62.7628 62.3872 61.5691 63.2128C59.4053 64.7081 59.0661 66.5358 60.5595 68.6438C61.1195 69.4331 61.7795 70.1626 62.421 70.8687L62.5656 71.0297C62.6445 71.1179 62.7365 71.2399 62.7312 71.336C62.726 71.4113 62.6576 71.5048 62.5261 71.6164C61.8846 72.159 61.1353 72.377 60.2388 72.2836C59.3659 72.1927 58.6823 72.3641 58.2038 72.7976C57.7331 73.2234 57.5044 73.8646 57.5202 74.7057C57.5544 76.5204 58.3352 78.1248 59.0951 79.4566C59.1529 79.5579 59.2107 79.6565 59.2712 79.7578C58.1065 78.8673 57.3861 77.6419 57.039 75.9752C56.947 75.5339 56.8602 75.09 56.7735 74.646C56.6026 73.7712 56.4238 72.8651 56.2056 71.9824C55.9216 70.8402 55.2959 70.0977 54.3914 69.8329C53.5895 69.5992 53.1584 69.1371 52.9086 68.2388C52.7903 67.8157 52.6535 67.3691 52.4169 66.9797C52.1119 66.4813 51.7386 65.9101 51.2653 65.4584C50.8 65.0145 50.1269 65.0353 49.5905 65.5051C49.0963 65.9387 48.9885 66.5072 49.2856 67.1069L49.5353 67.6054C49.9087 68.3531 50.2952 69.1293 50.6527 69.9004C51.0077 70.6688 51.6255 71.7358 52.8876 72.1044C53.3792 72.2472 53.6237 72.5224 53.7341 73.0546C53.934 74.0334 54.1154 75.0329 54.2915 76.0012L54.3415 76.2764C55.004 79.9213 57.2204 82.3876 60.9276 83.6052C61.1879 83.6909 61.4981 83.7714 61.8268 83.7714C62.2474 83.7714 62.6918 83.639 63.0756 83.208C63.4437 82.7978 63.7671 82.0917 63.215 81.0454C63.0204 80.6768 62.7917 80.3211 62.5708 79.9785C62.3342 79.6098 62.0897 79.2308 61.8951 78.8414C61.3746 77.8107 60.9039 76.7307 60.4465 75.6871L60.2756 75.2977C60.2414 75.2198 60.2335 75.1081 60.2309 74.9887C62.1028 75.0095 63.5016 74.4903 64.5848 73.3558C65.8626 72.0214 65.9073 70.8947 64.7347 69.4694C64.4823 69.1605 64.2114 68.8593 63.9538 68.5686C63.6961 68.2804 63.4306 67.9818 63.1834 67.6781C62.534 66.8889 62.2948 66.406 62.3815 66.0633C62.4657 65.731 62.8995 65.4169 63.7881 65.0456C64.4954 64.7497 65.2999 64.6043 66.0755 64.4641C66.3463 64.4148 66.6145 64.3655 66.8801 64.3109C67.6793 64.1474 68.6679 63.8307 69.2411 62.826C69.4383 62.4781 69.6407 62.1328 69.8405 61.7875C70.2796 61.0321 70.7318 60.2532 71.1525 59.4692C71.4259 58.9604 71.7336 58.384 71.7835 57.7791C72.0701 54.264 71.0447 51.7068 68.6521 49.9648C68.476 49.835 68.2893 49.7182 68.1105 49.6066C67.9028 49.4742 67.7056 49.3496 67.519 49.2068C67.1903 48.955 67.001 48.672 66.9905 48.4072C66.9826 48.1891 67.0904 47.9762 67.3165 47.7737C67.9659 47.1922 68.8441 46.7638 69.5513 46.4186C69.8826 46.2576 70.2349 46.1408 70.6083 46.0188C71.0421 45.876 71.4917 45.7254 71.9018 45.5021C73.1533 44.8116 73.7107 43.6174 73.4714 42.135Z" fill="#115C07"/>
<path d="M55.5382 40.0739C54.7152 35.0764 50.4744 31.177 45.4237 30.7772C40.3073 30.3722 35.5248 33.4642 33.9079 38.293C32.7905 41.6316 33.2742 44.9364 34.5862 48.0829C35.5301 50.3441 36.8184 52.4651 38.0147 54.7679L39.7447 57.3043C39.7447 57.3043 42.061 59.2098 42.9233 59.6304C44.9215 60.3573 46.3387 59.7108 47.627 58.3427C51.0896 54.6666 54.0264 50.679 55.178 45.6919L55.6907 40.9228C55.6249 40.5697 55.5776 40.3231 55.5382 40.0739ZM52.7171 42.8336C52.2096 47.4806 49.8723 51.2475 46.9276 54.7289C46.3597 55.3987 45.7339 56.0218 45.1397 56.6708C44.7717 57.0732 44.3931 57.177 43.9698 56.7435C40.4651 53.1479 37.5283 49.2174 36.5108 44.1887C35.5406 39.3963 37.8359 35.2815 42.1688 34.0224C42.9155 33.8043 43.7042 33.7264 44.4746 33.5836C49.3622 33.6511 53.2455 37.997 52.7171 42.8336Z" fill="#115C07"/>
<path d="M91.7998 30.4761C91.5868 29.9023 91.6079 29.4714 91.9286 28.9418C93.4588 26.4106 94.5499 23.7028 94.8654 20.7562C95.3702 16.0235 93.7533 12.1346 89.636 9.5774C85.6528 7.10071 81.5223 7.28244 77.568 9.77989C76.8029 10.2628 76.3954 10.2913 75.6408 9.77211C60.991 -0.26964 45.3658 -1.99605 28.8072 4.53576C28.5153 4.64999 28.2235 4.75902 27.8633 4.89662C28.1183 6.32188 27.7739 8.11579 27.3506 9.66566C27.6109 8.53376 28.1604 7.99118 29.1621 7.55763C33.3609 5.73775 37.7017 4.47345 42.3922 3.94384L45.1686 3.68164C56.2716 3.26366 65.9286 6.2414 74.5971 12.5915C72.1572 16.2624 72.2282 20.0423 73.3876 23.9339C73.924 25.0139 76.0116 29.8141 77.1474 31.4782C78.5329 33.0228 79.7292 34.4299 81.007 35.7591C82.7502 37.5712 84.8114 37.5608 86.5888 35.7591C87.5484 34.7856 88.4476 33.755 89.3731 32.7503C89.4835 32.7425 89.5939 32.7321 89.7017 32.7243C90.3248 35.3256 90.9585 37.9269 91.5474 40.5334C91.5527 40.5593 91.5553 40.5879 91.5553 40.6165C91.5895 41.0215 91.7525 42.8725 91.9786 44.5314C91.9917 44.6456 92.0233 44.8585 92.0338 45.074C92.4519 52.0627 91.2319 58.771 88.3792 65.173C80.518 82.8188 61.7771 93.7977 42.0399 91.0744C25.1237 88.7379 13.2266 79.5269 6.45909 64.0827C2.78349 55.6895 2.23399 46.8938 4.20851 37.9529C4.47932 36.7223 4.12964 35.9746 3.21731 35.7591C2.24451 35.5307 1.58721 36.0707 1.30589 37.3376C-0.0796903 43.5968 -0.219037 49.8846 0.993017 56.1775C3.1358 67.3122 8.6939 76.4947 17.5017 83.7248C23.8643 88.9482 31.155 92.2816 39.3344 93.6523C41.1065 93.9483 42.8943 94.156 44.6769 94.4052C46.6488 94.4052 48.6207 94.4052 50.5926 94.4052C51.5286 94.2832 52.4672 94.1612 53.4032 94.0392C67.9373 92.1388 79.4058 85.1761 87.3486 73.086C96.1117 59.7394 97.3605 45.3933 91.7998 30.4761ZM86.1129 31.9507C85.5634 32.5945 84.9639 33.1994 84.3829 33.8173C83.999 34.2274 83.6204 34.2586 83.2076 33.8354C79.6609 30.1775 76.6846 26.1951 75.746 21.0574C75.6251 20.3902 75.5961 19.7048 75.5225 19.0298C75.5751 14.0583 79.5872 10.4419 84.6327 10.8495C89.31 11.2285 92.6727 15.7769 91.905 20.6498C91.2161 25.0398 88.9472 28.6354 86.1129 31.9507Z" fill="#115C07"/>
</svg>
