<svg width="26" height="25" viewBox="0 0 26 25" fill="none" xmlns="http://www.w3.org/2000/svg">
<path d="M5.69477 24.9985C5.69477 22.6206 5.69477 20.2443 5.69477 17.7956C5.25353 17.7956 4.8409 17.7956 4.22949 17.7956C4.80777 16.6556 5.30623 15.6421 5.84536 14.6512C5.9071 14.5368 6.20076 14.5067 6.38599 14.5067C11.0469 14.4991 15.7077 14.4976 20.3686 14.5112C20.5824 14.5112 20.9047 14.6166 20.989 14.7732C21.4995 15.7099 21.9543 16.6782 22.4694 17.7173C21.9528 17.7429 21.5417 17.764 21.0538 17.7881C21.0538 20.2051 21.0538 22.6026 21.0538 25C15.9351 24.9985 10.8149 24.9985 5.69477 24.9985ZM13.7846 20.1148C13.485 20.1148 13.2546 20.1148 12.9127 20.1148C12.9127 19.0516 12.9127 18.0351 12.9127 17.0186C12.6206 17.6857 12.1643 17.7866 11.5393 17.77C9.89331 17.7279 8.24431 17.755 6.56971 17.755C6.56971 19.9295 6.56971 22.0228 6.56971 24.1477C8.71115 24.1477 10.8014 24.1477 12.9744 24.1477C12.9744 23.2079 12.9744 22.3149 12.9744 21.4099C13.2756 21.4099 13.494 21.4099 13.7952 21.4099C13.7952 22.3315 13.7952 23.223 13.7952 24.1461C15.9682 24.1461 18.057 24.1461 20.1849 24.1461C20.1849 22.0002 20.1849 19.9084 20.1849 17.755C18.6127 17.755 17.0872 17.758 15.5601 17.7535C14.8915 17.752 14.1235 17.9763 13.7831 17.0291C13.7846 18.0471 13.7846 19.0651 13.7846 20.1148ZM21.0839 16.9237C20.5553 15.3289 20.5553 15.3289 19.0931 15.3289C18.5916 15.3289 18.0916 15.3289 17.5901 15.3289C16.4501 15.3289 15.3086 15.3289 14.0437 15.3289C14.2424 15.737 14.3479 16.0457 14.5301 16.3002C14.7002 16.5382 14.9472 16.8906 15.1671 16.8966C17.1173 16.9433 19.0659 16.9237 21.0839 16.9237ZM5.71284 16.8921C5.96583 16.9041 6.20678 16.9237 6.44773 16.9252C7.87536 16.9282 9.30148 16.9267 10.7291 16.9267C12.0573 16.9267 12.3073 16.7144 12.5528 15.3786C12.5046 15.365 12.4564 15.341 12.4082 15.341C10.7803 15.3364 9.15389 15.3319 7.52598 15.3304C6.21732 15.3274 6.06372 15.4569 5.71284 16.8921Z" fill="#444444"/>
<path d="M0.875977 13.2522C1.12747 13.2553 1.38046 13.2583 1.63196 13.2613L1.61388 13.2372C1.61388 13.5474 1.61388 13.8591 1.61388 14.1694L1.63196 14.1453C1.37896 14.1498 1.12747 14.1528 0.875977 14.1558C0.875977 13.8546 0.875977 13.5534 0.875977 13.2522Z" fill="#444444"/>
<path d="M1.63196 1.64599C1.37896 1.65051 1.12747 1.65352 0.875977 1.65653C0.875977 1.35535 0.875977 1.05416 0.875977 0.752974C1.13048 0.755986 1.38498 0.758998 1.63798 0.76201L1.61388 0.737915C1.61388 1.04814 1.61388 1.35987 1.61388 1.67009L1.63196 1.64599Z" fill="#444444"/>
<path d="M23.9168 0C23.9138 0.251491 23.9108 0.504488 23.9093 0.755979L23.9334 0.737907C23.6216 0.737907 23.3114 0.737907 22.9997 0.737907L23.0238 0.755979C23.0193 0.504488 23.0163 0.251491 23.0132 0C23.3144 0 23.6156 0 23.9168 0Z" fill="#444444"/>
<path d="M2.53257 0C2.52956 0.251491 2.52655 0.502982 2.52354 0.754473L2.54613 0.737907C2.2359 0.737907 1.92417 0.737907 1.61395 0.737907L1.63805 0.762002C1.63504 0.509005 1.63202 0.254503 1.62901 0C1.9302 0 2.23139 0 2.53257 0Z" fill="#444444"/>
<path d="M25.1186 11.7568C25.3701 11.7538 25.6216 11.7493 25.8746 11.7463C25.8746 11.9977 25.8746 12.2477 25.8746 12.4992C25.6231 12.4962 25.3716 12.4917 25.1216 12.4887L25.1367 12.5098C25.1352 12.2538 25.1337 11.9977 25.1321 11.7402L25.1186 11.7568Z" fill="#444444"/>
<path d="M15.2863 6.63372C13.949 6.04189 12.7819 6.05996 11.4898 6.60963C11.541 5.17297 11.2684 3.95918 10.3513 2.91256C11.0004 2.60836 11.6238 2.42916 12.1042 2.0602C12.5846 1.69275 12.9235 1.13556 13.3752 0.600952C13.7969 1.10544 14.1297 1.65812 14.6056 2.02557C15.086 2.39753 15.7079 2.58427 16.3781 2.90503C15.5378 3.95165 15.1673 5.13231 15.2863 6.63372ZM15.0498 3.30862C14.4716 2.86738 13.8903 2.42614 13.3843 2.03912C12.809 2.46982 12.2383 2.89449 11.7006 3.29657C11.9115 3.96521 12.1374 4.68806 12.3512 5.36573C13.0274 5.36573 13.7336 5.36573 14.3917 5.36573C14.6086 4.68655 14.833 3.9878 15.0498 3.30862Z" fill="#444444"/>
<path d="M19.9923 7.0929C20.3687 7.85038 20.7437 8.60335 21.0494 9.21777C19.7664 10.5761 18.5601 11.8547 17.3885 13.0971C17.3734 10.3954 17.9005 8.37595 19.9923 7.0929ZM19.5977 8.18169C19.1294 9.03103 18.7589 9.70268 18.3884 10.3758C18.4457 10.412 18.5029 10.4481 18.5586 10.4828C19.0646 10.0265 19.5706 9.57016 20.0932 9.0988C19.9621 8.85484 19.8462 8.641 19.5977 8.18169Z" fill="#444444"/>
<path d="M5.70099 9.21626C6.00067 8.61389 6.37414 7.85942 6.75966 7.08386C9.10289 8.52504 9.27156 10.8321 9.44624 13.1829C8.20536 11.8697 6.9976 10.5897 5.70099 9.21626ZM8.19331 10.4828C8.25204 10.4436 8.31228 10.4044 8.37101 10.3653C7.98549 9.69365 7.59997 9.022 7.11054 8.16964C6.88616 8.65756 6.77622 8.89249 6.67081 9.1229C7.20843 9.60329 7.70087 10.043 8.19331 10.4828Z" fill="#444444"/>
<path d="M3.10318 8.41215C2.89537 7.76309 2.67851 7.08542 2.4722 6.43787C2.99476 6.03729 3.55647 5.6066 4.10312 5.18945C4.61062 5.58401 5.16631 6.01621 5.72652 6.45293C5.53527 7.06283 5.31691 7.75556 5.10909 8.41366C4.47961 8.41215 3.77784 8.41215 3.10318 8.41215ZM4.6543 6.78424C4.45551 6.63214 4.28082 6.49962 4.10312 6.36408C3.9194 6.50714 3.74471 6.64117 3.41943 6.89417C3.73568 7.16674 4.00524 7.39715 4.36064 7.70135C4.49768 7.27216 4.56545 7.06434 4.6543 6.78424Z" fill="#444444"/>
<path d="M24.2782 6.44398C24.0734 7.08551 23.8551 7.76468 23.6473 8.41374C23.0223 8.41374 22.322 8.41374 21.6368 8.41374C21.4516 7.80835 21.2378 7.11261 21.0284 6.43193C21.5299 6.04792 22.0916 5.61873 22.6564 5.18652C23.1654 5.58108 23.7391 6.02533 24.2782 6.44398ZM22.6443 6.36266C22.4636 6.50271 22.2889 6.63824 22.1007 6.78583C22.179 7.02979 22.2513 7.25718 22.3988 7.71649C22.7573 7.39573 23.0208 7.15779 23.3265 6.88371C23.0012 6.63373 22.825 6.4997 22.6443 6.36266Z" fill="#444444"/>
<path d="M17.1115 6.25708C17.2832 6.38358 17.4593 6.51309 17.5482 6.57784C17.0392 7.74344 16.4127 8.81566 16.107 9.97372C15.7983 11.1408 15.8058 12.3907 15.6688 13.6708C15.5242 13.6783 15.3134 13.6874 15.1387 13.6964C14.2894 12.6648 15.5528 7.96782 17.1115 6.25708Z" fill="#444444"/>
<path d="M9.21124 6.56894C9.28654 6.51472 9.46123 6.38371 9.66453 6.23462C11.4732 8.40919 11.9415 10.9 11.6945 13.6513C11.4942 13.6724 11.2834 13.6935 11.0756 13.7146C10.9476 12.4617 10.9626 11.2147 10.66 10.0491C10.3588 8.88506 9.74133 7.8023 9.21124 6.56894Z" fill="#444444"/>
<path d="M13.0062 8.49353C13.2607 8.49353 13.4761 8.49353 13.7426 8.49353C13.7426 10.2208 13.7426 11.9301 13.7426 13.6724C13.4896 13.6724 13.2728 13.6724 13.0062 13.6724C13.0062 11.9466 13.0062 10.2389 13.0062 8.49353Z" fill="#444444"/>
<path d="M24.2255 11.7614C24.242 11.4933 24.2601 11.2253 24.2797 10.9135C24.5221 10.897 24.733 10.8834 24.9995 10.8654C25.0432 11.1876 25.0808 11.4722 25.12 11.7584L25.132 11.7418C24.8248 11.7418 24.5161 11.7418 24.2089 11.7403C24.2074 11.7403 24.2255 11.7614 24.2255 11.7614Z" fill="#444444"/>
<path d="M6.95544 4.05097C6.95544 3.73925 6.95544 3.52842 6.95544 3.295C7.61504 3.07965 7.84093 3.29198 7.66474 3.99977C7.45993 4.01483 7.25061 4.02989 6.95544 4.05097Z" fill="#444444"/>
<path d="M19.9049 4.00884C19.5359 4.00884 19.3251 4.00884 18.9938 4.00884C19.06 3.72271 19.0766 3.46519 19.1895 3.2634C19.2287 3.19262 19.5961 3.1866 19.6564 3.26792C19.7829 3.43809 19.807 3.68657 19.9049 4.00884Z" fill="#444444"/>
<path d="M23.9093 1.65198C23.8867 1.86883 23.8641 2.08569 23.8355 2.37181C23.6036 2.38687 23.3747 2.40043 23.1021 2.4185C23.072 2.12635 23.0464 1.88841 23.0223 1.65198L22.9997 1.67005C23.3114 1.67005 23.6216 1.67005 23.9334 1.67005L23.9093 1.65198Z" fill="#444444"/>
<path d="M13.8647 7.62001C13.5062 7.64109 13.2954 7.65314 12.9551 7.67422C13.0078 7.38057 13.0108 7.12606 13.1132 6.92427C13.1524 6.84897 13.5153 6.82488 13.5755 6.90168C13.7156 7.07486 13.7562 7.32485 13.8647 7.62001Z" fill="#444444"/>
<path d="M1.63202 13.2612C1.65311 13.0428 1.6757 12.8245 1.7028 12.5429C1.94074 12.5278 2.17265 12.5112 2.45878 12.4932C2.48288 12.7793 2.50396 13.0157 2.52354 13.2537L2.54613 13.2371C2.2359 13.2371 1.92417 13.2371 1.61395 13.2371L1.63202 13.2612Z" fill="#444444"/>
<path d="M2.52354 1.65202C2.50998 1.87189 2.49492 2.09025 2.47685 2.37487C2.23139 2.38842 1.99947 2.40197 1.72991 2.41553C1.69226 2.12338 1.66214 1.88544 1.63202 1.646L1.61395 1.67009C1.92417 1.67009 2.2359 1.67009 2.54613 1.67009L2.52354 1.65202Z" fill="#444444"/>
<path d="M23.9092 0.755986C24.1246 0.780081 24.3414 0.80267 24.6231 0.832789C24.6381 1.06771 24.6517 1.29662 24.6697 1.57371C24.3821 1.60383 24.1472 1.62792 23.9107 1.65202L23.9333 1.67009C23.9333 1.35987 23.9333 1.04814 23.9333 0.737915L23.9092 0.755986Z" fill="#444444"/>
<path d="M23.0222 1.65202C22.8008 1.63696 22.5794 1.6234 22.2933 1.60383C22.2782 1.35685 22.2647 1.12343 22.2496 0.85086C22.5418 0.814718 22.7827 0.786105 23.0222 0.755986L22.9981 0.737915C22.9981 1.04814 22.9981 1.35987 22.9981 1.67009L23.0222 1.65202Z" fill="#444444"/>
<path d="M2.52353 13.2537C2.74189 13.2763 2.96025 13.2989 3.24638 13.329C3.26144 13.5655 3.2765 13.7959 3.29607 14.079C3.00392 14.1046 2.76598 14.1257 2.52805 14.1468L2.54612 14.1694C2.54612 13.8591 2.54612 13.5474 2.54612 13.2372L2.52353 13.2537Z" fill="#444444"/>
<path d="M2.52805 14.1466C2.51299 14.3665 2.49794 14.5864 2.47836 14.8725C2.23289 14.8861 2.00098 14.8996 1.72991 14.9162C1.69226 14.624 1.66214 14.3846 1.63202 14.1451L1.61395 14.1692C1.92417 14.1692 2.2359 14.1692 2.54613 14.1692L2.52805 14.1466Z" fill="#444444"/>
<path d="M25.1215 12.4886C25.0914 12.7266 25.0612 12.963 25.0251 13.2401C24.7721 13.2401 24.5447 13.2401 24.2782 13.2401C24.2601 12.966 24.2435 12.7281 24.227 12.4902L24.2059 12.5097C24.5161 12.5097 24.8263 12.5097 25.1365 12.5097L25.1215 12.4886Z" fill="#444444"/>
<path d="M2.52353 0.754399C2.74189 0.776988 2.96176 0.799577 3.24788 0.829696C3.26294 1.06613 3.278 1.29654 3.29457 1.57513C3.00091 1.60375 2.76147 1.62784 2.52353 1.65043L2.54612 1.6685C2.54612 1.35828 2.54612 1.04655 2.54612 0.736328L2.52353 0.754399Z" fill="#444444"/>
<path d="M17.7018 4.85364C18.131 4.85364 18.3283 4.85364 18.5813 4.85364C18.5994 5.08254 18.6159 5.29488 18.637 5.57347C18.4051 5.59305 18.1356 5.69244 18.0467 5.6066C17.8901 5.45451 17.8434 5.18946 17.7018 4.85364Z" fill="#444444"/>
<path d="M8.02771 4.8656C8.42226 4.8656 8.63761 4.8656 8.95536 4.8656C8.90266 5.13667 8.90567 5.38816 8.79724 5.57188C8.74905 5.6532 8.39064 5.67579 8.32137 5.59598C8.18282 5.43936 8.14818 5.19239 8.02771 4.8656Z" fill="#444444"/>
<path d="M24.2255 12.4901C24.0056 12.4901 23.7873 12.4901 23.5132 12.4901C23.5132 12.2446 23.5132 12.0173 23.5132 11.7115C23.7617 11.7281 23.9921 11.7447 24.224 11.7612L24.2074 11.7402C24.2059 11.9962 24.2059 12.2537 24.2044 12.5097L24.2255 12.4901Z" fill="#444444"/>
<path d="M7.3349 20.9957C8.15413 20.9957 8.91161 20.9957 9.71427 20.9957C9.72482 21.2382 9.73536 21.452 9.74741 21.7261C8.95378 21.7261 8.20081 21.7261 7.37556 21.7261C7.36201 21.5017 7.34996 21.2713 7.3349 20.9957Z" fill="#444444"/>
<path d="M7.3725 23.3661C7.3725 23.0754 7.3725 22.8661 7.3725 22.6191C8.14655 22.6191 8.88445 22.6191 9.66302 22.6191C9.84072 23.0875 9.83169 23.4037 9.17058 23.3706C8.60134 23.3435 8.03059 23.3661 7.3725 23.3661Z" fill="#444444"/>
<path d="M10.5907 22.6207C10.8332 22.6086 11.047 22.5981 11.3211 22.583C11.3407 22.8315 11.3573 23.0393 11.3783 23.3224C11.0952 23.336 10.8648 23.3465 10.5892 23.3586C10.5907 23.083 10.5907 22.8737 10.5907 22.6207Z" fill="#444444"/>
</svg>
