<svg width="170" height="170" viewBox="0 0 170 170" fill="none" xmlns="http://www.w3.org/2000/svg">
<path d="M0 0H170V170H0V0Z" fill="#F6F6F6"/>
<path d="M0 0H170V170H0V0Z" fill="white"/>
<path d="M57.3 73V59.66H60.54L66.78 67.82L65.56 70.46V59.66H69.2V73H66.4L60.14 65.18L60.94 63.36V73H57.3ZM74.7922 73V59.66H84.2522V62.66H78.8122V64.82H83.4722V67.82H78.7922V70H84.2522V73H74.7922ZM92.4453 73L88.9453 59.66H93.3453L95.0453 69.28H94.4853L97.2053 59.66H100.165L102.905 69.4H102.305L104.025 59.66H108.425L104.925 73H100.985L98.3853 64.34H99.0253L96.3853 73H92.4453Z" fill="#0E7139"/>
<path d="M57.3 93V79.66H60.54L66.78 87.82L65.56 90.46V79.66H69.2V93H66.4L60.14 85.18L60.94 83.36V93H57.3ZM74.7922 93V79.66H84.2522V82.66H78.8122V84.82H83.4722V87.82H78.7922V90H84.2522V93H74.7922ZM92.4453 93L88.9453 79.66H93.3453L95.0453 89.28H94.4853L97.2053 79.66H100.165L102.905 89.4H102.305L104.025 79.66H108.425L104.925 93H100.985L98.3853 84.34H99.0253L96.3853 93H92.4453Z" fill="#0E7139"/>
<path d="M58.2216 113V99.66H61.4616L67.7016 107.82L66.4816 110.46V99.66H70.1216V113H67.3216L61.0616 105.18L61.8616 103.36V113H58.2216ZM75.7138 113V99.66H85.1738V102.66H79.7338V104.82H84.3938V107.82H79.7138V110H85.1738V113H75.7138ZM93.3669 113L89.8669 99.66H94.2669L95.9669 109.28H95.4069L98.1269 99.66H101.087L103.827 109.4H103.227L104.947 99.66H109.347L105.847 113H101.907L99.3069 104.34H99.9469L97.3069 113H93.3669Z" fill="#0E7139"/>
<path d="M138 85.5C138 115.047 114.047 139 84.5 139C54.9528 139 31 115.047 31 85.5C31 55.9528 54.9528 32 84.5 32C114.047 32 138 55.9528 138 85.5Z" stroke="#0E7139" stroke-width="4"/>
</svg>
