<svg width="26" height="30" viewBox="0 0 26 30" fill="none" xmlns="http://www.w3.org/2000/svg">
<path d="M12.0555 13.305C13.7788 13.1392 15.487 13.0142 17.1828 12.7908C17.7744 12.7125 18.3652 12.4517 18.8985 12.165C19.2943 11.9517 19.6152 11.5817 19.931 11.2459C20.1293 11.0359 20.3085 10.9493 20.5843 11.0501C22.7633 11.845 24.3308 14.0316 24.3674 16.3448C24.3758 16.8865 24.3758 17.4281 24.3674 17.9689C24.3649 18.1314 24.4074 18.2247 24.5599 18.3106C25.4224 18.7964 25.864 19.548 25.8674 20.5346C25.8765 22.8362 25.8749 25.1369 25.8682 27.4385C25.864 28.9176 24.7799 29.9967 23.2958 29.9975C17.1836 30.0008 11.0706 30.0008 4.95837 29.9975C3.45594 29.9967 2.37933 28.9176 2.37183 27.4201C2.36849 26.7018 2.39516 25.9819 2.36683 25.2644C2.2885 23.2678 2.20517 21.2713 2.09351 19.2764C1.97601 17.1773 1.82185 15.0799 1.68436 12.9808C1.52604 10.5609 1.36688 8.14106 1.20855 5.72035C1.09772 4.0271 0.984395 2.33384 0.878567 0.640594C0.851068 0.198115 1.04189 0.00145826 1.48104 0.00062497C5.07336 -0.000208323 8.66652 -0.000208323 12.2588 0.00062497C12.6988 0.00062497 12.8921 0.197282 12.8647 0.637261C12.7355 2.67383 12.598 4.70956 12.4655 6.7453C12.328 8.85436 12.1922 10.9626 12.0564 13.0717C12.0505 13.1533 12.0555 13.235 12.0555 13.305ZM2.03684 3.00881C2.47266 9.68849 2.90597 16.3373 3.34011 22.982C4.87587 22.982 6.3608 22.982 7.87239 22.982C7.87239 22.1662 7.86906 21.3663 7.87323 20.5671C7.87823 19.5672 8.30987 18.8064 9.18066 18.3106C9.33066 18.2247 9.37899 18.1356 9.37565 17.9706C9.36565 17.4706 9.38065 16.9706 9.37149 16.4715C9.34982 15.324 9.86646 14.4841 10.8114 13.87C10.9106 13.805 10.9989 13.6516 11.0089 13.5325C11.0797 12.7025 11.1297 11.8717 11.1839 11.0409C11.3231 8.93269 11.4614 6.82363 11.5989 4.7154C11.6355 4.15042 11.6655 3.58462 11.6997 3.00965C8.46403 3.00881 5.28002 3.00881 2.03684 3.00881ZM24.8482 26.9851C24.8482 24.9777 24.8482 22.9962 24.8482 21.0238C19.511 21.0238 14.1971 21.0238 8.88901 21.0238C8.88901 23.0228 8.88901 24.9977 8.88901 26.9851C14.2129 26.9851 19.5193 26.9851 24.8482 26.9851ZM23.3066 15.9865C23.3166 15.9549 23.33 15.9357 23.3283 15.9182C23.1358 14.1833 22.145 13.015 20.6693 12.2C20.6151 12.17 20.4901 12.2284 20.4185 12.2759C19.9118 12.6142 19.4427 13.0283 18.9002 13.29C17.7111 13.8633 16.4161 14.0141 15.1095 14.0674C14.4037 14.0958 13.6946 14.1133 12.993 14.1941C12.2205 14.2833 11.4831 14.5091 10.9031 15.0716C10.6489 15.3182 10.4673 15.6099 10.4248 15.9857C14.7412 15.9865 19.0252 15.9865 23.3066 15.9865ZM24.7299 19.983C24.7349 19.9472 24.7441 19.9255 24.7391 19.908C24.7266 19.8688 24.7107 19.8297 24.6899 19.7947C24.3683 19.2347 23.8775 18.9964 23.24 18.9972C18.9927 19.0014 14.7454 18.9989 10.4973 18.9997C10.4139 18.9997 10.3306 18.9989 10.2473 19.0064C9.65481 19.0572 9.12567 19.4722 9.00984 19.9838C14.2521 19.983 19.4918 19.983 24.7299 19.983ZM24.7316 28.0143C19.4902 28.0143 14.2513 28.0143 8.98317 28.0143C9.01151 28.0926 9.024 28.1518 9.05317 28.2018C9.37399 28.7609 9.86563 29.0009 10.5023 29C14.7496 28.9967 18.9969 28.9984 23.2441 28.9975C23.3275 28.9975 23.4108 28.9959 23.4941 28.9909C23.9583 28.9676 24.6382 28.5767 24.7316 28.0143ZM23.3558 17.0198C19.0194 17.0198 14.7054 17.0198 10.3964 17.0198C10.3964 17.3564 10.3964 17.6723 10.3964 17.9839C14.7279 17.9839 19.0344 17.9839 23.3558 17.9839C23.3558 17.6606 23.3558 17.3523 23.3558 17.0198ZM1.96935 1.97803C5.25252 1.97803 8.50236 1.97803 11.778 1.97803C11.7947 1.64971 11.8105 1.34306 11.8272 1.02558C8.50903 1.02558 5.22002 1.02558 1.91352 1.02558C1.93268 1.36056 1.95101 1.66971 1.96935 1.97803ZM4.87171 26.986C4.87171 26.8177 4.87004 26.6827 4.87171 26.5485C4.88171 25.6402 5.51667 25.0061 6.42913 24.9994C6.90244 24.9961 7.37575 24.9986 7.85323 24.9986C7.85323 24.6978 7.85323 24.3603 7.85323 24.0178C6.35497 24.0178 4.87504 24.0178 3.39261 24.0178C3.39261 25.0177 3.39261 25.9985 3.39261 26.986C3.88759 26.986 4.36173 26.986 4.87171 26.986ZM7.88989 28.0151C6.43663 28.0151 4.9742 28.0151 3.50761 28.0151C3.65343 28.5826 4.21424 28.99 4.87921 28.9959C5.98249 29.005 7.0866 28.9992 8.18988 28.9975C8.23404 28.9975 8.27821 28.9817 8.31071 28.9759C8.16405 28.6417 8.02822 28.3309 7.88989 28.0151ZM5.87249 26.9785C6.55912 26.9785 7.20659 26.9785 7.87156 26.9785C7.87156 26.856 7.87239 26.7535 7.87156 26.651C7.86906 26.1669 7.7024 26.0019 7.21493 25.9994C6.94494 25.9985 6.67495 25.9927 6.4058 26.001C6.07248 26.0119 5.88999 26.1944 5.87416 26.5235C5.86666 26.6677 5.87249 26.8118 5.87249 26.9785Z" fill="#0E7139"/>
<path d="M6.86991 7.99937C5.91162 7.99937 4.95334 8.00103 3.99505 7.99853C3.54757 7.9977 3.37341 7.82188 3.37175 7.37273C3.36925 6.45611 3.36925 5.53949 3.37175 4.62287C3.37258 4.17455 3.54674 4.0004 3.99755 4.0004C5.91412 3.99873 7.8307 3.99873 9.74644 4.0004C10.1939 4.0004 10.3689 4.17622 10.3697 4.62537C10.3722 5.54199 10.3722 6.45861 10.3697 7.37523C10.3681 7.82271 10.1922 7.9977 9.74394 7.99853C8.78648 8.00103 7.8282 7.99937 6.86991 7.99937ZM4.3942 5.01368C4.3942 5.68698 4.3942 6.33528 4.3942 6.97525C6.06412 6.97525 7.71237 6.97525 9.35479 6.97525C9.35479 6.30945 9.35479 5.66781 9.35479 5.01368C7.69737 5.01368 6.05662 5.01368 4.3942 5.01368Z" fill="#0E7139"/>
<path d="M6.87165 9.99927C6.24668 9.99927 5.62171 10.0009 4.99674 9.99844C4.60259 9.99677 4.37427 9.81095 4.37427 9.49929C4.37427 9.18681 4.60176 9.00015 4.9959 9.00015C6.24584 8.99848 7.49578 8.99848 8.74489 9.00015C9.13904 9.00098 9.36819 9.18681 9.36819 9.49846C9.36819 9.80928 9.13904 9.99677 8.74572 9.99844C8.12159 10.0009 7.49662 9.99927 6.87165 9.99927Z" fill="#0E7139"/>
<path d="M17.1186 26.0044C15.987 25.9902 15.1187 25.8936 14.3012 25.5511C13.9796 25.4161 13.6604 25.2386 13.393 25.0178C12.6913 24.4378 12.703 23.5637 13.393 22.9696C13.8454 22.5796 14.3871 22.3679 14.9587 22.2321C16.462 21.8746 17.9527 21.8954 19.411 22.4371C19.7185 22.5512 20.0201 22.7179 20.2785 22.9187C21.0734 23.5387 21.0642 24.4595 20.2768 25.0895C19.7243 25.5311 19.0668 25.7361 18.3885 25.8586C17.8886 25.9486 17.3778 25.9761 17.1186 26.0044ZM16.8836 25.002C17.6819 24.987 18.4752 24.8995 19.2177 24.5611C19.486 24.4387 19.8793 24.3137 19.8301 23.9912C19.7976 23.7804 19.4668 23.5454 19.2193 23.447C17.6561 22.8271 16.0745 22.8237 14.5121 23.4504C14.2671 23.5487 14.0871 23.8095 13.8763 23.9953C14.0846 24.182 14.2646 24.427 14.5062 24.5453C15.2495 24.9103 16.0587 24.9886 16.8836 25.002Z" fill="#0E7139"/>
</svg>
