<svg width="129" height="100" viewBox="0 0 129 100" fill="none" xmlns="http://www.w3.org/2000/svg">
<path d="M0.875977 4.02504C1.2083 3.45844 1.49077 2.85538 1.88291 2.33516C3.91008 -0.355395 6.95748 -0.739761 10.0281 1.27484C13.6638 -0.401784 15.0628 -0.38853 17.5287 1.25828C18.6885 0.837462 19.732 0.241033 20.8353 0.0952397C24.3047 -0.358709 27.1893 2.27883 27.1893 5.77125C27.1893 11.444 27.1361 17.1167 27.1694 22.7927C27.1959 27.4349 25.8567 31.6032 23.0153 35.268C20.8552 38.0513 20.0444 41.1627 20.2172 44.6717C20.6392 53.3166 20.9217 61.9648 21.2673 70.613C21.3072 71.6402 21.1443 72.6508 20.0377 72.9026C19.4296 73.0418 18.5821 72.78 18.0537 72.4056C17.6915 72.1472 17.5752 71.385 17.5486 70.8383C17.2894 65.212 17.0701 59.5857 16.8408 53.9594C16.8241 53.5916 16.8042 53.2271 16.7809 52.7698C14.9266 52.7698 13.1221 52.7698 11.178 52.7698C11.0982 54.0356 10.9952 55.3411 10.9321 56.6466C10.3871 68.1842 9.84204 79.7251 9.3203 91.266C9.19401 94.0626 11.1281 96.2164 13.707 96.2429C16.3888 96.2694 18.3827 94.1918 18.3096 91.319C18.2265 88.0088 18.0438 84.6987 17.9142 81.3885C17.8909 80.8119 17.8145 80.2155 17.9208 79.6555C18.1003 78.6913 18.7483 78.1081 19.7486 78.1148C20.7422 78.1214 21.4966 78.6847 21.5431 79.6655C21.7525 83.9233 22.1313 88.1977 21.9585 92.4456C21.7724 97.0713 17.645 100.285 12.9659 99.954C8.84508 99.6624 5.3856 95.7492 5.57834 91.4184C6.10674 79.4633 6.70159 67.5116 7.26987 55.5598C7.45597 51.63 7.65536 47.7035 7.83481 43.7737C7.9478 41.2687 7.51911 38.8167 6.05356 36.7955C3.47474 33.2567 1.45422 29.5356 0.875977 25.1486C0.875977 18.1074 0.875977 11.0662 0.875977 4.02504ZM16.5018 48.8864C16.5018 47.4285 16.5815 46.0998 16.4885 44.7876C16.1728 40.4238 17.3226 36.5238 20.0078 33.0645C22.354 30.0426 23.454 26.6198 23.4307 22.7894C23.3942 17.2426 23.4407 11.6925 23.4507 6.14568C23.454 4.66786 22.7328 3.78647 21.5265 3.7699C20.3434 3.75665 19.5725 4.67117 19.5658 6.12911C19.5558 8.61423 19.5625 11.096 19.5625 13.5812C19.5625 17.5971 19.5758 21.6131 19.5558 25.629C19.5492 26.9014 18.8214 27.6867 17.738 27.7165C16.5882 27.7463 15.8604 26.9511 15.8305 25.6058C15.8139 24.8205 15.8272 24.0319 15.8272 23.2466C15.8272 17.4911 15.8338 11.7355 15.8239 5.98C15.8205 4.38621 14.7671 3.43524 13.3946 3.81298C12.2281 4.13439 11.9822 5.0456 11.9855 6.13905C12.0021 12.4314 11.9955 18.727 11.9922 25.0193C11.9922 26.8451 11.404 27.6933 10.1511 27.7132C8.87166 27.7364 8.26683 26.9014 8.25686 25.0889C8.25686 24.8404 8.25686 24.5919 8.25686 24.3434C8.25686 18.2565 8.26351 12.1696 8.25354 6.08272C8.25022 4.56183 7.60884 3.77984 6.42577 3.76328C5.15962 3.74671 4.62125 4.40941 4.62458 6.00651C4.62458 11.5964 4.65449 17.1862 4.62458 22.7761C4.60464 26.5104 5.63484 29.8869 7.92454 32.8425C10.839 36.6033 11.9523 40.8346 11.497 45.5365C11.3907 46.6266 11.4804 47.7333 11.4804 48.8798C13.1487 48.8864 14.7937 48.8864 16.5018 48.8864Z" fill="#0E7139"/>
<path d="M24.2649 51.7526C24.338 31.2421 39.5916 13.7932 60.0694 10.9171C66.5629 10.0059 72.897 10.662 79.1015 12.7296C79.4537 12.8489 79.8126 12.9648 80.145 13.1272C81.1419 13.6143 81.5241 14.5388 81.1486 15.493C80.783 16.4241 79.8625 16.8449 78.8057 16.5766C76.2767 15.937 73.781 15.0954 71.2155 14.7011C55.4899 12.279 39.8043 20.238 32.4866 34.2474C20.8553 56.5108 33.7095 83.413 58.3778 88.4396C79.2976 92.7007 100.121 78.1015 102.819 57.0144C104.777 41.7193 99.1339 29.5654 86.5954 20.5759C85.3392 19.6747 84.967 18.6541 85.625 17.6733C86.273 16.7025 87.4228 16.5931 88.6823 17.4845C101.553 26.5966 107.901 39.0122 106.801 54.7447C105.445 74.1286 91.0651 89.3839 71.8369 92.4323C49.9966 95.8916 28.6117 80.5303 25.0525 58.7772C24.6737 56.4544 24.5208 54.0952 24.2649 51.7526Z" fill="#0E7139"/>
<path d="M123.387 60.7455C121.635 60.7455 120.027 60.7455 118.299 60.7455C118.043 64.324 117.787 67.8629 117.535 71.4017C117.382 73.5488 117.242 75.6993 117.069 77.8431C116.956 79.2414 116.252 79.9372 115.082 79.8709C113.896 79.8014 113.254 78.9233 113.357 77.4753C113.753 71.7761 114.178 66.0769 114.527 60.3744C114.584 59.4565 114.431 58.4757 114.155 57.591C111.716 49.7977 110.38 41.8486 110.197 33.6709C110.007 25.1917 112.174 17.2923 115.654 9.68123C116.438 7.96484 117.432 6.30147 118.571 4.79714C119.399 3.70037 120.502 2.6997 121.689 2.01049C125.019 0.0721 128.554 2.20599 128.471 6.06621C128.312 13.6011 128.073 21.136 127.867 28.6709C127.594 38.6478 127.159 48.6247 127.102 58.6016C127.066 64.8873 127.597 71.1797 127.87 77.4653C128.079 82.2633 128.358 87.0612 128.461 91.8625C128.548 95.8254 125.693 99.1389 121.808 99.8712C118.156 100.56 114.294 98.4033 112.919 94.8049C111.819 91.9254 112.573 88.9864 112.919 86.0937C113.032 85.1593 114.022 84.7882 115.002 84.9969C116.066 85.2255 116.504 85.9943 116.461 87.0115C116.398 88.4595 116.278 89.9042 116.152 91.3489C115.923 93.9135 117.717 96.1203 120.157 96.2396C122.722 96.3655 124.819 94.4106 124.729 91.7598C124.503 85.1792 124.181 78.6019 123.895 72.0246C123.762 68.9629 123.633 65.9013 123.496 62.8396C123.463 62.1868 123.427 61.5308 123.387 60.7455ZM123.327 56.9615C123.374 56.0701 123.427 55.2881 123.45 54.5095C123.693 45.5697 123.929 36.6266 124.168 27.6867C124.354 20.692 124.553 13.6972 124.713 6.69909C124.726 6.15899 124.474 5.61226 124.347 5.06885C123.796 5.29748 123.068 5.38032 122.722 5.78456C121.652 7.03375 120.529 8.30613 119.781 9.75081C117.255 14.625 115.524 19.8006 114.54 25.2049C113.64 30.1354 113.852 35.1057 114.304 40.0593C114.806 45.5564 115.973 50.9276 117.674 56.1795C117.774 56.4876 118.153 56.9184 118.419 56.9283C120.024 56.9979 121.635 56.9615 123.327 56.9615Z" fill="#0E7139"/>
<path d="M66.0146 83.7013C50.7112 83.7643 37.415 73.0783 34.3277 58.4757C34.2512 58.1112 34.1515 57.7434 34.1349 57.3756C34.0818 56.3319 34.5537 55.5963 35.5938 55.3676C36.6406 55.139 37.4083 55.6128 37.7273 56.6069C38.0563 57.6274 38.2192 58.701 38.5216 59.7315C42.1672 72.177 54.2305 80.7059 67.0548 79.9173C80.5471 79.0889 91.4506 69.4732 93.6306 56.4876C96.2726 40.7319 85.4389 25.8544 69.7466 23.6973C53.8649 21.5137 39.6249 32.3853 37.5479 48.2801C37.3485 49.7977 36.5343 50.6128 35.3878 50.4372C34.2047 50.2549 33.6431 49.2874 33.8425 47.7731C35.7733 33.2501 46.8695 22.024 61.3156 19.9762C79.2743 17.4315 96.0566 30.702 97.6351 48.691C99.1671 66.1763 86.7848 81.3984 69.3179 83.4893C68.1216 83.635 66.9119 83.645 66.0146 83.7013Z" fill="#0E7139"/>
</svg>
