<svg width="22" height="25" viewBox="0 0 22 25" fill="none" xmlns="http://www.w3.org/2000/svg">
<path d="M20.0116 25C14.3881 25 8.76467 25 3.1412 25C3.11492 24.9859 3.08985 24.9652 3.06174 24.9584C1.61736 24.5868 0.88142 23.6467 0.88142 22.1638C0.880809 15.0654 0.883254 7.96699 0.875919 0.869193C0.875307 0.489609 0.965772 0.191932 1.30746 0C7.54218 0 13.7769 0 20.0116 0C20.0691 0.0189487 20.1247 0.0433985 20.1834 0.0562347C21.1461 0.273227 21.6412 0.79401 21.7922 1.76956C21.8276 1.99939 21.8435 2.23533 21.8435 2.46822C21.838 8.33435 21.8289 14.2005 21.8191 20.0666C21.8191 20.2084 21.8179 20.3539 21.7891 20.4914C21.7317 20.7702 21.5477 20.934 21.2671 20.9749C21.1369 20.9939 21.0031 20.9878 20.871 20.9878C15.1681 20.9884 9.46455 20.9878 3.76162 20.9896C3.57885 20.9896 3.39303 20.9908 3.21455 21.0232C2.49939 21.154 2.00856 21.8826 2.14426 22.5947C2.28179 23.316 2.82824 23.7317 3.6522 23.7317C8.95844 23.7329 14.2641 23.7323 19.5703 23.7335C19.7121 23.7335 19.8576 23.7359 19.9945 23.7665C20.2469 23.8227 20.3979 23.9969 20.4511 24.2463C20.5049 24.4994 20.4138 24.7072 20.2146 24.8661C20.151 24.9169 20.0795 24.956 20.0116 25ZM20.5789 19.7506C20.5789 19.5935 20.5789 19.4829 20.5789 19.3729C20.5905 13.7512 20.6021 8.1302 20.6131 2.50856C20.6131 2.38631 20.6168 2.26406 20.6094 2.14181C20.577 1.59535 20.3606 1.35024 19.8209 1.261C19.6815 1.23777 19.5373 1.2335 19.3955 1.2335C13.7537 1.23227 8.11186 1.23227 2.47005 1.23227C2.36186 1.23227 2.25367 1.23227 2.14181 1.23227C2.14181 7.54462 2.14181 13.816 2.14181 20.1247C2.69499 19.7916 3.26651 19.7469 3.85452 19.7476C9.2824 19.7524 14.7103 19.7506 20.1381 19.7506C20.269 19.7506 20.3998 19.7506 20.5789 19.7506Z" fill="#444444"/>
<path d="M12.1901 21.7012C14.9499 21.7012 17.7097 21.7012 20.4689 21.7012C21.0471 21.7012 21.3613 21.9347 21.3497 22.3534C21.3387 22.7641 21.0459 22.9695 20.4689 22.9695C14.9395 22.9695 9.40958 22.9695 3.88024 22.9695C3.77878 22.9695 3.67547 22.9744 3.57523 22.9616C3.2366 22.92 2.99882 22.6474 3.00494 22.3167C3.01044 21.9933 3.23538 21.7501 3.57523 21.7103C3.68587 21.6975 3.79895 21.7012 3.9108 21.7012C6.67059 21.7012 9.43037 21.7012 12.1901 21.7012Z" fill="#444444"/>
<path d="M10.824 17.4902C10.008 17.4817 8.63391 17.1626 7.32706 16.5367C6.97071 16.3661 6.80812 16.1192 6.81117 15.725C6.82034 14.4218 6.81056 13.118 6.81851 11.8148C6.81973 11.6039 6.76655 11.5 6.55261 11.4181C5.01166 10.8258 4.19565 9.18644 4.66019 7.6516C5.14308 6.05319 6.69076 5.13937 8.33746 5.50062C8.57584 5.55319 8.71704 5.51162 8.8888 5.34475C10.3222 3.95233 12.4939 3.97006 13.9077 5.38204C14.0465 5.52079 14.1565 5.55747 14.354 5.51101C15.9817 5.13021 17.5746 6.02324 18.0887 7.58864C18.5936 9.12471 17.8515 10.7207 16.3002 11.4028C16.1168 11.4835 16.0997 11.5941 16.1003 11.7561C16.1033 13.0697 16.093 14.3833 16.107 15.6968C16.1113 16.1088 15.942 16.3521 15.5771 16.5294C14.2745 17.1608 12.9071 17.5025 10.824 17.4902ZM7.98843 6.71639C7.81728 6.706 7.65653 6.67788 7.49882 6.69011C6.74393 6.74818 6.09479 7.26468 5.87046 7.97128C5.63513 8.7115 5.8668 9.50551 6.45665 9.98228C7.07829 10.4847 7.87291 10.5452 8.60029 10.1455C8.99883 9.92666 9.3234 9.99206 9.52144 10.3307C9.71398 10.6602 9.60702 11.0092 9.20237 11.2115C8.8344 11.3955 8.44015 11.5269 8.02755 11.6932C8.02755 12.8503 8.03428 14.0404 8.02205 15.2311C8.01961 15.4639 8.09846 15.5679 8.31117 15.6522C10.3955 16.478 12.4738 16.4963 14.5581 15.6498C14.7696 15.5636 14.8478 15.4597 14.8466 15.228C14.8362 13.6901 14.8411 12.1528 14.8417 10.6149C14.8417 10.4933 14.843 10.3698 14.8588 10.2494C14.8925 9.98779 15.0557 9.83008 15.2977 9.75429C15.5496 9.67544 15.7574 9.76224 15.9273 9.95233C15.9787 10.0104 16.0227 10.0752 16.0685 10.1357C16.9077 9.60087 17.2109 8.61004 16.8093 7.75612C16.4346 6.95967 15.5184 6.50857 14.7757 6.7549C14.7727 6.76407 14.7653 6.77385 14.7666 6.7818C14.7733 6.82153 14.78 6.86065 14.7904 6.89916C15.1908 8.33559 14.8051 9.5483 13.7397 10.563C13.4334 10.8545 13.0245 10.8655 12.7843 10.6064C12.5202 10.3221 12.5599 9.94378 12.8955 9.6461C13.2323 9.3472 13.4744 8.98779 13.5911 8.55502C13.8356 7.64732 13.6144 6.85331 12.9261 6.21945C12.2238 5.57214 11.39 5.43033 10.5129 5.7818C9.63269 6.13448 9.16019 6.82703 9.07829 7.77385C9.03306 8.29524 8.802 8.56603 8.4053 8.53974C7.99455 8.51224 7.76961 8.18705 7.82768 7.66994C7.86007 7.3692 7.9267 7.07092 7.98843 6.71639Z" fill="#444444"/>
</svg>
