<svg width="101" height="100" viewBox="0 0 101 100" fill="none" xmlns="http://www.w3.org/2000/svg">
<path d="M49.126 99.999C49.2041 98.9329 49.2822 97.8668 49.3682 96.7251C50.3421 96.7251 51.3291 96.7251 52.4463 96.7251C52.4463 97.8147 52.4463 98.9068 52.4463 99.999C51.3395 99.999 50.2327 99.999 49.126 99.999Z" fill="#0E7139"/>
<path d="M49.207 42.9507C49.207 41.7804 49.2643 40.6074 49.1758 39.4449C49.1472 39.0591 48.8086 38.6368 48.5039 38.3423C45.9518 35.8712 43.8607 33.0899 42.3867 29.8369C39.8919 24.3317 40.6758 19.1159 43.7123 14.106C45.2904 11.502 47.2487 9.19514 49.5586 7.19848C50.4388 6.43735 51.2175 6.33569 52.0117 7.03426C55.7123 10.2873 58.707 14.0539 60.1966 18.8344C61.5899 23.3021 60.7643 27.5144 58.556 31.5312C57.1471 34.0935 55.3607 36.3638 53.2201 38.3449C52.7227 38.8062 52.5117 39.2911 52.543 39.9636C52.5899 40.9619 52.556 41.9628 52.556 43.0941C53.5638 41.9785 54.3919 40.9098 55.3711 40.0053C58.0664 37.5186 61.3581 36.2074 64.9284 35.7252C67.3659 35.3968 69.8477 35.3838 72.3112 35.3056C73.3581 35.2743 74.0482 35.8999 74.1029 36.8643C74.3945 41.9472 73.8763 46.8867 71.3372 51.43C68.931 55.7336 65.0638 58.0508 60.4206 59.0987C57.9024 59.6669 55.2956 59.839 52.6289 60.2013C52.6289 63.1468 52.6289 66.2695 52.6289 69.2879C53.8659 68.0576 55.0169 66.6839 56.3893 65.5944C59.2747 63.3032 62.7227 62.3179 66.319 61.906C68.2175 61.6897 70.1497 61.7105 72.0664 61.7027C73.5065 61.6975 74.0534 62.3126 74.1341 63.7202C74.3399 67.3304 74.0065 70.8832 72.8997 74.3317C70.8372 80.7544 66.2539 84.3463 59.8086 85.6679C57.7826 86.0823 55.6836 86.1397 53.6159 86.3508C53.3034 86.3821 52.9831 86.356 52.543 86.356C52.543 88.7358 52.543 91.001 52.543 93.2896C51.3867 93.2896 50.3581 93.2896 49.1966 93.2896C49.1966 90.9854 49.1966 88.7228 49.1966 86.5176C47.0925 86.3169 45.1081 86.2387 43.1602 85.9181C38.8581 85.2091 34.957 83.6191 32.0456 80.1862C29.7904 77.53 28.5274 74.3943 28.0794 70.9874C27.7539 68.5138 27.7305 65.9984 27.655 63.5013C27.6237 62.4247 28.2669 61.7731 29.3347 61.7183C34.4466 61.4577 39.4076 62.0077 43.9518 64.6169C46.0195 65.8055 47.6654 67.4451 49.1003 69.6555C49.1003 66.3008 49.1003 63.1832 49.1003 60.0866C47.1367 59.9041 45.1498 59.8416 43.207 59.5105C38.2044 58.6582 33.8086 56.6902 30.905 52.2407C28.7826 48.9876 27.9466 45.3254 27.6576 41.5223C27.5456 40.0652 27.6081 38.5925 27.6419 37.1276C27.6654 36.0667 28.2201 35.3759 29.1888 35.3212C34.1966 35.0319 39.0664 35.5323 43.569 37.9851C45.6367 39.1112 47.3373 40.6387 48.6602 42.5884C48.7617 42.7396 48.8789 42.8778 48.9909 43.0211C49.069 43.0003 49.1393 42.9742 49.207 42.9507ZM30.9623 65.0027C30.9623 65.8889 30.918 66.6683 30.9701 67.4398C31.207 71.0291 31.8972 74.5324 34.1419 77.4284C37.8763 82.248 43.2565 82.9153 49.0508 83.0404C48.8607 81.1167 48.8008 79.326 48.4857 77.5848C47.7695 73.6384 46.3112 70.0595 42.7357 67.7943C39.1758 65.537 35.1992 64.9427 30.9623 65.0027ZM49.0534 56.5963C48.8633 54.6935 48.806 52.9314 48.4961 51.2137C47.6862 46.7173 45.9206 42.7318 41.4935 40.7143C39.5143 39.8124 37.3242 39.3145 35.1836 38.8401C33.8242 38.5404 32.3789 38.6238 30.7696 38.5221C30.9909 40.6309 31.0586 42.5259 31.4102 44.3661C32.1029 47.9971 33.4805 51.3206 36.668 53.5075C40.3268 56.0151 44.4987 56.6172 49.0534 56.5963ZM52.8581 56.7189C54.707 56.5364 56.4596 56.466 58.1758 56.1767C63.5221 55.2748 67.6862 52.7881 69.5638 47.3637C70.5404 44.5434 70.9518 41.65 70.8008 38.6159C67.4753 38.5013 64.3294 38.9626 61.3008 40.1877C58.3008 41.4024 56.082 43.4408 54.7357 46.3915C53.2721 49.5898 52.7904 52.9732 52.8581 56.7189ZM52.8477 83.0743C54.3451 82.9726 55.7096 82.9388 57.0612 82.7771C59.832 82.4461 62.4622 81.6563 64.8294 80.1236C66.9857 78.7265 68.3711 76.7272 69.3112 74.3734C70.5065 71.3758 70.9388 68.2661 70.7956 64.8619C68.8893 65.0574 67.0664 65.1226 65.293 65.4484C61.5586 66.1339 58.1393 67.518 55.8997 70.8076C53.4232 74.449 52.8138 78.5935 52.8477 83.0743ZM50.8841 10.5506C48.5352 12.7949 46.6315 15.2607 45.3607 18.2036C44.2253 20.8284 43.8893 23.508 44.6445 26.2919C45.5274 29.5449 47.3763 32.2324 49.6107 34.6826C50.0378 35.1518 51.9024 35.0345 52.293 34.521C53.4102 33.0482 54.6133 31.6198 55.5508 30.035C57.9701 25.94 58.2175 21.6938 56.0508 17.3825C54.7669 14.8254 53.0482 12.5994 50.8841 10.5506Z" fill="#0E7139"/>
<path d="M84.23 62.1929C84.23 54.605 84.2378 47.0172 84.2091 39.4294C84.2065 39.0071 84.0399 38.4102 83.7352 38.1886C80.4513 35.7827 78.6753 32.4619 77.9383 28.565C77.0242 23.7428 77.6701 19.1369 80.4878 15.0263C85.2977 8.01188 93.8133 8.26733 98.2899 15.5085C102.079 21.6366 101.686 29.9986 97.2794 35.6941C96.631 36.5308 95.8081 37.258 94.9695 37.9097C94.4201 38.3372 94.2117 38.7438 94.2117 39.4372C94.2326 54.4174 94.2221 69.3976 94.2326 84.3777C94.2352 86.5256 93.5372 88.2746 91.5893 89.3538C88.4279 91.1054 84.4227 88.9602 84.2899 85.3448C84.1596 81.7998 84.2352 78.247 84.2326 74.6968C84.2274 70.5288 84.23 66.3609 84.23 62.1929ZM87.5659 61.2754C87.5659 68.8632 87.5659 76.451 87.5685 84.0389C87.5685 84.4299 87.5529 84.8235 87.6076 85.2093C87.73 86.0694 88.2872 86.5517 89.1154 86.6116C89.9018 86.669 90.5242 86.291 90.7456 85.5012C90.8758 85.0424 90.894 84.5394 90.894 84.0571C90.9018 68.785 90.9122 53.5129 90.8784 38.2407C90.8758 37.0104 91.2846 36.2545 92.3498 35.6498C93.1518 35.1962 93.9018 34.555 94.4982 33.8486C98.3263 29.3001 98.5867 21.5272 95.0997 16.6997C93.9305 15.081 92.4774 13.7986 90.4357 13.3971C87.6492 12.8471 84.8419 14.2495 83.131 17.0073C80.9018 20.6018 80.4123 24.4857 81.3315 28.552C82.0477 31.7138 83.5841 34.3621 86.5477 35.9704C87.4227 36.4448 87.5659 37.2294 87.5659 38.1261C87.5607 45.839 87.5633 53.5572 87.5659 61.2754Z" fill="#0E7139"/>
<path d="M42.5869 0.593421C43.7458 0.442237 44.7301 0.311907 45.863 0.16333C45.9854 1.24247 46.1025 2.2799 46.2353 3.44766C45.2015 3.59363 44.2301 3.73178 43.1468 3.88557C42.9593 2.78297 42.7848 1.75076 42.5869 0.593421Z" fill="#0E7139"/>
<path d="M29.8477 4.55282C30.9336 4.09145 31.8763 3.69003 32.9128 3.24951C33.3164 4.28694 33.6966 5.26963 34.1159 6.34356C33.1602 6.7528 32.2513 7.14118 31.2591 7.56606C30.793 6.57033 30.3477 5.61631 29.8477 4.55282Z" fill="#0E7139"/>
<path d="M68.8581 96.665C68.4414 95.5911 68.069 94.6319 67.6523 93.5632C68.5794 93.1644 69.4857 92.7708 70.4987 92.3354C70.9622 93.3155 71.4075 94.2617 71.9127 95.3305C70.8945 95.7762 69.9336 96.1958 68.8581 96.665Z" fill="#0E7139"/>
<path d="M55.54 96.4437C56.5947 96.303 57.5687 96.1701 58.6312 96.0293C58.8161 97.1554 58.9854 98.1876 59.1676 99.3058C58.0348 99.4544 57.0218 99.5847 55.889 99.7333C55.7692 98.6229 55.6598 97.5828 55.54 96.4437Z" fill="#0E7139"/>
<path d="M58.6673 3.88287C57.5658 3.73429 56.6126 3.60396 55.5762 3.46581C55.6882 2.35018 55.7949 1.30493 55.9095 0.17627C57.0319 0.319633 58.0423 0.449964 59.1855 0.595934C59.0137 1.69853 58.8496 2.73075 58.6673 3.88287Z" fill="#0E7139"/>
<path d="M65.709 2.14681C65.3704 3.24159 65.0658 4.22428 64.7246 5.31905C63.735 5.05057 62.7897 4.79513 61.7324 4.51101C61.9876 3.42405 62.2272 2.39965 62.4902 1.27881C63.5605 1.56814 64.5736 1.83923 65.709 2.14681Z" fill="#0E7139"/>
<path d="M68.8763 3.25488C69.9518 3.71625 70.8971 4.12028 71.9388 4.56861C71.4596 5.59562 71.0143 6.54964 70.5326 7.57925C69.5664 7.1674 68.6549 6.77902 67.6758 6.36196C68.0846 5.30889 68.4622 4.3262 68.8763 3.25488Z" fill="#0E7139"/>
<path d="M34.0999 93.5397C33.6729 94.6319 33.2848 95.6146 32.8838 96.639C31.8473 96.1985 30.902 95.797 29.8369 95.3435C30.2979 94.3373 30.7354 93.3833 31.2197 92.3276C32.1729 92.7291 33.0817 93.1122 34.0999 93.5397Z" fill="#0E7139"/>
<path d="M37.0586 94.5747C38.0951 94.864 39.0221 95.1221 40.0326 95.4036C39.7747 96.501 39.5326 97.528 39.2721 98.628C38.1914 98.3308 37.1758 98.0519 36.0586 97.747C36.4023 96.6574 36.7253 95.6304 37.0586 94.5747Z" fill="#0E7139"/>
<path d="M45.8499 99.7333C44.6937 99.5821 43.7067 99.4544 42.5791 99.3084C42.751 98.2136 42.9124 97.184 43.0921 96.0371C44.1364 96.17 45.113 96.2952 46.1807 96.4307C46.0713 97.5437 45.9671 98.589 45.8499 99.7333Z" fill="#0E7139"/>
<path d="M23.9902 7.76657C24.9616 7.1879 25.8652 6.65094 26.8522 6.06445C27.4017 7.05757 27.9121 7.98031 28.4616 8.97343C27.5658 9.51039 26.7168 10.0187 25.7897 10.5739C25.1803 9.62508 24.6126 8.73884 23.9902 7.76657Z" fill="#0E7139"/>
<path d="M77.7982 7.77714C77.1784 8.7494 76.6263 9.62001 76.0091 10.5871C75.1081 10.0527 74.2565 9.54703 73.332 8.99703C73.8607 8.03259 74.3659 7.10985 74.9284 6.08545C75.8841 6.65108 76.7904 7.18544 77.7982 7.77714Z" fill="#0E7139"/>
<path d="M74.9095 93.8421C74.3496 92.8203 73.8548 91.9184 73.3105 90.9253C74.1908 90.3988 75.0371 89.8905 75.9746 89.3301C76.5788 90.2659 77.1491 91.1521 77.7793 92.1322C76.8236 92.7004 75.9173 93.24 74.9095 93.8421Z" fill="#0E7139"/>
<path d="M39.3001 1.25806C39.5606 2.38411 39.7975 3.41372 40.0475 4.50329C39.0137 4.78741 38.084 5.04025 37.0684 5.31916C36.7376 4.24523 36.4251 3.23387 36.0918 2.15212C37.1777 1.84976 38.1699 1.57346 39.3001 1.25806Z" fill="#0E7139"/>
<path d="M28.4437 90.8993C27.8916 91.9028 27.3786 92.8334 26.8343 93.8213C25.8421 93.2322 24.9333 92.6926 23.9697 92.1218C24.5895 91.1521 25.1572 90.258 25.7588 89.3145C26.6702 89.854 27.5036 90.3467 28.4437 90.8993Z" fill="#0E7139"/>
<path d="M65.6777 97.7522C64.5632 98.0623 63.5684 98.3361 62.4798 98.6384C62.222 97.5645 61.9746 96.5375 61.7012 95.4062C62.7272 95.1247 63.6777 94.864 64.696 94.5825C65.0293 95.6538 65.334 96.6365 65.6777 97.7522Z" fill="#0E7139"/>
<path d="M52.4749 -0.000976562C52.4749 1.05991 52.4749 2.08692 52.4749 3.18169C51.4098 3.18169 50.4255 3.18169 49.3525 3.18169C49.3525 2.13384 49.3525 1.10683 49.3525 -0.000976562C50.3395 -0.000976562 51.363 -0.000976562 52.4749 -0.000976562Z" fill="#0E7139"/>
<path d="M20.8693 15.066C20.6082 14.4274 20.4141 13.734 20.0771 13.1554C18.7896 10.9502 16.2347 10.3689 14.2979 11.7895C14.1127 11.925 13.9341 12.0762 13.74 12.23C11.9594 10.739 10.1564 10.5279 8.29545 12.0085C8.15487 12.1205 7.80454 12.0684 7.65058 11.9381C4.993 9.64687 0.849329 11.7269 0.876106 16.3015C0.907345 21.6451 0.860487 26.986 0.891726 32.3296C0.911808 35.6556 2.66567 37.6523 5.50845 37.7044C5.8387 37.7096 6.16671 37.7044 6.60406 37.7044C6.60406 38.2101 6.60406 38.6219 6.60406 39.0364C6.60406 54.478 6.61299 69.9195 6.5929 85.3611C6.59067 87.3916 7.06149 89.0911 8.55206 90.2459C11.0088 92.1487 14.376 90.5613 15.0208 87.1961C15.1413 86.5679 15.1659 85.9033 15.1681 85.2568C15.1748 69.8465 15.1748 54.4389 15.1748 39.0286C15.1748 38.6402 15.1748 38.2518 15.1748 37.7018C15.6166 37.7018 16.0205 37.7148 16.4221 37.6992C18.6 37.6132 20.0236 36.3698 20.7175 33.9639C20.751 33.8466 20.8224 33.745 20.876 33.6355C20.8693 27.4474 20.8693 21.2567 20.8693 15.066ZM12.3142 61.0075C12.3142 69.0854 12.3164 77.1633 12.3097 85.2412C12.3097 85.6921 12.2896 86.1613 12.1825 86.5888C11.9839 87.3734 11.4551 87.7539 10.7812 87.694C10.0716 87.6288 9.59634 87.144 9.4937 86.2864C9.44684 85.9006 9.46023 85.507 9.46023 85.1161C9.458 69.1219 9.458 53.1277 9.458 37.1362C9.458 36.7791 9.47585 36.4168 9.44238 36.0623C9.34197 34.9831 8.8466 34.4279 7.91611 34.3836C7.21992 34.3497 6.5215 34.3732 5.82531 34.3706C4.17855 34.3627 3.74566 33.8649 3.74566 31.9386C3.74343 26.8583 3.74343 21.7754 3.74789 16.6951C3.74789 16.338 3.74789 15.9705 3.8126 15.6264C3.96434 14.821 4.46194 14.3987 5.12912 14.3727C5.7606 14.3466 6.26935 14.7219 6.47018 15.457C6.57728 15.8506 6.59737 16.2885 6.59737 16.7082C6.60852 19.5754 6.60183 22.4401 6.60406 25.3074C6.60406 25.6645 6.5929 26.032 6.65985 26.3761C6.80489 27.119 7.21992 27.5647 7.88264 27.6299C8.5766 27.6976 9.09205 27.3484 9.31519 26.582C9.43792 26.1623 9.4513 25.6879 9.45354 25.237C9.46469 22.2733 9.46692 19.3096 9.45577 16.3432C9.45354 15.5248 9.65213 14.8549 10.3215 14.503C11.31 13.9869 12.2829 14.834 12.3075 16.2755C12.3387 18.1965 12.3142 20.1202 12.3164 22.0413C12.3186 23.3759 12.2963 24.7131 12.3342 26.0477C12.361 26.9834 12.9033 27.5908 13.6441 27.6403C14.3916 27.6898 14.9606 27.1685 15.1168 26.2484C15.1703 25.933 15.1659 25.6019 15.1659 25.2761C15.1703 22.3124 15.1636 19.3487 15.1703 16.3823C15.1748 15.1364 15.7148 14.3674 16.5649 14.3466C17.4106 14.3283 18.0109 15.1103 18.0131 16.3302C18.0243 21.6712 18.0243 27.0147 18.0131 32.3557C18.0109 33.6981 17.4731 34.3106 16.3173 34.3601C15.6769 34.3888 15.0342 34.3654 14.3938 34.368C12.7136 34.3732 12.3164 34.8293 12.3164 36.7713C12.3142 44.8517 12.3142 52.9296 12.3142 61.0075Z" fill="#0E7139"/>
</svg>
