<svg width="18" height="19" viewBox="0 0 18 19" fill="none" xmlns="http://www.w3.org/2000/svg">
<g clip-path="url(#clip0_2398_10743)">
<path d="M9.35156 9.00024C9.15752 9.00024 9 9.16128 9 9.35967C9 9.55806 9.15752 9.71909 9.35156 9.71909C9.54561 9.71909 9.70312 9.55806 9.70312 9.35967C9.70312 9.16128 9.54561 9.00024 9.35156 9.00024Z" fill="white" stroke="white" stroke-width="0.3"/>
<path d="M3.16406 9.7191C3.35811 9.7191 3.51562 9.55806 3.51562 9.35967C3.51562 9.16128 3.35811 9.00024 3.16406 9.00024C2.97002 9.00024 2.8125 9.16128 2.8125 9.35967C2.8125 9.55806 2.97002 9.7191 3.16406 9.7191Z" fill="white" stroke="white" stroke-width="0.3"/>
<path d="M11.8125 1C8.64748 1 6.04976 3.23979 5.84885 6.06103C2.83461 6.21622 0 8.44713 0 11.4646C0 12.7256 0.486145 13.9474 1.37109 14.9155C1.54619 15.6563 1.3336 16.4416 0.806122 16.983C0.705597 17.0862 0.675522 17.2414 0.729904 17.3763C0.784286 17.511 0.912415 17.599 1.05469 17.599C2.05733 17.599 3.02357 17.1954 3.74153 16.4843C4.44095 16.729 5.3535 16.8773 6.1875 16.8773C9.35211 16.8773 11.9496 14.6381 12.151 11.8174C12.8871 11.7838 13.6527 11.6443 14.2585 11.4324C14.9764 12.1436 15.9427 12.5471 16.9453 12.5471C17.0876 12.5471 17.2157 12.4592 17.2701 12.3244C17.3245 12.1895 17.2944 12.0343 17.1939 11.9311C16.6664 11.3897 16.4538 10.6045 16.6289 9.8636C17.5139 8.89551 18 7.6737 18 6.41271C18 3.27743 14.947 1 11.8125 1ZM6.1875 16.1556C5.35776 16.1556 4.41225 15.9884 3.77888 15.7298C3.6432 15.6742 3.48816 15.7107 3.38942 15.8214C2.96494 16.2977 2.41301 16.6298 1.81165 16.7824C2.14302 16.1308 2.22762 15.3626 2.02602 14.6347C2.01009 14.5773 1.98056 14.5249 1.94005 14.4822C1.14244 13.639 0.703125 12.5673 0.703125 11.4646C0.703125 8.92173 3.2146 6.77356 6.1875 6.77356C8.99478 6.77356 11.4609 8.77725 11.4609 11.4646C11.4609 14.0513 9.09531 16.1556 6.1875 16.1556ZM16.06 9.4303C16.0194 9.47315 15.9899 9.52558 15.974 9.58281C15.7724 10.3107 15.857 11.0789 16.1884 11.7306C15.587 11.578 15.0351 11.2458 14.6106 10.7695C14.5118 10.659 14.3568 10.6224 14.2211 10.6779C13.6722 10.902 12.8892 11.0572 12.1499 11.0947C12.0472 9.73011 11.384 8.44755 10.2502 7.49525H14.8359C15.0301 7.49525 15.1875 7.33372 15.1875 7.13441C15.1875 6.93509 15.0301 6.77356 14.8359 6.77356H9.17015C8.37213 6.35661 7.47606 6.11346 6.55376 6.06244C6.75577 3.63884 9.03722 1.72169 11.8125 1.72169C14.7854 1.72169 17.2969 3.86986 17.2969 6.41271C17.2969 7.51541 16.8576 8.5871 16.06 9.4303Z" fill="white" stroke="white" stroke-width="0.3"/>
<path d="M9 9.00024H4.57031C4.37613 9.00024 4.21875 9.16114 4.21875 9.35967C4.21875 9.5582 4.37613 9.7191 4.57031 9.7191H9C9.19418 9.7191 9.35156 9.5582 9.35156 9.35967C9.35156 9.16114 9.19418 9.00024 9 9.00024Z" fill="white" stroke="white" stroke-width="0.3"/>
<path d="M9.1875 9H3.35156C3.15738 9 3 9.1609 3 9.35943C3 9.55795 3.15738 9.71885 3.35156 9.71885H9.1875C9.38168 9.71885 9.53906 9.55795 9.53906 9.35943C9.53906 9.1609 9.38168 9 9.1875 9Z" fill="white" stroke="white" stroke-width="0.3"/>
<path d="M14.7812 9.00024H10.3516C10.1574 9.00024 10 9.16114 10 9.35967C10 9.5582 10.1574 9.71909 10.3516 9.71909H14.7812C14.9754 9.71909 15.1328 9.5582 15.1328 9.35967C15.1328 9.16114 14.9754 9.00024 14.7812 9.00024Z" fill="white" stroke="white" stroke-width="0.3"/>
</g>
<defs>
<clipPath id="clip0_2398_10743">
<rect width="18" height="18.4754" fill="white" transform="translate(0 0.328125)"/>
</clipPath>
</defs>
</svg>
