<svg width="32" height="25" viewBox="0 0 32 25" fill="none" xmlns="http://www.w3.org/2000/svg">
<path d="M0.875977 6.76145C1.03292 6.16363 1.2328 5.58559 1.68068 5.12917C1.81097 4.99657 1.93757 4.84784 2.09525 4.757C2.33955 4.61634 2.40617 4.43171 2.41654 4.16138C2.47502 2.64412 3.06356 1.34445 4.11553 0.245525C4.39462 -0.046058 4.75218 -0.0790256 5.0061 0.152482C5.26447 0.387653 5.26817 0.731252 4.97945 1.03602C4.25026 1.80674 3.78905 2.70346 3.63137 3.74965C3.61434 3.8632 3.60768 3.97896 3.59658 4.09105C4.00522 4.13061 4.40202 4.135 4.78327 4.21193C6.27498 4.51523 7.27364 5.40903 7.9251 6.75778C8.88601 8.74538 9.88838 10.7125 10.8782 12.6861C11.0033 12.9352 11.1106 13.2026 10.9078 13.4224C10.7804 13.5602 10.545 13.6495 10.3511 13.6642C10.0875 13.684 9.94316 13.4583 9.83434 13.2444C8.94228 11.4839 8.02356 9.73588 7.18036 7.95269C6.95457 7.47575 6.66215 7.30798 6.19354 7.26109C5.73678 7.21494 5.29112 7.30945 5.06385 7.68601C4.71369 8.26771 4.2547 8.31021 3.67801 8.1754C3.14425 8.05013 2.6564 8.16222 2.26108 8.5549C2.18927 8.62596 2.12338 8.75197 2.13152 8.84575C2.67416 15.054 7.0708 20.7647 13.407 22.5831C14.4708 22.8886 15.5561 23.0696 16.7162 23.1765C16.6244 23.0564 16.5607 22.9751 16.4992 22.893C15.183 21.1369 13.8667 19.3808 12.5512 17.6247C12.5046 17.5617 12.4587 17.498 12.4187 17.4306C12.2292 17.1104 12.2847 16.791 12.5609 16.602C12.8259 16.421 13.1368 16.4775 13.373 16.7507C13.4115 16.7954 13.4455 16.843 13.4788 16.8921C14.9957 19.1339 16.6806 21.2505 18.3781 23.3575C18.464 23.4637 18.5551 23.5721 18.6128 23.6938C18.7631 24.011 18.6276 24.2879 18.2278 24.5209C18.0894 24.5209 17.9517 24.5209 17.8133 24.5209C17.5623 24.4821 17.3128 24.4322 17.0611 24.4051C15.6486 24.2535 14.245 24.0615 12.8784 23.6513C6.52742 21.745 1.95903 16.158 1.04847 9.82306C0.98332 9.37031 0.93298 8.91535 0.875977 8.46112C0.875977 7.89481 0.875977 7.32849 0.875977 6.76145ZM2.08192 7.24131C2.62382 6.96731 3.19163 6.90138 3.77499 7.00541C3.9608 7.03838 4.07481 7.00028 4.20584 6.85815C4.59524 6.43396 5.08606 6.17975 5.66571 6.10502C5.75529 6.0933 5.84338 6.07059 5.96997 6.04494C5.30667 5.49914 4.58636 5.25078 3.77869 5.31013C2.79113 5.38339 2.03454 6.24715 2.08192 7.24131Z" fill="#0E7139"/>
<path d="M26.075 12.8441C25.3636 12.7071 24.6869 12.4866 24.0932 12.0595C22.9687 11.2514 22.2144 10.2111 22.0256 8.81914C21.8146 7.25866 22.9324 5.99416 24.5145 6.00002C26.6776 6.00808 28.8911 8.18322 28.9133 10.3217C28.9266 11.6273 28.1404 12.5658 26.8353 12.8031C26.7975 12.8097 26.7627 12.8302 26.7265 12.8441C26.5096 12.8441 26.2919 12.8441 26.075 12.8441ZM26.7131 8.24257C26.1357 7.64548 25.4561 7.2506 24.6114 7.1788C23.9237 7.12019 23.3315 7.52167 23.233 8.1444C23.0679 9.18838 23.5802 9.96715 24.2635 10.6719C23.4203 8.72317 24.8757 7.45061 26.7131 8.24257ZM27.4416 11.0053C27.4238 10.2148 26.4104 9.21329 25.6145 9.2001C25.3199 9.19497 25.2177 9.29021 25.2325 9.58473C25.254 10.028 25.4835 10.3796 25.7767 10.691C26.1187 11.0544 26.5118 11.3452 27.0344 11.387C27.3535 11.4119 27.4483 11.313 27.4416 11.0053Z" fill="#0E7139"/>
<path d="M10.1252 9.46094C9.7936 8.84041 9.43085 8.25725 9.15916 7.63525C8.47364 6.06378 8.3589 4.4315 8.72682 2.7604C8.79567 2.44683 8.96742 2.25928 9.28501 2.19628C12.2447 1.60872 14.8247 2.33401 16.9523 4.45714C17.4927 4.99635 17.8784 5.68721 18.3337 6.30994C18.3781 6.37075 18.4136 6.43815 18.4247 6.4572C19.148 6.14437 19.8298 5.78612 20.5524 5.54948C22.4416 4.93262 24.3205 5.03152 26.1616 5.77659C26.5258 5.92385 26.6731 6.23741 26.5495 6.55097C26.4266 6.8616 26.1039 7.00007 25.7367 6.86014C24.9201 6.54951 24.0836 6.33778 23.2048 6.32606C19.7936 6.28064 16.9908 8.45725 16.2083 11.7548C15.3221 15.4904 17.911 19.3733 21.728 20.0341C25.4109 20.6715 28.8245 18.522 29.7876 14.9431C30.1925 13.4391 30.0534 11.965 29.4485 10.5313C29.3989 10.4141 29.3412 10.3013 29.2945 10.1833C29.1487 9.81553 29.2516 9.5049 29.5625 9.36204C29.872 9.21991 30.2162 9.34079 30.3598 9.70051C30.5982 10.2969 30.8655 10.8954 30.9972 11.5189C31.5295 14.0376 31.0024 16.3439 29.3486 18.3337C27.5304 20.5206 25.1474 21.4928 22.2898 21.2854C20.9462 21.188 19.7158 20.7455 18.5772 20.0334C18.4366 19.9455 18.2234 19.9184 18.0524 19.9374C16.42 20.1213 14.8565 19.881 13.4026 19.1286C10.7493 17.7557 9.25244 15.5798 8.92448 12.6281C8.83417 11.8149 8.9156 11.0119 9.06588 10.2111C9.14065 9.81406 9.34201 9.57816 9.76102 9.5408C9.88761 9.52761 10.0105 9.48658 10.1252 9.46094ZM15.3643 10.335C15.6405 9.86461 15.6405 9.86461 15.2962 9.52395C14.1243 8.36421 12.9517 7.20447 11.7813 6.04327C11.691 5.95389 11.5992 5.86085 11.5333 5.75462C11.3223 5.41468 11.4978 5.00514 11.8872 4.90111C12.1781 4.82345 12.378 4.97437 12.5645 5.15973C13.7016 6.28503 14.8387 7.41034 15.9766 8.53491C16.0499 8.60744 16.1291 8.67484 16.1927 8.73345C16.5784 8.29241 16.9338 7.86163 17.3187 7.46016C17.4631 7.30924 17.472 7.20667 17.3817 7.03377C16.3223 5.00734 14.6648 3.75383 12.4128 3.28715C11.5592 3.11059 10.6945 3.10986 9.82839 3.29814C9.79137 3.57214 9.75584 3.83222 9.72179 4.0923C9.71586 4.14065 9.71586 4.18974 9.71438 4.23809C9.65886 6.08356 10.2289 7.70851 11.4511 9.11075C11.614 9.29757 11.7754 9.38841 12.0241 9.38988C12.2788 9.39061 12.5342 9.4331 12.7866 9.47266C13.6905 9.61333 14.5426 9.90711 15.3643 10.335ZM17.0234 18.7945C16.6791 18.3161 16.346 17.8465 16.0054 17.3813C15.8389 17.1542 15.6805 16.9154 15.4828 16.7168C14.3524 15.5842 13.2101 14.4633 12.0745 13.3358C11.7517 13.0156 11.7191 12.6632 11.9767 12.409C12.2344 12.1555 12.5867 12.1914 12.9117 12.5116C13.5069 13.0969 14.0984 13.6852 14.6922 14.2721C14.7588 14.338 14.8306 14.3988 14.9342 14.494C14.9342 14.4091 14.9387 14.3739 14.9335 14.3395C14.8128 13.4515 14.841 12.5687 15.0068 11.6874C15.0223 11.6031 14.935 11.4515 14.8521 11.4046C14.0118 10.924 13.1005 10.6361 12.1366 10.5687C11.4941 10.524 10.8448 10.5767 10.217 10.5862C9.35312 15.0941 12.9828 18.8964 17.0234 18.7945Z" fill="#0E7139"/>
<path d="M23.0376 6.00015C26.3556 6.01041 29.0621 8.69399 29.0629 11.9747C29.0636 15.2612 26.3223 17.9675 23.008 17.9536C19.6788 17.9397 16.9619 15.2297 16.9849 11.9461C17.0078 8.6559 19.7225 5.98989 23.0376 6.00015ZM18.5536 10.0977C18.0472 11.3637 18.042 12.5893 18.5573 13.848C19.6529 13.2216 20.7256 12.6076 21.8375 11.9725C20.713 11.3307 19.6492 10.7234 18.5536 10.0977ZM27.4912 13.8494C28.0005 12.5769 28.002 11.3527 27.4882 10.0992C26.3904 10.727 25.3221 11.338 24.2087 11.9739C25.3273 12.6135 26.3911 13.2209 27.4912 13.8494ZM22.4157 16.7367C22.4157 15.4788 22.4157 14.2648 22.4157 12.9981C21.3119 13.6289 20.2429 14.2399 19.1503 14.8641C19.9972 15.9279 21.0669 16.5455 22.4157 16.7367ZM22.4179 7.21483C21.0676 7.39872 20.0009 8.01998 19.148 9.08448C20.2429 9.70941 21.3179 10.3233 22.4179 10.9505C22.4179 9.67864 22.4179 8.46175 22.4179 7.21483ZM23.6313 16.7389C24.9779 16.5426 26.0498 15.9286 26.8945 14.8634C25.8033 14.2407 24.7343 13.6304 23.6313 13.0018C23.6313 14.2648 23.6313 15.4788 23.6313 16.7389ZM23.6276 10.9519C24.7432 10.3146 25.8115 9.70428 26.8997 9.08228C26.0373 8.02438 24.9786 7.39286 23.6276 7.21777C23.6276 8.46761 23.6276 9.68376 23.6276 10.9519Z" fill="#0E7139"/>
<path d="M23.1375 11.8508C23.1153 12.897 22.8577 13.886 22.1588 14.7153C20.9684 16.1285 18.9867 15.9981 18.022 14.4215C16.9819 12.7211 16.976 10.9804 18.0139 9.27708C19.0533 7.57154 21.3023 7.5818 22.3846 9.26096C22.8932 10.0507 23.1168 10.9123 23.1375 11.8508ZM21.9308 11.935C21.9456 11.0903 21.7665 10.2976 21.1802 9.64559C20.7308 9.14521 20.126 9.04557 19.5811 9.35254C18.7616 9.81336 18.3322 11.2683 18.4981 11.9306C18.826 11.1716 19.2428 10.4837 20.1889 10.4778C21.1557 10.472 21.5725 11.1738 21.9308 11.935ZM19.5197 13.0625C19.516 13.5006 19.593 13.9197 19.858 14.2823C20.0838 14.5908 20.3081 14.5856 20.542 14.2816C20.9988 13.6874 20.9995 12.464 20.5435 11.8706C20.3111 11.568 20.0801 11.5643 19.8565 11.8713C19.5989 12.2266 19.5197 12.6347 19.5197 13.0625Z" fill="#0E7139"/>
<path d="M28.4706 12.2457C28.1449 12.2501 27.8014 11.9116 27.7977 11.5849C27.7947 11.2721 28.062 11.0025 28.3773 11.0003C28.7068 10.9973 29.0495 11.3307 29.054 11.6574C29.0584 11.9607 28.7793 12.2421 28.4706 12.2457Z" fill="#0E7139"/>
<path d="M11.175 11.5745C11.1772 11.2529 11.4304 11.0009 11.7517 11.0001C12.0722 10.9994 12.3521 11.2822 12.3462 11.6001C12.3402 11.9159 12.0789 12.1716 11.7613 12.1723C11.426 12.1731 11.1728 11.9137 11.175 11.5745Z" fill="#0E7139"/>
<path d="M29.0754 11.0004C29.3856 11.0085 29.6595 11.2898 29.6506 11.5931C29.6425 11.8986 29.3545 12.1711 29.0495 12.1631C28.7393 12.1543 28.4691 11.8737 28.4765 11.5682C28.4847 11.2597 28.766 10.9931 29.0754 11.0004Z" fill="#0E7139"/>
<path d="M27.1603 11.5736C27.164 11.2542 27.4282 10.9948 27.7466 11C28.0627 11.0051 28.3262 11.2747 28.321 11.589C28.3166 11.9033 28.0427 12.1692 27.731 12.1641C27.4127 12.159 27.1566 11.8937 27.1603 11.5736Z" fill="#0E7139"/>
<path d="M25.3954 12.1473C25.0711 12.1488 24.8069 11.8945 24.8046 11.5781C24.8024 11.2645 25.0674 11.0022 25.3887 11C25.7085 10.9978 25.9787 11.2594 25.981 11.5707C25.9825 11.8843 25.7174 12.1458 25.3954 12.1473Z" fill="#0E7139"/>
</svg>
