<svg width="111" height="111" viewBox="0 0 111 111" fill="none" xmlns="http://www.w3.org/2000/svg">
<path d="M83.9966 65.2404C83.9947 63.4864 83.9928 61.7341 83.9928 59.9801C83.9928 58.5801 83.9928 57.1801 83.9909 55.7801C83.989 52.5887 83.9871 49.287 83.9947 46.0404C84.0023 43.0981 82.8714 40.5578 80.6361 38.4907C80.4077 38.279 80.1792 38.0691 79.9507 37.8591C79.1111 37.0871 78.2429 36.2901 77.4356 35.47C77.0549 35.0822 76.7978 34.6428 76.7521 34.2959C76.6684 33.6822 76.6855 33.0489 76.7045 32.3783C76.7083 32.2022 76.7141 32.0225 76.7179 31.841C76.7426 31.841 76.7655 31.841 76.7902 31.841C77.1082 31.8428 77.4147 31.8446 77.7212 31.8375C79.608 31.8001 80.7447 30.731 80.7637 28.977C80.7732 28.1177 80.7713 27.2443 80.7694 26.4011C80.7675 26.0364 80.7675 25.6699 80.7675 25.3052C80.7675 22.9571 79.7527 22 77.2643 22H52.0562C46.1788 22 40.3052 22 34.4296 22.0018C32.3791 22.0018 31.2462 23.0638 31.2386 24.9922L31.2367 25.782C31.231 26.8583 31.2272 27.9719 31.2443 29.0677C31.2729 30.7096 32.3886 31.7699 34.1574 31.8357C34.4848 31.8481 34.8142 31.8446 35.1645 31.841C35.2159 31.841 35.2693 31.841 35.3226 31.8392C35.3226 31.9727 35.3226 32.1043 35.3207 32.2324C35.3188 32.7643 35.3169 33.2677 35.3245 33.7712C35.3359 34.4756 35.0846 35.036 34.5343 35.5359C34.0355 35.9895 33.5367 36.4591 33.0569 36.911C32.5504 37.3895 32.025 37.8823 31.5014 38.3572C29.1386 40.4973 27.9924 43.0589 28 46.1952C28.0153 52.7701 28.0134 59.4535 28.0134 65.9182C28.0134 69.7482 28.0115 73.5782 28.0153 77.4083C28.0153 77.9686 28.0153 78.6677 28.139 79.3295C29.0986 84.508 33.5291 87.9911 39.1666 87.9947C44.1302 87.9982 48.77 88 53.1814 88C60.2051 88 66.6442 87.9947 72.8605 87.984C73.8315 87.9822 74.7644 87.8826 75.6326 87.6851C80.6114 86.5591 83.968 82.5013 83.989 77.5879C84.0042 73.4733 84.0004 69.2875 83.9966 65.2404ZM57.6367 29.5853H52.1419H47.7514C43.361 29.5853 38.9724 29.5853 34.5819 29.5853C33.649 29.5853 33.649 29.5853 33.649 28.7119V28.3935C33.6471 27.255 33.6452 26.1182 33.6509 24.9797C33.6528 24.2752 33.6833 24.2468 34.4506 24.2468C39.972 24.245 45.4953 24.245 51.0167 24.245H56.0792H59.9461H77.35C77.6279 24.245 78.1458 24.245 78.2505 24.3428C78.3552 24.4407 78.3552 24.9263 78.3552 25.1861V25.9866C78.3552 26.9419 78.3571 27.8971 78.3533 28.8524C78.3514 29.5569 78.321 29.5836 77.5537 29.5836C70.9147 29.5853 64.2757 29.5853 57.6367 29.5853ZM30.4352 52.3111H33.2644C35.3683 52.3111 37.4721 52.3111 39.5759 52.3111C40.7964 52.3111 41.0801 52.1048 41.358 51.0143C43.0335 44.4323 49.2632 39.9743 56.4943 40.1646C63.2685 40.3461 69.0831 44.7827 70.6348 50.9556C70.928 52.1208 71.1812 52.3111 72.434 52.3129C74.5207 52.3129 76.6074 52.3147 78.6941 52.3129H81.571V75.857H30.4352V52.3111ZM54.9388 37.9499C47.4163 38.4213 41.0896 43.2742 39.1057 50.059H30.3952C30.4199 49.3759 30.4009 48.6928 30.3838 48.0275C30.3438 46.5012 30.3057 45.0585 30.7303 43.6211C31.1034 42.3616 31.8174 41.2284 32.8532 40.2554L33.3291 39.8071C34.2773 38.9158 35.2559 37.9926 36.2326 37.0995C37.2379 36.1798 37.7291 35.068 37.6911 33.7925C37.6777 33.298 37.6796 32.8052 37.6834 32.2822C37.6834 32.1577 37.6853 32.0296 37.6853 31.9033H74.3113C74.3113 32.0278 74.3132 32.1506 74.3132 32.2751C74.3151 32.7981 74.3189 33.3389 74.3075 33.8672C74.2827 35.0947 74.7568 36.1656 75.7183 37.0533C76.893 38.1367 78.0278 39.1987 79.094 40.2109C80.7542 41.7888 81.5995 43.7029 81.6072 45.8999C81.611 46.9281 81.6091 47.9546 81.6091 48.9988V50.0537H72.929C71.5963 45.2488 68.3577 42.3776 65.8521 40.8068C62.5945 38.7575 58.6153 37.7186 54.9388 37.9499ZM81.5805 78.1874C81.5805 81.3788 78.8598 84.5898 75.3585 85.4508C74.5816 85.6429 73.7135 85.7408 72.7767 85.7408C62.6783 85.7585 52.0162 85.7621 39.2237 85.7514C34.5915 85.7479 31.151 82.9994 30.4561 78.7514C30.4276 78.5752 30.4161 78.3938 30.4047 78.1874H81.5805Z" fill="#0E7139"/>
<path d="M56.4155 63.4857C56.4223 63.4857 56.4308 63.4857 56.4376 63.4857C61.8313 63.4857 66.2393 59.0907 66.2666 53.6771C66.2938 48.2031 61.9216 43.7202 56.5195 43.6857C56.4973 43.6857 56.4769 43.6857 56.4564 43.6857C53.8644 43.6857 51.4243 44.7043 49.5792 46.5571C47.7001 48.4427 46.6667 50.9573 46.6667 53.6392C46.665 59.0562 51.0389 63.4737 56.4155 63.4857ZM56.441 45.8626C56.4513 45.8626 56.4615 45.8626 56.4717 45.8626C58.5419 45.8712 60.479 46.6881 61.9234 48.1635C63.354 49.6233 64.135 51.5588 64.1248 53.615C64.1009 57.8791 60.6564 61.3434 56.4427 61.3416C56.4376 61.3416 56.4308 61.3416 56.4257 61.3416C54.4016 61.3365 52.4917 60.5281 51.0491 59.0614C49.5929 57.5809 48.7931 55.6195 48.7999 53.5392C48.8067 51.4968 49.6116 49.5682 51.0696 48.1101C52.5207 46.6606 54.4272 45.8626 56.441 45.8626Z" fill="#0E7139"/>
<path d="M65.3721 65.4015C65.3721 65.4015 65.3695 65.4015 65.3669 65.4015C65.3102 65.4015 65.2536 65.4015 65.197 65.4015H65.0706H47.8426C47.811 65.4015 47.7781 65.3948 47.7439 65.3881C47.6148 65.3657 47.4397 65.3366 47.2975 65.5179L47.2475 65.5829C47.0249 65.8649 46.7484 66.2142 46.6839 66.7089C46.6405 67.0403 46.68 67.3671 46.7945 67.6335C46.9275 67.9425 47.1553 68.1417 47.4173 68.1798C47.5701 68.2022 47.7202 68.1999 47.8663 68.1999H47.9335C50.3734 68.1999 52.8132 68.1999 55.2531 68.1999H57.3125H61.6735C62.902 68.1999 64.1305 68.1977 65.359 68.1999C65.6552 68.1999 65.8975 68.0522 66.0568 67.7723C66.1569 67.5955 66.2754 67.2776 66.2662 66.7582C66.2543 65.9321 65.9028 65.4015 65.3721 65.4015Z" fill="#0E7139"/>
<path d="M65.3721 70.1158C65.3721 70.1158 65.3695 70.1158 65.3669 70.1158C65.3102 70.1158 65.2536 70.1158 65.197 70.1158H65.0706H47.8426C47.811 70.1158 47.7781 70.1091 47.7439 70.1024C47.6148 70.08 47.4397 70.0509 47.2975 70.2322L47.2475 70.2972C47.0249 70.5792 46.7484 70.9285 46.6839 71.4232C46.6405 71.7546 46.68 72.0814 46.7945 72.3478C46.9275 72.6568 47.1553 72.856 47.4173 72.8941C47.5701 72.9165 47.7202 72.9142 47.8663 72.9142H47.9335C50.3734 72.9142 52.8132 72.9142 55.2531 72.9142H57.3125H61.6735C62.902 72.9142 64.1305 72.912 65.359 72.9142C65.6552 72.9142 65.8975 72.7665 66.0568 72.4866C66.1569 72.3098 66.2754 71.9919 66.2662 71.4725C66.2543 70.6464 65.9028 70.1158 65.3721 70.1158Z" fill="#0E7139"/>
<path d="M109 55.5C109 85.0472 85.0472 109 55.5 109C25.9528 109 2 85.0472 2 55.5C2 25.9528 25.9528 2 55.5 2C85.0472 2 109 25.9528 109 55.5Z" stroke="#0E7139" stroke-width="4"/>
</svg>
