<svg width="25" height="30" viewBox="0 0 25 30" fill="none" xmlns="http://www.w3.org/2000/svg">
<path d="M24.4264 19.6547C24.4256 18.8574 24.4248 18.061 24.4248 17.2637C24.4248 16.6273 24.4248 15.9909 24.424 15.3546C24.4232 13.9039 24.4224 12.4032 24.4256 10.9275C24.4288 9.59004 23.9532 8.43535 23.0131 7.49575C22.917 7.39953 22.821 7.30412 22.7249 7.2087C22.3717 6.85777 22.0066 6.49551 21.6671 6.12275C21.5069 5.94647 21.3988 5.74675 21.3796 5.58907C21.3444 5.3101 21.3516 5.02224 21.3596 4.71739C21.3612 4.63734 21.3636 4.55567 21.3652 4.47319C21.3756 4.47319 21.3852 4.47319 21.3956 4.47319C21.5294 4.474 21.6583 4.47481 21.7872 4.47158C22.5807 4.4546 23.0588 3.96863 23.0668 3.17134C23.0708 2.78079 23.07 2.38376 23.0692 2.00049C23.0684 1.83472 23.0684 1.66815 23.0684 1.50239C23.0684 0.435029 22.6416 0 21.595 0H10.9933C8.52142 0 6.05115 0 3.58008 0.000808604C2.71768 0.000808604 2.24125 0.483545 2.23804 1.36007L2.23724 1.71909C2.23484 2.2083 2.23324 2.71448 2.24045 3.21258C2.25246 3.95892 2.72169 4.44085 3.46557 4.47077C3.6033 4.47643 3.74183 4.47481 3.88916 4.47319C3.91078 4.47319 3.9332 4.4732 3.95562 4.47239C3.95562 4.53303 3.95562 4.59287 3.95482 4.65109C3.95402 4.89286 3.95322 5.1217 3.95642 5.35053C3.96123 5.67074 3.85553 5.92545 3.62412 6.15266C3.41432 6.35886 3.20453 6.57233 3.00275 6.77771C2.78975 6.99523 2.56875 7.21921 2.34855 7.43511C1.35483 8.40786 0.872789 9.57225 0.875992 10.9978C0.882398 13.9864 0.881598 17.0243 0.881598 19.9628C0.881598 21.7037 0.880797 23.4447 0.882398 25.1856C0.882398 25.4403 0.882398 25.7581 0.934446 26.0589C1.33802 28.4127 3.20133 29.996 5.57231 29.9976C7.65983 29.9992 9.61122 30 11.4665 30C14.4204 30 17.1285 29.9976 19.7429 29.9927C20.1513 29.9919 20.5437 29.9466 20.9088 29.8569C23.0027 29.345 24.4144 27.5006 24.4232 25.2672C24.4296 23.3969 24.428 21.4943 24.4264 19.6547ZM13.3402 3.44789H11.0293H9.18283C7.33633 3.44789 5.49063 3.44789 3.64414 3.44789C3.25178 3.44789 3.25178 3.44789 3.25178 3.05086V2.90612C3.25097 2.38861 3.25017 1.87192 3.25258 1.35441C3.25338 1.0342 3.26619 1.02127 3.58889 1.02127C5.91102 1.02046 8.23395 1.02046 10.5561 1.02046H12.6852H14.3115H21.6311C21.748 1.02046 21.9658 1.02046 22.0098 1.06493C22.0539 1.1094 22.0539 1.33015 22.0539 1.44821V1.81208C22.0539 2.2463 22.0547 2.68052 22.053 3.11474C22.0522 3.43495 22.0394 3.44708 21.7167 3.44708C18.9246 3.44789 16.1324 3.44789 13.3402 3.44789ZM1.90013 13.7778H3.09003C3.97484 13.7778 4.85965 13.7778 5.74447 13.7778C6.25774 13.7778 6.37705 13.684 6.49395 13.1883C7.1986 10.1965 9.81861 8.17013 12.8598 8.25665C15.7088 8.33913 18.1543 10.3558 18.8069 13.1616C18.9302 13.6913 19.0367 13.7778 19.5636 13.7786C20.4412 13.7786 21.3188 13.7794 22.1964 13.7786H23.4063V24.4805H1.90013V13.7778ZM12.2056 7.24994C9.0419 7.46422 6.38105 9.67009 5.54668 12.7541H1.88332C1.89373 12.4436 1.88572 12.1331 1.87851 11.8307C1.8617 11.1369 1.84568 10.4811 2.02425 9.82777C2.18119 9.25528 2.48147 8.7402 2.91707 8.29789L3.11725 8.09412C3.51602 7.68901 3.9276 7.26935 4.33837 6.86343C4.76116 6.44538 4.96775 5.94 4.95174 5.36023C4.94613 5.13544 4.94693 4.91146 4.94853 4.67373C4.94853 4.61713 4.94934 4.55891 4.94934 4.5015H20.3531C20.3531 4.5581 20.3539 4.61389 20.3539 4.67049C20.3547 4.90822 20.3563 5.15404 20.3515 5.39419C20.3411 5.95213 20.5405 6.43891 20.9448 6.8424C21.4389 7.33484 21.9161 7.81758 22.3645 8.27767C23.0628 8.99491 23.4183 9.86496 23.4215 10.8636C23.4231 11.331 23.4223 11.7975 23.4223 12.2722V12.7517H19.7718C19.2112 10.5676 17.8492 9.26255 16.7954 8.54856C15.4254 7.61704 13.7518 7.14482 12.2056 7.24994ZM23.4103 25.5397C23.4103 26.9904 22.266 28.4499 20.7935 28.8413C20.4668 28.9286 20.1017 28.9731 19.7077 28.9731C15.4606 28.9812 10.9765 28.9828 5.59633 28.9779C3.64814 28.9763 2.20121 27.727 1.90894 25.7961C1.89693 25.716 1.89213 25.6335 1.88732 25.5397H23.4103Z" fill="#0E7139"/>
<path d="M12.6284 19.2894C12.6316 19.2894 12.6356 19.2894 12.6388 19.2894C15.1715 19.2894 17.2414 17.2274 17.2543 14.6876C17.2671 12.1195 15.214 10.0163 12.6772 10.0001C12.6668 10.0001 12.6572 10.0001 12.6476 10.0001C11.4305 10.0001 10.2847 10.478 9.41826 11.3473C8.53584 12.2319 8.0506 13.4116 8.0506 14.6698C8.0498 17.2113 10.1037 19.2837 12.6284 19.2894ZM12.6404 11.0214C12.6452 11.0214 12.65 11.0214 12.6548 11.0214C13.6269 11.0254 14.5366 11.4087 15.2148 12.1009C15.8866 12.7858 16.2533 13.6938 16.2485 14.6585C16.2373 16.659 14.6198 18.2843 12.6412 18.2835C12.6388 18.2835 12.6356 18.2835 12.6332 18.2835C11.6827 18.281 10.7859 17.9018 10.1085 17.2137C9.42466 16.5191 9.04912 15.5989 9.05232 14.6229C9.05552 13.6647 9.43347 12.7599 10.1181 12.0758C10.7995 11.3958 11.6947 11.0214 12.6404 11.0214Z" fill="#0E7139"/>
<path d="M18.581 22.0614C18.485 21.9886 18.3624 21.9975 18.2648 22.0048C18.2399 22.0064 18.2151 22.0088 18.1919 22.0088C16.777 22.008 15.3621 22.008 13.948 22.008H7.77511C7.75189 22.008 7.72787 22.008 7.70465 22.0072C7.63579 22.0064 7.56452 22.0056 7.49085 22.012C7.18818 22.0395 7 22.2336 7 22.5182C6.9992 22.8037 7.18818 22.9969 7.49326 23.0228C7.55892 23.0284 7.62217 23.0276 7.68383 23.0276H7.71666C11.2191 23.0276 14.7215 23.0276 18.2239 23.0268C18.2431 23.0268 18.2632 23.0284 18.284 23.0293C18.3096 23.0309 18.3376 23.0325 18.3656 23.0325C18.4377 23.0325 18.5154 23.022 18.5818 22.9735C18.8205 22.798 18.9182 22.6638 18.9085 22.5223C18.8965 22.3727 18.7868 22.2182 18.581 22.0614Z" fill="#0E7139"/>
<path d="M18.3753 20.0109H18.3721C18.3377 20.0109 18.3032 20.0109 18.2688 20.0109H18.1919H7.71512C7.6959 20.0109 7.67588 20.0084 7.65506 20.006C7.57659 19.9979 7.47009 19.9874 7.38361 20.0529L7.35318 20.0764C7.21786 20.1783 7.0497 20.3044 7.01047 20.4831C6.98404 20.6028 7.00807 20.7208 7.07773 20.8171C7.15861 20.9286 7.29713 21.0006 7.45648 21.0144C7.54936 21.0224 7.64065 21.0216 7.72953 21.0216H7.77037C9.25413 21.0216 10.7379 21.0216 12.2217 21.0216H13.474H16.126C16.8731 21.0216 17.6202 21.0208 18.3673 21.0216C18.5475 21.0216 18.6948 20.9683 18.7917 20.8672C18.8525 20.8033 18.9246 20.6885 18.919 20.5009C18.9118 20.2025 18.698 20.0109 18.3753 20.0109Z" fill="#0E7139"/>
</svg>
