<svg width="170" height="170" viewBox="0 0 170 170" fill="none" xmlns="http://www.w3.org/2000/svg">
<path d="M0 0H170V170H0V0Z" fill="white"/>
<path d="M112.997 95.2404C112.995 93.4864 112.993 91.7341 112.993 89.9801C112.993 88.5801 112.993 87.1801 112.991 85.7801C112.989 82.5887 112.987 79.287 112.995 76.0404C113.002 73.0981 111.871 70.5578 109.636 68.4907C109.408 68.279 109.179 68.0691 108.951 67.8591C108.111 67.0871 107.243 66.2901 106.436 65.47C106.055 65.0822 105.798 64.6428 105.752 64.2959C105.668 63.6822 105.685 63.0489 105.705 62.3783C105.708 62.2022 105.714 62.0225 105.718 61.841C105.743 61.841 105.765 61.841 105.79 61.841C106.108 61.8428 106.415 61.8446 106.721 61.8375C108.608 61.8001 109.745 60.731 109.764 58.977C109.773 58.1177 109.771 57.2443 109.769 56.4011C109.768 56.0364 109.768 55.6699 109.768 55.3052C109.768 52.9571 108.753 52 106.264 52H81.0562C75.1788 52 69.3052 52 63.4296 52.0018C61.3791 52.0018 60.2462 53.0638 60.2386 54.9922L60.2367 55.782C60.231 56.8583 60.2272 57.9719 60.2443 59.0677C60.2729 60.7096 61.3886 61.7699 63.1574 61.8357C63.4848 61.8481 63.8142 61.8446 64.1645 61.841C64.2159 61.841 64.2693 61.841 64.3226 61.8392C64.3226 61.9727 64.3226 62.1043 64.3207 62.2324C64.3188 62.7643 64.3169 63.2677 64.3245 63.7712C64.3359 64.4756 64.0846 65.036 63.5343 65.5359C63.0355 65.9895 62.5367 66.4591 62.0569 66.911C61.5504 67.3895 61.025 67.8823 60.5014 68.3572C58.1386 70.4973 56.9924 73.0589 57 76.1952C57.0153 82.7701 57.0134 89.4535 57.0134 95.9182C57.0134 99.7482 57.0115 103.578 57.0153 107.408C57.0153 107.969 57.0153 108.668 57.139 109.33C58.0986 114.508 62.5291 117.991 68.1666 117.995C73.1302 117.998 77.77 118 82.1814 118C89.2051 118 95.6442 117.995 101.86 117.984C102.831 117.982 103.764 117.883 104.633 117.685C109.611 116.559 112.968 112.501 112.989 107.588C113.004 103.473 113 99.2875 112.997 95.2404ZM86.6367 59.5853H81.1419H76.7514C72.361 59.5853 67.9724 59.5853 63.5819 59.5853C62.649 59.5853 62.649 59.5853 62.649 58.7119V58.3935C62.6471 57.255 62.6452 56.1182 62.6509 54.9797C62.6528 54.2752 62.6833 54.2468 63.4506 54.2468C68.972 54.245 74.4953 54.245 80.0167 54.245H85.0792H88.9461H106.35C106.628 54.245 107.146 54.245 107.251 54.3428C107.355 54.4407 107.355 54.9263 107.355 55.1861V55.9866C107.355 56.9419 107.357 57.8971 107.353 58.8524C107.351 59.5569 107.321 59.5836 106.554 59.5836C99.9147 59.5853 93.2757 59.5853 86.6367 59.5853ZM59.4352 82.3111H62.2644C64.3683 82.3111 66.4721 82.3111 68.5759 82.3111C69.7964 82.3111 70.0801 82.1048 70.358 81.0143C72.0335 74.4323 78.2632 69.9743 85.4943 70.1646C92.2685 70.3461 98.0831 74.7827 99.6348 80.9556C99.928 82.1208 100.181 82.3111 101.434 82.3129C103.521 82.3129 105.607 82.3147 107.694 82.3129H110.571V105.857H59.4352V82.3111ZM83.9388 67.9499C76.4163 68.4213 70.0896 73.2742 68.1057 80.059H59.3952C59.4199 79.3759 59.4009 78.6928 59.3838 78.0275C59.3438 76.5012 59.3057 75.0585 59.7303 73.6211C60.1034 72.3616 60.8174 71.2284 61.8532 70.2554L62.3291 69.8071C63.2773 68.9158 64.2559 67.9926 65.2326 67.0995C66.2379 66.1798 66.7291 65.068 66.6911 63.7925C66.6777 63.298 66.6796 62.8052 66.6834 62.2822C66.6834 62.1577 66.6853 62.0296 66.6853 61.9033H103.311C103.311 62.0278 103.313 62.1506 103.313 62.2751C103.315 62.7981 103.319 63.3389 103.307 63.8672C103.283 65.0947 103.757 66.1656 104.718 67.0533C105.893 68.1367 107.028 69.1987 108.094 70.2109C109.754 71.7888 110.6 73.7029 110.607 75.8999C110.611 76.9281 110.609 77.9546 110.609 78.9988V80.0537H101.929C100.596 75.2488 97.3577 72.3776 94.8521 70.8068C91.5945 68.7575 87.6153 67.7186 83.9388 67.9499ZM110.581 108.187C110.581 111.379 107.86 114.59 104.358 115.451C103.582 115.643 102.713 115.741 101.777 115.741C91.6783 115.759 81.0162 115.762 68.2237 115.751C63.5915 115.748 60.151 112.999 59.4561 108.751C59.4276 108.575 59.4161 108.394 59.4047 108.187H110.581V108.187Z" fill="#0E7139"/>
<path d="M85.4155 93.4857C85.4223 93.4857 85.4308 93.4857 85.4376 93.4857C90.8313 93.4857 95.2393 89.0907 95.2666 83.6771C95.2938 78.2031 90.9216 73.7202 85.5195 73.6857C85.4973 73.6857 85.4769 73.6857 85.4564 73.6857C82.8644 73.6857 80.4243 74.7043 78.5792 76.5571C76.7001 78.4427 75.6667 80.9573 75.6667 83.6392C75.665 89.0562 80.0389 93.4737 85.4155 93.4857ZM85.441 75.8626C85.4513 75.8626 85.4615 75.8626 85.4717 75.8626C87.5419 75.8712 89.479 76.6881 90.9234 78.1635C92.354 79.6233 93.135 81.5588 93.1248 83.615C93.1009 87.8791 89.6564 91.3434 85.4428 91.3416C85.4376 91.3416 85.4308 91.3416 85.4257 91.3416C83.4016 91.3365 81.4917 90.5281 80.0491 89.0614C78.5929 87.5809 77.7931 85.6195 77.7999 83.5392C77.8067 81.4968 78.6116 79.5682 80.0696 78.1101C81.5207 76.6606 83.4272 75.8626 85.441 75.8626Z" fill="#0E7139"/>
<path d="M94.3721 95.4015C94.3721 95.4015 94.3695 95.4015 94.3669 95.4015C94.3102 95.4015 94.2536 95.4015 94.197 95.4015H94.0706H76.8426C76.811 95.4015 76.7781 95.3948 76.7439 95.3881C76.6148 95.3657 76.4397 95.3366 76.2975 95.5179L76.2475 95.5829C76.0249 95.8649 75.7484 96.2142 75.6839 96.7089C75.6405 97.0403 75.68 97.3671 75.7945 97.6335C75.9275 97.9425 76.1553 98.1417 76.4173 98.1798C76.5701 98.2022 76.7202 98.1999 76.8663 98.1999H76.9335C79.3734 98.1999 81.8132 98.1999 84.2531 98.1999H86.3125H90.6735C91.902 98.1999 93.1305 98.1977 94.359 98.1999C94.6552 98.1999 94.8975 98.0522 95.0568 97.7723C95.1569 97.5955 95.2754 97.2776 95.2662 96.7582C95.2543 95.9321 94.9028 95.4015 94.3721 95.4015Z" fill="#0E7139"/>
<path d="M94.3721 100.116C94.3721 100.116 94.3695 100.116 94.3669 100.116C94.3102 100.116 94.2536 100.116 94.197 100.116H94.0706H76.8426C76.811 100.116 76.7781 100.109 76.7439 100.102C76.6148 100.08 76.4397 100.051 76.2975 100.232L76.2475 100.297C76.0249 100.579 75.7484 100.928 75.6839 101.423C75.6405 101.755 75.68 102.081 75.7945 102.348C75.9275 102.657 76.1553 102.856 76.4173 102.894C76.5701 102.916 76.7202 102.914 76.8663 102.914H76.9335C79.3734 102.914 81.8132 102.914 84.2531 102.914H86.3125H90.6735C91.902 102.914 93.1305 102.912 94.359 102.914C94.6552 102.914 94.8975 102.766 95.0568 102.487C95.1569 102.31 95.2754 101.992 95.2662 101.472C95.2543 100.646 94.9028 100.116 94.3721 100.116Z" fill="#0E7139"/>
<path d="M138 85.5C138 115.047 114.047 139 84.5 139C54.9528 139 31 115.047 31 85.5C31 55.9528 54.9528 32 84.5 32C114.047 32 138 55.9528 138 85.5Z" stroke="#0E7139" stroke-width="4"/>
</svg>
