<svg width="108" height="100" viewBox="0 0 108 100" fill="none" xmlns="http://www.w3.org/2000/svg">
<path d="M25.1687 43.2008C23.4701 43.2008 21.7828 43.2036 20.0983 43.2008C18.3686 43.198 17.793 42.6357 17.7873 40.9435C17.7817 39.5309 17.7732 38.1184 17.7902 36.7058C17.8071 35.395 18.442 34.748 19.7399 34.7311C21.4667 34.7113 23.1936 34.7254 25.1603 34.7254C24.4125 34.1971 23.8228 33.8157 23.2669 33.3835C22.2399 32.5812 21.4724 31.5839 21.2213 30.2702C21.0237 29.239 21.3736 28.7983 22.4148 28.7983C30.0332 28.7898 37.6516 28.7927 45.2672 28.7983C46.3761 28.7983 46.8614 29.2927 46.4664 30.3041C46.0714 31.3211 45.4337 32.2845 44.7311 33.1292C44.2317 33.731 43.4501 34.1011 42.7052 34.6378C44.5561 34.6378 46.3451 34.6378 48.2384 34.6378C48.0183 32.1913 47.7982 29.7447 47.5781 27.3095C45.7948 26.4732 45.239 25.2415 45.7751 23.3176C45.84 23.0859 45.9416 22.7639 46.1165 22.6819C47.2734 22.148 46.8896 21.2439 46.7655 20.3597C46.0855 15.5428 47.3721 11.0565 49.1103 6.65501C49.2288 6.35555 49.6294 5.99393 49.9144 5.9798C50.1938 5.9685 50.507 6.34707 50.7778 6.58721C50.8935 6.68891 50.9443 6.86972 51.0431 7.05053C51.7485 5.06447 52.389 3.13773 53.1311 1.2562C53.323 0.770281 53.8393 0.414316 54.2061 -0.000976562C54.5504 0.397366 55.0329 0.74203 55.2135 1.20535C55.9527 3.10666 56.6017 5.04751 57.3015 7.0251C57.4087 6.83864 57.5131 6.63241 57.6372 6.44595C58.1141 5.73119 58.8872 5.71142 59.1976 6.4968C61.0429 11.1667 62.4086 15.9271 61.4859 21.0321C61.3787 21.631 61.3533 21.9982 61.9571 22.4361C63.0943 23.2554 62.6513 24.5748 62.5779 25.6879C62.5187 26.6145 61.7399 27.01 60.8031 27.1682C60.5745 29.6458 60.346 32.1263 60.1146 34.6717C61.9684 34.6717 63.7573 34.6717 65.7466 34.6717C65.2782 34.361 64.9255 34.1321 64.5784 33.8977C63.289 33.0247 62.2308 31.9709 61.8725 30.386C61.6186 29.2503 61.9741 28.804 63.1422 28.804C70.724 28.7983 78.3085 28.7983 85.8902 28.804C87.033 28.804 87.3829 29.2729 87.112 30.4228C86.7085 32.1263 85.5206 33.1998 84.1211 34.0954C83.884 34.248 83.6414 34.3892 83.3959 34.7339C83.8502 34.7339 84.3016 34.7339 84.7559 34.7339C86.0962 34.7339 87.4365 34.7113 88.7767 34.7452C89.8433 34.7706 90.5374 35.4063 90.5657 36.4403C90.6108 38.1353 90.6136 39.8304 90.5628 41.5255C90.5318 42.5849 89.8038 43.1923 88.6498 43.2064C86.8552 43.2262 85.0607 43.2121 83.1335 43.2121C83.4693 45.2377 83.7853 47.1672 84.1098 49.0996C84.7898 53.1339 85.4867 57.1654 86.1385 61.2024C86.2458 61.8692 86.4856 62.1799 87.1741 62.2506C90.5911 62.6009 93.898 63.4089 97.2868 64.8582C97.1062 64.2903 96.9849 63.8807 96.8466 63.4795C94.8828 57.7954 93.7485 51.9643 93.9939 45.9298C94.2535 39.6072 95.7462 33.6575 99.5892 28.4706C100.08 27.8067 100.396 26.9959 100.946 26.3941C101.356 25.9506 101.985 25.5522 102.566 25.459C103.528 25.3065 104.536 25.4053 105.523 25.4195C106.925 25.4392 107.597 26.1483 107.481 27.5581C107.126 31.9201 106.742 36.2792 106.37 40.6412C105.76 47.7803 105.122 54.9166 104.561 62.0585C104.33 65.0107 104.242 67.9743 104.138 70.935C104.101 72.0114 103.59 72.6414 102.532 72.9239C102.888 76.5231 103.238 80.0658 103.593 83.6085C104.039 88.0694 104.505 92.5246 104.939 96.9854C105.091 98.5506 104.138 99.7964 102.735 99.9716C101.401 100.138 100.182 99.1241 99.9053 97.5363C99.3212 94.166 98.771 90.7899 98.2095 87.4139C97.4109 82.6141 96.6124 77.8142 95.8054 72.9465C93.2998 72.9465 90.8111 72.9465 88.1729 72.9465C88.4212 74.4749 88.6554 75.9891 88.9094 77.4977C89.9872 83.8967 91.0679 90.2956 92.1571 96.6916C92.4308 98.2906 91.7366 99.5535 90.3428 99.9151C89.0476 100.251 87.6848 99.367 87.27 97.8188C86.8524 96.2537 86.5223 94.6632 86.1583 93.084C84.6572 86.5551 83.1617 80.0262 81.6606 73.5002C81.6211 73.3307 81.5534 73.1668 81.48 72.9408C77.4394 72.9408 73.4073 72.9408 69.2849 72.9408C68.7657 76.0315 68.2494 79.1194 67.733 82.2044C66.8865 87.284 66.0485 92.3635 65.1907 97.4403C64.9086 99.1043 63.7037 100.147 62.3352 99.9688C60.8172 99.771 59.9876 98.4658 60.1682 96.6662C60.9555 88.8717 61.7286 81.0744 62.5017 73.2798C62.5243 73.0425 62.5807 72.729 62.4622 72.5679C61.153 70.7655 62.0136 68.737 61.881 66.8188C61.8612 66.525 62.4763 66.0843 62.8826 65.8752C66.6834 63.9146 70.7465 62.8184 74.9705 62.2816C76.2572 62.1178 77.5523 62.0161 78.9688 61.872C77.7301 56.493 76.5083 51.1846 75.247 45.701C74.8971 46.0287 74.6178 46.2689 74.3639 46.5316C68.0434 53.035 61.7258 59.5413 55.4053 66.0475C54.2259 67.2595 54.1384 67.2623 52.9844 66.073C46.6893 59.5921 40.3942 53.1141 34.1048 46.6277C33.8368 46.3508 33.6251 46.0202 33.3881 45.7151C33.2894 45.749 33.1934 45.7858 33.0947 45.8197C31.8673 51.1365 30.6399 56.4562 29.3983 61.8353C31.2663 62.0613 33.0467 62.2251 34.8131 62.4992C38.5235 63.0727 42.0816 64.1519 45.4562 65.8328C46.2463 66.2283 46.647 66.7058 46.5793 67.6296C46.5031 68.6495 46.5652 69.6778 46.5595 70.7005C46.5567 70.983 46.6385 71.3446 46.4974 71.5339C45.2616 73.2036 46.0488 75.0088 46.204 76.718C46.805 83.3966 47.5245 90.0639 48.2045 96.734C48.3823 98.463 47.533 99.7569 46.0601 99.9716C44.6944 100.169 43.4557 99.1325 43.1792 97.477C41.8982 89.8605 40.6369 82.2411 39.3643 74.6218C39.2712 74.0709 39.1668 73.5228 39.0511 72.8787C37.155 72.8787 35.2956 72.8787 33.4333 72.8787C31.5654 72.8787 29.6946 72.9126 27.8267 72.8617C27.1044 72.8419 26.8024 73.0256 26.6331 73.7827C24.8471 81.6563 23.0215 89.5186 21.1846 97.381C21.052 97.9488 20.8121 98.5336 20.4735 99.0026C19.7794 99.9688 18.6903 100.226 17.6575 99.7908C16.5881 99.3388 15.9448 98.22 16.1423 97.0448C16.7857 93.1828 17.4544 89.3265 18.109 85.4674C18.8088 81.3314 19.5029 77.1955 20.2168 72.9634C17.6547 72.9634 15.1773 72.9634 12.573 72.9634C12.1977 75.2038 11.8139 77.4836 11.433 79.7663C10.4455 85.6793 9.46917 91.5951 8.46749 97.5081C8.19097 99.1495 6.9297 100.183 5.56121 99.9716C4.12218 99.7456 3.27005 98.4856 3.43934 96.8272C3.52964 95.9486 3.63122 95.0728 3.71869 94.1942C4.42127 87.1399 5.12104 80.0827 5.82927 72.9663C4.46078 72.582 4.27737 71.5961 4.20965 70.3502C3.89645 64.7141 3.52117 59.0808 3.08664 53.4531C2.60132 47.1898 2.02853 40.9322 1.4896 34.6746C1.30055 32.4597 1.11714 30.2419 0.908342 28.0299C0.724936 26.0805 1.29773 25.4195 3.2249 25.4166C4.10525 25.4138 5.00817 25.3065 5.86313 25.459C6.41616 25.5579 7.01153 25.9393 7.39527 26.3659C7.93985 26.9761 8.25869 27.7841 8.7553 28.4452C11.7152 32.3806 13.2558 36.8753 13.9753 41.6865C15.0927 49.1561 13.9358 56.3771 11.529 63.4541C11.3935 63.8496 11.2694 64.2479 11.1226 64.6971C12.9116 64.1519 14.613 63.5529 16.3596 63.1207C17.9284 62.7337 19.5367 62.5105 21.1366 62.2562C21.7066 62.1658 22.0931 62.0528 22.206 61.3635C23.1738 55.4844 24.1755 49.6082 25.1659 43.7319C25.1885 43.585 25.1687 43.4437 25.1687 43.2008ZM26.6049 36.46C35.8881 46.0202 45.0133 55.4194 54.1892 64.8666C63.3905 55.3912 72.51 45.9976 81.7706 36.46C63.3031 36.46 45.0866 36.46 26.6049 36.46ZM26.9661 43.2008C26.2184 47.6277 25.4904 51.9361 24.7624 56.2444C22.8211 67.72 20.8798 79.1928 18.9386 90.6685C18.5802 92.7901 18.1824 94.9062 17.8889 97.0363C17.8381 97.412 18.2162 97.8443 18.394 98.2511C18.7467 97.9742 19.1643 97.7482 19.4267 97.4007C19.6214 97.1436 19.6158 96.7312 19.6948 96.3893C21.2184 89.7955 22.7421 83.2017 24.263 76.6078C26.6811 66.1323 29.0964 55.6567 31.5089 45.1784C31.8193 43.8336 31.3142 43.2121 29.9203 43.2064C28.9751 43.198 28.027 43.2008 26.9661 43.2008ZM81.4038 43.2008C80.4501 43.2008 79.5754 43.2008 78.6979 43.2008C76.9372 43.2008 76.5252 43.7319 76.9202 45.4411C79.8548 58.1485 82.7808 70.8587 85.7125 83.5661C86.7508 88.0665 87.7722 92.5698 88.867 97.0532C88.9799 97.5137 89.595 98.2172 89.9195 98.1861C90.7067 98.1127 90.5572 97.3866 90.45 96.7623C89.4963 91.2024 88.5651 85.6369 87.6255 80.0743C85.5629 67.833 83.4975 55.5946 81.4038 43.2008ZM102.431 27.1202C101.325 40.1581 100.23 53.0718 99.1321 66.0249C100.354 66.0249 101.392 66.0249 102.51 66.0249C103.613 53.0294 104.713 40.0847 105.814 27.1202C104.626 27.1202 103.582 27.1202 102.431 27.1202ZM9.24062 66.0504C8.13454 53.0322 7.03692 40.1242 5.93649 27.188C4.72601 27.188 3.65943 27.188 2.55335 27.188C3.65943 40.1892 4.75987 53.1085 5.86313 66.0504C7.00024 66.0504 8.01321 66.0504 9.24062 66.0504ZM7.93702 30.7363C8.77787 40.6271 9.62154 50.515 10.4624 60.4058C13.9725 50.4105 13.4364 38.4235 7.93702 30.7363ZM97.9104 60.3719C98.7456 50.5207 99.5808 40.6666 100.416 30.8154C94.8602 38.5422 94.4426 50.741 97.9104 60.3719ZM55.5774 21.9785C57.5498 17.9555 56.6102 6.34425 54.0453 3.45697C51.9404 9.53381 50.5944 15.6106 52.6768 21.9785C53.7011 21.9785 54.6463 21.9785 55.5774 21.9785ZM49.2626 27.1371C49.5025 29.7221 49.7338 32.1969 49.9624 34.6548C52.8517 34.6548 55.6198 34.6548 58.4216 34.6548C58.6474 32.115 58.8675 29.643 59.0904 27.1371C55.7552 27.1371 52.5922 27.1371 49.2626 27.1371ZM23.1541 30.5103C23.7353 31.8071 24.833 32.7196 26.6727 33.4485C29.72 34.652 32.8915 34.9316 36.1251 34.6068C38.532 34.3666 40.8711 33.8609 42.8942 32.454C43.5714 31.985 44.1047 31.3098 44.7029 30.7307C44.6352 30.6572 44.5674 30.5838 44.4997 30.5103C37.4174 30.5103 30.3351 30.5103 23.1541 30.5103ZM63.8589 30.5414C63.7856 30.6431 63.7122 30.7448 63.636 30.8465C64.4261 31.5048 65.1512 32.2676 66.0203 32.7959C67.9531 33.9739 70.1342 34.4288 72.3605 34.6209C75.8875 34.926 79.3327 34.6209 82.5663 33.0388C83.6724 32.4964 84.6572 31.7929 85.292 30.5414C78.063 30.5414 70.961 30.5414 63.8589 30.5414ZM10.8433 72.9211C9.70619 72.9211 8.66783 72.9211 7.58996 72.9211C7.53353 73.2431 7.47146 73.5143 7.44324 73.7912C6.81119 80.0658 6.18479 86.3404 5.55839 92.615C5.40884 94.1236 5.20851 95.6266 5.14643 97.138C5.13232 97.5053 5.56968 97.8895 5.79823 98.268C6.11707 97.9912 6.52903 97.7652 6.72937 97.4205C6.92688 97.073 6.91559 96.604 6.98613 96.1888C7.87777 90.8408 8.76941 85.4928 9.65822 80.1449C10.0504 77.7548 10.4398 75.3676 10.8433 72.9211ZM40.8626 72.9182C40.8767 73.181 40.8711 73.39 40.9021 73.5934C41.8841 79.5092 42.866 85.4222 43.8536 91.338C44.1837 93.3213 44.4856 95.3101 44.906 97.2736C44.9879 97.655 45.5635 97.929 45.9105 98.2539C46.1193 97.8584 46.3507 97.4714 46.5257 97.0589C46.5849 96.9176 46.5003 96.7142 46.4805 96.5391C45.8682 90.4283 45.2587 84.3176 44.6436 78.2097C44.4659 76.4383 44.2712 74.667 44.0878 72.9182C42.9224 72.9182 41.9095 72.9182 40.8626 72.9182ZM64.3132 72.9126C64.254 73.212 64.1891 73.4494 64.1665 73.6923C63.5288 80.0375 62.8967 86.3828 62.2619 92.728C62.1152 94.1999 61.9176 95.6718 61.8612 97.1465C61.8471 97.5109 62.2873 97.8951 62.5187 98.2709C62.8347 97.9912 63.2466 97.7623 63.4441 97.4149C63.6417 97.0674 63.6304 96.5984 63.6981 96.1831C64.5897 90.8352 65.4814 85.4872 66.3702 80.1392C66.7652 77.7548 67.1546 75.3676 67.5581 72.9182C66.4407 72.9126 65.4277 72.9126 64.3132 72.9126ZM97.5887 72.9069C97.5887 73.1301 97.569 73.2742 97.5915 73.4098C98.881 81.1676 100.173 88.9254 101.474 96.6832C101.536 97.0617 101.604 97.4798 101.813 97.7765C101.979 98.0138 102.405 98.2624 102.642 98.2031C102.896 98.1409 103.116 97.7482 103.246 97.4544C103.334 97.251 103.249 96.9685 103.223 96.7227C102.6 90.4707 101.976 84.2215 101.347 77.9724C101.178 76.2943 100.992 74.6161 100.811 72.9069C99.7077 72.9069 98.6948 72.9069 97.5887 72.9069ZM28.0214 67.8274C27.7703 68.9348 27.5276 70.0055 27.2765 71.1101C33.2019 71.1101 38.9947 71.1101 44.8016 71.1101C44.8016 69.9801 44.8016 68.9122 44.8016 67.8274C39.1809 67.8274 33.6308 67.8274 28.0214 67.8274ZM63.5401 71.1186C69.426 71.1186 75.2188 71.1186 81.1047 71.1186C80.8367 69.9688 80.5827 68.8924 80.3344 67.8387C74.6771 67.8387 69.1297 67.8387 63.5401 67.8387C63.5401 68.9405 63.5401 69.9829 63.5401 71.1186ZM21.0745 67.8528C15.9476 67.8528 10.9731 67.8528 6.01831 67.8528C6.01831 68.9941 6.01831 70.0649 6.01831 71.1356C10.88 71.1356 15.6598 71.1356 20.5159 71.1356C20.6993 70.0507 20.8798 68.9857 21.0745 67.8528ZM102.391 67.8471C97.3178 67.8471 92.3433 67.8471 87.2954 67.8471C87.4901 68.9885 87.6707 70.0507 87.8513 71.113C92.7383 71.113 97.5436 71.113 102.391 71.113C102.391 70.0084 102.391 68.9659 102.391 67.8471ZM19.5763 36.4205C19.5763 38.1156 19.5763 39.7683 19.5763 41.404C22.7224 41.404 25.8092 41.404 28.8933 41.404C28.9977 41.2656 29.1049 41.13 29.2093 40.9915C27.7928 39.7231 26.3764 38.4574 24.9599 37.1889C24.8301 37.0731 24.7314 36.9036 24.5818 36.8245C24.2912 36.6663 23.9808 36.4487 23.6733 36.4403C22.3414 36.3979 21.0068 36.4205 19.5763 36.4205ZM88.8304 36.4374C88.3507 36.4374 87.9585 36.4968 87.5888 36.429C85.0945 35.9769 83.2125 36.8527 81.7368 38.8925C81.0822 39.7965 80.199 40.5367 79.3271 41.4464C82.6199 41.4464 85.6983 41.4464 88.8332 41.4464C88.8304 39.7824 88.8304 38.1777 88.8304 36.4374ZM60.9131 23.7724C56.359 23.7724 51.9319 23.7724 47.4653 23.7724C47.4653 24.3148 47.4653 24.7923 47.4653 25.3375C51.9686 25.3375 56.4239 25.3375 60.9131 25.3375C60.9131 24.8036 60.9131 24.3261 60.9131 23.7724ZM41.4524 66.0532C39.4208 65.0107 34.5055 63.9456 31.0208 63.7309C28.8594 63.5982 28.8566 63.5982 28.5265 65.7396C28.5124 65.83 28.5462 65.9289 28.5603 66.0532C32.8012 66.0532 37.0196 66.0532 41.4524 66.0532ZM79.9112 66.0532C79.7899 65.4966 79.6375 65.0531 79.6093 64.6039C79.55 63.714 79.1268 63.5106 78.2916 63.649C75.7267 64.0671 73.1449 64.3751 70.5885 64.8327C69.3921 65.0474 68.2381 65.5051 67.0643 65.8498C67.0869 65.9176 67.1066 65.9854 67.1292 66.0532C71.3475 66.0532 75.5659 66.0532 79.9112 66.0532ZM57.767 21.9361C59.5164 22.2214 59.6208 22.1282 59.9115 20.2156C60.4476 16.6672 59.7252 13.2799 58.653 9.93497C58.6107 9.79937 58.5006 9.68919 58.4216 9.56488C58.1451 10.1836 58.0633 10.7599 58.0972 11.3306C58.1677 12.5595 58.4386 13.7913 58.3793 15.0117C58.2636 17.3198 57.9815 19.6195 57.767 21.9361ZM50.9048 22.0124C49.7677 18.2352 49.7536 14.5343 50.3349 10.7995C50.3969 10.4096 50.1627 9.97453 50.064 9.55923C49.5307 10.5367 49.2062 11.4916 48.9805 12.4691C48.3117 15.3366 47.9619 18.2182 48.6249 21.1535C48.7858 21.8683 49.0877 22.0943 49.7592 22.018C50.0978 21.9813 50.4449 22.0124 50.9048 22.0124ZM86.985 66.0136C89.8631 66.0136 92.5944 66.0136 95.3286 66.0136C92.569 64.8271 89.7107 64.1519 86.6408 63.8948C86.7734 64.7028 86.8778 65.3526 86.985 66.0136ZM21.7376 63.8835C18.6169 64.1971 15.7529 64.813 13.0329 66.0447C15.7953 66.0447 18.5548 66.0447 21.3736 66.0447C21.4865 65.3667 21.5965 64.7169 21.7376 63.8835Z" fill="#0E7139"/>
</svg>
