<svg width="18" height="18" viewBox="0 0 18 18" fill="none" xmlns="http://www.w3.org/2000/svg">
<mask id="path-1-outside-1_2398_10769" maskUnits="userSpaceOnUse" x="0" y="-0.645996" width="18" height="18" fill="black">
<rect fill="white" y="-0.645996" width="18" height="18"/>
<path d="M17 8.56042C17 4.03555 13.4111 0.354004 9 0.354004C4.58894 0.354004 1 4.03555 1 8.56042C1 10.9504 2.00189 13.1047 3.59665 14.6057L3.58909 14.6126L3.84858 14.837C3.86545 14.8516 3.88378 14.8635 3.90065 14.8779C4.03855 14.9951 4.18138 15.1064 4.32684 15.2142C4.37396 15.2491 4.42109 15.284 4.46909 15.318C4.62444 15.4278 4.78385 15.532 4.94676 15.6308C4.98225 15.6522 5.01804 15.6731 5.05382 15.694C5.23215 15.7982 5.41425 15.8963 5.60073 15.9865C5.6144 15.993 5.62836 15.999 5.64204 16.0056C6.24975 16.2953 6.89847 16.5081 7.57687 16.6337C7.59462 16.637 7.61236 16.6403 7.6304 16.6436C7.84102 16.6809 8.05396 16.7107 8.26953 16.7307C8.29571 16.7331 8.32189 16.7346 8.34836 16.737C8.56306 16.7552 8.78007 16.7668 9 16.7668C9.21789 16.7668 9.43287 16.7552 9.6464 16.7376C9.67346 16.7352 9.70051 16.7337 9.72756 16.7313C9.94138 16.7113 10.1526 16.6824 10.3612 16.6457C10.3792 16.6424 10.3975 16.6391 10.4156 16.6355C11.0838 16.5126 11.7232 16.3046 12.3231 16.0223C12.3452 16.0118 12.3676 16.002 12.3897 15.9912C12.5692 15.9047 12.7446 15.8113 12.9165 15.7119C12.9593 15.6872 13.0017 15.6621 13.0442 15.6364C13.2007 15.5418 13.3546 15.4431 13.5041 15.338C13.558 15.3004 13.6106 15.2607 13.6639 15.2213C13.7916 15.127 13.9169 15.0298 14.0388 14.928C14.0659 14.9056 14.095 14.8862 14.1215 14.8632L14.3876 14.6352L14.3798 14.6284C15.9885 13.1268 17 10.9627 17 8.56042ZM1.58182 8.56042C1.58182 4.3644 4.90953 0.950834 9 0.950834C13.0905 0.950834 16.4182 4.3644 16.4182 8.56042C16.4182 10.8215 15.4509 12.8543 13.9196 14.2491C13.834 14.1885 13.7479 14.1342 13.6598 14.0889L11.1967 12.8257C10.9756 12.7123 10.8383 12.4843 10.8383 12.2309V11.3485C10.8953 11.2763 10.9555 11.1945 11.0177 11.1047C11.3366 10.6428 11.5923 10.1289 11.7788 9.57592C12.1473 9.39628 12.3853 9.01968 12.3853 8.59443V7.53655C12.3853 7.27783 12.2928 7.02686 12.1273 6.82961V5.43691C12.1424 5.28203 12.1959 4.40797 11.5795 3.687C11.0433 3.05914 10.1756 2.74132 9 2.74132C7.82444 2.74132 6.95665 3.05914 6.42051 3.6867C5.80407 4.40767 5.8576 5.28173 5.87273 5.43661V6.82931C5.70749 7.02656 5.61469 7.27753 5.61469 7.53626V8.59414C5.61469 8.92269 5.7584 9.22916 6.00451 9.43596C6.24015 10.3828 6.72509 11.0996 6.90429 11.3425V12.2062C6.90429 12.4497 6.77484 12.6735 6.56626 12.7904L4.26604 14.0775C4.19273 14.1184 4.12 14.1661 4.04727 14.2196C2.53484 12.8254 1.58182 10.8051 1.58182 8.56042ZM13.3517 14.7173C13.2499 14.7931 13.1463 14.8665 13.0413 14.9366C12.993 14.9689 12.945 15.0011 12.8959 15.0324C12.7585 15.1196 12.6189 15.2025 12.4764 15.2801C12.4449 15.2971 12.4132 15.3132 12.3815 15.33C12.054 15.5021 11.7151 15.6502 11.3668 15.7704C11.3546 15.7746 11.3424 15.7791 11.3299 15.7833C11.1475 15.8453 10.9628 15.9005 10.776 15.948L10.7743 15.9483C10.5857 15.996 10.3949 16.0357 10.2029 16.0682C10.1977 16.0691 10.1924 16.0703 10.1872 16.0712C10.0065 16.1014 9.82444 16.1231 9.64175 16.1396C9.60945 16.1425 9.57716 16.1446 9.54458 16.147C9.36393 16.161 9.1824 16.17 9 16.17C8.81556 16.17 8.63171 16.1607 8.44873 16.1467C8.41702 16.1443 8.38531 16.1422 8.35389 16.1393C8.16945 16.1225 7.98589 16.1002 7.80407 16.0697C7.79593 16.0682 7.78778 16.0667 7.77964 16.0653C7.39505 15.9993 7.01658 15.9023 6.648 15.7755C6.63665 15.7716 6.62502 15.7674 6.61367 15.7636C6.43069 15.6997 6.24975 15.629 6.072 15.5508C6.07084 15.5502 6.06938 15.5496 6.06822 15.549C5.90007 15.4747 5.73513 15.3923 5.57222 15.3055C5.55098 15.2941 5.52945 15.2834 5.50851 15.2718C5.35985 15.1903 5.2144 15.1023 5.07098 15.0104C5.02851 14.9829 4.98633 14.9551 4.94444 14.9271C4.81236 14.8385 4.68204 14.7463 4.5552 14.6487C4.54211 14.6385 4.5296 14.6278 4.51651 14.6176C4.52582 14.6123 4.53513 14.6069 4.54444 14.6015L6.84465 13.3145C7.24029 13.093 7.48611 12.6684 7.48611 12.2062L7.48582 11.1313L7.41891 11.0483C7.41251 11.0408 6.78356 10.256 6.54589 9.19335L6.51942 9.07518L6.42022 9.00923C6.28029 8.91642 6.19651 8.76125 6.19651 8.59384V7.53596C6.19651 7.39719 6.25382 7.26798 6.35855 7.171L6.45455 7.08207V5.4199L6.45193 5.3808C6.45105 5.37364 6.36524 4.65595 6.85804 4.07971C7.27869 3.58793 7.99956 3.33815 9 3.33815C9.99665 3.33815 10.7152 3.58584 11.137 4.07404C11.6292 4.64432 11.5487 5.37543 11.5481 5.3814L11.5455 7.08266L11.6415 7.17159C11.7459 7.26828 11.8035 7.39779 11.8035 7.53655V8.59443C11.8035 8.8072 11.6624 9.00028 11.4599 9.06444L11.3153 9.1101L11.2688 9.25781C11.0972 9.80481 10.8528 10.31 10.5427 10.7594C10.4665 10.8698 10.3923 10.9677 10.3286 11.0426L10.2564 11.1271V12.2309C10.2564 12.712 10.5171 13.1447 10.9366 13.3595L13.3997 14.6227C13.4154 14.6308 13.4308 14.6391 13.4463 14.6475C13.4151 14.6717 13.3831 14.694 13.3517 14.7173Z"/>
</mask>
<path d="M17 8.56042C17 4.03555 13.4111 0.354004 9 0.354004C4.58894 0.354004 1 4.03555 1 8.56042C1 10.9504 2.00189 13.1047 3.59665 14.6057L3.58909 14.6126L3.84858 14.837C3.86545 14.8516 3.88378 14.8635 3.90065 14.8779C4.03855 14.9951 4.18138 15.1064 4.32684 15.2142C4.37396 15.2491 4.42109 15.284 4.46909 15.318C4.62444 15.4278 4.78385 15.532 4.94676 15.6308C4.98225 15.6522 5.01804 15.6731 5.05382 15.694C5.23215 15.7982 5.41425 15.8963 5.60073 15.9865C5.6144 15.993 5.62836 15.999 5.64204 16.0056C6.24975 16.2953 6.89847 16.5081 7.57687 16.6337C7.59462 16.637 7.61236 16.6403 7.6304 16.6436C7.84102 16.6809 8.05396 16.7107 8.26953 16.7307C8.29571 16.7331 8.32189 16.7346 8.34836 16.737C8.56306 16.7552 8.78007 16.7668 9 16.7668C9.21789 16.7668 9.43287 16.7552 9.6464 16.7376C9.67346 16.7352 9.70051 16.7337 9.72756 16.7313C9.94138 16.7113 10.1526 16.6824 10.3612 16.6457C10.3792 16.6424 10.3975 16.6391 10.4156 16.6355C11.0838 16.5126 11.7232 16.3046 12.3231 16.0223C12.3452 16.0118 12.3676 16.002 12.3897 15.9912C12.5692 15.9047 12.7446 15.8113 12.9165 15.7119C12.9593 15.6872 13.0017 15.6621 13.0442 15.6364C13.2007 15.5418 13.3546 15.4431 13.5041 15.338C13.558 15.3004 13.6106 15.2607 13.6639 15.2213C13.7916 15.127 13.9169 15.0298 14.0388 14.928C14.0659 14.9056 14.095 14.8862 14.1215 14.8632L14.3876 14.6352L14.3798 14.6284C15.9885 13.1268 17 10.9627 17 8.56042ZM1.58182 8.56042C1.58182 4.3644 4.90953 0.950834 9 0.950834C13.0905 0.950834 16.4182 4.3644 16.4182 8.56042C16.4182 10.8215 15.4509 12.8543 13.9196 14.2491C13.834 14.1885 13.7479 14.1342 13.6598 14.0889L11.1967 12.8257C10.9756 12.7123 10.8383 12.4843 10.8383 12.2309V11.3485C10.8953 11.2763 10.9555 11.1945 11.0177 11.1047C11.3366 10.6428 11.5923 10.1289 11.7788 9.57592C12.1473 9.39628 12.3853 9.01968 12.3853 8.59443V7.53655C12.3853 7.27783 12.2928 7.02686 12.1273 6.82961V5.43691C12.1424 5.28203 12.1959 4.40797 11.5795 3.687C11.0433 3.05914 10.1756 2.74132 9 2.74132C7.82444 2.74132 6.95665 3.05914 6.42051 3.6867C5.80407 4.40767 5.8576 5.28173 5.87273 5.43661V6.82931C5.70749 7.02656 5.61469 7.27753 5.61469 7.53626V8.59414C5.61469 8.92269 5.7584 9.22916 6.00451 9.43596C6.24015 10.3828 6.72509 11.0996 6.90429 11.3425V12.2062C6.90429 12.4497 6.77484 12.6735 6.56626 12.7904L4.26604 14.0775C4.19273 14.1184 4.12 14.1661 4.04727 14.2196C2.53484 12.8254 1.58182 10.8051 1.58182 8.56042ZM13.3517 14.7173C13.2499 14.7931 13.1463 14.8665 13.0413 14.9366C12.993 14.9689 12.945 15.0011 12.8959 15.0324C12.7585 15.1196 12.6189 15.2025 12.4764 15.2801C12.4449 15.2971 12.4132 15.3132 12.3815 15.33C12.054 15.5021 11.7151 15.6502 11.3668 15.7704C11.3546 15.7746 11.3424 15.7791 11.3299 15.7833C11.1475 15.8453 10.9628 15.9005 10.776 15.948L10.7743 15.9483C10.5857 15.996 10.3949 16.0357 10.2029 16.0682C10.1977 16.0691 10.1924 16.0703 10.1872 16.0712C10.0065 16.1014 9.82444 16.1231 9.64175 16.1396C9.60945 16.1425 9.57716 16.1446 9.54458 16.147C9.36393 16.161 9.1824 16.17 9 16.17C8.81556 16.17 8.63171 16.1607 8.44873 16.1467C8.41702 16.1443 8.38531 16.1422 8.35389 16.1393C8.16945 16.1225 7.98589 16.1002 7.80407 16.0697C7.79593 16.0682 7.78778 16.0667 7.77964 16.0653C7.39505 15.9993 7.01658 15.9023 6.648 15.7755C6.63665 15.7716 6.62502 15.7674 6.61367 15.7636C6.43069 15.6997 6.24975 15.629 6.072 15.5508C6.07084 15.5502 6.06938 15.5496 6.06822 15.549C5.90007 15.4747 5.73513 15.3923 5.57222 15.3055C5.55098 15.2941 5.52945 15.2834 5.50851 15.2718C5.35985 15.1903 5.2144 15.1023 5.07098 15.0104C5.02851 14.9829 4.98633 14.9551 4.94444 14.9271C4.81236 14.8385 4.68204 14.7463 4.5552 14.6487C4.54211 14.6385 4.5296 14.6278 4.51651 14.6176C4.52582 14.6123 4.53513 14.6069 4.54444 14.6015L6.84465 13.3145C7.24029 13.093 7.48611 12.6684 7.48611 12.2062L7.48582 11.1313L7.41891 11.0483C7.41251 11.0408 6.78356 10.256 6.54589 9.19335L6.51942 9.07518L6.42022 9.00923C6.28029 8.91642 6.19651 8.76125 6.19651 8.59384V7.53596C6.19651 7.39719 6.25382 7.26798 6.35855 7.171L6.45455 7.08207V5.4199L6.45193 5.3808C6.45105 5.37364 6.36524 4.65595 6.85804 4.07971C7.27869 3.58793 7.99956 3.33815 9 3.33815C9.99665 3.33815 10.7152 3.58584 11.137 4.07404C11.6292 4.64432 11.5487 5.37543 11.5481 5.3814L11.5455 7.08266L11.6415 7.17159C11.7459 7.26828 11.8035 7.39779 11.8035 7.53655V8.59443C11.8035 8.8072 11.6624 9.00028 11.4599 9.06444L11.3153 9.1101L11.2688 9.25781C11.0972 9.80481 10.8528 10.31 10.5427 10.7594C10.4665 10.8698 10.3923 10.9677 10.3286 11.0426L10.2564 11.1271V12.2309C10.2564 12.712 10.5171 13.1447 10.9366 13.3595L13.3997 14.6227C13.4154 14.6308 13.4308 14.6391 13.4463 14.6475C13.4151 14.6717 13.3831 14.694 13.3517 14.7173Z" fill="white"/>
<path d="M17 8.56042C17 4.03555 13.4111 0.354004 9 0.354004C4.58894 0.354004 1 4.03555 1 8.56042C1 10.9504 2.00189 13.1047 3.59665 14.6057L3.58909 14.6126L3.84858 14.837C3.86545 14.8516 3.88378 14.8635 3.90065 14.8779C4.03855 14.9951 4.18138 15.1064 4.32684 15.2142C4.37396 15.2491 4.42109 15.284 4.46909 15.318C4.62444 15.4278 4.78385 15.532 4.94676 15.6308C4.98225 15.6522 5.01804 15.6731 5.05382 15.694C5.23215 15.7982 5.41425 15.8963 5.60073 15.9865C5.6144 15.993 5.62836 15.999 5.64204 16.0056C6.24975 16.2953 6.89847 16.5081 7.57687 16.6337C7.59462 16.637 7.61236 16.6403 7.6304 16.6436C7.84102 16.6809 8.05396 16.7107 8.26953 16.7307C8.29571 16.7331 8.32189 16.7346 8.34836 16.737C8.56306 16.7552 8.78007 16.7668 9 16.7668C9.21789 16.7668 9.43287 16.7552 9.6464 16.7376C9.67346 16.7352 9.70051 16.7337 9.72756 16.7313C9.94138 16.7113 10.1526 16.6824 10.3612 16.6457C10.3792 16.6424 10.3975 16.6391 10.4156 16.6355C11.0838 16.5126 11.7232 16.3046 12.3231 16.0223C12.3452 16.0118 12.3676 16.002 12.3897 15.9912C12.5692 15.9047 12.7446 15.8113 12.9165 15.7119C12.9593 15.6872 13.0017 15.6621 13.0442 15.6364C13.2007 15.5418 13.3546 15.4431 13.5041 15.338C13.558 15.3004 13.6106 15.2607 13.6639 15.2213C13.7916 15.127 13.9169 15.0298 14.0388 14.928C14.0659 14.9056 14.095 14.8862 14.1215 14.8632L14.3876 14.6352L14.3798 14.6284C15.9885 13.1268 17 10.9627 17 8.56042ZM1.58182 8.56042C1.58182 4.3644 4.90953 0.950834 9 0.950834C13.0905 0.950834 16.4182 4.3644 16.4182 8.56042C16.4182 10.8215 15.4509 12.8543 13.9196 14.2491C13.834 14.1885 13.7479 14.1342 13.6598 14.0889L11.1967 12.8257C10.9756 12.7123 10.8383 12.4843 10.8383 12.2309V11.3485C10.8953 11.2763 10.9555 11.1945 11.0177 11.1047C11.3366 10.6428 11.5923 10.1289 11.7788 9.57592C12.1473 9.39628 12.3853 9.01968 12.3853 8.59443V7.53655C12.3853 7.27783 12.2928 7.02686 12.1273 6.82961V5.43691C12.1424 5.28203 12.1959 4.40797 11.5795 3.687C11.0433 3.05914 10.1756 2.74132 9 2.74132C7.82444 2.74132 6.95665 3.05914 6.42051 3.6867C5.80407 4.40767 5.8576 5.28173 5.87273 5.43661V6.82931C5.70749 7.02656 5.61469 7.27753 5.61469 7.53626V8.59414C5.61469 8.92269 5.7584 9.22916 6.00451 9.43596C6.24015 10.3828 6.72509 11.0996 6.90429 11.3425V12.2062C6.90429 12.4497 6.77484 12.6735 6.56626 12.7904L4.26604 14.0775C4.19273 14.1184 4.12 14.1661 4.04727 14.2196C2.53484 12.8254 1.58182 10.8051 1.58182 8.56042ZM13.3517 14.7173C13.2499 14.7931 13.1463 14.8665 13.0413 14.9366C12.993 14.9689 12.945 15.0011 12.8959 15.0324C12.7585 15.1196 12.6189 15.2025 12.4764 15.2801C12.4449 15.2971 12.4132 15.3132 12.3815 15.33C12.054 15.5021 11.7151 15.6502 11.3668 15.7704C11.3546 15.7746 11.3424 15.7791 11.3299 15.7833C11.1475 15.8453 10.9628 15.9005 10.776 15.948L10.7743 15.9483C10.5857 15.996 10.3949 16.0357 10.2029 16.0682C10.1977 16.0691 10.1924 16.0703 10.1872 16.0712C10.0065 16.1014 9.82444 16.1231 9.64175 16.1396C9.60945 16.1425 9.57716 16.1446 9.54458 16.147C9.36393 16.161 9.1824 16.17 9 16.17C8.81556 16.17 8.63171 16.1607 8.44873 16.1467C8.41702 16.1443 8.38531 16.1422 8.35389 16.1393C8.16945 16.1225 7.98589 16.1002 7.80407 16.0697C7.79593 16.0682 7.78778 16.0667 7.77964 16.0653C7.39505 15.9993 7.01658 15.9023 6.648 15.7755C6.63665 15.7716 6.62502 15.7674 6.61367 15.7636C6.43069 15.6997 6.24975 15.629 6.072 15.5508C6.07084 15.5502 6.06938 15.5496 6.06822 15.549C5.90007 15.4747 5.73513 15.3923 5.57222 15.3055C5.55098 15.2941 5.52945 15.2834 5.50851 15.2718C5.35985 15.1903 5.2144 15.1023 5.07098 15.0104C5.02851 14.9829 4.98633 14.9551 4.94444 14.9271C4.81236 14.8385 4.68204 14.7463 4.5552 14.6487C4.54211 14.6385 4.5296 14.6278 4.51651 14.6176C4.52582 14.6123 4.53513 14.6069 4.54444 14.6015L6.84465 13.3145C7.24029 13.093 7.48611 12.6684 7.48611 12.2062L7.48582 11.1313L7.41891 11.0483C7.41251 11.0408 6.78356 10.256 6.54589 9.19335L6.51942 9.07518L6.42022 9.00923C6.28029 8.91642 6.19651 8.76125 6.19651 8.59384V7.53596C6.19651 7.39719 6.25382 7.26798 6.35855 7.171L6.45455 7.08207V5.4199L6.45193 5.3808C6.45105 5.37364 6.36524 4.65595 6.85804 4.07971C7.27869 3.58793 7.99956 3.33815 9 3.33815C9.99665 3.33815 10.7152 3.58584 11.137 4.07404C11.6292 4.64432 11.5487 5.37543 11.5481 5.3814L11.5455 7.08266L11.6415 7.17159C11.7459 7.26828 11.8035 7.39779 11.8035 7.53655V8.59443C11.8035 8.8072 11.6624 9.00028 11.4599 9.06444L11.3153 9.1101L11.2688 9.25781C11.0972 9.80481 10.8528 10.31 10.5427 10.7594C10.4665 10.8698 10.3923 10.9677 10.3286 11.0426L10.2564 11.1271V12.2309C10.2564 12.712 10.5171 13.1447 10.9366 13.3595L13.3997 14.6227C13.4154 14.6308 13.4308 14.6391 13.4463 14.6475C13.4151 14.6717 13.3831 14.694 13.3517 14.7173Z" stroke="white" stroke-width="0.6" mask="url(#path-1-outside-1_2398_10769)"/>
</svg>
