<svg width="111" height="111" viewBox="0 0 111 111" fill="none" xmlns="http://www.w3.org/2000/svg">
<path d="M51.0441 79.5298C51.2645 78.8372 51.4752 78.1408 51.7034 77.4502C53.7069 71.4104 55.6929 65.3668 57.7393 59.3407C58.0066 58.5526 57.829 58.1838 57.1833 57.7683C50.8529 53.695 48.0827 45.1953 51.1475 37.9167C53.3402 32.7061 57.0663 28.8903 61.639 25.7982C65.2909 23.3285 69.257 21.4752 73.4454 20.0979C74.0345 19.9048 74.4403 19.9048 74.8402 20.49C78.381 25.6616 81.1297 31.1883 82.3099 37.392C83.2229 42.191 83.0942 46.9608 80.8527 51.393C77.6806 57.6649 72.3744 60.5795 65.4158 60.4897C64.4189 60.4761 64.0639 60.7921 63.7849 61.6427C60.9133 70.4038 58.0163 79.1591 55.1174 87.9125C54.5497 89.6292 54.8852 89.3171 53.1256 89.3385C51.5006 89.358 49.8736 89.3034 48.2505 89.36C47.5326 89.3854 47.2419 89.12 47.0176 88.4646C44.5966 81.4006 42.1424 74.3464 39.7 67.2903C36.409 57.7781 33.1218 48.2639 29.8366 38.7478C28.395 34.573 26.9631 30.3963 25.5292 26.2196C25.4668 26.0401 25.4375 25.8489 25.3575 25.5212C27.3571 24.8306 29.3333 24.1478 31.4207 23.426C37.9033 42.189 44.3547 60.8584 50.8061 79.5298C50.886 79.5298 50.966 79.5298 51.0441 79.5298ZM66.3814 54.0149C66.9491 53.972 67.3373 53.9759 67.7119 53.9076C72.1227 53.1098 74.8207 50.4469 75.8508 46.157C77.4446 39.5164 75.3045 33.6015 72.0583 27.95C71.9511 27.7627 71.4204 27.6359 71.1922 27.7315C65.8723 29.9632 61.2235 33.067 58.2231 38.1625C56.2742 41.4731 55.6753 44.9514 57.4155 48.5741C58.0397 49.8733 58.9156 50.9677 60.1895 51.9412C61.2898 48.658 62.3452 45.5035 63.4201 42.2944C65.4919 42.9811 67.4778 43.6404 69.5652 44.331C68.5 47.5714 67.4681 50.7063 66.3814 54.0149Z" fill="#0E7139"/>
<path d="M109 55.5C109 85.0472 85.0472 109 55.5 109C25.9528 109 2 85.0472 2 55.5C2 25.9528 25.9528 2 55.5 2C85.0472 2 109 25.9528 109 55.5Z" stroke="#0E7139" stroke-width="4"/>
</svg>
